<svg width="1081" height="1069" viewBox="0 0 1081 1069" fill="none" xmlns="http://www.w3.org/2000/svg">
<path d="M312.609 761.215C442.661 881.842 645.877 874.202 766.504 744.15C887.131 614.098 879.491 410.883 749.439 290.256C619.387 169.628 416.171 177.269 295.544 307.321C174.917 437.372 182.557 640.588 312.609 761.215Z" fill="#F7931E"/>
<path d="M312.609 761.215C442.661 881.842 645.877 874.202 766.504 744.15C887.131 614.098 879.491 410.883 749.439 290.256C619.387 169.628 416.171 177.269 295.544 307.321C174.917 437.372 182.557 640.588 312.609 761.215Z" fill="url(#paint0_radial_297_463)"/>
<path d="M313.186 761.193C443.238 881.82 646.454 874.179 767.081 744.128C887.708 614.076 880.068 410.86 750.016 290.233C619.964 169.606 416.749 177.246 296.121 307.298C175.494 437.35 183.135 640.565 313.186 761.193Z" fill="url(#paint1_linear_297_463)"/>
<path d="M800.321 438.177C845.438 609.725 742.947 785.37 571.399 830.487C534.503 840.195 497.414 843.06 461.482 839.889C510.17 850.895 562.147 850.69 613.755 837.117C785.304 792 887.794 616.355 842.677 444.806C807.262 310.159 691.428 218.054 560.283 206.482C673.425 232.06 768.771 318.242 800.321 438.177Z" fill="#EFA56B"/>
<mask id="mask0_297_463" style="mask-type:luminance" maskUnits="userSpaceOnUse" x="210" y="204" width="643" height="643">
<path d="M313.187 761.192C443.239 881.819 646.455 874.178 767.082 744.127C887.709 614.075 880.069 410.859 750.017 290.232C619.965 169.605 416.749 177.245 296.122 307.297C175.495 437.349 183.135 640.564 313.187 761.192Z" fill="white"/>
</mask>
<g mask="url(#mask0_297_463)">
<g opacity="0.55">
<mask id="mask1_297_463" style="mask-type:luminance" maskUnits="userSpaceOnUse" x="61" y="105" width="833" height="820">
<path d="M230.576 781.668C415.3 953.004 675.791 972.505 812.399 825.223C949.007 677.941 910.002 419.65 725.279 248.313C540.555 76.9768 280.065 57.4764 143.456 204.758C6.8481 352.04 45.853 610.331 230.576 781.668Z" fill="white"/>
</mask>
<g mask="url(#mask1_297_463)">
<path d="M-146.315 -112.453C-75.5699 -151.568 110.302 -85.3731 479.171 48.6015C479.171 48.6015 673.707 102.809 818.349 274.872C821.028 278.06 823.819 281.62 824.139 285.343C824.677 291.657 818.101 294.609 812.24 295.981C747.514 311.159 671.689 283.385 601.17 256.159C480.645 209.626 360.12 163.093 239.594 116.548C218.307 108.333 196.401 99.9789 175.26 99.6446C154.118 99.3104 133.651 108.887 128.965 128.09C124.213 147.556 136.581 171.103 152.314 189.156C209.729 255.045 300.586 268.49 380.487 283.448C579.136 320.634 775.975 403.619 969.329 489.99C977.927 493.836 987.418 498.476 991.99 506.723C998.101 517.726 992.223 528.949 985.067 536.363C949.455 573.254 884.92 574.291 826.538 556.301C768.156 538.311 713.123 504.208 657.189 475.119C586.84 438.529 514.158 409.508 441.682 380.577C378.777 355.468 315.771 330.321 252.068 310.354C181.042 288.092 96.5914 275.633 57.6234 324.468C52.3978 331.017 48.1619 338.784 48.0196 347.938C47.5403 378.465 87.4796 400.744 119.094 412.121C245.497 457.61 372.971 499.684 500.709 524.748C576.134 539.549 651.485 548.389 726.879 567.627C802.274 586.865 879.095 617.549 943.345 669.498C907.641 711.193 834.221 699.958 771.571 682.743C548.162 621.352 322.614 516.18 103.453 511.745C59.2168 510.849 13.582 514.962 -16.8963 540.265C-21.8149 544.353 -26.4516 549.315 -27.1631 556.111C-28.9733 573.417 -6.65852 588.177 11.4664 595.914C133.71 648.115 260.198 671.807 385.297 699.246C561.331 737.855 737.235 784.703 913.051 831.526C917.479 832.708 922.297 834.119 925.576 837.696C933.655 846.518 924.826 857.168 915.678 860.905C885.288 873.31 848.273 871.21 812.439 868.944C763.702 865.849 714.964 862.742 666.22 859.63C550.688 852.26 434.579 844.801 317.553 819.572C200.527 794.343 81.5506 750.352 -22.904 676.939C-71.5777 642.73 -116.371 602.689 -160.199 562.004C-198.267 526.662 -236.478 489.825 -262.69 446.26C-309.202 368.965 -310.701 297.998 -311.889 237.587C-313.699 146.018 -290.166 81.203 -277.981 52.471C-267.274 27.234 -226.953 -67.8585 -146.321 -112.447L-146.315 -112.453Z" fill="url(#paint2_linear_297_463)"/>
</g>
</g>
</g>
<path d="M317.033 285.958C298.566 280.983 266.143 274.872 227.128 281.81C210.367 284.791 167.951 292.101 138.319 322.207C96.6904 364.501 100.564 427.793 102.157 453.848C111.365 604.355 291.634 775.478 499.332 837.865C544.332 851.378 745.638 911.776 878.672 809.127C897.961 794.239 941.368 759.209 951.639 701.58C963.799 633.348 924.892 558.61 852.804 506.11C853.527 518.254 853.653 532.077 852.613 547.229C851.578 562.374 849.562 576.04 847.196 587.964C851.624 596.848 857.441 612.031 855.143 629.934C851.122 661.272 824.877 680.278 812.217 689.451C771.373 719.035 675.562 741.687 553.57 709.598C363.051 659.483 267.843 517.692 241.188 455.569C232.158 434.525 212.871 389.582 233.597 361.473C243.239 348.395 258.327 343.294 268.151 341.066C274.004 333.023 280.612 324.61 288.053 315.998C297.936 304.562 307.74 294.593 317.033 285.958Z" fill="url(#paint3_radial_297_463)"/>
<rect x="746.958" y="214.009" width="85.431" height="69.3769" transform="rotate(43.2985 746.958 214.009)" fill="#DCADA3"/>
<rect x="749.55" y="217.11" width="9.74718" height="15.9615" transform="rotate(-136.702 749.55 217.11)" fill="#BF1C1C"/>
<ellipse cx="745.764" cy="214.021" rx="4.87359" ry="4.51085" transform="rotate(-136.702 745.764 214.021)" fill="#BF1C1C"/>
<rect x="777.926" y="243.849" width="9.74718" height="15.9615" transform="rotate(-136.702 777.926 243.849)" fill="#BF1C1C"/>
<ellipse cx="774.14" cy="240.76" rx="4.87359" ry="4.51085" transform="rotate(-136.702 774.14 240.76)" fill="#BF1C1C"/>
<rect x="763.784" y="230.432" width="9.74718" height="15.893" transform="rotate(-136.702 763.784 230.432)" fill="#BF1C1C"/>
<ellipse cx="760" cy="227.341" rx="4.87359" ry="4.4915" transform="rotate(-136.702 760 227.341)" fill="#BF1C1C"/>
<rect x="792.16" y="257.169" width="9.74718" height="15.893" transform="rotate(-136.702 792.16 257.169)" fill="#BF1C1C"/>
<ellipse cx="788.376" cy="254.078" rx="4.87359" ry="4.4915" transform="rotate(-136.702 788.376 254.078)" fill="#BF1C1C"/>
<rect x="806.348" y="270.538" width="9.74718" height="15.893" transform="rotate(-136.702 806.348 270.538)" fill="#BF1C1C"/>
<ellipse cx="802.564" cy="267.447" rx="4.87359" ry="4.4915" transform="rotate(-136.702 802.564 267.447)" fill="#BF1C1C"/>
<rect x="756.645" y="223.796" width="9.74718" height="15.9615" transform="rotate(-136.702 756.645 223.796)" fill="#EEAA26"/>
<ellipse cx="752.859" cy="220.707" rx="4.87359" ry="4.51085" transform="rotate(-136.702 752.859 220.707)" fill="#EEAA26"/>
<rect x="785.019" y="250.534" width="9.74718" height="15.9615" transform="rotate(-136.702 785.019 250.534)" fill="#EEAA26"/>
<ellipse cx="781.234" cy="247.445" rx="4.87359" ry="4.51085" transform="rotate(-136.702 781.234 247.445)" fill="#EEAA26"/>
<rect x="770.832" y="237.165" width="9.74718" height="15.9615" transform="rotate(-136.702 770.832 237.165)" fill="#EEAA26"/>
<ellipse cx="767.047" cy="234.076" rx="4.87359" ry="4.51085" transform="rotate(-136.702 767.047 234.076)" fill="#EEAA26"/>
<rect x="799.207" y="263.904" width="9.74718" height="15.9615" transform="rotate(-136.702 799.207 263.904)" fill="#EEAA26"/>
<ellipse cx="795.423" cy="260.814" rx="4.87359" ry="4.51085" transform="rotate(-136.702 795.423 260.814)" fill="#EEAA26"/>
<rect x="813.324" y="277.208" width="9.65199" height="15.9615" transform="rotate(-136.702 813.324 277.208)" fill="#EEAA26"/>
<ellipse cx="809.574" cy="274.151" rx="4.82599" ry="4.51085" transform="rotate(-136.702 809.574 274.151)" fill="#EEAA26"/>
<rect x="758.634" y="197.438" width="92.8847" height="4.5869" transform="rotate(43.2985 758.634 197.438)" fill="#8C705A"/>
<rect x="738.62" y="233.726" width="24.6546" height="49.3092" transform="rotate(43.2985 738.62 233.726)" fill="#8C705A"/>
<rect x="769.019" y="246.613" width="41.8555" height="60.7764" transform="rotate(43.2985 769.019 246.613)" fill="#C6D7D8"/>
<rect x="519.219" y="905.747" width="85.431" height="69.3769" transform="rotate(-169.034 519.219 905.747)" fill="#DCADA3"/>
<rect x="515.369" y="904.512" width="9.74718" height="15.9615" transform="rotate(10.966 515.369 904.512)" fill="#BF1C1C"/>
<ellipse cx="520.219" cy="905.098" rx="4.87359" ry="4.51085" transform="rotate(10.966 520.219 905.098)" fill="#BF1C1C"/>
<rect x="477.093" y="897.095" width="9.74718" height="15.9615" transform="rotate(10.966 477.093 897.095)" fill="#BF1C1C"/>
<ellipse cx="481.943" cy="897.681" rx="4.87359" ry="4.51085" transform="rotate(10.966 481.943 897.681)" fill="#BF1C1C"/>
<rect x="496.219" y="900.871" width="9.74718" height="15.893" transform="rotate(10.966 496.219 900.871)" fill="#BF1C1C"/>
<ellipse cx="501.069" cy="901.459" rx="4.87359" ry="4.4915" transform="rotate(10.966 501.069 901.459)" fill="#BF1C1C"/>
<rect x="457.941" y="893.455" width="9.74718" height="15.893" transform="rotate(10.966 457.941 893.455)" fill="#BF1C1C"/>
<ellipse cx="462.792" cy="894.042" rx="4.87359" ry="4.4915" transform="rotate(10.966 462.792 894.042)" fill="#BF1C1C"/>
<rect x="438.804" y="889.745" width="9.74718" height="15.893" transform="rotate(10.966 438.804 889.745)" fill="#BF1C1C"/>
<ellipse cx="443.654" cy="890.333" rx="4.87359" ry="4.4915" transform="rotate(10.966 443.654 890.333)" fill="#BF1C1C"/>
<rect x="505.8" y="902.657" width="9.74718" height="15.9615" transform="rotate(10.966 505.8 902.657)" fill="#EEAA26"/>
<ellipse cx="510.65" cy="903.244" rx="4.87359" ry="4.51085" transform="rotate(10.966 510.65 903.244)" fill="#EEAA26"/>
<rect x="467.523" y="895.24" width="9.74718" height="15.9615" transform="rotate(10.966 467.523 895.24)" fill="#EEAA26"/>
<ellipse cx="472.374" cy="895.827" rx="4.87359" ry="4.51085" transform="rotate(10.966 472.374 895.827)" fill="#EEAA26"/>
<rect x="486.662" y="898.948" width="9.74718" height="15.9615" transform="rotate(10.966 486.662 898.948)" fill="#EEAA26"/>
<ellipse cx="491.512" cy="899.535" rx="4.87359" ry="4.51085" transform="rotate(10.966 491.512 899.535)" fill="#EEAA26"/>
<rect x="448.385" y="891.532" width="9.74718" height="15.9615" transform="rotate(10.966 448.385 891.532)" fill="#EEAA26"/>
<ellipse cx="453.235" cy="892.119" rx="4.87359" ry="4.51085" transform="rotate(10.966 453.235 892.119)" fill="#EEAA26"/>
<rect x="429.34" y="887.842" width="9.65199" height="15.9615" transform="rotate(10.966 429.34 887.842)" fill="#EEAA26"/>
<ellipse cx="434.143" cy="888.42" rx="4.82599" ry="4.51085" transform="rotate(10.966 434.143 888.42)" fill="#EEAA26"/>
<rect x="518.214" y="925.994" width="92.8847" height="4.5869" transform="rotate(-169.034 518.214 925.994)" fill="#8C705A"/>
<rect x="515.717" y="884.628" width="24.6546" height="49.3092" transform="rotate(-169.034 515.717 884.628)" fill="#8C705A"/>
<rect x="483.141" y="889.996" width="41.8555" height="60.7764" transform="rotate(-169.034 483.141 889.996)" fill="#C6D7D8"/>
<rect x="440.159" y="143.479" width="114.561" height="76.9192" rx="6.57188" fill="#D9D9D9"/>
<rect x="452.434" y="170.482" width="20.4572" height="49.9157" rx="1.31438" fill="#8C705A"/>
<rect x="482.71" y="157.39" width="63.8266" height="37.6413" rx="1.31438" fill="#C6D7D8"/>
<rect x="438.523" y="139.388" width="117.834" height="5.72803" rx="2.62875" fill="#8C705A"/>
<rect x="436.886" y="133.66" width="121.107" height="5.72803" rx="2.62875" fill="#8C705A"/>
<rect x="468.8" y="109.929" width="58.9168" height="23.7304" rx="2.62875" fill="#8C705A"/>
<rect x="471.255" y="112.384" width="54.0071" height="18.8207" rx="1.31438" fill="#EA6F4E"/>
<rect x="490.074" y="166.45" width="9.8191" height="9.06053" transform="rotate(180 490.074 166.45)" fill="#EA5959"/>
<ellipse cx="485.165" cy="166.647" rx="4.90955" ry="2.56059" transform="rotate(180 485.165 166.647)" fill="#EA5959"/>
<rect x="529.353" y="166.45" width="9.8191" height="9.06053" transform="rotate(180 529.353 166.45)" fill="#EA5959"/>
<ellipse cx="524.443" cy="166.647" rx="4.90955" ry="2.56059" transform="rotate(180 524.443 166.647)" fill="#EA5959"/>
<rect x="509.713" y="166.45" width="9.8191" height="9.06053" transform="rotate(180 509.713 166.45)" fill="#EA5959"/>
<ellipse cx="504.803" cy="166.647" rx="4.90955" ry="2.56059" transform="rotate(180 504.803 166.647)" fill="#EA5959"/>
<rect x="548.99" y="166.45" width="9.8191" height="9.06053" transform="rotate(180 548.99 166.45)" fill="#EA5959"/>
<ellipse cx="544.081" cy="166.647" rx="4.90955" ry="2.56059" transform="rotate(180 544.081 166.647)" fill="#EA5959"/>
<rect x="499.895" y="166.45" width="9.8191" height="9.06053" transform="rotate(180 499.895 166.45)" fill="#DDC95F"/>
<ellipse cx="494.985" cy="166.647" rx="4.90955" ry="2.56059" transform="rotate(180 494.985 166.647)" fill="#DDC95F"/>
<rect x="539.172" y="166.45" width="9.8191" height="9.06053" transform="rotate(180 539.172 166.45)" fill="#DDC95F"/>
<ellipse cx="534.262" cy="166.647" rx="4.90955" ry="2.56059" transform="rotate(180 534.262 166.647)" fill="#DDC95F"/>
<rect x="519.46" y="166.45" width="9.74718" height="9.06053" transform="rotate(180 519.46 166.45)" fill="#DDC95F"/>
<ellipse cx="514.586" cy="166.647" rx="4.87359" ry="2.56059" transform="rotate(180 514.586 166.647)" fill="#DDC95F"/>
<rect x="310.997" y="841.611" width="114.561" height="76.9192" rx="6.57188" transform="rotate(-140.464 310.997 841.611)" fill="#D9D9D9"/>
<rect x="318.72" y="812.971" width="20.4572" height="49.9157" rx="1.31438" transform="rotate(-140.464 318.72 812.971)" fill="#8C705A"/>
<rect x="287.036" y="803.796" width="63.8266" height="37.6413" rx="1.31438" transform="rotate(-140.464 287.036 803.796)" fill="#C6D7D8"/>
<rect x="309.654" y="845.808" width="117.834" height="5.72803" rx="2.62875" transform="rotate(-140.464 309.654 845.808)" fill="#8C705A"/>
<rect x="307.27" y="851.267" width="121.107" height="5.72803" rx="2.62875" transform="rotate(-140.464 307.27 851.267)" fill="#8C705A"/>
<rect x="267.553" y="849.254" width="58.9168" height="23.7304" rx="2.62875" transform="rotate(-140.464 267.553 849.254)" fill="#8C705A"/>
<rect x="267.222" y="845.798" width="54.0071" height="18.8207" rx="1.31438" transform="rotate(-140.464 267.222 845.798)" fill="#EA6F4E"/>
<rect x="287.123" y="792.12" width="9.8191" height="9.06053" transform="rotate(39.5362 287.123 792.12)" fill="#EA5959"/>
<ellipse cx="291.034" cy="795.093" rx="4.90955" ry="2.56059" transform="rotate(39.5362 291.034 795.093)" fill="#EA5959"/>
<rect x="256.831" y="767.117" width="9.8191" height="9.06053" transform="rotate(39.5362 256.831 767.117)" fill="#EA5959"/>
<ellipse cx="260.742" cy="770.09" rx="4.90955" ry="2.56059" transform="rotate(39.5362 260.742 770.09)" fill="#EA5959"/>
<rect x="271.979" y="779.619" width="9.8191" height="9.06053" transform="rotate(39.5362 271.979 779.619)" fill="#EA5959"/>
<ellipse cx="275.89" cy="782.592" rx="4.90955" ry="2.56059" transform="rotate(39.5362 275.89 782.592)" fill="#EA5959"/>
<rect x="241.687" y="754.616" width="9.8191" height="9.06053" transform="rotate(39.5362 241.687 754.616)" fill="#EA5959"/>
<ellipse cx="245.598" cy="757.589" rx="4.90955" ry="2.56059" transform="rotate(39.5362 245.598 757.589)" fill="#EA5959"/>
<rect x="279.551" y="785.87" width="9.8191" height="9.06053" transform="rotate(39.5362 279.551 785.87)" fill="#DDC95F"/>
<ellipse cx="283.462" cy="788.843" rx="4.90955" ry="2.56059" transform="rotate(39.5362 283.462 788.843)" fill="#DDC95F"/>
<rect x="249.26" y="760.866" width="9.8191" height="9.06053" transform="rotate(39.5362 249.26 760.866)" fill="#DDC95F"/>
<ellipse cx="253.171" cy="763.839" rx="4.90955" ry="2.56059" transform="rotate(39.5362 253.171 763.839)" fill="#DDC95F"/>
<rect x="264.461" y="773.414" width="9.74718" height="9.06053" transform="rotate(39.5362 264.461 773.414)" fill="#DDC95F"/>
<ellipse cx="268.344" cy="776.364" rx="4.87359" ry="2.56059" transform="rotate(39.5362 268.344 776.364)" fill="#DDC95F"/>
<rect x="204.465" y="318.54" width="111.287" height="76.9192" transform="rotate(-49.5851 204.465 318.54)" fill="#8EC3BD"/>
<rect x="196.205" y="316.88" width="118.652" height="7.36461" transform="rotate(-49.5851 196.205 316.88)" fill="#8C705A"/>
<rect x="249.841" y="298.066" width="24.5487" height="55.6437" transform="rotate(-49.5851 249.841 298.066)" fill="#8C705A"/>
<rect x="201.758" y="277.543" width="55.6437" height="18.8207" transform="rotate(-49.5851 201.758 277.543)" fill="#8C705A"/>
<rect x="216.34" y="285.661" width="4.90974" height="7.36461" transform="rotate(-49.5851 216.34 285.661)" fill="#8C705A"/>
<rect x="244.987" y="252.018" width="4.90974" height="7.36461" transform="rotate(-49.5851 244.987 252.018)" fill="#8C705A"/>
<ellipse cx="220.418" cy="256.891" rx="25.367" ry="9.00118" transform="rotate(-49.5851 220.418 256.891)" fill="#8C705A"/>
<rect x="214.063" y="322.414" width="37.6413" height="67.0997" transform="rotate(-49.5851 214.063 322.414)" fill="#C6D7D8"/>
<rect x="259.687" y="268.834" width="34.3682" height="27.0036" transform="rotate(-49.5851 259.687 268.834)" fill="#C6D7D8"/>
<rect x="206.81" y="275.396" width="46.6425" height="13.9109" transform="rotate(-49.5851 206.81 275.396)" fill="#EA6F4E"/>
<ellipse cx="223.175" cy="258.701" rx="20.8664" ry="8.1829" transform="rotate(-49.5851 223.175 258.701)" fill="#EA6F4E"/>
<rect x="916.401" y="597.808" width="111.287" height="76.9192" transform="rotate(111.188 916.401 597.808)" fill="#8EC3BD"/>
<rect x="924.747" y="596.655" width="118.652" height="7.36461" transform="rotate(111.188 924.747 596.655)" fill="#8C705A"/>
<rect x="880.298" y="632.082" width="24.5487" height="55.6437" transform="rotate(111.188 880.298 632.082)" fill="#8C705A"/>
<rect x="932.458" y="635.626" width="55.6437" height="18.8207" transform="rotate(111.188 932.458 635.626)" fill="#8C705A"/>
<rect x="916.017" y="632.763" width="4.90974" height="7.36461" transform="rotate(111.188 916.017 632.763)" fill="#8C705A"/>
<rect x="900.045" y="673.964" width="4.90974" height="7.36461" transform="rotate(111.188 900.045 673.964)" fill="#8C705A"/>
<ellipse cx="921.639" cy="661.272" rx="25.367" ry="9.00118" transform="rotate(111.188 921.639 661.272)" fill="#8C705A"/>
<rect x="906.062" y="597.311" width="37.6413" height="67.0997" transform="rotate(111.188 906.062 597.311)" fill="#C6D7D8"/>
<rect x="880.627" y="662.926" width="34.3682" height="27.0036" transform="rotate(111.188 880.627 662.926)" fill="#C6D7D8"/>
<rect x="928.396" y="639.317" width="46.6425" height="13.9109" transform="rotate(111.188 928.396 639.317)" fill="#EA6F4E"/>
<ellipse cx="918.44" cy="660.47" rx="20.8664" ry="8.1829" transform="rotate(111.188 918.44 660.47)" fill="#EA6F4E"/>
<defs>
<radialGradient id="paint0_radial_297_463" cx="0" cy="0" r="1" gradientUnits="userSpaceOnUse" gradientTransform="translate(531.024 525.735) rotate(42.8469) scale(321.179)">
<stop stop-color="white" stop-opacity="0"/>
<stop offset="1" stop-color="#F15A24"/>
</radialGradient>
<linearGradient id="paint1_linear_297_463" x1="1212.04" y1="529.609" x2="289.736" y2="524.326" gradientUnits="userSpaceOnUse">
<stop stop-color="white" stop-opacity="0"/>
<stop offset="1" stop-color="#F15A24"/>
</linearGradient>
<linearGradient id="paint2_linear_297_463" x1="1258.91" y1="398.033" x2="-110.081" y2="359.869" gradientUnits="userSpaceOnUse">
<stop stop-color="#C1272D" stop-opacity="0"/>
<stop offset="1" stop-color="#C1272D" stop-opacity="0.7"/>
</linearGradient>
<radialGradient id="paint3_radial_297_463" cx="0" cy="0" r="1" gradientUnits="userSpaceOnUse" gradientTransform="translate(525.038 550.809) rotate(23.6069) scale(444.92 222.46)">
<stop offset="0.74" stop-color="#FFB56F" stop-opacity="0.9"/>
<stop offset="0.79" stop-color="#FFB56F" stop-opacity="0.88"/>
<stop offset="0.84" stop-color="#FFB86F" stop-opacity="0.83"/>
<stop offset="0.9" stop-color="#FFBD6F" stop-opacity="0.73"/>
<stop offset="0.96" stop-color="#FFC36F" stop-opacity="0.61"/>
<stop offset="1" stop-color="#FFC96F" stop-opacity="0.5"/>
</radialGradient>
</defs>
</svg>
