<svg width="1122" height="1119" viewBox="0 0 1122 1119" fill="none" xmlns="http://www.w3.org/2000/svg">
<path d="M580.543 1100.94C855.255 1100.94 1077.95 878.241 1077.95 603.529C1077.95 328.817 855.255 106.118 580.543 106.118C305.83 106.118 83.1318 328.817 83.1318 603.529C83.1318 878.241 305.83 1100.94 580.543 1100.94Z" fill="#0071BC"/>
<mask id="mask0_319_120" style="mask-type:luminance" maskUnits="userSpaceOnUse" x="83" y="105" width="996" height="996">
<path d="M581.18 1100.3C855.893 1100.3 1078.59 877.605 1078.59 602.892C1078.59 328.18 855.893 105.481 581.18 105.481C306.468 105.481 83.7695 328.18 83.7695 602.892C83.7695 877.605 306.468 1100.3 581.18 1100.3Z" fill="white"/>
</mask>
<g mask="url(#mask0_319_120)">
<path d="M1064.13 700.83C993.033 696.969 921.654 698.084 850.713 704.184C822.035 706.651 793.177 709.975 765.851 719.03C694.264 742.734 640.946 802.768 598.625 865.181C568.871 909.065 539.327 958.302 490.019 977.786C461.042 989.24 428.701 988.723 398.818 997.559C368.418 1006.54 341.043 1025.44 321.847 1050.67C317.24 1056.72 313.001 1063.35 311.598 1070.82C308.473 1087.39 319.768 1103.13 331.888 1114.85C391.703 1172.7 481.103 1186.87 564.314 1187.21C662.212 1187.6 760.149 1172.8 853.54 1143.46C890.189 1131.95 926.431 1118.09 958.831 1097.45C1053.5 1037.16 1103.87 927.663 1139.23 821.148C1147.92 794.986 1155.51 764.417 1140.34 741.41C1128.95 724.155 1107.72 716.354 1087.42 712.403C1067.12 708.453 1045.91 707.129 1027.28 698.183" fill="#009245"/>
<path d="M1064.13 696.352C1022.01 694.083 979.808 693.526 937.646 694.73C896.817 695.904 855.62 697.954 815.129 703.547C778.758 708.572 744.358 719.538 713.211 739.221C685.099 756.983 660.53 779.93 638.797 804.987C616.736 830.422 598.068 858.215 579.211 886.028C561.488 912.179 542.511 938.938 516.728 957.795C503.185 967.696 488.199 974.711 471.949 978.861C453.45 983.588 434.374 985.279 415.666 988.921C381.753 995.529 350.576 1011.71 327.142 1037.37C315.837 1049.75 304.314 1064.57 307.091 1082.34C309.737 1099.25 322.584 1112.8 334.864 1123.72C359.184 1145.35 388.261 1160.76 419 1171.13C485.413 1193.55 558.194 1194.17 627.433 1189.84C707.479 1184.84 787.028 1169.88 863.292 1145.05C899.096 1133.4 934.462 1119.11 965.937 1098.17C992.844 1080.28 1016.67 1058.05 1037.17 1033.12C1079.08 982.185 1107.6 921.722 1130.33 860.195C1136.04 844.721 1141.65 829.128 1146.43 813.336C1151.3 797.195 1155.08 779.99 1152.82 763.083C1150.63 746.704 1142.05 732.793 1128.51 723.359C1114.96 713.925 1098.72 709.796 1082.8 707.029C1064.86 703.915 1046.24 702.143 1029.55 694.322C1024.37 691.884 1019.81 699.606 1025.04 702.054C1056.08 716.612 1093.93 711 1122.97 730.404C1153.88 751.053 1144.76 790.27 1134.92 819.973C1114.8 880.744 1090.42 940.997 1054.74 994.464C1037.24 1020.69 1016.87 1045.06 993.212 1065.96C967.429 1088.76 937.845 1106.32 906.211 1119.74C871.014 1134.66 833.937 1145.54 796.879 1154.74C758.707 1164.23 719.938 1171.38 680.89 1176.04C641.842 1180.7 603.262 1182.91 564.314 1182.75C531.784 1182.61 499.145 1180.47 467.153 1174.37C435.787 1168.4 404.899 1158.66 377.036 1142.86C363.324 1135.09 350.427 1125.91 338.814 1115.24C327.202 1104.57 313.738 1090.26 315.698 1073.45C316.753 1064.41 322.694 1056.53 328.286 1049.7C333.311 1043.57 338.824 1037.85 344.755 1032.6C357.144 1021.61 371.543 1012.61 386.918 1006.45C420.771 992.852 458.605 995.38 492.378 981.647C551.746 957.516 581.589 895.253 617.323 846.363C655.336 794.349 703.36 744.873 765.792 723.777C803.208 711.129 843.539 708.801 882.667 706.273C923.386 703.636 964.215 702.631 1005.02 703.258C1024.74 703.566 1044.45 704.263 1064.14 705.318C1069.9 705.626 1069.88 696.67 1064.14 696.362L1064.13 696.352Z" fill="#0071BC"/>
</g>
<path d="M275.563 322.552C288.191 324.502 296.938 336.632 300.52 348.912C304.093 361.182 303.974 374.247 306.929 386.676C310.064 399.851 316.571 411.981 324.055 423.266C376.218 501.968 475.071 543.404 517.791 627.59C536.3 664.07 542.409 707.496 530.637 746.674C518.865 785.851 488.206 819.784 449.079 831.735C406.339 844.8 355.928 832.59 318.83 857.528C301.884 868.922 286.39 888.187 266.189 885.201C249.512 882.734 239.382 865.956 232.008 850.801C207.986 801.384 188.024 750.107 168.093 698.899C157.574 671.872 146.877 643.671 149.216 614.763C153.136 566.292 191.816 528.846 213.021 485.082C238.078 433.366 239.113 371.152 271.334 323.567" fill="#009245"/>
<path d="M274.369 326.871C284.877 328.692 291.893 337.777 295.306 347.37C299.754 359.888 299.446 373.481 302.262 386.358C307.367 409.782 322.343 430.491 337.459 448.581C364.953 481.47 399.244 507.641 431.675 535.344C463.767 562.749 495.222 592.513 514.358 630.744C536.051 674.091 539.603 728.055 515.383 771.133C504.934 789.712 489.918 805.813 471.608 816.808C451.666 828.789 429.257 832.461 406.369 834.113C383.263 835.785 359.301 835.855 337.19 843.587C326.234 847.418 316.681 853.189 307.606 860.354C299.306 866.902 291.216 874.564 281.355 878.714C272.369 882.495 262.717 881.54 254.915 875.589C246.735 869.35 241.441 859.747 236.924 850.721C224.296 825.486 213.161 799.444 202.414 773.362C191.547 747.002 181.178 720.423 170.889 693.834C161.157 668.698 151.474 642.218 153.693 614.803C155.505 592.354 165.655 571.715 177.128 552.729C189.179 532.787 203.07 513.95 213.917 493.281C236.496 450.223 240.715 400.876 259.065 356.256C263.433 345.628 268.797 335.409 275.205 325.876C278.429 321.079 270.677 316.591 267.473 321.358C239.501 362.963 234.754 414.221 218.385 460.533C210.325 483.33 198.115 503.64 184.969 523.811C171.824 543.982 158.808 563.476 150.957 585.895C146.996 597.19 144.658 609.091 144.439 621.082C144.18 635.023 146.718 648.955 150.499 662.329C154.281 675.703 159.475 689.047 164.58 702.183C169.864 715.746 175.148 729.319 180.511 742.853C191.249 769.929 202.314 796.896 214.285 823.456C219.858 835.815 225.331 848.373 231.829 860.274C236.963 869.688 243.402 879.002 252.606 884.833C261.841 890.685 273.275 891.461 283.395 887.5C293.515 883.54 302.59 875.828 311.307 868.812C320.204 861.648 329.538 855.647 340.414 851.945C351.47 848.194 363.063 846.393 374.646 845.298C398.717 843.029 423.336 843.487 446.84 837.079C468.444 831.188 487.968 818.858 503.292 802.608C518.617 786.358 530.309 765.64 536.16 743.678C542.877 718.423 542.539 691.605 536.638 666.23C526.04 620.694 497.162 583.388 463.747 551.913C431.774 521.801 395.99 495.988 364.824 465.011C349.161 449.437 334.503 432.511 323.179 413.474C316.283 401.871 311.536 389.731 309.556 376.337C307.645 363.391 307.088 350.086 301.058 338.195C296.192 328.592 287.704 320.134 276.767 318.243C274.389 317.835 271.941 318.88 271.255 321.368C270.657 323.527 271.991 326.463 274.379 326.881L274.369 326.871Z" fill="#0071BC"/>
<mask id="mask1_319_120" style="mask-type:luminance" maskUnits="userSpaceOnUse" x="83" y="106" width="995" height="995">
<path d="M580.544 1100.94C855.256 1100.94 1077.95 878.242 1077.95 603.53C1077.95 328.818 855.256 106.119 580.544 106.119C305.831 106.119 83.1328 328.818 83.1328 603.53C83.1328 878.242 305.831 1100.94 580.544 1100.94Z" fill="white"/>
</mask>
<g mask="url(#mask1_319_120)">
<path d="M537.764 110.208C519.583 165.864 540.699 232.038 587.757 266.876C606.505 280.758 628.348 289.734 648.558 301.386C732.336 349.709 781.911 439.447 849.339 508.785C889.213 549.793 935.993 584.075 987.111 609.738C995.251 613.828 1004.4 617.799 1013.19 615.43C1018.18 614.087 1022.42 610.833 1026.17 607.28C1051.7 583.09 1058.14 545.286 1060.72 510.198C1062.69 483.37 1063.23 456.214 1058.39 429.744C1052.71 398.648 1039.71 369.272 1023.83 341.937C1002.77 305.695 976.603 272.688 949.098 241.064C928.699 217.619 907.304 194.662 881.82 176.86C854.534 157.803 823.357 145.196 792.41 132.946C771.951 124.856 751.402 116.835 730.136 111.223C668.122 94.8733 602.545 99.6398 539.067 108.805" fill="#39B54A"/>
<path d="M533.446 109.013C519.544 151.992 528.092 201.05 553.775 237.938C560.283 247.282 567.826 255.92 576.394 263.433C586.236 272.05 597.321 279.036 608.775 285.305C620.925 291.962 633.463 297.903 645.494 304.789C656.032 310.82 666.132 317.566 675.815 324.89C714.564 354.206 745.74 392.229 776.081 429.814C807.815 469.11 839.389 508.496 877.681 541.723C898.299 559.615 920.331 575.924 943.487 590.383C954.841 597.468 966.473 604.115 978.355 610.295C990.236 616.475 1004.8 624.575 1018.68 618.156C1024.33 615.539 1029.1 611.021 1033.27 606.474C1037.45 601.926 1040.85 597.359 1043.95 592.343C1050.29 582.074 1054.72 570.61 1057.82 558.978C1064.55 533.802 1066.2 506.914 1066.6 480.962C1067.05 451.696 1063.46 422.808 1053.74 395.105C1044.44 368.555 1030.93 343.628 1015.64 320.084C1000.1 296.152 982.534 273.563 964.145 251.76C945.755 229.958 927.834 209.359 906.907 190.99C885.98 172.62 861.699 157.972 836.006 146.3C823.219 140.488 810.203 135.224 797.147 130.05C783.266 124.547 769.374 119.034 755.234 114.208C727.222 104.655 698.314 98.9727 668.799 96.9427C639.284 94.9126 609.839 96.2162 580.544 99.1816C566.284 100.625 552.074 102.465 537.884 104.505C535.486 104.854 534.172 107.889 534.759 110.018C535.466 112.596 537.864 113.491 540.272 113.143C596.953 104.983 655.515 100.187 712.096 111.64C740.655 117.422 767.772 127.98 794.779 138.687C820.323 148.817 845.877 159.375 869.272 173.953C892.309 188.303 912.091 206.931 930.411 226.833C949.049 247.083 966.931 268.209 983.579 290.141C1016.41 333.379 1046.76 382.377 1055.09 436.929C1059.34 464.782 1058.09 493.61 1055.28 521.552C1052.97 544.39 1048.44 568.043 1036.22 587.836C1033.22 592.682 1029.79 597.2 1025.85 601.319C1021.91 605.439 1017.06 610.106 1011.09 611.36C1005.12 612.614 998.347 610.166 992.794 607.568C986.694 604.713 980.733 601.508 974.812 598.294C951.557 585.656 929.277 571.218 908.23 555.167C887.184 539.116 867.789 521.632 849.649 502.695C833.06 485.37 817.636 466.971 802.501 448.372C772.31 411.265 743.133 372.914 707.917 340.324C690.542 324.243 671.685 309.625 651.176 297.754C628.488 284.619 603.322 274.956 583.3 257.622C550.522 229.241 533.038 184.959 536.112 141.861C536.849 131.502 538.889 121.303 542.083 111.421C543.864 105.928 535.217 103.57 533.446 109.043V109.013Z" fill="#0071BC"/>
</g>
<g opacity="0.58">
<path d="M580.543 1100.94C855.255 1100.94 1077.95 878.241 1077.95 603.529C1077.95 328.817 855.255 106.118 580.543 106.118C305.83 106.118 83.1318 328.817 83.1318 603.529C83.1318 878.241 305.83 1100.94 580.543 1100.94Z" fill="url(#paint0_radial_319_120)"/>
</g>
<g opacity="0.53">
<path d="M581.18 1100.3C855.893 1100.3 1078.59 877.605 1078.59 602.892C1078.59 328.18 855.893 105.481 581.18 105.481C306.468 105.481 83.7695 328.18 83.7695 602.892C83.7695 877.605 306.468 1100.3 581.18 1100.3Z" fill="url(#paint1_linear_319_120)"/>
</g>
<g opacity="0.37">
<mask id="mask2_319_120" style="mask-type:luminance" maskUnits="userSpaceOnUse" x="83" y="105" width="996" height="996">
<path d="M581.18 1100.3C855.893 1100.3 1078.59 877.605 1078.59 602.892C1078.59 328.18 855.893 105.481 581.18 105.481C306.468 105.481 83.7695 328.18 83.7695 602.892C83.7695 877.605 306.468 1100.3 581.18 1100.3Z" fill="white"/>
</mask>
<g mask="url(#mask2_319_120)">
<g opacity="0.55">
<mask id="mask3_319_120" style="mask-type:luminance" maskUnits="userSpaceOnUse" x="-198" y="83" width="1414" height="1128">
<path d="M508.949 1210.55C899.144 1210.55 1215.46 958.35 1215.46 647.244C1215.46 336.138 899.144 83.9375 508.949 83.9375C118.753 83.9375 -197.562 336.138 -197.562 647.244C-197.562 958.35 118.753 1210.55 508.949 1210.55Z" fill="white"/>
</mask>
<g mask="url(#mask3_319_120)">
<path d="M-860.668 592.245C-821.541 473.331 -540.773 352.725 19.1697 116.368C19.1697 116.368 297.151 -26.9658 642.6 16.0822C649.009 16.8783 655.925 17.9829 660.194 21.8737C667.458 28.4812 663.089 38.7506 657.885 46.4826C600.378 131.882 485.026 180.204 376.281 223.561C190.417 297.656 4.56169 371.751 -181.303 445.846C-214.122 458.932 -247.796 472.525 -272.156 494.407C-296.516 516.289 -309.671 548.72 -294.765 575.458C-279.659 602.574 -240.81 616.277 -203.932 620.208C-69.3445 634.557 47.9679 554.133 154.464 486.964C419.18 319.976 730.089 206.893 1040.59 101.332C1054.4 96.6356 1070.07 91.9188 1083.95 96.4565C1102.48 102.517 1107.62 121.443 1107.3 137.405C1105.72 216.794 1033.53 285.944 948.295 327.001C863.065 368.059 764.659 387.295 670.513 413.167C552.096 445.717 439.013 489.302 326.248 532.788C228.37 570.532 130.352 608.336 36.992 652.747C-67.1054 702.274 -176.119 777.075 -168.934 873.55C-167.969 886.497 -164.595 899.771 -155.122 910.309C-123.518 945.476 -54.6966 928.709 -6.83225 908.329C184.595 826.86 373.654 740.376 545.09 634.308C646.322 571.677 741.195 502.358 847.053 444.801C952.922 387.245 1072.46 341.172 1200.13 332.484C1203.5 417.426 1108.31 481.998 1019.05 528.43C700.724 694.014 333.86 812.133 80.3286 1037.91C29.1606 1083.48 -18.3256 1136.21 -26.2865 1197.05C-27.5701 1206.86 -27.6099 1217.38 -21.2512 1225.86C-5.08086 1247.41 35.7979 1240.66 64.5364 1230.36C258.322 1160.9 426.882 1054.58 597.831 953.974C838.376 812.421 1087.44 680.352 1336.38 548.361C1342.65 545.038 1349.61 541.565 1357.11 542.182C1375.57 543.694 1376.77 565.089 1370.32 578.961C1348.88 625.054 1304.64 661.654 1261.55 696.82C1202.96 744.635 1144.34 792.44 1085.72 840.234C946.773 953.536 807.08 1067.36 647.635 1161.96C488.19 1256.56 306.764 1331.91 110.838 1358.57C19.5379 1370.99 -73.4841 1372.7 -166.098 1372.66C-246.552 1372.62 -328.727 1371.04 -404.365 1349.19C-538.584 1310.41 -615.018 1231.41 -679.998 1164.07C-778.483 1062 -820.028 963.627 -836.457 918.161C-850.886 878.237 -905.249 727.788 -860.648 592.245H-860.668Z" fill="url(#paint2_linear_319_120)"/>
</g>
</g>
</g>
</g>
<path d="M454.642 51.9637L443.018 67.9981L484.506 62.5865L467.47 47.9551L463.862 33.3238L464.664 31.9208L463.662 25.7075C457.889 21.6989 451.903 25.1062 449.632 27.3109L450.834 33.9251L452.237 35.5285L454.642 51.9637Z" fill="#447164"/>
<path d="M375.812 158.177C373.794 153.608 375.069 148.419 378.216 144.54L405.284 111.172C408.61 107.072 413.79 104.742 418.89 106.104C422.084 106.957 425.5 108.265 427.739 110.234C429.628 111.894 431.21 114.49 432.435 117.027C434.679 121.678 433.428 127.087 430.175 131.098L403.016 164.577C399.847 168.483 394.987 170.802 390.072 169.731C386.846 169.029 383.341 167.866 381.039 165.953C378.838 164.125 377.091 161.073 375.812 158.177Z" fill="#AB6767"/>
<ellipse cx="420.183" cy="118.471" rx="12.3347" ry="7.80679" transform="rotate(39.24 420.183 118.471)" fill="#5A3636"/>
<path d="M407.942 170.966C333.222 178.502 359.972 171.167 382.688 166.557C397.72 163.157 424.177 130.279 423.575 120.057C422.974 109.835 424.778 96.6069 434.198 96.6069C443.618 96.6069 460.454 80.9734 469.474 73.758C478.493 66.5425 485.107 57.5232 500.139 59.1266C515.172 60.7301 495.129 42.8919 500.139 34.073C505.15 25.2541 529.803 22.2477 537.018 17.2369C542.791 13.2283 541.695 8.08398 540.426 6.01288L567.884 0C569.755 3.67454 577.305 11.1439 592.537 11.6249C611.578 12.2262 623.203 9.42018 623.804 22.2477C624.405 35.0751 626.009 31.267 641.041 30.6657C656.073 30.0644 652.866 48.5039 656.875 65.9413C660.884 83.3786 708.786 80.9735 693.754 92.7988C678.722 104.624 678.521 111.238 681.327 111.238C684.133 111.238 695.357 100.014 708.786 115.046C719.529 127.072 718.474 135.423 716.603 138.096C717.939 141.77 728.869 152.607 761.9 166.557C803.188 183.994 816.216 201.231 795.372 195.018C774.527 188.804 713.196 184.395 689.745 190.007C666.295 195.619 669.702 179.986 613.181 195.018C567.965 207.043 501.476 190.007 473.883 179.986C483.036 173.839 482.662 163.43 407.942 170.966Z" fill="#868281"/>
<path d="M522.788 80.5723C519.741 80.5723 524.057 86.4515 526.596 89.3912C510.561 95.1635 520.717 100.348 527.798 102.219C537.219 104.423 537.018 102.219 537.018 102.219C546.799 101.417 539.624 94.8027 534.813 91.5959C539.223 78.7684 526.596 80.5723 522.788 80.5723Z" fill="#EACB88"/>
<path d="M443.018 67.7973L484.506 62.3857L488.715 91.448C488.715 91.448 476.333 95.7056 468.071 96.4587C459.795 97.2132 446.826 95.2561 446.826 95.2561L443.018 67.7973Z" fill="#447164"/>
<path d="M688.743 77.1649C688.743 101.518 663.342 124.466 638.435 124.466C613.529 124.466 593.339 104.724 593.339 80.3718C593.339 56.0191 613.529 36.2773 638.435 36.2773C663.342 36.2773 688.743 52.8122 688.743 77.1649Z" fill="#665A5A"/>
<path d="M680.726 77.5733C680.726 98.8266 658.527 118.854 636.76 118.854C614.993 118.854 597.348 101.625 597.348 80.3721C597.348 59.1188 614.993 41.8896 636.76 41.8896C658.527 41.8896 680.726 56.3201 680.726 77.5733Z" fill="#868281"/>
<path d="M634.628 79.7697L659.081 44.0933M636.232 88.3882L681.929 65.7397M636.232 94.0002L677.72 98.6101M634.628 97.6079L649.66 119.655M630.62 76.7633L631.822 40.2852M624.807 79.7697L610.176 50.507M628.214 97.6079V118.252" stroke="#665A5A" stroke-width="6"/>
<path d="M607.169 69.3487C599.954 73.8383 597.482 55.5859 597.148 45.8984L573.698 61.9328L570.892 98.8118L626.611 131.482C628.682 128.141 633.987 119.977 638.637 114.044C644.449 106.629 637.835 79.9714 632.824 86.9864C627.814 94.0015 616.99 91.7967 623.404 86.9864C629.818 82.1761 616.189 63.7366 607.169 69.3487Z" fill="#868281"/>
<path d="M757.998 134.462C750.937 145.975 735.713 149.48 723.993 142.292C712.273 135.104 708.495 119.945 715.556 108.433C722.616 96.9208 739.958 90.6223 751.678 97.8102C763.398 104.998 765.058 122.95 757.998 134.462Z" fill="#C6D7D8"/>
<rect x="718.33" y="104.824" width="49.7242" height="40.0859" transform="rotate(38.9072 718.33 104.824)" fill="#C6D7D8"/>
<path d="M747.793 97.0686C747.793 97.0686 751.102 88.5358 755.642 88.4935C757.925 88.4722 759.444 89.0198 761.099 90.5937C762.676 92.0944 763.285 93.4756 763.456 95.6462C763.811 100.172 755.607 104.221 755.607 104.221L747.793 97.0686Z" fill="#EA6F4E"/>
<path d="M720.172 152.732C715.76 158.771 733.991 160.621 743.658 160.791L727.879 180.436L691.114 183.174L658.009 137.28C661.323 135.524 669.418 131.03 675.294 127.104C682.638 122.197 709.292 127.392 702.34 131.63C695.388 135.867 697.688 144.828 702.427 139.45C707.167 134.072 725.688 145.182 720.172 152.732Z" fill="#868281"/>
<path d="M644.85 155.132C642.765 154.651 641.844 147.984 641.643 144.71L636.232 147.316L639.839 156.535C637.982 162.468 638.13 171.434 638.436 175.175C606.568 190.809 611.178 193.815 610.376 198.024C609.574 202.233 596.547 206.242 603.962 205.44C609.895 204.799 622.201 198.091 627.613 194.817C645.572 198.184 650.996 187.134 651.464 181.188C673.912 212.776 697.028 201.298 705.78 191.61C695.759 195.819 674.193 199.026 668.1 178.182C660.483 152.126 647.456 155.734 644.85 155.132Z" fill="#E1C791"/>
<path d="M542.029 156.261C534.493 154.818 527.398 166.082 524.792 171.895C512.125 164.519 491.454 164.011 482.702 164.679C498.416 176.865 502.344 200.489 502.344 210.778C513.729 207.09 541.829 208.44 554.456 209.575C559.467 198.752 567.283 198.752 571.893 197.349C576.503 195.946 596.947 203.362 594.742 202.36C592.978 201.558 585.456 174.367 581.915 160.871C571.76 159.936 549.565 157.704 542.029 156.261Z" fill="#A58882"/>
<path d="M584.748 39.9573C583.304 30.978 576.129 34.6125 572.722 37.5521C569.715 44.1662 571.319 43.1642 571.319 45.5693C571.319 47.9745 581.34 48.9766 584.748 48.9766C588.155 48.9766 586.551 51.1813 584.748 39.9573Z" fill="#A5A29E"/>
<path d="M1093.07 869.625L1087.51 850.615L1066.38 886.725L1088.38 882.22L1102.15 888.33L1102.77 889.823L1108.3 892.837C1115 890.729 1115.97 883.91 1115.62 880.764L1109.66 877.664L1107.53 877.791L1093.07 869.625Z" fill="#447164"/>
<path d="M1057.39 742.256C1062.24 743.459 1065.56 747.646 1066.7 752.509L1076.5 794.344C1077.7 799.483 1076.37 805.006 1072.17 808.203C1069.54 810.205 1066.41 812.104 1063.48 812.668C1061.01 813.144 1057.99 812.805 1055.24 812.219C1050.19 811.144 1046.68 806.842 1045.5 801.814L1035.67 759.84C1034.52 754.943 1035.67 749.681 1039.52 746.452C1042.05 744.332 1045.12 742.273 1048.04 741.625C1050.84 741.006 1054.32 741.494 1057.39 742.256Z" fill="#AB6767"/>
<ellipse cx="1061.6" cy="801.65" rx="12.3347" ry="7.80679" transform="rotate(167.01 1061.6 801.65)" fill="#5A3636"/>
<path d="M1027.6 759.821C1067.41 696.141 1056.83 721.779 1046.56 742.559C1040.04 756.524 1049.82 797.575 1058.27 803.36C1066.72 809.146 1076.07 818.674 1070.3 826.12C1064.53 833.567 1066.58 856.451 1066.75 868C1066.93 879.549 1070.01 890.301 1059.54 901.202C1049.06 912.102 1075.44 907.185 1079.34 916.547C1083.24 925.909 1070.52 947.238 1070.06 956.011C1069.69 963.029 1074.43 965.314 1076.85 965.579L1064.78 990.967C1060.73 990.195 1050.2 991.588 1040.49 1003.33C1028.35 1018.02 1023.45 1028.93 1012.94 1021.54C1002.44 1014.16 1004.46 1017.76 995.733 1030.01C987.001 1042.26 974.389 1028.43 958.15 1020.92C941.911 1013.41 914.472 1052.75 914.332 1033.62C914.191 1014.5 909.086 1010.29 907.367 1012.51C905.649 1014.73 907.646 1030.47 887.539 1031.88C871.452 1033.01 865.498 1027.06 864.531 1023.94C860.808 1022.75 845.547 1024.75 814.289 1042.32C775.216 1064.27 753.611 1064.01 771.29 1051.34C788.969 1038.67 830.02 992.89 839.947 970.916C849.874 948.942 860.145 961.211 882.881 907.325C901.071 864.217 955.262 822.094 980.084 806.421C979.336 817.421 987.794 823.501 1027.6 759.821Z" fill="#868281"/>
<path d="M1028.71 905.969C1030.58 903.561 1023.29 903.371 1019.41 903.577C1024.67 887.367 1014.35 892.219 1008.53 896.671C1001.02 902.767 1002.88 903.959 1002.88 903.959C997.528 912.182 1007.15 910.561 1012.63 908.723C1020.07 920.065 1026.38 908.979 1028.71 905.969Z" fill="#EACB88"/>
<path d="M1087.67 850.738L1066.54 886.848L1040.99 872.374C1040.99 872.374 1045.21 859.979 1049.67 852.987C1054.14 845.983 1063.63 836.929 1063.63 836.929L1087.67 850.738Z" fill="#447164"/>
<path d="M929.758 1039.24C910.508 1024.32 907.926 990.188 923.181 970.501C938.436 950.813 966.408 946.945 985.658 961.861C1004.91 976.777 1008.15 1004.83 992.892 1024.52C977.637 1044.2 949.008 1054.16 929.758 1039.24Z" fill="#665A5A"/>
<path d="M934.347 1032.65C917.547 1019.63 915.313 989.819 928.645 972.613C941.977 955.407 966.404 952.012 983.204 965.03C1000 978.047 1002.82 1002.55 989.483 1019.75C976.151 1036.96 951.147 1045.67 934.347 1032.65Z" fill="#868281"/>
<path d="M960.845 994.866L974.069 1036.05M953.05 990.855L942.963 1040.85M948.614 987.418L919.558 1017.39M946.744 983.94L920.109 982.319M965.676 993.539L993.775 1016.83M966.86 987.103L998.953 993.461M950.673 978.871L934.354 966.226" stroke="#665A5A" stroke-width="6"/>
<path d="M985.901 979.545C986.772 971.091 1002.71 980.317 1010.58 985.986L1012.26 957.628L984.832 932.822L924.879 956.856C926.251 960.539 929.455 969.733 931.297 977.043C933.599 986.179 958.722 997.279 956.246 989.021C953.77 980.764 962.141 973.558 962.015 981.575C961.889 989.591 984.813 990.112 985.901 979.545Z" fill="#868281"/>
<path d="M842.048 1058.89C837.273 1046.26 843.827 1032.08 856.687 1027.21C869.548 1022.35 883.844 1028.65 888.62 1041.28C893.395 1053.92 887.752 1071.48 874.892 1076.34C862.032 1081.2 846.824 1071.52 842.048 1058.89Z" fill="#C6D7D8"/>
<rect x="889.773" y="1045.68" width="49.7242" height="40.0859" transform="rotate(166.678 889.773 1045.68)" fill="#C6D7D8"/>
<path d="M877.858 1073.72C877.858 1073.72 882.576 1081.57 879.829 1085.18C878.447 1087 877.084 1087.86 874.826 1088.21C872.674 1088.54 871.209 1088.17 869.389 1086.98C865.593 1084.49 867.418 1075.52 867.418 1075.52L877.858 1073.72Z" fill="#EA6F4E"/>
<path d="M850.775 1017.8C848.704 1010.61 836.075 1023.89 830.019 1031.43L824.156 1006.92L844.51 976.183L901.064 978.124C900.423 981.819 899.017 990.971 898.521 998.02C897.902 1006.83 877.469 1024.72 878.378 1016.63C879.287 1008.54 870.795 1004.87 872.143 1011.91C873.491 1018.95 853.365 1026.78 850.775 1017.8Z" fill="#868281"/>
<path d="M895.014 956.787C896.671 955.434 902.506 958.789 905.216 960.636L906.471 954.762L896.974 951.967C893.421 946.865 886.244 941.49 883.099 939.441C890.26 904.674 885.06 906.477 882.224 903.265C879.388 900.053 884.199 887.3 880.29 893.653C877.164 898.736 874.928 912.572 874.201 918.855C860.54 930.988 865.952 942.044 870.366 946.056C831.647 944.453 826.562 969.756 828.859 982.608C831.67 972.108 842.344 953.097 862.553 961.048C887.815 970.986 892.942 958.478 895.014 956.787Z" fill="#E1C791"/>
<path d="M957.098 874.82C962.855 869.747 958.297 857.239 955.298 851.619C968.887 846.124 981.949 830.095 986.782 822.767C967.525 827.725 946.444 816.36 938.311 810.059C934.254 821.316 915.976 842.702 907.344 851.988C912.83 862.578 908.042 868.757 906.328 873.26C904.613 877.763 886.23 889.381 888.372 888.252C890.086 887.349 916.188 898.058 929.025 903.525C935.984 896.07 951.342 879.893 957.098 874.82Z" fill="#A58882"/>
<path d="M1022.87 979.823C1030.85 984.182 1032.37 976.284 1032.13 971.79C1028.75 965.362 1028.56 967.244 1026.66 965.77C1024.75 964.297 1017.82 971.605 1015.74 974.299C1013.65 976.992 1012.89 974.374 1022.87 979.823Z" fill="#A5A29E"/>
<path d="M74.1157 365.163L90.1686 359.865L75.0133 392.202L67.5308 374.555L56.5674 367.829L55.2187 368.117L50.4256 365.691C48.662 359.958 52.9846 355.973 55.3663 354.697L60.4334 357.39L61.3737 358.946L74.1157 365.163Z" fill="#447164"/>
<path d="M181.781 329.373C178.161 325.933 172.782 325.612 168.131 327.432L136.21 339.922C131.295 341.845 127.436 346.08 127.375 351.358C127.347 353.824 127.603 356.394 128.477 358.39C129.195 360.03 130.498 361.666 131.924 363.124C135.536 366.815 141.126 367.221 145.935 365.339L177.989 352.797C182.673 350.964 186.417 347.035 186.715 342.014C186.863 339.528 186.722 336.899 185.894 334.855C185.107 332.912 183.501 331.007 181.781 329.373Z" fill="#AB6767"/>
<ellipse cx="10.5281" cy="6.66338" rx="10.5281" ry="6.66338" transform="matrix(0.367483 0.93003 0.93003 -0.367483 127.068 347.037)" fill="#5A3636"/>
<path d="M182.998 358.031C208.495 299.221 195.595 319.073 185.958 336.351C179.297 347.694 145.702 360.687 137.545 357.548C129.388 354.41 118.163 352.448 115.721 360.109C113.279 367.769 96.2018 377.408 87.9961 382.873C79.7904 388.337 70.7412 391.378 68.1486 404.018C65.556 416.658 56.245 395.735 47.7744 397.524C39.3038 399.313 30.4686 418.582 24.5234 423.151C19.7673 426.806 15.8678 424.581 14.5125 423.012L2.50505 443.784C5.00837 446.257 9.12568 454.333 5.56838 466.845C1.12176 482.486 -4.17348 491.212 6.10227 495.026C16.378 498.84 12.8655 499.157 8.48001 511.225C4.0945 523.294 19.9212 525.466 33.0626 533.246C46.204 541.026 31.8311 579.358 45.3443 570.198C58.8574 561.039 64.2882 562.591 63.5608 564.873C62.8335 567.155 50.7964 573.373 59.54 588.19C66.5349 600.044 73.6 601.35 76.2581 600.521C78.9 602.56 84.8793 614.258 87.6617 644.735C91.1397 682.832 101.78 697.895 102.131 679.333C102.481 660.771 114.793 609.752 125.435 592.136C136.078 574.521 122.481 573.239 149.357 531.171C170.857 497.517 174.237 439.031 173.24 413.994C165.869 419.844 157.501 416.842 182.998 358.031Z" fill="#868281"/>
<path d="M79.7186 427.997C80.5083 425.519 84.1707 430.553 85.9032 433.379C94.7537 421.836 96.3375 431.438 96.023 437.682C95.3741 445.915 93.6331 445.18 93.6331 445.18C90.4458 452.926 86.927 445.377 85.566 440.634C73.9914 440.895 78.7314 431.093 79.7186 427.997Z" fill="#EACB88"/>
<path d="M90.0073 359.813L74.852 392.15L97.3951 403.106C97.3951 403.106 104.067 394.14 106.821 387.617C109.58 381.082 111.35 370.027 111.35 370.027L90.0073 359.813Z" fill="#447164"/>
<path d="M33.929 562.072C53.7331 568.385 78.9799 553.676 85.4359 533.422C91.8919 513.168 81.071 491.631 61.2669 485.319C41.4627 479.006 20.1746 490.308 13.7186 510.562C7.26261 530.817 14.1248 555.76 33.929 562.072Z" fill="#665A5A"/>
<path d="M36.3406 555.658C53.6243 561.167 75.6659 548.305 81.3081 530.604C86.9503 512.902 77.5131 494.087 60.2294 488.578C42.9457 483.069 24.3607 492.952 18.7184 510.653C13.0762 528.355 19.057 550.149 36.3406 555.658Z" fill="#868281"/>
<path d="M50.0771 518.738L14.7258 529.376M56.6702 522.276L26.4064 553.568M61.234 523.731L54.2285 558.666M64.5836 523.362L78.6163 541.302M48.6713 514.699L18.6947 506.222M52.6228 510.752L32.6184 491.268M66.2461 518.146L83.0344 523.498" stroke="#665A5A" stroke-width="6"/>
<path d="M48.7174 493.707C54.2388 489.003 40.0363 482.262 32.2448 479.479L51.3629 464.565L82.0812 471.843L94.206 525.624C90.9526 526.442 82.9383 528.64 76.9083 530.883C69.3709 533.688 49.4072 521.399 56.4108 519.143C63.4144 516.886 64.427 507.513 58.8526 511.482C53.2783 515.451 41.8157 499.587 48.7174 493.707Z" fill="#868281"/>
<path d="M62.5719 633.244C73.7639 630.487 80.561 619.015 77.7536 607.62C74.9463 596.226 63.5975 589.225 52.4055 591.982C41.2135 594.74 31.5962 607.21 34.4035 618.604C37.2109 629.998 51.3799 636.002 62.5719 633.244Z" fill="#C6D7D8"/>
<rect width="42.4414" height="34.2147" transform="matrix(0.362075 0.932149 0.932149 -0.362075 48.7539 593.3)" fill="#C6D7D8"/>
<path d="M34.8093 615.251C34.8093 615.251 27.0125 615.731 25.8013 619.412C25.1921 621.263 25.2436 622.64 26.0947 624.394C26.9062 626.066 27.8715 626.919 29.5925 627.621C33.1809 629.083 38.6005 623.46 38.6005 623.46L34.8093 615.251Z" fill="#EA6F4E"/>
<path d="M87.2352 607.217C93.2905 605.194 90.0691 620.5 87.7016 628.406L107.767 620.665L119.524 591.477L90.7832 552.66C88.4961 554.899 82.7429 560.317 78.0273 564.078C72.1328 568.779 69.4489 591.801 74.6968 587.246C79.9447 582.691 86.6355 586.883 81.0338 589.344C75.432 591.804 79.6661 609.745 87.2352 607.217Z" fill="#868281"/>
<path d="M108.712 546.586C108.861 544.766 103.677 542.288 101.067 541.276L104.589 537.551L111.151 542.875C116.457 542.902 123.71 545.347 126.673 546.565C147.648 524.702 148.898 529.23 152.528 529.669C156.159 530.108 162.796 520.552 160.222 526.375C158.162 531.034 149.517 539.303 145.452 542.855C143.536 558.332 133.143 559.879 128.186 558.719C148.055 585.162 132.729 600.985 122.582 605.591C128.603 598.533 136.801 581.826 121.429 571.468C102.214 558.52 108.525 548.861 108.712 546.586Z" fill="#E1C791"/>
<path d="M136.281 463.263C137.061 456.761 148.06 453.911 153.463 453.298C150.748 441.085 155.693 424.143 158.505 417.199C164.342 433.137 182.535 442.455 190.902 445.122C184.952 453.424 178.766 476.626 176.416 487.189C166.316 488.458 164.29 494.815 161.954 498.2C159.618 501.585 160.349 520.133 160.106 518.08C159.911 516.438 139.748 503.272 129.691 496.894C131.563 488.393 135.501 469.766 136.281 463.263Z" fill="#A58882"/>
<path d="M30.6282 467.855C23.7002 464.353 28.5158 459.46 31.7895 457.451C37.9476 456.721 36.7171 457.765 38.673 458.389C40.6289 459.012 38.8462 467.422 37.963 470.192C37.0798 472.963 39.2883 472.231 30.6282 467.855Z" fill="#A5A29E"/>
<path d="M191.739 990.733L192.638 978.011L210.87 997.849L196.41 998.019L188.575 1003.75L188.391 1004.77L185.325 1007.42C180.818 1007.01 179.275 1002.85 179.066 1000.82L182.396 998.058L183.752 997.847L191.739 990.733Z" fill="#447164"/>
<path d="M199.399 904.623C194.659 906.197 192.373 911.259 192.292 916.252L191.935 938.093C191.849 943.371 194.25 948.776 199.298 950.319C200.417 950.662 201.542 950.874 202.578 950.85C203.335 950.832 204.144 950.686 204.96 950.459C209.935 949.074 212.376 943.797 212.46 938.634L212.819 916.65C212.901 911.621 210.744 906.466 206.019 904.743C204.859 904.32 203.68 904.038 202.591 904.033C201.58 904.029 200.484 904.263 199.399 904.623Z" fill="#AB6767"/>
<ellipse cx="7.94295" cy="5.02718" rx="7.94295" ry="5.02718" transform="matrix(0.999916 0.0129915 0.0129915 -0.999916 194.251 948.582)" fill="#5A3636"/>
<path d="M217.939 912.692C184.19 878.055 194.353 892.744 203.654 904.417C209.664 912.315 209.113 939.485 204.587 944.279C200.061 949.074 195.477 956.348 200.125 960.246C204.773 964.144 206.611 978.824 208.076 986.116C209.54 993.408 209.071 1000.6 217.152 1006.02C225.232 1011.45 207.962 1011.96 206.785 1018.39C205.608 1024.81 216.528 1036.5 218.015 1041.95C219.204 1046.32 216.535 1048.4 215.052 1048.9L226.112 1063.23C228.555 1062.19 235.371 1061.63 243.086 1067.7C252.73 1075.28 257.304 1081.47 262.909 1075.39C268.513 1069.31 267.729 1071.85 274.897 1078.37C282.065 1084.89 288.113 1074.46 297.306 1067.52C306.499 1060.57 329.14 1081.58 326.616 1069.53C324.092 1057.47 326.73 1054.12 328.115 1055.29C329.499 1056.45 330.393 1066.63 343.239 1064.77C353.515 1063.28 356.45 1058.72 356.633 1056.63C358.813 1055.37 368.69 1054.55 390.76 1061.33C418.347 1069.81 431.908 1066.7 419.052 1061.14C406.196 1055.58 374.11 1032.38 364.862 1019.9C355.613 1007.43 350.826 1016.55 329.158 985.75C311.824 961.106 271.968 942 254.207 935.527C256.18 942.347 251.688 947.328 217.939 912.692Z" fill="#868281"/>
<path d="M237.203 1004.81C235.7 1003.55 240.262 1002.44 242.731 1002.04C237.208 992.556 244.364 994.2 248.632 996.208C254.192 999.018 253.181 1000.02 253.181 1000.02C257.675 1004.47 251.398 1004.76 247.698 1004.35C244.566 1012.51 239.082 1006.39 237.203 1004.81Z" fill="#EACB88"/>
<path d="M192.555 978.11L210.786 997.947L224.889 985.35C224.889 985.35 220.541 978.125 216.776 974.335C213.005 970.538 205.796 966.137 205.796 966.137L192.555 978.11Z" fill="#447164"/>
<path d="M317.676 1075.17C327.752 1063.15 324.715 1041.32 312.426 1031.01C300.137 1020.71 282.006 1022.09 271.929 1034.11C261.853 1046.12 263.646 1064.22 275.935 1074.52C288.223 1084.83 307.599 1087.18 317.676 1075.17Z" fill="#665A5A"/>
<path d="M313.888 1071.65C322.683 1061.16 320.017 1042.09 309.277 1033.09C298.537 1024.08 282.701 1025.28 273.907 1035.76C265.113 1046.25 266.69 1062.05 277.43 1071.06C288.169 1080.07 305.094 1082.13 313.888 1071.65Z" fill="#868281"/>
<path d="M292.052 1051.49L289.354 1079.21M296.409 1047.9L309.585 1077.98M298.731 1045.13L321.11 1060.02M299.433 1042.69L315.973 1038.03M288.83 1051.31L274.329 1069.81M287.206 1047.42L267.878 1055.81M296.268 1040.03L304.811 1029.85" stroke="#665A5A" stroke-width="6"/>
<path d="M274.191 1045.27C272.489 1040.07 263.716 1048.05 259.543 1052.69L254.607 1035.08L268.483 1015.72L309.494 1022.66C309.133 1025.16 308.372 1031.39 308.212 1036.24C308.011 1042.3 293.717 1052.72 294.148 1047.18C294.578 1041.65 288.326 1038.26 289.5 1043.28C290.674 1048.31 276.319 1051.77 274.191 1045.27Z" fill="#868281"/>
<path d="M375.554 1075.55C376.834 1066.95 370.773 1058.92 362.016 1057.62C353.259 1056.32 345.122 1062.23 343.842 1070.83C342.563 1079.44 348.513 1089.72 357.27 1091.02C366.027 1092.33 374.274 1084.15 375.554 1075.55Z" fill="#C6D7D8"/>
<rect width="32.0199" height="25.8133" transform="matrix(0.999823 0.018799 0.018799 -0.999823 343.718 1073.76)" fill="#C6D7D8"/>
<path d="M355.047 1089.78C355.047 1089.78 353.149 1095.36 355.371 1097.26C356.489 1098.21 357.466 1098.57 358.933 1098.48C360.332 1098.39 361.205 1097.96 362.187 1096.96C364.235 1094.88 361.862 1089.48 361.862 1089.48L355.047 1089.78Z" fill="#EA6F4E"/>
<path d="M364.45 1050.89C364.772 1046.08 374.533 1052.71 379.373 1056.63L379.716 1040.41L362.709 1023.84L327.385 1032.79C328.293 1035.03 330.428 1040.59 331.702 1044.96C333.296 1050.42 348.597 1058.89 346.92 1053.92C345.243 1048.95 350.085 1045.48 350.199 1050.1C350.312 1054.71 364.047 1056.89 364.45 1050.89Z" fill="#868281"/>
<path d="M328.279 1018.53C327.051 1017.91 323.837 1020.82 322.384 1022.35L320.792 1018.82L326.387 1015.77C327.926 1012.07 331.709 1007.71 333.408 1005.99C324.153 985.09 327.671 985.514 329.017 983.106C330.363 980.697 325.594 973.329 328.921 976.793C331.583 979.564 334.88 987.966 336.195 991.82C346.449 997.59 344.553 1005.29 342.324 1008.41C366.47 1002.12 373.127 1017.35 373.437 1025.75C370.233 1019.52 360.92 1009.02 349.288 1016.78C334.748 1026.49 329.813 1019.32 328.279 1018.53Z" fill="#E1C791"/>
<path d="M278.014 975.432C273.699 973.026 274.859 964.532 275.978 960.586C266.676 958.984 256.267 950.681 252.225 946.73C265.021 947.219 276.734 937.189 280.992 932.112C285.083 938.642 299.506 949.604 306.206 954.269C304.2 961.682 308.057 964.917 309.751 967.517C311.445 970.116 324.601 974.917 323.098 974.499C321.896 974.165 306.933 984.468 299.601 989.662C294.204 985.921 282.33 977.839 278.014 975.432Z" fill="#A58882"/>
<path d="M250.967 1050.49C246.539 1054.33 244.503 1049.56 244.038 1046.7C245.291 1042.2 245.668 1043.35 246.663 1042.17C247.658 1040.98 253.018 1044.63 254.699 1046.04C256.38 1047.45 256.501 1045.7 250.967 1050.49Z" fill="#A5A29E"/>
<path d="M1070.63 348.595L1066.86 360.442L1054.13 337.477L1067.87 340.623L1076.6 336.99L1077.01 336.062L1080.52 334.251C1084.7 335.671 1085.21 339.964 1084.94 341.933L1081.15 343.792L1079.82 343.681L1070.63 348.595Z" fill="#447164"/>
<path d="M1043.47 428.445C1048.46 428.093 1051.87 423.677 1053.12 418.842L1058.35 398.631C1059.67 393.521 1058.62 387.671 1054.04 385.05C1053.11 384.52 1052.16 384.105 1051.23 383.904C1050.57 383.761 1049.85 383.71 1049.1 383.724C1043.93 383.823 1040.32 388.42 1039.02 393.42L1033.76 413.769C1032.5 418.638 1033.37 424.184 1037.6 426.913C1038.55 427.527 1039.54 428.018 1040.51 428.258C1041.41 428.479 1042.43 428.518 1043.47 428.445Z" fill="#AB6767"/>
<ellipse cx="7.74178" cy="4.89986" rx="7.74178" ry="4.89986" transform="matrix(-0.968948 -0.247264 -0.247264 0.968948 1058.61 387.957)" fill="#5A3636"/>
<path d="M1027.95 416.543C1052.01 457.079 1045.74 440.838 1039.6 427.65C1035.71 418.793 1042.44 393.177 1047.83 389.669C1053.21 386.161 1059.22 380.319 1055.71 375.562C1052.2 370.806 1053.81 356.477 1054.09 349.233C1054.37 341.989 1056.46 335.286 1050.05 328.295C1043.63 321.303 1060.11 324.771 1062.7 318.953C1065.28 313.135 1057.61 299.567 1057.45 294.056C1057.32 289.647 1060.32 288.282 1061.84 288.151L1054.64 272.045C1052.09 272.471 1045.5 271.444 1039.58 263.932C1032.18 254.543 1029.26 247.627 1022.56 252.107C1015.86 256.586 1017.18 254.356 1011.88 246.542C1006.58 238.728 998.466 247.223 988.168 251.7C977.869 256.178 961.223 231.095 960.857 243.094C960.491 255.093 957.227 257.66 956.181 256.243C955.134 254.826 956.616 244.974 944.02 243.799C933.943 242.859 930.12 246.505 929.468 248.446C927.114 249.142 917.568 247.663 898.209 236.187C874.011 221.843 860.451 221.692 871.36 229.899C882.269 238.107 907.362 267.429 913.272 281.361C919.182 295.294 925.805 287.744 939.288 321.886C950.076 349.2 983.467 376.418 998.815 386.613C998.506 379.7 1003.9 376.008 1027.95 416.543Z" fill="#868281"/>
<path d="M1030.77 324.855C1031.91 326.393 1027.33 326.406 1024.9 326.221C1027.97 336.468 1021.56 333.274 1017.98 330.396C1013.35 326.462 1014.54 325.741 1014.54 325.741C1011.3 320.504 1017.31 321.66 1020.72 322.893C1025.56 315.884 1029.35 322.932 1030.77 324.855Z" fill="#EACB88"/>
<path d="M1066.97 360.368L1054.23 337.403L1037.99 346.114C1037.99 346.114 1040.45 353.953 1043.15 358.405C1045.86 362.865 1051.68 368.683 1051.68 368.683L1066.97 360.368Z" fill="#447164"/>
<path d="M970.618 239.795C958.322 248.875 956.207 270.256 965.493 282.831C974.779 295.406 992.274 298.24 1004.57 289.16C1016.87 280.08 1019.31 262.526 1010.02 249.951C1000.73 237.376 982.914 230.715 970.618 239.795Z" fill="#665A5A"/>
<path d="M973.401 243.996C962.67 251.92 960.835 270.596 968.951 281.586C977.067 292.576 992.345 295.061 1003.08 287.137C1013.81 279.213 1015.93 263.88 1007.81 252.89C999.695 241.9 984.132 236.072 973.401 243.996Z" fill="#868281"/>
<path d="M989.479 268.09L998.375 242.442M984.529 270.493L978.926 238.976M981.696 272.586L963.9 253.357M980.472 274.74L963.736 275.371M992.491 268.993L1010.46 254.785M993.14 273.048L1013.37 269.525M982.864 277.979L972.44 285.676" stroke="#665A5A" stroke-width="6"/>
<path d="M1004.98 278.066C1005.4 283.382 1015.54 277.825 1020.56 274.382L1021.2 292.2L1003.63 307.367L966.361 291.416C967.276 289.124 969.42 283.402 970.682 278.842C972.259 273.143 988.184 266.543 986.51 271.689C984.837 276.834 989.985 281.477 990.023 276.445C990.06 271.413 1004.45 271.419 1004.98 278.066Z" fill="#868281"/>
<path d="M915.867 226.191C912.687 234.048 916.594 243.042 924.593 246.279C932.592 249.516 941.654 245.772 944.834 237.915C948.014 230.058 944.728 218.954 936.729 215.716C928.73 212.479 919.047 218.334 915.867 226.191Z" fill="#C6D7D8"/>
<rect width="31.2089" height="25.1595" transform="matrix(-0.967496 -0.252887 -0.252887 0.967496 945.623 235.171)" fill="#C6D7D8"/>
<path d="M938.552 217.403C938.552 217.403 941.626 212.551 939.955 210.243C939.115 209.082 938.272 208.519 936.86 208.271C935.514 208.034 934.59 208.241 933.43 208.964C931.013 210.472 932.027 216.124 932.027 216.124L938.552 217.403Z" fill="#EA6F4E"/>
<path d="M920.749 252.101C919.345 256.581 911.613 248.066 907.923 243.248L903.888 258.54L916.213 278.123L951.728 277.726C951.379 275.399 950.63 269.636 950.421 265.205C950.16 259.667 937.599 248.147 938.052 253.237C938.505 258.327 933.123 260.507 934.071 256.109C935.019 251.711 922.505 246.502 920.749 252.101Z" fill="#868281"/>
<path d="M947.62 291.026C948.64 291.9 952.35 289.879 954.078 288.76L954.78 292.463L948.78 294.079C946.477 297.229 941.895 300.497 939.892 301.738C943.88 323.657 940.644 322.45 938.817 324.424C936.991 326.398 939.825 334.471 937.464 330.427C935.576 327.193 934.375 318.479 934.01 314.526C925.614 306.714 929.171 299.855 931.998 297.402C907.68 297.845 904.857 281.894 906.485 273.864C908.096 280.493 914.518 292.577 927.314 287.882C943.309 282.012 946.345 289.935 947.62 291.026Z" fill="#E1C791"/>
<path d="M985.385 343.36C988.923 346.627 985.881 354.409 983.918 357.891C992.365 361.537 1000.33 371.784 1003.25 376.452C991.243 373.062 977.851 379.887 972.656 383.723C970.273 376.6 959.115 362.915 953.833 356.964C957.43 350.398 954.515 346.452 953.505 343.601C952.495 340.75 941.128 333.193 942.456 333.933C943.518 334.525 960.052 328.185 968.186 324.941C972.445 329.719 981.846 340.093 985.385 343.36Z" fill="#A58882"/>
<path d="M1028.18 278.428C1033.25 275.809 1034.09 280.787 1033.88 283.603C1031.66 287.587 1031.57 286.404 1030.35 287.301C1029.14 288.197 1024.9 283.511 1023.63 281.791C1022.36 280.071 1021.84 281.702 1028.18 278.428Z" fill="#A5A29E"/>
<path d="M896.098 186.362L896.934 194.396L883.383 184.024L892.385 182.33L896.643 177.898L896.646 177.239L898.267 175.248C901.123 175.009 902.543 177.434 902.896 178.676L901.122 180.767L900.3 181.047L896.098 186.362Z" fill="#447164"/>
<path d="M898.847 241.639C903.248 240.884 904.308 235.255 903.605 230.846L902.086 221.309C901.353 216.701 898.29 211.518 893.715 212.433V212.433V212.433C889.564 213.264 888.467 218.472 889.132 222.653L890.731 232.692C891.453 237.223 894.325 242.414 898.847 241.639V241.639V241.639Z" fill="#AB6767"/>
<ellipse cx="5.03097" cy="3.18416" rx="5.03097" ry="3.18416" transform="matrix(-0.987024 0.16057 0.16057 0.987024 899.159 212.933)" fill="#5A3636"/>
<path d="M888.325 237.921C913.182 255.821 905.229 247.775 898.145 241.514C893.529 237.248 890.888 220.239 893.185 216.751C895.482 213.263 897.543 208.222 894.215 206.301C890.888 204.38 888.129 195.424 886.415 191.036C884.701 186.648 884.204 182.114 878.567 179.614C872.93 177.115 883.648 174.902 883.676 170.765C883.705 166.628 875.61 160.538 874.083 157.297C872.862 154.704 874.298 153.11 875.168 152.637L866.695 144.914C865.285 145.83 861.095 146.929 855.617 143.992C848.768 140.322 845.234 136.96 842.406 141.368C839.578 145.777 839.788 144.104 834.601 140.826C829.414 137.548 826.786 144.716 821.814 150.058C816.842 155.399 800.412 144.781 803.31 152.023C806.208 159.266 804.93 161.643 803.939 161.071C802.948 160.499 801.272 154.245 793.463 156.816C787.216 158.873 785.886 162.038 786.002 163.364C784.78 164.389 778.71 165.988 764.197 164.179C746.057 161.918 737.94 165.35 746.57 167.406C755.2 169.463 777.763 180.413 784.902 187.177C792.041 193.942 794.025 187.725 810.924 204.561C824.444 218.03 851.404 225.572 863.194 227.659C861.214 223.622 863.469 220.021 888.325 237.921Z" fill="#868281"/>
<path d="M866.194 182.57C867.27 183.192 864.546 184.388 863.05 184.909C867.536 190.218 862.892 189.978 860.009 189.195C856.232 188.052 856.752 187.314 856.752 187.314C853.461 185.036 857.344 184.163 859.698 184.012C860.756 178.581 864.848 181.794 866.194 182.57Z" fill="#EACB88"/>
<path d="M896.975 194.326L883.424 183.953L876.011 193.36C876.011 193.36 879.516 197.389 882.281 199.34C885.05 201.294 890.031 203.248 890.031 203.248L896.975 194.326Z" fill="#447164"/>
<path d="M808.267 147.523C803.301 156.125 807.593 169.412 816.391 174.491C825.188 179.57 836.346 176.714 841.312 168.112C846.279 159.51 843.173 148.42 834.375 143.34C825.578 138.261 813.233 138.921 808.267 147.523Z" fill="#665A5A"/>
<path d="M811.016 149.303C806.682 156.81 810.439 168.412 818.128 172.851C825.816 177.29 835.563 174.802 839.897 167.295C844.231 159.788 841.512 150.104 833.824 145.665C826.135 141.226 815.351 141.796 811.016 149.303Z" fill="#868281"/>
<path d="M826.852 159.48L825.49 141.891M824.528 162.197L813.005 144.878M823.383 164.179L807.788 157.347M823.214 165.781L813.408 170.503M828.881 159.235L835.895 146.105M830.321 161.483L841.456 154.13M825.479 167.089L821.269 174.381" stroke="#665A5A" stroke-width="6"/>
<path d="M838.676 161.397C840.309 164.454 844.904 158.511 846.998 155.157L852.011 165.603L845.482 179.202L819.137 179.379C819.087 177.777 818.878 173.811 818.446 170.767C817.905 166.962 825.678 158.895 826.017 162.395C826.356 165.895 830.629 167.323 829.344 164.316C828.06 161.309 836.635 157.575 838.676 161.397Z" fill="#868281"/>
<path d="M772.12 153.638C772.266 159.144 776.929 163.487 782.534 163.338C788.14 163.19 792.566 158.605 792.42 153.099C792.273 147.593 787.432 141.831 781.827 141.98C776.221 142.129 771.973 148.132 772.12 153.638Z" fill="#C6D7D8"/>
<rect width="20.281" height="16.3498" transform="matrix(-0.98794 0.154835 0.154835 0.98794 792.177 151.26)" fill="#C6D7D8"/>
<path d="M783.352 142.512C783.352 142.512 783.923 138.823 782.328 137.882C781.526 137.409 780.878 137.293 779.972 137.511C779.109 137.719 778.612 138.083 778.109 138.815C777.061 140.341 779.133 143.445 779.133 143.445L783.352 142.512Z" fill="#EA6F4E"/>
<path d="M781.757 167.806C782.084 170.839 775.267 167.774 771.818 165.863L773.385 176.02L785.813 184.485L806.866 175.025C806.054 173.729 804.111 170.491 802.836 167.906C801.242 164.675 790.768 161.074 792.359 163.989C793.951 166.903 791.311 169.599 790.734 166.733C790.156 163.867 781.349 164.014 781.757 167.806Z" fill="#868281"/>
<path d="M807.874 184.014C808.708 184.269 810.394 182.102 811.132 180.987L812.512 183.011L809.358 185.531C808.804 188.006 806.923 191.143 806.052 192.402C814.12 204.423 811.879 204.545 811.304 206.195C810.729 207.845 814.513 211.918 812.057 210.122C810.092 208.686 807.113 203.807 805.869 201.547C798.839 199.074 799.176 194.064 800.224 191.869C785.853 198.448 780.028 189.68 778.912 184.473C781.594 188.004 788.558 193.535 794.961 187.414C802.965 179.764 806.831 183.695 807.874 184.014Z" fill="#E1C791"/>
<path d="M843.96 205.382C846.916 206.409 847.125 211.835 846.86 214.42C852.839 214.398 860.244 218.434 863.199 220.455C855.163 221.555 848.958 229.098 846.86 232.732C843.59 229.108 833.39 223.854 828.698 221.68C829.135 216.835 826.374 215.241 825.032 213.805C823.69 212.37 814.956 210.82 815.939 210.916C816.726 210.992 824.928 202.921 828.931 198.877C832.709 200.617 841.003 204.355 843.96 205.382Z" fill="#A58882"/>
<path d="M852.59 155.588C854.931 152.711 856.724 155.458 857.328 157.191C857.042 160.141 856.68 159.46 856.189 160.309C855.699 161.159 851.954 159.469 850.751 158.774C849.547 158.079 849.664 159.185 852.59 155.588Z" fill="#A5A29E"/>
<path d="M364.99 1081.41L363.495 1074.63L376.068 1082.17L368.551 1084.49L365.347 1088.69L365.409 1089.25L364.219 1091.1C361.804 1091.59 360.357 1089.65 359.935 1088.63L361.246 1086.67L361.921 1086.35L364.99 1081.41Z" fill="#447164"/>
<path d="M357.271 1034.5C353.588 1035.57 353.231 1040.48 354.259 1044.18L356.482 1052.17C357.556 1056.03 360.673 1060.15 364.489 1058.93V1058.93V1058.93C367.951 1057.82 368.381 1053.26 367.406 1049.76L365.066 1041.35C364.01 1037.55 361.055 1033.4 357.271 1034.5V1034.5V1034.5Z" fill="#AB6767"/>
<ellipse cx="4.32126" cy="2.73498" rx="4.32126" ry="2.73498" transform="matrix(0.962522 -0.271205 -0.271205 -0.962522 359.795 1059.03)" fill="#5A3636"/>
<path d="M366.613 1036.65C343.661 1023.79 351.231 1029.89 357.884 1034.54C362.238 1037.73 366.144 1051.99 364.523 1055.19C362.902 1058.39 361.633 1062.89 364.659 1064.21C367.686 1065.53 370.91 1072.9 372.8 1076.48C374.689 1080.06 375.554 1083.88 380.607 1085.46C385.661 1087.05 376.729 1089.98 377.107 1093.51C377.485 1097.05 384.985 1101.46 386.603 1104.07C387.897 1106.17 386.826 1107.67 386.129 1108.16L394.111 1113.92C395.225 1113.01 398.694 1111.66 403.655 1113.63C409.856 1116.1 413.199 1118.63 415.184 1114.59C417.17 1110.55 417.153 1112 421.898 1114.29C426.643 1116.59 428.189 1110.22 431.914 1105.17C435.638 1100.13 450.691 1107.6 447.514 1101.7C444.337 1095.8 445.197 1093.65 446.098 1094.04C447 1094.43 449.037 1099.6 455.452 1096.65C460.583 1094.29 461.411 1091.46 461.183 1090.34C462.126 1089.34 467.152 1087.39 479.712 1087.52C495.413 1087.69 502.007 1083.97 494.442 1083.06C486.877 1082.14 466.558 1074.99 459.808 1069.91C453.058 1064.83 451.969 1070.33 435.91 1057.6C423.064 1047.42 399.323 1043.6 389.058 1042.97C391.14 1046.22 389.566 1049.51 366.613 1036.65Z" fill="#868281"/>
<path d="M390.879 1081.74C389.9 1081.31 392.108 1080.03 393.335 1079.44C388.99 1075.34 392.977 1075.1 395.513 1075.48C398.848 1076.09 398.475 1076.77 398.475 1076.77C401.505 1078.4 398.276 1079.52 396.283 1079.88C395.907 1084.61 392.102 1082.27 390.879 1081.74Z" fill="#EACB88"/>
<path d="M363.466 1074.7L376.039 1082.23L381.452 1073.48C381.452 1073.48 378.068 1070.39 375.519 1068.99C372.966 1067.59 368.526 1066.41 368.526 1066.41L363.466 1074.7Z" fill="#447164"/>
<path d="M443.721 1106.02C447.124 1098.2 442.169 1087.28 434.168 1083.8C426.166 1080.32 416.922 1083.84 413.519 1091.66C410.117 1099.48 413.845 1108.65 421.846 1112.13C429.848 1115.61 440.319 1113.84 443.721 1106.02Z" fill="#665A5A"/>
<path d="M441.202 1104.77C444.172 1097.94 439.838 1088.4 432.845 1085.36C425.852 1082.32 417.776 1085.39 414.806 1092.22C411.837 1099.05 415.099 1107.05 422.091 1110.09C429.084 1113.13 438.233 1111.6 441.202 1104.77Z" fill="#868281"/>
<path d="M426.699 1097.62L429.57 1112.5M428.418 1095.08L439.935 1108.74M429.202 1093.27L443.175 1097.59M429.191 1091.89L437.101 1086.91M424.991 1098.03L420.28 1109.91M423.543 1096.25L414.754 1103.61M427.13 1090.99L430.015 1084.36" stroke="#665A5A" stroke-width="6"/>
<path d="M416.421 1097.13C414.731 1094.68 411.386 1100.2 409.925 1103.27L404.632 1094.84L408.883 1082.6L431.348 1079.89C431.547 1081.25 432.111 1084.62 432.776 1087.17C433.607 1090.37 427.757 1098.01 427.128 1095.05C426.498 1092.1 422.713 1091.29 424.101 1093.74C425.49 1096.18 418.535 1100.2 416.421 1097.13Z" fill="#868281"/>
<path d="M473.974 1097.29C473.314 1092.6 468.913 1089.35 464.144 1090.02C459.374 1090.69 456.042 1095.04 456.702 1099.72C457.362 1104.41 462.053 1108.85 466.823 1108.18C471.592 1107.51 474.634 1101.97 473.974 1097.29Z" fill="#C6D7D8"/>
<rect width="17.42" height="14.0434" transform="matrix(0.964081 -0.26561 -0.26561 -0.964081 457.089 1101.27)" fill="#C6D7D8"/>
<path d="M465.472 1107.88C465.472 1107.88 465.343 1111.08 466.796 1111.73C467.526 1112.05 468.091 1112.09 468.842 1111.81C469.559 1111.55 469.948 1111.19 470.306 1110.52C471.052 1109.12 468.982 1106.67 468.982 1106.67L465.472 1107.88Z" fill="#EA6F4E"/>
<path d="M464.374 1086.13C463.801 1083.58 469.916 1085.53 473.046 1086.83L470.721 1078.31L459.292 1072.29L442.245 1082.41C443.064 1083.44 445.037 1086.02 446.376 1088.1C448.05 1090.7 457.339 1092.76 455.697 1090.42C454.056 1088.09 456.047 1085.53 456.818 1087.92C457.589 1090.31 465.092 1089.33 464.374 1086.13Z" fill="#868281"/>
<path d="M440.512 1074.84C439.775 1074.7 438.547 1076.72 438.026 1077.74L436.651 1076.15L439.098 1073.69C439.33 1071.52 440.631 1068.66 441.252 1067.5C433.198 1058.03 435.099 1057.71 435.429 1056.24C435.76 1054.78 432.135 1051.67 434.405 1052.96C436.221 1054 439.238 1057.87 440.519 1059.68C446.759 1061.11 446.958 1065.42 446.277 1067.39C457.902 1060.38 463.725 1067.3 465.184 1071.63C462.552 1068.88 456.072 1064.84 451.202 1070.68C445.114 1077.99 441.433 1075.01 440.512 1074.84Z" fill="#E1C791"/>
<path d="M407.636 1060.11C405.013 1059.52 404.308 1054.91 404.283 1052.68C399.183 1053.28 392.471 1050.55 389.752 1049.12C396.503 1047.4 401.066 1040.36 402.504 1037.05C405.646 1039.83 414.862 1043.32 419.077 1044.72C419.175 1048.9 421.686 1049.99 422.971 1051.08C424.256 1052.18 431.86 1052.65 431.012 1052.67C430.333 1052.68 424.117 1060.36 421.094 1064.2C417.701 1063.08 410.259 1060.7 407.636 1060.11Z" fill="#A58882"/>
<path d="M405.111 1103.44C403.393 1106.13 401.595 1103.96 400.911 1102.54C400.87 1099.99 401.245 1100.54 401.581 1099.77C401.917 1098.99 405.276 1100.07 406.371 1100.55C407.466 1101.02 407.259 1100.09 405.111 1103.44Z" fill="#A5A29E"/>
<defs>
<radialGradient id="paint0_radial_319_120" cx="0" cy="0" r="1" gradientUnits="userSpaceOnUse" gradientTransform="translate(580.543 603.529) scale(497.411)">
<stop stop-color="white" stop-opacity="0"/>
<stop offset="1" stop-color="#29ABE2"/>
</radialGradient>
<linearGradient id="paint1_linear_319_120" x1="1357.9" y1="-109.301" x2="305.08" y2="856.056" gradientUnits="userSpaceOnUse">
<stop stop-color="white" stop-opacity="0"/>
<stop offset="1" stop-color="#29ABE2"/>
</linearGradient>
<linearGradient id="paint2_linear_319_120" x1="1272.55" y1="-308.072" x2="-322.08" y2="1090.39" gradientUnits="userSpaceOnUse">
<stop stop-color="#00A99D" stop-opacity="0"/>
<stop offset="1" stop-color="#0000FF" stop-opacity="0.7"/>
</linearGradient>
</defs>
</svg>
