<svg width="860" height="817" viewBox="0 0 860 817" fill="none" xmlns="http://www.w3.org/2000/svg">
<path d="M214.61 652.215C344.662 772.842 547.878 765.202 668.505 635.15C789.132 505.098 781.492 301.883 651.44 181.256C521.388 60.6284 318.172 68.2687 197.545 198.321C76.9181 328.372 84.5583 531.588 214.61 652.215Z" fill="#F7931E"/>
<path d="M214.61 652.215C344.662 772.842 547.878 765.202 668.505 635.15C789.132 505.098 781.492 301.883 651.44 181.256C521.388 60.6284 318.172 68.2687 197.545 198.321C76.9181 328.372 84.5583 531.588 214.61 652.215Z" fill="url(#paint0_radial_319_122)"/>
<path d="M215.187 652.193C345.239 772.82 548.455 765.179 669.082 635.128C789.709 505.076 782.069 301.86 652.017 181.233C521.965 60.606 318.749 68.2462 198.122 198.298C77.4952 328.35 85.1355 531.565 215.187 652.193Z" fill="url(#paint1_linear_319_122)"/>
<mask id="mask0_319_122" style="mask-type:luminance" maskUnits="userSpaceOnUse" x="112" y="95" width="643" height="643">
<path d="M215.188 652.192C345.24 772.819 548.456 765.178 669.083 635.127C789.71 505.075 782.07 301.859 652.018 181.232C521.966 60.605 318.75 68.2453 198.123 198.297C77.4962 328.349 85.1365 531.564 215.188 652.192Z" fill="white"/>
</mask>
<g mask="url(#mask0_319_122)">
<g opacity="0.55">
<mask id="mask1_319_122" style="mask-type:luminance" maskUnits="userSpaceOnUse" x="-37" y="-4" width="833" height="820">
<path d="M132.577 672.668C317.301 844.004 577.792 863.505 714.4 716.223C851.008 568.941 812.003 310.65 627.28 139.313C442.556 -32.0232 182.066 -51.5236 45.4574 95.7581C-91.1509 243.04 -52.146 501.331 132.577 672.668Z" fill="white"/>
</mask>
<g mask="url(#mask1_319_122)">
<path d="M-244.315 -221.453C-173.569 -260.568 12.3034 -194.373 381.172 -60.3985C381.172 -60.3985 575.708 -6.19076 720.35 165.872C723.029 169.06 725.82 172.62 726.14 176.343C726.678 182.657 720.102 185.609 714.241 186.981C649.515 202.159 573.69 174.385 503.171 147.159C382.646 100.626 262.121 54.0926 141.595 7.54802C120.308 -0.667104 98.4019 -9.0211 77.2606 -9.35536C56.1194 -9.68961 35.6518 -0.113084 30.9657 19.0899C26.2142 38.556 38.5816 62.1032 54.315 80.1564C111.73 146.045 202.587 159.49 282.488 174.448C481.137 211.634 677.976 294.619 871.33 380.99C879.928 384.836 889.419 389.476 893.991 397.723C900.102 408.726 894.224 419.949 887.068 427.363C851.455 464.254 786.921 465.291 728.539 447.301C670.157 429.311 615.124 395.208 559.19 366.119C488.841 329.529 416.159 300.508 343.683 271.577C280.777 246.468 217.772 221.321 154.069 201.354C83.0428 179.092 -1.40764 166.633 -40.3756 215.468C-45.6012 222.017 -49.8372 229.784 -49.9794 238.938C-50.4587 269.465 -10.5195 291.744 21.0946 303.121C147.498 348.61 274.972 390.684 402.71 415.748C478.135 430.549 553.486 439.389 628.88 458.627C704.275 477.865 781.096 508.549 845.346 560.498C809.642 602.193 736.222 590.958 673.572 573.743C450.163 512.352 224.615 407.18 5.45441 402.745C-38.7822 401.849 -84.417 405.962 -114.895 431.265C-119.814 435.353 -124.451 440.315 -125.162 447.111C-126.972 464.417 -104.658 479.177 -86.5326 486.914C35.7112 539.115 162.199 562.807 287.298 590.246C463.332 628.855 639.236 675.703 815.052 722.526C819.48 723.708 824.298 725.119 827.577 728.696C835.656 737.518 826.826 748.168 817.679 751.905C787.289 764.31 750.274 762.21 714.44 759.944C665.703 756.849 616.965 753.742 568.221 750.63C452.689 743.26 336.58 735.801 219.554 710.572C102.528 685.343 -16.4484 641.352 -120.903 567.939C-169.577 533.73 -214.37 493.689 -258.198 453.004C-296.266 417.662 -334.477 380.825 -360.689 337.26C-407.201 259.965 -408.7 188.998 -409.888 128.587C-411.698 37.0181 -388.165 -27.797 -375.98 -56.529C-365.273 -81.766 -324.952 -176.858 -244.32 -221.447L-244.315 -221.453Z" fill="url(#paint2_linear_319_122)"/>
</g>
</g>
</g>
<path d="M219.033 176.958C200.566 171.983 168.143 165.872 129.128 172.81C112.367 175.791 69.9507 183.101 40.3188 213.207C-1.30962 255.501 2.56387 318.793 4.15719 344.848C13.3652 495.355 193.634 666.478 401.332 728.865C446.332 742.378 647.638 802.776 780.672 700.127C799.961 685.239 843.368 650.209 853.639 592.58C865.799 524.348 826.892 449.61 754.804 397.11C755.527 409.254 755.653 423.077 754.613 438.229C753.578 453.374 751.562 467.04 749.196 478.964C753.624 487.848 759.441 503.031 757.143 520.934C753.122 552.272 726.877 571.278 714.217 580.451C673.373 610.035 577.562 632.687 455.57 600.598C265.051 550.483 169.843 408.692 143.188 346.569C134.158 325.525 114.871 280.582 135.597 252.473C145.239 239.395 160.327 234.294 170.151 232.066C176.004 224.023 182.612 215.61 190.053 206.998C199.936 195.562 209.74 185.593 219.033 176.958Z" fill="url(#paint3_radial_319_122)"/>
<rect x="648.958" y="105.009" width="85.431" height="69.3769" transform="rotate(43.2985 648.958 105.009)" fill="#DCADA3"/>
<rect x="651.55" y="108.11" width="9.74718" height="15.9615" transform="rotate(-136.702 651.55 108.11)" fill="#BF1C1C"/>
<ellipse cx="647.764" cy="105.021" rx="4.87359" ry="4.51085" transform="rotate(-136.702 647.764 105.021)" fill="#BF1C1C"/>
<rect x="679.926" y="134.849" width="9.74718" height="15.9615" transform="rotate(-136.702 679.926 134.849)" fill="#BF1C1C"/>
<ellipse cx="676.14" cy="131.76" rx="4.87359" ry="4.51085" transform="rotate(-136.702 676.14 131.76)" fill="#BF1C1C"/>
<rect x="665.784" y="121.432" width="9.74718" height="15.893" transform="rotate(-136.702 665.784 121.432)" fill="#BF1C1C"/>
<ellipse cx="662" cy="118.341" rx="4.87359" ry="4.4915" transform="rotate(-136.702 662 118.341)" fill="#BF1C1C"/>
<rect x="694.16" y="148.169" width="9.74718" height="15.893" transform="rotate(-136.702 694.16 148.169)" fill="#BF1C1C"/>
<ellipse cx="690.376" cy="145.078" rx="4.87359" ry="4.4915" transform="rotate(-136.702 690.376 145.078)" fill="#BF1C1C"/>
<rect x="708.348" y="161.538" width="9.74718" height="15.893" transform="rotate(-136.702 708.348 161.538)" fill="#BF1C1C"/>
<ellipse cx="704.564" cy="158.447" rx="4.87359" ry="4.4915" transform="rotate(-136.702 704.564 158.447)" fill="#BF1C1C"/>
<rect x="658.645" y="114.796" width="9.74718" height="15.9615" transform="rotate(-136.702 658.645 114.796)" fill="#EEAA26"/>
<ellipse cx="654.859" cy="111.707" rx="4.87359" ry="4.51085" transform="rotate(-136.702 654.859 111.707)" fill="#EEAA26"/>
<rect x="687.019" y="141.534" width="9.74718" height="15.9615" transform="rotate(-136.702 687.019 141.534)" fill="#EEAA26"/>
<ellipse cx="683.234" cy="138.445" rx="4.87359" ry="4.51085" transform="rotate(-136.702 683.234 138.445)" fill="#EEAA26"/>
<rect x="672.832" y="128.165" width="9.74718" height="15.9615" transform="rotate(-136.702 672.832 128.165)" fill="#EEAA26"/>
<ellipse cx="669.047" cy="125.076" rx="4.87359" ry="4.51085" transform="rotate(-136.702 669.047 125.076)" fill="#EEAA26"/>
<rect x="701.207" y="154.904" width="9.74718" height="15.9615" transform="rotate(-136.702 701.207 154.904)" fill="#EEAA26"/>
<ellipse cx="697.423" cy="151.814" rx="4.87359" ry="4.51085" transform="rotate(-136.702 697.423 151.814)" fill="#EEAA26"/>
<rect x="715.324" y="168.208" width="9.65199" height="15.9615" transform="rotate(-136.702 715.324 168.208)" fill="#EEAA26"/>
<ellipse cx="711.574" cy="165.151" rx="4.82599" ry="4.51085" transform="rotate(-136.702 711.574 165.151)" fill="#EEAA26"/>
<rect x="660.634" y="88.4385" width="92.8847" height="4.5869" transform="rotate(43.2985 660.634 88.4385)" fill="#8C705A"/>
<rect x="640.62" y="124.726" width="24.6546" height="49.3092" transform="rotate(43.2985 640.62 124.726)" fill="#8C705A"/>
<rect x="671.019" y="137.613" width="41.8555" height="60.7764" transform="rotate(43.2985 671.019 137.613)" fill="#C6D7D8"/>
<rect x="421.219" y="796.747" width="85.431" height="69.3769" transform="rotate(-169.034 421.219 796.747)" fill="#DCADA3"/>
<rect x="417.369" y="795.512" width="9.74718" height="15.9615" transform="rotate(10.966 417.369 795.512)" fill="#BF1C1C"/>
<ellipse cx="422.219" cy="796.098" rx="4.87359" ry="4.51085" transform="rotate(10.966 422.219 796.098)" fill="#BF1C1C"/>
<rect x="379.093" y="788.095" width="9.74718" height="15.9615" transform="rotate(10.966 379.093 788.095)" fill="#BF1C1C"/>
<ellipse cx="383.943" cy="788.681" rx="4.87359" ry="4.51085" transform="rotate(10.966 383.943 788.681)" fill="#BF1C1C"/>
<rect x="398.219" y="791.871" width="9.74718" height="15.893" transform="rotate(10.966 398.219 791.871)" fill="#BF1C1C"/>
<ellipse cx="403.069" cy="792.459" rx="4.87359" ry="4.4915" transform="rotate(10.966 403.069 792.459)" fill="#BF1C1C"/>
<rect x="359.941" y="784.455" width="9.74718" height="15.893" transform="rotate(10.966 359.941 784.455)" fill="#BF1C1C"/>
<ellipse cx="364.792" cy="785.042" rx="4.87359" ry="4.4915" transform="rotate(10.966 364.792 785.042)" fill="#BF1C1C"/>
<rect x="340.804" y="780.745" width="9.74718" height="15.893" transform="rotate(10.966 340.804 780.745)" fill="#BF1C1C"/>
<ellipse cx="345.654" cy="781.333" rx="4.87359" ry="4.4915" transform="rotate(10.966 345.654 781.333)" fill="#BF1C1C"/>
<rect x="407.8" y="793.657" width="9.74718" height="15.9615" transform="rotate(10.966 407.8 793.657)" fill="#EEAA26"/>
<ellipse cx="412.65" cy="794.244" rx="4.87359" ry="4.51085" transform="rotate(10.966 412.65 794.244)" fill="#EEAA26"/>
<rect x="369.523" y="786.24" width="9.74718" height="15.9615" transform="rotate(10.966 369.523 786.24)" fill="#EEAA26"/>
<ellipse cx="374.374" cy="786.827" rx="4.87359" ry="4.51085" transform="rotate(10.966 374.374 786.827)" fill="#EEAA26"/>
<rect x="388.662" y="789.948" width="9.74718" height="15.9615" transform="rotate(10.966 388.662 789.948)" fill="#EEAA26"/>
<ellipse cx="393.512" cy="790.535" rx="4.87359" ry="4.51085" transform="rotate(10.966 393.512 790.535)" fill="#EEAA26"/>
<rect x="350.385" y="782.532" width="9.74718" height="15.9615" transform="rotate(10.966 350.385 782.532)" fill="#EEAA26"/>
<ellipse cx="355.235" cy="783.119" rx="4.87359" ry="4.51085" transform="rotate(10.966 355.235 783.119)" fill="#EEAA26"/>
<rect x="331.34" y="778.842" width="9.65199" height="15.9615" transform="rotate(10.966 331.34 778.842)" fill="#EEAA26"/>
<ellipse cx="336.143" cy="779.42" rx="4.82599" ry="4.51085" transform="rotate(10.966 336.143 779.42)" fill="#EEAA26"/>
<rect x="420.214" y="816.994" width="92.8847" height="4.5869" transform="rotate(-169.034 420.214 816.994)" fill="#8C705A"/>
<rect x="417.717" y="775.628" width="24.6546" height="49.3092" transform="rotate(-169.034 417.717 775.628)" fill="#8C705A"/>
<rect x="385.141" y="780.996" width="41.8555" height="60.7764" transform="rotate(-169.034 385.141 780.996)" fill="#C6D7D8"/>
<rect x="342.159" y="34.4785" width="114.561" height="76.9192" rx="6.57188" fill="#D9D9D9"/>
<rect x="354.434" y="61.4824" width="20.4572" height="49.9157" rx="1.31438" fill="#8C705A"/>
<rect x="384.71" y="48.3896" width="63.8266" height="37.6413" rx="1.31438" fill="#C6D7D8"/>
<rect x="340.523" y="30.3877" width="117.834" height="5.72803" rx="2.62875" fill="#8C705A"/>
<rect x="338.886" y="24.6602" width="121.107" height="5.72803" rx="2.62875" fill="#8C705A"/>
<rect x="370.8" y="0.928711" width="58.9168" height="23.7304" rx="2.62875" fill="#8C705A"/>
<rect x="373.255" y="3.38379" width="54.0071" height="18.8207" rx="1.31438" fill="#EA6F4E"/>
<rect x="392.074" y="57.4502" width="9.8191" height="9.06053" transform="rotate(180 392.074 57.4502)" fill="#EA5959"/>
<ellipse cx="387.165" cy="57.6474" rx="4.90955" ry="2.56059" transform="rotate(180 387.165 57.6474)" fill="#EA5959"/>
<rect x="431.353" y="57.4502" width="9.8191" height="9.06053" transform="rotate(180 431.353 57.4502)" fill="#EA5959"/>
<ellipse cx="426.443" cy="57.6474" rx="4.90955" ry="2.56059" transform="rotate(180 426.443 57.6474)" fill="#EA5959"/>
<rect x="411.713" y="57.4502" width="9.8191" height="9.06053" transform="rotate(180 411.713 57.4502)" fill="#EA5959"/>
<ellipse cx="406.803" cy="57.6474" rx="4.90955" ry="2.56059" transform="rotate(180 406.803 57.6474)" fill="#EA5959"/>
<rect x="450.99" y="57.4502" width="9.8191" height="9.06053" transform="rotate(180 450.99 57.4502)" fill="#EA5959"/>
<ellipse cx="446.081" cy="57.6474" rx="4.90955" ry="2.56059" transform="rotate(180 446.081 57.6474)" fill="#EA5959"/>
<rect x="401.895" y="57.4502" width="9.8191" height="9.06053" transform="rotate(180 401.895 57.4502)" fill="#DDC95F"/>
<ellipse cx="396.985" cy="57.6474" rx="4.90955" ry="2.56059" transform="rotate(180 396.985 57.6474)" fill="#DDC95F"/>
<rect x="441.172" y="57.4502" width="9.8191" height="9.06053" transform="rotate(180 441.172 57.4502)" fill="#DDC95F"/>
<ellipse cx="436.262" cy="57.6474" rx="4.90955" ry="2.56059" transform="rotate(180 436.262 57.6474)" fill="#DDC95F"/>
<rect x="421.46" y="57.4502" width="9.74718" height="9.06053" transform="rotate(180 421.46 57.4502)" fill="#DDC95F"/>
<ellipse cx="416.586" cy="57.6474" rx="4.87359" ry="2.56059" transform="rotate(180 416.586 57.6474)" fill="#DDC95F"/>
<rect x="212.997" y="732.611" width="114.561" height="76.9192" rx="6.57188" transform="rotate(-140.464 212.997 732.611)" fill="#D9D9D9"/>
<rect x="220.72" y="703.971" width="20.4572" height="49.9157" rx="1.31438" transform="rotate(-140.464 220.72 703.971)" fill="#8C705A"/>
<rect x="189.036" y="694.796" width="63.8266" height="37.6413" rx="1.31438" transform="rotate(-140.464 189.036 694.796)" fill="#C6D7D8"/>
<rect x="211.654" y="736.808" width="117.834" height="5.72803" rx="2.62875" transform="rotate(-140.464 211.654 736.808)" fill="#8C705A"/>
<rect x="209.27" y="742.267" width="121.107" height="5.72803" rx="2.62875" transform="rotate(-140.464 209.27 742.267)" fill="#8C705A"/>
<rect x="169.553" y="740.254" width="58.9168" height="23.7304" rx="2.62875" transform="rotate(-140.464 169.553 740.254)" fill="#8C705A"/>
<rect x="169.222" y="736.798" width="54.0071" height="18.8207" rx="1.31438" transform="rotate(-140.464 169.222 736.798)" fill="#EA6F4E"/>
<rect x="189.123" y="683.12" width="9.8191" height="9.06053" transform="rotate(39.5362 189.123 683.12)" fill="#EA5959"/>
<ellipse cx="193.034" cy="686.093" rx="4.90955" ry="2.56059" transform="rotate(39.5362 193.034 686.093)" fill="#EA5959"/>
<rect x="158.831" y="658.117" width="9.8191" height="9.06053" transform="rotate(39.5362 158.831 658.117)" fill="#EA5959"/>
<ellipse cx="162.742" cy="661.09" rx="4.90955" ry="2.56059" transform="rotate(39.5362 162.742 661.09)" fill="#EA5959"/>
<rect x="173.979" y="670.619" width="9.8191" height="9.06053" transform="rotate(39.5362 173.979 670.619)" fill="#EA5959"/>
<ellipse cx="177.89" cy="673.592" rx="4.90955" ry="2.56059" transform="rotate(39.5362 177.89 673.592)" fill="#EA5959"/>
<rect x="143.687" y="645.616" width="9.8191" height="9.06053" transform="rotate(39.5362 143.687 645.616)" fill="#EA5959"/>
<ellipse cx="147.598" cy="648.589" rx="4.90955" ry="2.56059" transform="rotate(39.5362 147.598 648.589)" fill="#EA5959"/>
<rect x="181.551" y="676.87" width="9.8191" height="9.06053" transform="rotate(39.5362 181.551 676.87)" fill="#DDC95F"/>
<ellipse cx="185.462" cy="679.843" rx="4.90955" ry="2.56059" transform="rotate(39.5362 185.462 679.843)" fill="#DDC95F"/>
<rect x="151.26" y="651.866" width="9.8191" height="9.06053" transform="rotate(39.5362 151.26 651.866)" fill="#DDC95F"/>
<ellipse cx="155.171" cy="654.839" rx="4.90955" ry="2.56059" transform="rotate(39.5362 155.171 654.839)" fill="#DDC95F"/>
<rect x="166.461" y="664.414" width="9.74718" height="9.06053" transform="rotate(39.5362 166.461 664.414)" fill="#DDC95F"/>
<ellipse cx="170.344" cy="667.364" rx="4.87359" ry="2.56059" transform="rotate(39.5362 170.344 667.364)" fill="#DDC95F"/>
<rect x="106.465" y="209.54" width="111.287" height="76.9192" transform="rotate(-49.5851 106.465 209.54)" fill="#8EC3BD"/>
<rect x="98.2051" y="207.88" width="118.652" height="7.36461" transform="rotate(-49.5851 98.2051 207.88)" fill="#8C705A"/>
<rect x="151.841" y="189.066" width="24.5487" height="55.6437" transform="rotate(-49.5851 151.841 189.066)" fill="#8C705A"/>
<rect x="103.758" y="168.543" width="55.6437" height="18.8207" transform="rotate(-49.5851 103.758 168.543)" fill="#8C705A"/>
<rect x="118.34" y="176.661" width="4.90974" height="7.36461" transform="rotate(-49.5851 118.34 176.661)" fill="#8C705A"/>
<rect x="146.987" y="143.018" width="4.90974" height="7.36461" transform="rotate(-49.5851 146.987 143.018)" fill="#8C705A"/>
<ellipse cx="122.418" cy="147.891" rx="25.367" ry="9.00118" transform="rotate(-49.5851 122.418 147.891)" fill="#8C705A"/>
<rect x="116.063" y="213.414" width="37.6413" height="67.0997" transform="rotate(-49.5851 116.063 213.414)" fill="#C6D7D8"/>
<rect x="161.687" y="159.834" width="34.3682" height="27.0036" transform="rotate(-49.5851 161.687 159.834)" fill="#C6D7D8"/>
<rect x="108.81" y="166.396" width="46.6425" height="13.9109" transform="rotate(-49.5851 108.81 166.396)" fill="#EA6F4E"/>
<ellipse cx="125.175" cy="149.701" rx="20.8664" ry="8.1829" transform="rotate(-49.5851 125.175 149.701)" fill="#EA6F4E"/>
<rect x="818.401" y="488.808" width="111.287" height="76.9192" transform="rotate(111.188 818.401 488.808)" fill="#8EC3BD"/>
<rect x="826.747" y="487.655" width="118.652" height="7.36461" transform="rotate(111.188 826.747 487.655)" fill="#8C705A"/>
<rect x="782.298" y="523.082" width="24.5487" height="55.6437" transform="rotate(111.188 782.298 523.082)" fill="#8C705A"/>
<rect x="834.458" y="526.626" width="55.6437" height="18.8207" transform="rotate(111.188 834.458 526.626)" fill="#8C705A"/>
<rect x="818.017" y="523.763" width="4.90974" height="7.36461" transform="rotate(111.188 818.017 523.763)" fill="#8C705A"/>
<rect x="802.045" y="564.964" width="4.90974" height="7.36461" transform="rotate(111.188 802.045 564.964)" fill="#8C705A"/>
<ellipse cx="823.639" cy="552.272" rx="25.367" ry="9.00118" transform="rotate(111.188 823.639 552.272)" fill="#8C705A"/>
<rect x="808.062" y="488.311" width="37.6413" height="67.0997" transform="rotate(111.188 808.062 488.311)" fill="#C6D7D8"/>
<rect x="782.627" y="553.926" width="34.3682" height="27.0036" transform="rotate(111.188 782.627 553.926)" fill="#C6D7D8"/>
<rect x="830.396" y="530.317" width="46.6425" height="13.9109" transform="rotate(111.188 830.396 530.317)" fill="#EA6F4E"/>
<ellipse cx="820.44" cy="551.47" rx="20.8664" ry="8.1829" transform="rotate(111.188 820.44 551.47)" fill="#EA6F4E"/>
<defs>
<radialGradient id="paint0_radial_319_122" cx="0" cy="0" r="1" gradientUnits="userSpaceOnUse" gradientTransform="translate(433.025 416.735) rotate(42.8469) scale(321.179)">
<stop stop-color="white" stop-opacity="0"/>
<stop offset="1" stop-color="#F15A24"/>
</radialGradient>
<linearGradient id="paint1_linear_319_122" x1="1114.04" y1="420.609" x2="191.737" y2="415.326" gradientUnits="userSpaceOnUse">
<stop stop-color="white" stop-opacity="0"/>
<stop offset="1" stop-color="#F15A24"/>
</linearGradient>
<linearGradient id="paint2_linear_319_122" x1="1160.91" y1="289.033" x2="-208.08" y2="250.869" gradientUnits="userSpaceOnUse">
<stop stop-color="#C1272D" stop-opacity="0"/>
<stop offset="1" stop-color="#C1272D" stop-opacity="0.7"/>
</linearGradient>
<radialGradient id="paint3_radial_319_122" cx="0" cy="0" r="1" gradientUnits="userSpaceOnUse" gradientTransform="translate(427.038 441.809) rotate(23.6069) scale(444.92 222.46)">
<stop offset="0.74" stop-color="#FFB56F" stop-opacity="0.9"/>
<stop offset="0.79" stop-color="#FFB56F" stop-opacity="0.88"/>
<stop offset="0.84" stop-color="#FFB86F" stop-opacity="0.83"/>
<stop offset="0.9" stop-color="#FFBD6F" stop-opacity="0.73"/>
<stop offset="0.96" stop-color="#FFC36F" stop-opacity="0.61"/>
<stop offset="1" stop-color="#FFC96F" stop-opacity="0.5"/>
</radialGradient>
</defs>
</svg>
