<svg width="1633" height="1709" viewBox="0 0 1633 1709" fill="none" xmlns="http://www.w3.org/2000/svg">
<g clip-path="url(#clip0_319_121)">
<path d="M787.032 1549.23C1163.51 1549.23 1468.7 1244.03 1468.7 867.557C1468.7 491.081 1163.51 185.888 787.032 185.888C410.556 185.888 105.363 491.081 105.363 867.557C105.363 1244.03 410.556 1549.23 787.032 1549.23Z" fill="#666666"/>
<path d="M787.032 1549.23C1163.51 1549.23 1468.7 1244.03 1468.7 867.557C1468.7 491.081 1163.51 185.888 787.032 185.888C410.556 185.888 105.363 491.081 105.363 867.557C105.363 1244.03 410.556 1549.23 787.032 1549.23Z" fill="url(#paint0_radial_319_121)"/>
<path d="M787.032 1549.23C1163.51 1549.23 1468.7 1244.03 1468.7 867.557C1468.7 491.081 1163.51 185.888 787.032 185.888C410.556 185.888 105.363 491.081 105.363 867.557C105.363 1244.03 410.556 1549.23 787.032 1549.23Z" fill="url(#paint1_radial_319_121)"/>
<mask id="mask0_319_121" style="mask-type:luminance" maskUnits="userSpaceOnUse" x="-432" y="124" width="2144" height="1847">
<path d="M31.7041 456.628C328.923 239.369 363.895 187.411 500.051 150.598C671.512 104.229 826.495 129.691 925.203 155.98C868.801 239.178 763.172 270.213 666.654 298.247C432.933 366.111 196.466 454.342 20.6236 622.596C6.93977 635.677 -7.15684 656.123 3.65373 671.665C11.8132 683.38 28.8308 683.444 43.0544 682.126C121.3 674.808 199.038 662.315 275.632 644.741C382.881 620.136 488.589 585.228 584.138 530.635C764.981 427.323 916.012 251.91 1122.78 226.923C1138.87 224.971 1156.78 224.494 1169.46 234.606C1196.55 256.18 1175.89 300.2 1150.29 323.52C1106.19 363.682 1051.66 390.288 997.289 414.862C801.239 503.442 597.044 572.496 393.247 641.392C271.41 682.57 149.573 723.765 27.7354 764.943C-35.985 786.485 -103.293 810.456 -145.345 862.969C-187.396 915.466 -189.063 1005.97 -131.28 1040.4C-91.6094 1064.04 -41.176 1053.56 3.27276 1041.03C453.792 914.164 853.847 654.568 1240.68 391.066C1287.54 359.142 1341.37 325.552 1396.9 337.013C1356.91 443.008 1247.9 503.442 1147.81 556.526C798.254 741.941 458.618 945.358 119.157 1148.66C106.568 1156.2 93.6942 1163.98 84.6298 1175.51C53.7697 1214.72 85.8522 1277.66 133 1293.96C180.147 1310.27 232.041 1293.85 277.569 1273.42C400.343 1218.35 507.655 1134.61 613.617 1051.69C755.044 941.024 896.47 830.347 1036.56 718.002C1107.76 660.902 1179.74 602.69 1263.43 566.321C1347.13 529.952 1445.62 517.634 1529.21 554.241C1534.07 556.368 1539.2 558.971 1541.55 563.718C1544.1 568.877 1542.63 575.036 1540.96 580.545C1508.47 687.539 1418.46 766.642 1325.58 828.918C1058.22 1008.17 741.201 1094.61 446.601 1224.35C396.327 1246.5 345.877 1270.41 304.54 1306.58C263.203 1342.76 231.422 1393.13 229.009 1448.01C228.247 1465.15 231.358 1484.33 244.836 1494.95C251.694 1500.35 260.377 1502.81 268.933 1504.54C338.559 1518.56 410.439 1491.08 469.873 1452.22C529.308 1413.34 580.567 1363.08 639.525 1323.49C752.631 1247.55 888.374 1214.32 1011.89 1156.81C1164.1 1085.93 1296.05 978.98 1428.24 875.478C1489.08 827.823 1554.9 778.802 1631.86 771.77C1618.75 852.444 1566.74 922.53 1503.81 974.678C1440.89 1026.83 1366.98 1063.65 1294.71 1101.83C1064.96 1223.21 844.83 1362.83 637.112 1518.94C609.569 1539.64 580.821 1580.77 607.061 1603.1C613.856 1608.88 622.92 1611.23 631.778 1612.33C697.102 1620.41 753.758 1571.15 803.271 1527.78C1034.5 1325.24 1316.23 1180.81 1615.65 1111.29C1645.91 1104.28 1683.91 1100.69 1702.02 1125.9C1711.12 1138.55 1712.17 1155.2 1711.42 1170.78C1705.61 1293.53 1613.78 1392.66 1528.18 1480.84C1401.2 1611.68 1275.68 1744.75 1134.19 1859.72C1065.07 1915.88 985.86 1969.79 896.788 1970.39C844.91 1970.74 794.825 1952.74 746.503 1933.88C549.643 1857.03 356.577 1759.28 206.165 1610.83C127.57 1533.27 60.564 1441.95 -32.0958 1381.91C-149.774 1305.65 -189.936 1319.46 -264.213 1257.31C-370.509 1168.28 -456.47 997.188 -425.404 849.65C-401.338 735.337 -324.203 716.78 31.7041 456.628Z" fill="white"/>
</mask>
<g mask="url(#mask0_319_121)">
<path d="M786.969 1550.85C1163.44 1550.85 1468.64 1245.65 1468.64 869.176C1468.64 492.7 1163.44 187.507 786.969 187.507C410.493 187.507 105.299 492.7 105.299 869.176C105.299 1245.65 410.493 1550.85 786.969 1550.85Z" fill="url(#paint2_linear_319_121)"/>
</g>
</g>
<rect x="594.824" y="1615.67" width="202.846" height="145.126" rx="5" transform="rotate(-160.55 594.824 1615.67)" fill="#7B6A65"/>
<rect x="532.145" y="1708.96" width="37.9305" height="102.248" rx="5" transform="rotate(-160.55 532.145 1708.96)" fill="#7B6A65"/>
<rect x="497.026" y="1659.83" width="37.9305" height="67.6153" rx="5" transform="rotate(-160.55 497.026 1659.83)" fill="#7B6A65"/>
<rect x="719.511" y="1614.23" width="108.844" height="102.248" rx="5" transform="rotate(-160.55 719.511 1614.23)" fill="#7B6A65"/>
<rect x="714.573" y="1598.49" width="87.4052" height="19.7898" rx="1" transform="rotate(-160.55 714.573 1598.49)" fill="#C7D7D8"/>
<rect x="586.506" y="1584.75" width="18.1407" height="32.9831" rx="1" transform="rotate(-160.55 586.506 1584.75)" fill="#C7D7D8"/>
<rect x="563.182" y="1576.51" width="18.1407" height="32.9831" rx="1" transform="rotate(-160.55 563.182 1576.51)" fill="#C7D7D8"/>
<rect x="493.203" y="1551.8" width="18.1407" height="32.9831" rx="1" transform="rotate(-160.55 493.203 1551.8)" fill="#C7D7D8"/>
<rect x="539.854" y="1568.27" width="18.1407" height="32.9831" rx="1" transform="rotate(-160.55 539.854 1568.27)" fill="#C7D7D8"/>
<rect x="469.878" y="1543.56" width="18.1407" height="32.9831" rx="1" transform="rotate(-160.55 469.878 1543.56)" fill="#C7D7D8"/>
<rect x="516.529" y="1560.03" width="18.1407" height="32.9831" rx="1" transform="rotate(-160.55 516.529 1560.03)" fill="#C7D7D8"/>
<rect x="446.551" y="1535.32" width="18.1407" height="32.9831" rx="1" transform="rotate(-160.55 446.551 1535.32)" fill="#C7D7D8"/>
<rect x="1095.75" y="138.114" width="202.846" height="145.126" rx="5" transform="rotate(29.4056 1095.75 138.114)" fill="#7B6A65"/>
<rect x="1173.62" y="57.0586" width="37.9305" height="102.248" rx="5" transform="rotate(29.4056 1173.62 57.0586)" fill="#7B6A65"/>
<rect x="1199.71" y="111.521" width="37.9305" height="67.6153" rx="5" transform="rotate(29.4056 1199.71 111.521)" fill="#7B6A65"/>
<rect x="972.696" y="117.979" width="108.844" height="102.248" rx="5" transform="rotate(29.4056 972.696 117.979)" fill="#7B6A65"/>
<rect x="974.836" y="134.33" width="87.4052" height="19.7898" rx="1" transform="rotate(29.4056 974.836 134.33)" fill="#C7D7D8"/>
<rect x="1098.6" y="170.008" width="18.1407" height="32.9831" rx="1" transform="rotate(29.4056 1098.6 170.008)" fill="#C7D7D8"/>
<rect x="1120.15" y="182.154" width="18.1407" height="32.9831" rx="1" transform="rotate(29.4056 1120.15 182.154)" fill="#C7D7D8"/>
<rect x="1184.8" y="218.592" width="18.1407" height="32.9831" rx="1" transform="rotate(29.4056 1184.8 218.592)" fill="#C7D7D8"/>
<rect x="1141.7" y="194.299" width="18.1407" height="32.9831" rx="1" transform="rotate(29.4056 1141.7 194.299)" fill="#C7D7D8"/>
<rect x="1206.35" y="230.736" width="18.1407" height="32.9831" rx="1" transform="rotate(29.4056 1206.35 230.736)" fill="#C7D7D8"/>
<rect x="1163.25" y="206.445" width="18.1407" height="32.9831" rx="1" transform="rotate(29.4056 1163.25 206.445)" fill="#C7D7D8"/>
<rect x="1227.9" y="242.883" width="18.1407" height="32.9831" rx="1" transform="rotate(29.4056 1227.9 242.883)" fill="#C7D7D8"/>
<rect x="1510.67" y="607.356" width="202.846" height="145.126" rx="5" transform="rotate(74.0567 1510.67 607.356)" fill="#7B6A65"/>
<rect x="1623.03" y="604.415" width="37.9305" height="102.248" rx="5" transform="rotate(74.0567 1623.03 604.415)" fill="#7B6A65"/>
<rect x="1603.32" y="661.501" width="37.9305" height="67.6153" rx="5" transform="rotate(74.0567 1603.32 661.501)" fill="#7B6A65"/>
<rect x="1437.28" y="506.549" width="108.844" height="102.248" rx="5" transform="rotate(74.0567 1437.28 506.549)" fill="#7B6A65"/>
<rect x="1427.31" y="519.688" width="87.4052" height="19.7898" rx="1" transform="rotate(74.0567 1427.31 519.688)" fill="#C7D7D8"/>
<rect x="1490.28" y="632.048" width="18.1407" height="32.9831" rx="1" transform="rotate(74.0567 1490.28 632.048)" fill="#C7D7D8"/>
<rect x="1497.08" y="655.833" width="18.1407" height="32.9831" rx="1" transform="rotate(74.0567 1497.08 655.833)" fill="#C7D7D8"/>
<rect x="1517.46" y="727.191" width="18.1407" height="32.9831" rx="1" transform="rotate(74.0567 1517.46 727.191)" fill="#C7D7D8"/>
<rect x="1503.87" y="679.618" width="18.1407" height="32.9831" rx="1" transform="rotate(74.0567 1503.87 679.618)" fill="#C7D7D8"/>
<rect x="1524.25" y="750.977" width="18.1407" height="32.9831" rx="1" transform="rotate(74.0567 1524.25 750.977)" fill="#C7D7D8"/>
<rect x="1510.66" y="703.405" width="18.1407" height="32.9831" rx="1" transform="rotate(74.0567 1510.66 703.405)" fill="#C7D7D8"/>
<rect x="1531.05" y="774.763" width="18.1407" height="32.9831" rx="1" transform="rotate(74.0567 1531.05 774.763)" fill="#C7D7D8"/>
<rect x="1314.96" y="1371.38" width="166.565" height="90.7035" transform="rotate(136.608 1314.96 1371.38)" fill="#7B6A65"/>
<rect x="1341.85" y="1452.63" width="89.0543" height="90.7035" transform="rotate(136.608 1341.85 1452.63)" fill="#7B6A65"/>
<rect x="1347.32" y="1465.62" width="79.1594" height="90.7035" transform="rotate(136.608 1347.32 1465.62)" fill="#7B6A65"/>
<rect x="1325.79" y="1442.85" width="79.1594" height="6.59662" transform="rotate(136.608 1325.79 1442.85)" fill="#C6D7D8"/>
<rect x="1320.13" y="1436.85" width="79.1594" height="6.59662" transform="rotate(136.608 1320.13 1436.85)" fill="#C6D7D8"/>
<rect x="1314.46" y="1430.86" width="79.1594" height="6.59662" transform="rotate(136.608 1314.46 1430.86)" fill="#C6D7D8"/>
<rect x="1303.13" y="1418.88" width="79.1594" height="6.59662" transform="rotate(136.608 1303.13 1418.88)" fill="#C6D7D8"/>
<rect x="1297.47" y="1412.89" width="79.1594" height="6.59662" transform="rotate(136.608 1297.47 1412.89)" fill="#C6D7D8"/>
<rect x="1298.71" y="1368.59" width="150.073" height="23.0882" transform="rotate(136.608 1298.71 1368.59)" fill="#C6D7D8"/>
<rect x="1277.18" y="1345.82" width="19.7898" height="23.0882" transform="rotate(136.608 1277.18 1345.82)" fill="#C6D7D8"/>
<rect x="1182.51" y="1435.33" width="19.7898" height="23.0882" transform="rotate(136.608 1182.51 1435.33)" fill="#C6D7D8"/>
<rect x="1229.25" y="1391.14" width="19.7898" height="23.0882" transform="rotate(136.608 1229.25 1391.14)" fill="#C6D7D8"/>
<rect x="1253.22" y="1368.48" width="19.7898" height="23.0882" transform="rotate(136.608 1253.22 1368.48)" fill="#C6D7D8"/>
<rect x="1205.28" y="1413.81" width="19.7898" height="23.0882" transform="rotate(136.608 1205.28 1413.81)" fill="#C6D7D8"/>
<rect x="77.9678" y="614.588" width="166.565" height="90.7035" transform="rotate(-63.2243 77.9678 614.588)" fill="#7B6A65"/>
<rect x="25.1152" y="547.278" width="89.0543" height="77.5034" transform="rotate(-63.2243 25.1152 547.278)" fill="#7B6A65"/>
<rect x="43.5386" y="551.034" width="79.1594" height="6.59662" transform="rotate(-63.2243 43.5386 551.034)" fill="#C6D7D8"/>
<rect x="50.8999" y="554.749" width="79.1594" height="6.59662" transform="rotate(-63.2243 50.8999 554.749)" fill="#C6D7D8"/>
<rect x="58.2612" y="558.464" width="79.1594" height="6.59662" transform="rotate(-63.2243 58.2612 558.464)" fill="#C6D7D8"/>
<rect x="72.9839" y="565.894" width="79.1594" height="6.59662" transform="rotate(-63.2243 72.9839 565.894)" fill="#C6D7D8"/>
<rect x="80.3472" y="569.607" width="79.1594" height="6.59662" transform="rotate(-63.2243 80.3472 569.607)" fill="#C6D7D8"/>
<rect x="94.2036" y="611.699" width="150.073" height="23.0882" transform="rotate(-63.2243 94.2036 611.699)" fill="#C6D7D8"/>
<rect x="122.18" y="625.813" width="19.7898" height="23.0882" transform="rotate(-63.2243 122.18 625.813)" fill="#C6D7D8"/>
<rect x="180.87" y="509.5" width="19.7898" height="23.0882" transform="rotate(-63.2243 180.87 509.5)" fill="#C6D7D8"/>
<rect x="151.896" y="566.922" width="19.7898" height="23.0882" transform="rotate(-63.2243 151.896 566.922)" fill="#C6D7D8"/>
<rect x="137.037" y="596.367" width="19.7898" height="23.0882" transform="rotate(-63.2243 137.037 596.367)" fill="#C6D7D8"/>
<rect x="166.754" y="537.475" width="19.7898" height="23.0882" transform="rotate(-63.2243 166.754 537.475)" fill="#C6D7D8"/>
<rect x="497.73" y="124.078" width="247.373" height="128.634" rx="5" transform="rotate(-6.92166 497.73 124.078)" fill="#7B6A65"/>
<path d="M497.624 136.701C493.295 135.55 492.548 129.724 496.447 127.518L536.876 104.64C539.968 102.89 543.846 104.832 544.298 108.356L548.761 143.176C549.213 146.7 545.949 149.557 542.516 148.644L497.624 136.701Z" fill="#7B6A65"/>
<path d="M558.197 129.348C553.868 128.196 553.121 122.371 557.02 120.164L597.449 97.2861C600.541 95.5367 604.42 97.4786 604.871 101.002L609.334 135.823C609.786 139.346 606.522 142.204 603.089 141.29L558.197 129.348Z" fill="#7B6A65"/>
<path d="M659.422 7.83895C659.265 5.20144 661.188 2.89725 663.811 2.57884L678.924 0.744142C681.591 0.420367 684.037 2.26216 684.463 4.91482L699.887 100.951C700.337 103.752 698.369 106.366 695.553 106.707L670.791 109.713C667.93 110.061 665.369 107.924 665.198 105.046L659.422 7.83895Z" fill="#7B6A65"/>
<rect x="512.322" y="162.178" width="6.59661" height="11.5441" transform="rotate(-6.92166 512.322 162.178)" fill="#C6D7D8"/>
<rect x="514.311" y="178.548" width="6.59661" height="11.5441" transform="rotate(-6.92166 514.311 178.548)" fill="#C6D7D8"/>
<rect x="628.56" y="148.067" width="6.59661" height="11.5441" transform="rotate(-6.92166 628.56 148.067)" fill="#C6D7D8"/>
<rect x="630.546" y="164.437" width="6.59661" height="11.5441" transform="rotate(-6.92166 630.546 164.437)" fill="#C6D7D8"/>
<rect x="569.622" y="155.222" width="6.59661" height="11.5441" transform="rotate(-6.92166 569.622 155.222)" fill="#C6D7D8"/>
<rect x="571.609" y="171.591" width="6.59661" height="11.5441" transform="rotate(-6.92166 571.609 171.591)" fill="#C6D7D8"/>
<rect x="685.86" y="141.11" width="6.59661" height="11.5441" transform="rotate(-6.92166 685.86 141.11)" fill="#C6D7D8"/>
<path d="M660.81 31.186L688.159 27.8659L689.99 39.2725L661.489 42.7324L660.81 31.186Z" fill="#C6D7D8"/>
<rect x="687.848" y="157.481" width="6.59661" height="11.5441" transform="rotate(-6.92166 687.848 157.481)" fill="#C6D7D8"/>
<rect x="523.782" y="160.785" width="6.59661" height="11.5441" transform="rotate(-6.92166 523.782 160.785)" fill="#C6D7D8"/>
<rect x="525.771" y="177.156" width="6.59661" height="11.5441" transform="rotate(-6.92166 525.771 177.156)" fill="#C6D7D8"/>
<rect x="640.019" y="146.676" width="6.59661" height="11.5441" transform="rotate(-6.92166 640.019 146.676)" fill="#C6D7D8"/>
<rect x="642.006" y="163.047" width="6.59661" height="11.5441" transform="rotate(-6.92166 642.006 163.047)" fill="#C6D7D8"/>
<rect x="581.081" y="153.829" width="6.59661" height="11.5441" transform="rotate(-6.92166 581.081 153.829)" fill="#C6D7D8"/>
<rect x="583.07" y="170.201" width="6.59661" height="11.5441" transform="rotate(-6.92166 583.07 170.201)" fill="#C6D7D8"/>
<rect x="697.317" y="139.718" width="6.59661" height="11.5441" transform="rotate(-6.92166 697.317 139.718)" fill="#C6D7D8"/>
<rect x="699.305" y="156.09" width="6.59661" height="11.5441" transform="rotate(-6.92166 699.305 156.09)" fill="#C6D7D8"/>
<rect x="535.242" y="159.395" width="6.59661" height="11.5441" transform="rotate(-6.92166 535.242 159.395)" fill="#C6D7D8"/>
<rect x="537.229" y="175.766" width="6.59661" height="11.5441" transform="rotate(-6.92166 537.229 175.766)" fill="#C6D7D8"/>
<rect x="651.479" y="145.283" width="6.59661" height="11.5441" transform="rotate(-6.92166 651.479 145.283)" fill="#C6D7D8"/>
<rect x="653.466" y="161.655" width="6.59661" height="11.5441" transform="rotate(-6.92166 653.466 161.655)" fill="#C6D7D8"/>
<rect x="592.542" y="152.438" width="6.59661" height="11.5441" transform="rotate(-6.92166 592.542 152.438)" fill="#C6D7D8"/>
<rect x="594.53" y="168.811" width="6.59661" height="11.5441" transform="rotate(-6.92166 594.53 168.811)" fill="#C6D7D8"/>
<rect x="708.778" y="138.328" width="6.59661" height="11.5441" transform="rotate(-6.92166 708.778 138.328)" fill="#C6D7D8"/>
<rect x="710.766" y="154.7" width="6.59661" height="11.5441" transform="rotate(-6.92166 710.766 154.7)" fill="#C6D7D8"/>
<rect x="546.703" y="158.003" width="6.59661" height="11.5441" transform="rotate(-6.92166 546.703 158.003)" fill="#C6D7D8"/>
<rect x="548.688" y="174.374" width="6.59661" height="11.5441" transform="rotate(-6.92166 548.688 174.374)" fill="#C6D7D8"/>
<rect x="662.938" y="143.893" width="6.59661" height="11.5441" transform="rotate(-6.92166 662.938 143.893)" fill="#C6D7D8"/>
<rect x="664.927" y="160.265" width="6.59661" height="11.5441" transform="rotate(-6.92166 664.927 160.265)" fill="#C6D7D8"/>
<rect x="604.002" y="151.048" width="6.59661" height="11.5441" transform="rotate(-6.92166 604.002 151.048)" fill="#C6D7D8"/>
<rect x="605.989" y="167.418" width="6.59661" height="11.5441" transform="rotate(-6.92166 605.989 167.418)" fill="#C6D7D8"/>
<rect x="720.239" y="136.937" width="6.59661" height="11.5441" transform="rotate(-6.92166 720.239 136.937)" fill="#C6D7D8"/>
<rect x="722.227" y="153.308" width="6.59661" height="11.5441" transform="rotate(-6.92166 722.227 153.308)" fill="#C6D7D8"/>
<rect x="558.163" y="156.613" width="6.59661" height="11.5441" transform="rotate(-6.92166 558.163 156.613)" fill="#C6D7D8"/>
<rect x="560.149" y="172.984" width="6.59661" height="11.5441" transform="rotate(-6.92166 560.149 172.984)" fill="#C6D7D8"/>
<rect x="674.398" y="142.502" width="6.59661" height="11.5441" transform="rotate(-6.92166 674.398 142.502)" fill="#C6D7D8"/>
<rect x="676.386" y="158.873" width="6.59661" height="11.5441" transform="rotate(-6.92166 676.386 158.873)" fill="#C6D7D8"/>
<rect x="615.464" y="149.656" width="6.59661" height="11.5441" transform="rotate(-6.92166 615.464 149.656)" fill="#C6D7D8"/>
<rect x="617.449" y="166.029" width="6.59661" height="11.5441" transform="rotate(-6.92166 617.449 166.029)" fill="#C6D7D8"/>
<rect x="731.7" y="135.544" width="6.59661" height="11.5441" transform="rotate(-6.92166 731.7 135.544)" fill="#C6D7D8"/>
<rect x="733.686" y="151.917" width="6.59661" height="11.5441" transform="rotate(-6.92166 733.686 151.917)" fill="#C6D7D8"/>
<rect x="189.574" y="1381.59" width="247.373" height="128.634" rx="5" transform="rotate(-120.166 189.574 1381.59)" fill="#7B6A65"/>
<path d="M201.214 1376.71C201.864 1381.14 196.806 1384.13 193.24 1381.42L156.263 1353.3C153.436 1351.15 153.689 1346.82 156.748 1345.01L186.981 1327.17C190.04 1325.36 193.954 1327.23 194.47 1330.75L201.214 1376.71Z" fill="#7B6A65"/>
<path d="M170.552 1323.96C171.202 1328.39 166.144 1331.37 162.578 1328.66L125.601 1300.54C122.774 1298.39 123.027 1294.06 126.086 1292.26L156.319 1274.41C159.378 1272.61 163.292 1274.48 163.808 1277.99L170.552 1323.96Z" fill="#7B6A65"/>
<path d="M18.9559 1278.9C16.5944 1280.09 13.7185 1279.23 12.3908 1276.95L4.74049 1263.78C3.39041 1261.46 4.1173 1258.49 6.3865 1257.05L88.5399 1204.97C90.9359 1203.45 94.1141 1204.23 95.5396 1206.68L108.074 1228.25C109.522 1230.74 108.57 1233.94 105.994 1235.23L18.9559 1278.9Z" fill="#7B6A65"/>
<rect x="218.82" y="1353.15" width="6.59661" height="11.5441" transform="rotate(-120.166 218.82 1353.15)" fill="#C6D7D8"/>
<rect x="233.08" y="1344.86" width="6.59661" height="11.5441" transform="rotate(-120.166 233.08 1344.86)" fill="#C6D7D8"/>
<rect x="159.982" y="1251.92" width="6.59661" height="11.5441" transform="rotate(-120.166 159.982 1251.92)" fill="#C6D7D8"/>
<rect x="174.239" y="1243.63" width="6.59661" height="11.5441" transform="rotate(-120.166 174.239 1243.63)" fill="#C6D7D8"/>
<rect x="189.814" y="1303.25" width="6.59661" height="11.5441" transform="rotate(-120.166 189.814 1303.25)" fill="#C6D7D8"/>
<rect x="204.074" y="1294.96" width="6.59661" height="11.5441" transform="rotate(-120.166 204.074 1294.96)" fill="#C6D7D8"/>
<rect x="130.977" y="1202.01" width="6.59661" height="11.5441" transform="rotate(-120.166 130.977 1202.01)" fill="#C6D7D8"/>
<path d="M39.8582 1268.41L26.0143 1244.59L35.7723 1238.41L50.1994 1263.23L39.8582 1268.41Z" fill="#C6D7D8"/>
<rect x="145.233" y="1193.73" width="6.59661" height="11.5441" transform="rotate(-120.166 145.233 1193.73)" fill="#C6D7D8"/>
<rect x="213.02" y="1343.17" width="6.59661" height="11.5441" transform="rotate(-120.166 213.02 1343.17)" fill="#C6D7D8"/>
<rect x="227.277" y="1334.88" width="6.59661" height="11.5441" transform="rotate(-120.166 227.277 1334.88)" fill="#C6D7D8"/>
<rect x="154.182" y="1241.94" width="6.59661" height="11.5441" transform="rotate(-120.166 154.182 1241.94)" fill="#C6D7D8"/>
<rect x="168.438" y="1233.65" width="6.59661" height="11.5441" transform="rotate(-120.166 168.438 1233.65)" fill="#C6D7D8"/>
<rect x="184.014" y="1293.27" width="6.59661" height="11.5441" transform="rotate(-120.166 184.014 1293.27)" fill="#C6D7D8"/>
<rect x="198.272" y="1284.98" width="6.59661" height="11.5441" transform="rotate(-120.166 198.272 1284.98)" fill="#C6D7D8"/>
<rect x="125.175" y="1192.03" width="6.59661" height="11.5441" transform="rotate(-120.166 125.175 1192.03)" fill="#C6D7D8"/>
<rect x="139.434" y="1183.75" width="6.59661" height="11.5441" transform="rotate(-120.166 139.434 1183.75)" fill="#C6D7D8"/>
<rect x="207.218" y="1333.19" width="6.59661" height="11.5441" transform="rotate(-120.166 207.218 1333.19)" fill="#C6D7D8"/>
<rect x="221.478" y="1324.9" width="6.59661" height="11.5441" transform="rotate(-120.166 221.478 1324.9)" fill="#C6D7D8"/>
<rect x="148.38" y="1231.96" width="6.59661" height="11.5441" transform="rotate(-120.166 148.38 1231.96)" fill="#C6D7D8"/>
<rect x="162.638" y="1223.67" width="6.59661" height="11.5441" transform="rotate(-120.166 162.638 1223.67)" fill="#C6D7D8"/>
<rect x="178.212" y="1283.29" width="6.59661" height="11.5441" transform="rotate(-120.166 178.212 1283.29)" fill="#C6D7D8"/>
<rect x="192.473" y="1275" width="6.59661" height="11.5441" transform="rotate(-120.166 192.473 1275)" fill="#C6D7D8"/>
<rect x="119.373" y="1182.05" width="6.59661" height="11.5441" transform="rotate(-120.166 119.373 1182.05)" fill="#C6D7D8"/>
<rect x="133.632" y="1173.77" width="6.59661" height="11.5441" transform="rotate(-120.166 133.632 1173.77)" fill="#C6D7D8"/>
<rect x="201.415" y="1323.21" width="6.59661" height="11.5441" transform="rotate(-120.166 201.415 1323.21)" fill="#C6D7D8"/>
<rect x="215.676" y="1314.92" width="6.59661" height="11.5441" transform="rotate(-120.166 215.676 1314.92)" fill="#C6D7D8"/>
<rect x="142.577" y="1221.98" width="6.59661" height="11.5441" transform="rotate(-120.166 142.577 1221.98)" fill="#C6D7D8"/>
<rect x="156.836" y="1213.69" width="6.59661" height="11.5441" transform="rotate(-120.166 156.836 1213.69)" fill="#C6D7D8"/>
<rect x="172.411" y="1273.3" width="6.59661" height="11.5441" transform="rotate(-120.166 172.411 1273.3)" fill="#C6D7D8"/>
<rect x="186.671" y="1265.02" width="6.59661" height="11.5441" transform="rotate(-120.166 186.671 1265.02)" fill="#C6D7D8"/>
<rect x="113.573" y="1172.07" width="6.59661" height="11.5441" transform="rotate(-120.166 113.573 1172.07)" fill="#C6D7D8"/>
<rect x="127.832" y="1163.79" width="6.59661" height="11.5441" transform="rotate(-120.166 127.832 1163.79)" fill="#C6D7D8"/>
<rect x="195.615" y="1313.23" width="6.59661" height="11.5441" transform="rotate(-120.166 195.615 1313.23)" fill="#C6D7D8"/>
<rect x="209.875" y="1304.94" width="6.59661" height="11.5441" transform="rotate(-120.166 209.875 1304.94)" fill="#C6D7D8"/>
<rect x="136.778" y="1211.99" width="6.59661" height="11.5441" transform="rotate(-120.166 136.778 1211.99)" fill="#C6D7D8"/>
<rect x="151.034" y="1203.71" width="6.59661" height="11.5441" transform="rotate(-120.166 151.034 1203.71)" fill="#C6D7D8"/>
<rect x="166.611" y="1263.32" width="6.59661" height="11.5441" transform="rotate(-120.166 166.611 1263.32)" fill="#C6D7D8"/>
<rect x="180.869" y="1255.04" width="6.59661" height="11.5441" transform="rotate(-120.166 180.869 1255.04)" fill="#C6D7D8"/>
<rect x="107.773" y="1162.09" width="6.59661" height="11.5441" transform="rotate(-120.166 107.773 1162.09)" fill="#C6D7D8"/>
<rect x="122.03" y="1153.8" width="6.59661" height="11.5441" transform="rotate(-120.166 122.03 1153.8)" fill="#C6D7D8"/>
<defs>
<radialGradient id="paint0_radial_319_121" cx="0" cy="0" r="1" gradientUnits="userSpaceOnUse" gradientTransform="translate(787.032 867.557) scale(681.669 681.669)">
<stop stop-color="white" stop-opacity="0"/>
<stop offset="1" stop-color="#4D4D4D"/>
</radialGradient>
<radialGradient id="paint1_radial_319_121" cx="0" cy="0" r="1" gradientUnits="userSpaceOnUse" gradientTransform="translate(787.032 867.557) scale(681.669 681.669)">
<stop stop-color="white" stop-opacity="0"/>
<stop offset="1" stop-color="#4D4D4D"/>
</radialGradient>
<linearGradient id="paint2_linear_319_121" x1="2157.89" y1="415.038" x2="299.643" y2="1030.62" gradientUnits="userSpaceOnUse">
<stop stop-color="white" stop-opacity="0"/>
<stop offset="1" stop-color="#4D4D4D"/>
</linearGradient>
<clipPath id="clip0_319_121">
<rect width="1363.62" height="1365.21" fill="white" transform="translate(104.728 185.205)"/>
</clipPath>
</defs>
</svg>
