<svg width="1276" height="1323" viewBox="0 0 1276 1323" fill="none" xmlns="http://www.w3.org/2000/svg">
<g clip-path="url(#clip0_297_246)">
<path d="M624.278 1169.12C901.421 1169.12 1126.09 944.455 1126.09 667.312C1126.09 390.17 901.421 165.502 624.278 165.502C347.136 165.502 122.468 390.17 122.468 667.312C122.468 944.455 347.136 1169.12 624.278 1169.12Z" fill="#666666"/>
<path d="M624.278 1169.12C901.421 1169.12 1126.09 944.455 1126.09 667.312C1126.09 390.17 901.421 165.502 624.278 165.502C347.136 165.502 122.468 390.17 122.468 667.312C122.468 944.455 347.136 1169.12 624.278 1169.12Z" fill="url(#paint0_radial_297_246)"/>
<path d="M624.278 1169.12C901.421 1169.12 1126.09 944.455 1126.09 667.312C1126.09 390.17 901.421 165.502 624.278 165.502C347.136 165.502 122.468 390.17 122.468 667.312C122.468 944.455 347.136 1169.12 624.278 1169.12Z" fill="url(#paint1_radial_297_246)"/>
<mask id="mask0_297_246" style="mask-type:luminance" maskUnits="userSpaceOnUse" x="-273" y="120" width="1578" height="1360">
<path d="M68.2437 364.808C287.042 204.873 312.786 166.625 413.017 139.525C539.238 105.39 653.329 124.134 725.993 143.486C684.472 204.733 606.713 227.579 535.662 248.217C363.608 298.175 189.533 363.126 60.0868 486.986C50.0134 496.615 39.6362 511.667 47.5944 523.108C53.601 531.732 66.1285 531.779 76.5992 530.809C134.2 525.421 191.426 516.224 247.811 503.288C326.762 485.175 404.58 459.477 474.918 419.289C608.045 343.236 719.227 214.105 871.437 195.711C883.287 194.274 896.469 193.923 905.806 201.367C925.742 217.249 910.539 249.654 891.689 266.821C859.225 296.387 819.084 315.972 779.059 334.062C634.736 399.271 484.419 450.105 334.393 500.822C244.703 531.136 155.013 561.461 65.3221 591.775C18.4144 607.633 -31.1345 625.279 -62.0908 663.936C-93.0472 702.582 -94.2742 769.204 -51.737 794.551C-22.5336 811.951 14.593 804.239 47.3139 795.018C378.964 701.624 673.464 510.522 958.229 316.545C992.727 293.044 1032.35 268.317 1073.23 276.754C1043.79 354.782 963.547 399.271 889.866 438.349C632.539 574.842 382.516 724.587 132.622 874.25C123.355 879.801 113.878 885.527 107.205 894.011C84.4872 922.875 108.105 969.211 142.812 981.212C177.52 993.214 215.722 981.13 249.237 966.091C339.617 925.552 418.615 863.908 496.619 802.86C600.73 721.396 704.841 639.921 807.97 557.219C860.382 515.184 913.367 472.332 974.976 445.559C1036.6 418.786 1109.1 409.718 1170.64 436.666C1174.21 438.232 1177.99 440.148 1179.72 443.642C1181.6 447.44 1180.51 451.975 1179.28 456.03C1155.36 534.794 1089.1 593.025 1020.73 638.87C823.91 770.828 590.54 834.459 373.67 929.969C336.66 946.271 299.522 963.87 269.092 990.503C238.661 1017.14 215.266 1054.21 213.49 1094.61C212.929 1107.23 215.219 1121.35 225.141 1129.17C230.189 1133.14 236.581 1134.95 242.88 1136.23C294.135 1146.55 347.049 1126.32 390.802 1097.71C434.554 1069.09 472.289 1032.09 515.691 1002.95C598.954 947.042 698.881 922.583 789.81 880.245C901.856 828.067 998.99 749.338 1096.3 673.145C1141.09 638.063 1189.54 601.977 1246.2 596.8C1236.54 656.188 1198.26 707.782 1151.94 746.171C1105.61 784.559 1051.2 811.671 998.009 839.776C828.877 929.128 666.826 1031.91 513.914 1146.83C493.639 1162.07 472.476 1192.34 491.793 1208.79C496.794 1213.04 503.467 1214.77 509.988 1215.58C558.076 1221.52 599.783 1185.26 636.232 1153.34C806.451 1004.23 1013.84 897.914 1234.27 846.741C1256.54 841.576 1284.52 838.935 1297.85 857.492C1304.55 866.806 1305.32 879.064 1304.77 890.529C1300.49 980.897 1232.89 1053.86 1169.88 1118.78C1076.4 1215.1 983.997 1313.06 879.839 1397.69C828.958 1439.04 770.645 1478.72 705.075 1479.17C666.885 1479.42 630.015 1466.17 594.443 1452.29C449.524 1395.72 307.399 1323.75 196.673 1214.48C138.816 1157.38 89.4889 1090.15 21.2774 1045.95C-65.3512 989.813 -94.9169 999.98 -149.596 954.229C-227.846 888.694 -291.126 762.742 -268.256 654.131C-250.54 569.98 -193.757 556.319 68.2437 364.808Z" fill="white"/>
</mask>
<g mask="url(#mask0_297_246)">
<path d="M624.231 1170.32C901.374 1170.32 1126.04 945.648 1126.04 668.506C1126.04 391.363 901.374 166.695 624.231 166.695C347.089 166.695 122.421 391.363 122.421 668.506C122.421 945.648 347.089 1170.32 624.231 1170.32Z" fill="url(#paint2_linear_297_246)"/>
</g>
</g>
<rect x="482.784" y="1218.03" width="149.325" height="106.834" rx="5" transform="rotate(-160.55 482.784 1218.03)" fill="#7B6A65"/>
<rect x="436.643" y="1286.71" width="27.9226" height="75.2695" rx="5" transform="rotate(-160.55 436.643 1286.71)" fill="#7B6A65"/>
<rect x="410.79" y="1250.55" width="27.9226" height="49.775" rx="5" transform="rotate(-160.55 410.79 1250.55)" fill="#7B6A65"/>
<rect x="574.572" y="1216.97" width="80.1256" height="75.2695" rx="5" transform="rotate(-160.55 574.572 1216.97)" fill="#7B6A65"/>
<rect x="570.938" y="1205.39" width="64.3433" height="14.5683" rx="1" transform="rotate(-160.55 570.938 1205.39)" fill="#C7D7D8"/>
<rect x="476.66" y="1195.27" width="13.3543" height="24.2805" rx="1" transform="rotate(-160.55 476.66 1195.27)" fill="#C7D7D8"/>
<rect x="459.49" y="1189.21" width="13.3543" height="24.2805" rx="1" transform="rotate(-160.55 459.49 1189.21)" fill="#C7D7D8"/>
<rect x="407.976" y="1171.02" width="13.3543" height="24.2805" rx="1" transform="rotate(-160.55 407.976 1171.02)" fill="#C7D7D8"/>
<rect x="442.318" y="1183.14" width="13.3543" height="24.2805" rx="1" transform="rotate(-160.55 442.318 1183.14)" fill="#C7D7D8"/>
<rect x="390.805" y="1164.95" width="13.3543" height="24.2805" rx="1" transform="rotate(-160.55 390.805 1164.95)" fill="#C7D7D8"/>
<rect x="425.147" y="1177.08" width="13.3543" height="24.2805" rx="1" transform="rotate(-160.55 425.147 1177.08)" fill="#C7D7D8"/>
<rect x="373.633" y="1158.89" width="13.3543" height="24.2805" rx="1" transform="rotate(-160.55 373.633 1158.89)" fill="#C7D7D8"/>
<rect x="851.541" y="130.334" width="149.325" height="106.834" rx="5" transform="rotate(29.4056 851.541 130.334)" fill="#7B6A65"/>
<rect x="908.861" y="70.665" width="27.9226" height="75.2695" rx="5" transform="rotate(29.4056 908.861 70.665)" fill="#7B6A65"/>
<rect x="928.072" y="110.757" width="27.9226" height="49.775" rx="5" transform="rotate(29.4056 928.072 110.757)" fill="#7B6A65"/>
<rect x="760.954" y="115.511" width="80.1256" height="75.2695" rx="5" transform="rotate(29.4056 760.954 115.511)" fill="#7B6A65"/>
<rect x="762.529" y="127.548" width="64.3433" height="14.5683" rx="1" transform="rotate(29.4056 762.529 127.548)" fill="#C7D7D8"/>
<rect x="853.639" y="153.812" width="13.3543" height="24.2805" rx="1" transform="rotate(29.4056 853.639 153.812)" fill="#C7D7D8"/>
<rect x="869.503" y="162.754" width="13.3543" height="24.2805" rx="1" transform="rotate(29.4056 869.503 162.754)" fill="#C7D7D8"/>
<rect x="917.095" y="189.577" width="13.3543" height="24.2805" rx="1" transform="rotate(29.4056 917.095 189.577)" fill="#C7D7D8"/>
<rect x="885.367" y="171.694" width="13.3543" height="24.2805" rx="1" transform="rotate(29.4056 885.367 171.694)" fill="#C7D7D8"/>
<rect x="932.959" y="198.518" width="13.3543" height="24.2805" rx="1" transform="rotate(29.4056 932.959 198.518)" fill="#C7D7D8"/>
<rect x="901.23" y="180.636" width="13.3543" height="24.2805" rx="1" transform="rotate(29.4056 901.23 180.636)" fill="#C7D7D8"/>
<rect x="948.823" y="207.459" width="13.3543" height="24.2805" rx="1" transform="rotate(29.4056 948.823 207.459)" fill="#C7D7D8"/>
<rect x="1156.98" y="475.766" width="149.325" height="106.834" rx="5" transform="rotate(74.0567 1156.98 475.766)" fill="#7B6A65"/>
<rect x="1239.69" y="473.601" width="27.9226" height="75.2695" rx="5" transform="rotate(74.0567 1239.69 473.601)" fill="#7B6A65"/>
<rect x="1225.19" y="515.625" width="27.9226" height="49.775" rx="5" transform="rotate(74.0567 1225.19 515.625)" fill="#7B6A65"/>
<rect x="1102.96" y="401.557" width="80.1256" height="75.2695" rx="5" transform="rotate(74.0567 1102.96 401.557)" fill="#7B6A65"/>
<rect x="1095.62" y="411.229" width="64.3433" height="14.5683" rx="1" transform="rotate(74.0567 1095.62 411.229)" fill="#C7D7D8"/>
<rect x="1141.97" y="493.943" width="13.3543" height="24.2805" rx="1" transform="rotate(74.0567 1141.97 493.943)" fill="#C7D7D8"/>
<rect x="1146.98" y="511.452" width="13.3543" height="24.2805" rx="1" transform="rotate(74.0567 1146.98 511.452)" fill="#C7D7D8"/>
<rect x="1161.98" y="563.982" width="13.3543" height="24.2805" rx="1" transform="rotate(74.0567 1161.98 563.982)" fill="#C7D7D8"/>
<rect x="1151.98" y="528.962" width="13.3543" height="24.2805" rx="1" transform="rotate(74.0567 1151.98 528.962)" fill="#C7D7D8"/>
<rect x="1166.98" y="581.492" width="13.3543" height="24.2805" rx="1" transform="rotate(74.0567 1166.98 581.492)" fill="#C7D7D8"/>
<rect x="1156.98" y="546.472" width="13.3543" height="24.2805" rx="1" transform="rotate(74.0567 1156.98 546.472)" fill="#C7D7D8"/>
<rect x="1171.99" y="599.002" width="13.3543" height="24.2805" rx="1" transform="rotate(74.0567 1171.99 599.002)" fill="#C7D7D8"/>
<rect x="1012.92" y="1038.2" width="122.616" height="66.7713" transform="rotate(136.608 1012.92 1038.2)" fill="#7B6A65"/>
<rect x="1032.71" y="1098.01" width="65.5573" height="66.7713" transform="rotate(136.608 1032.71 1098.01)" fill="#7B6A65"/>
<rect x="1036.73" y="1107.57" width="58.2732" height="66.7713" transform="rotate(136.608 1036.73 1107.57)" fill="#7B6A65"/>
<rect x="1020.88" y="1090.81" width="58.2732" height="4.8561" transform="rotate(136.608 1020.88 1090.81)" fill="#C6D7D8"/>
<rect x="1016.71" y="1086.4" width="58.2732" height="4.8561" transform="rotate(136.608 1016.71 1086.4)" fill="#C6D7D8"/>
<rect x="1012.54" y="1081.99" width="58.2732" height="4.8561" transform="rotate(136.608 1012.54 1081.99)" fill="#C6D7D8"/>
<rect x="1004.21" y="1073.17" width="58.2732" height="4.8561" transform="rotate(136.608 1004.21 1073.17)" fill="#C6D7D8"/>
<rect x="1000.03" y="1068.76" width="58.2732" height="4.8561" transform="rotate(136.608 1000.03 1068.76)" fill="#C6D7D8"/>
<rect x="1000.95" y="1036.15" width="110.476" height="16.9963" transform="rotate(136.608 1000.95 1036.15)" fill="#C6D7D8"/>
<rect x="985.103" y="1019.39" width="14.5683" height="16.9963" transform="rotate(136.608 985.103 1019.39)" fill="#C6D7D8"/>
<rect x="915.407" y="1085.28" width="14.5683" height="16.9963" transform="rotate(136.608 915.407 1085.28)" fill="#C6D7D8"/>
<rect x="949.815" y="1052.75" width="14.5683" height="16.9963" transform="rotate(136.608 949.815 1052.75)" fill="#C6D7D8"/>
<rect x="967.46" y="1036.07" width="14.5683" height="16.9963" transform="rotate(136.608 967.46 1036.07)" fill="#C6D7D8"/>
<rect x="932.17" y="1069.44" width="14.5683" height="16.9963" transform="rotate(136.608 932.17 1069.44)" fill="#C6D7D8"/>
<rect x="102.301" y="481.09" width="122.616" height="66.7713" transform="rotate(-63.2243 102.301 481.09)" fill="#7B6A65"/>
<rect x="63.3936" y="431.541" width="65.5573" height="57.0541" transform="rotate(-63.2243 63.3936 431.541)" fill="#7B6A65"/>
<rect x="76.9561" y="434.305" width="58.2732" height="4.8561" transform="rotate(-63.2243 76.9561 434.305)" fill="#C6D7D8"/>
<rect x="82.375" y="437.04" width="58.2732" height="4.8561" transform="rotate(-63.2243 82.375 437.04)" fill="#C6D7D8"/>
<rect x="87.7939" y="439.774" width="58.2732" height="4.8561" transform="rotate(-63.2243 87.7939 439.774)" fill="#C6D7D8"/>
<rect x="98.6318" y="445.244" width="58.2732" height="4.8561" transform="rotate(-63.2243 98.6318 445.244)" fill="#C6D7D8"/>
<rect x="104.053" y="447.978" width="58.2732" height="4.8561" transform="rotate(-63.2243 104.053 447.978)" fill="#C6D7D8"/>
<rect x="114.253" y="478.963" width="110.476" height="16.9963" transform="rotate(-63.2243 114.253 478.963)" fill="#C6D7D8"/>
<rect x="134.848" y="489.354" width="14.5683" height="16.9963" transform="rotate(-63.2243 134.848 489.354)" fill="#C6D7D8"/>
<rect x="178.053" y="403.73" width="14.5683" height="16.9963" transform="rotate(-63.2243 178.053 403.73)" fill="#C6D7D8"/>
<rect x="156.724" y="446" width="14.5683" height="16.9963" transform="rotate(-63.2243 156.724 446)" fill="#C6D7D8"/>
<rect x="145.785" y="467.677" width="14.5683" height="16.9963" transform="rotate(-63.2243 145.785 467.677)" fill="#C6D7D8"/>
<rect x="167.661" y="424.323" width="14.5683" height="16.9963" transform="rotate(-63.2243 167.661 424.323)" fill="#C6D7D8"/>
<rect x="411.31" y="120.001" width="182.104" height="94.6939" rx="5" transform="rotate(-6.92166 411.31 120.001)" fill="#7B6A65"/>
<path d="M414.355 130.124C410.025 128.973 409.279 123.147 413.178 120.941L438.417 106.658C441.509 104.909 445.388 106.851 445.839 110.374L448.626 132.113C449.077 135.636 445.814 138.493 442.381 137.58L414.355 130.124Z" fill="#7B6A65"/>
<path d="M458.945 124.711C454.616 123.56 453.87 117.734 457.768 115.528L483.008 101.245C486.1 99.4956 489.979 101.438 490.43 104.961L493.216 126.699C493.668 130.223 490.404 133.08 486.972 132.167L458.945 124.711Z" fill="#7B6A65"/>
<path d="M530.412 35.6698C530.255 33.0323 532.178 30.7281 534.801 30.4097L543.435 29.3616C546.102 29.0378 548.548 30.8796 548.974 33.5322L559.91 101.622C560.359 104.423 558.392 107.037 555.575 107.379L540.101 109.257C537.239 109.605 534.678 107.467 534.507 104.59L530.412 35.6698Z" fill="#7B6A65"/>
<rect x="422.051" y="148.048" width="4.8561" height="8.49817" transform="rotate(-6.92166 422.051 148.048)" fill="#C6D7D8"/>
<rect x="423.515" y="160.1" width="4.8561" height="8.49817" transform="rotate(-6.92166 423.515 160.1)" fill="#C6D7D8"/>
<rect x="507.619" y="137.66" width="4.8561" height="8.49817" transform="rotate(-6.92166 507.619 137.66)" fill="#C6D7D8"/>
<rect x="509.081" y="149.711" width="4.8561" height="8.49817" transform="rotate(-6.92166 509.081 149.711)" fill="#C6D7D8"/>
<rect x="464.232" y="142.927" width="4.8561" height="8.49817" transform="rotate(-6.92166 464.232 142.927)" fill="#C6D7D8"/>
<rect x="465.695" y="154.978" width="4.8561" height="8.49817" transform="rotate(-6.92166 465.695 154.978)" fill="#C6D7D8"/>
<rect x="549.801" y="132.539" width="4.8561" height="8.49817" transform="rotate(-6.92166 549.801 132.539)" fill="#C6D7D8"/>
<path d="M531.36 51.618L551.493 49.1739L552.841 57.5709L531.86 60.1179L531.36 51.618Z" fill="#C6D7D8"/>
<rect x="551.264" y="144.591" width="4.8561" height="8.49817" transform="rotate(-6.92166 551.264 144.591)" fill="#C6D7D8"/>
<rect x="430.487" y="147.022" width="4.8561" height="8.49817" transform="rotate(-6.92166 430.487 147.022)" fill="#C6D7D8"/>
<rect x="431.951" y="159.074" width="4.8561" height="8.49817" transform="rotate(-6.92166 431.951 159.074)" fill="#C6D7D8"/>
<rect x="516.055" y="136.636" width="4.8561" height="8.49817" transform="rotate(-6.92166 516.055 136.636)" fill="#C6D7D8"/>
<rect x="517.518" y="148.688" width="4.8561" height="8.49817" transform="rotate(-6.92166 517.518 148.688)" fill="#C6D7D8"/>
<rect x="472.668" y="141.902" width="4.8561" height="8.49817" transform="rotate(-6.92166 472.668 141.902)" fill="#C6D7D8"/>
<rect x="474.132" y="153.954" width="4.8561" height="8.49817" transform="rotate(-6.92166 474.132 153.954)" fill="#C6D7D8"/>
<rect x="558.235" y="131.515" width="4.8561" height="8.49817" transform="rotate(-6.92166 558.235 131.515)" fill="#C6D7D8"/>
<rect x="559.698" y="143.566" width="4.8561" height="8.49817" transform="rotate(-6.92166 559.698 143.566)" fill="#C6D7D8"/>
<rect x="438.924" y="145.999" width="4.8561" height="8.49817" transform="rotate(-6.92166 438.924 145.999)" fill="#C6D7D8"/>
<rect x="440.387" y="158.051" width="4.8561" height="8.49817" transform="rotate(-6.92166 440.387 158.051)" fill="#C6D7D8"/>
<rect x="524.491" y="135.611" width="4.8561" height="8.49817" transform="rotate(-6.92166 524.491 135.611)" fill="#C6D7D8"/>
<rect x="525.954" y="147.663" width="4.8561" height="8.49817" transform="rotate(-6.92166 525.954 147.663)" fill="#C6D7D8"/>
<rect x="481.104" y="140.878" width="4.8561" height="8.49817" transform="rotate(-6.92166 481.104 140.878)" fill="#C6D7D8"/>
<rect x="482.568" y="152.931" width="4.8561" height="8.49817" transform="rotate(-6.92166 482.568 152.931)" fill="#C6D7D8"/>
<rect x="566.672" y="130.491" width="4.8561" height="8.49817" transform="rotate(-6.92166 566.672 130.491)" fill="#C6D7D8"/>
<rect x="568.135" y="142.543" width="4.8561" height="8.49817" transform="rotate(-6.92166 568.135 142.543)" fill="#C6D7D8"/>
<rect x="447.36" y="144.975" width="4.8561" height="8.49817" transform="rotate(-6.92166 447.36 144.975)" fill="#C6D7D8"/>
<rect x="448.822" y="157.026" width="4.8561" height="8.49817" transform="rotate(-6.92166 448.822 157.026)" fill="#C6D7D8"/>
<rect x="532.927" y="134.588" width="4.8561" height="8.49817" transform="rotate(-6.92166 532.927 134.588)" fill="#C6D7D8"/>
<rect x="534.391" y="146.64" width="4.8561" height="8.49817" transform="rotate(-6.92166 534.391 146.64)" fill="#C6D7D8"/>
<rect x="489.541" y="139.854" width="4.8561" height="8.49817" transform="rotate(-6.92166 489.541 139.854)" fill="#C6D7D8"/>
<rect x="491.004" y="151.905" width="4.8561" height="8.49817" transform="rotate(-6.92166 491.004 151.905)" fill="#C6D7D8"/>
<rect x="575.109" y="129.467" width="4.8561" height="8.49817" transform="rotate(-6.92166 575.109 129.467)" fill="#C6D7D8"/>
<rect x="576.572" y="141.519" width="4.8561" height="8.49817" transform="rotate(-6.92166 576.572 141.519)" fill="#C6D7D8"/>
<rect x="455.797" y="143.951" width="4.8561" height="8.49817" transform="rotate(-6.92166 455.797 143.951)" fill="#C6D7D8"/>
<rect x="457.259" y="156.003" width="4.8561" height="8.49817" transform="rotate(-6.92166 457.259 156.003)" fill="#C6D7D8"/>
<rect x="541.363" y="133.563" width="4.8561" height="8.49817" transform="rotate(-6.92166 541.363 133.563)" fill="#C6D7D8"/>
<rect x="542.826" y="145.615" width="4.8561" height="8.49817" transform="rotate(-6.92166 542.826 145.615)" fill="#C6D7D8"/>
<rect x="497.979" y="138.83" width="4.8561" height="8.49817" transform="rotate(-6.92166 497.979 138.83)" fill="#C6D7D8"/>
<rect x="499.44" y="150.883" width="4.8561" height="8.49817" transform="rotate(-6.92166 499.44 150.883)" fill="#C6D7D8"/>
<rect x="583.546" y="128.442" width="4.8561" height="8.49817" transform="rotate(-6.92166 583.546 128.442)" fill="#C6D7D8"/>
<rect x="585.008" y="140.494" width="4.8561" height="8.49817" transform="rotate(-6.92166 585.008 140.494)" fill="#C6D7D8"/>
<rect x="184.46" y="1045.72" width="182.104" height="94.6939" rx="5" transform="rotate(-120.166 184.46 1045.72)" fill="#7B6A65"/>
<path d="M192.559 1038.93C193.209 1043.36 188.151 1046.35 184.585 1043.63L161.5 1026.08C158.673 1023.93 158.926 1019.6 161.986 1017.79L180.86 1006.65C183.919 1004.85 187.833 1006.72 188.348 1010.23L192.559 1038.93Z" fill="#7B6A65"/>
<path d="M169.987 1000.09C170.638 1004.52 165.58 1007.51 162.014 1004.8L138.929 987.244C136.102 985.094 136.355 980.763 139.414 978.958L158.289 967.818C161.348 966.013 165.261 967.884 165.777 971.398L169.987 1000.09Z" fill="#7B6A65"/>
<path d="M59.9683 969.568C57.6067 970.752 54.7308 969.895 53.4031 967.611L49.0327 960.092C47.6826 957.769 48.4095 954.794 50.6787 953.356L108.926 916.436C111.322 914.917 114.5 915.694 115.925 918.146L123.759 931.624C125.207 934.115 124.254 937.313 121.678 938.605L59.9683 969.568Z" fill="#7B6A65"/>
<rect x="205.989" y="1024.78" width="4.8561" height="8.49817" transform="rotate(-120.166 205.989 1024.78)" fill="#C6D7D8"/>
<rect x="216.486" y="1018.68" width="4.8561" height="8.49817" transform="rotate(-120.166 216.486 1018.68)" fill="#C6D7D8"/>
<rect x="162.676" y="950.26" width="4.8561" height="8.49817" transform="rotate(-120.166 162.676 950.26)" fill="#C6D7D8"/>
<rect x="173.171" y="944.159" width="4.8561" height="8.49817" transform="rotate(-120.166 173.171 944.159)" fill="#C6D7D8"/>
<rect x="184.637" y="988.045" width="4.8561" height="8.49817" transform="rotate(-120.166 184.637 988.045)" fill="#C6D7D8"/>
<rect x="195.134" y="981.945" width="4.8561" height="8.49817" transform="rotate(-120.166 195.134 981.945)" fill="#C6D7D8"/>
<rect x="141.323" y="913.523" width="4.8561" height="8.49817" transform="rotate(-120.166 141.323 913.523)" fill="#C6D7D8"/>
<path d="M74.2463 962.403L64.0551 944.869L71.2385 940.316L81.859 958.589L74.2463 962.403Z" fill="#C6D7D8"/>
<rect x="151.818" y="907.423" width="4.8561" height="8.49817" transform="rotate(-120.166 151.818 907.423)" fill="#C6D7D8"/>
<rect x="201.719" y="1017.44" width="4.8561" height="8.49817" transform="rotate(-120.166 201.719 1017.44)" fill="#C6D7D8"/>
<rect x="212.215" y="1011.33" width="4.8561" height="8.49817" transform="rotate(-120.166 212.215 1011.33)" fill="#C6D7D8"/>
<rect x="158.405" y="942.913" width="4.8561" height="8.49817" transform="rotate(-120.166 158.405 942.913)" fill="#C6D7D8"/>
<rect x="168.9" y="936.812" width="4.8561" height="8.49817" transform="rotate(-120.166 168.9 936.812)" fill="#C6D7D8"/>
<rect x="180.366" y="980.698" width="4.8561" height="8.49817" transform="rotate(-120.166 180.366 980.698)" fill="#C6D7D8"/>
<rect x="190.863" y="974.598" width="4.8561" height="8.49817" transform="rotate(-120.166 190.863 974.598)" fill="#C6D7D8"/>
<rect x="137.053" y="906.176" width="4.8561" height="8.49817" transform="rotate(-120.166 137.053 906.176)" fill="#C6D7D8"/>
<rect x="147.549" y="900.076" width="4.8561" height="8.49817" transform="rotate(-120.166 147.549 900.076)" fill="#C6D7D8"/>
<rect x="197.448" y="1010.09" width="4.8561" height="8.49817" transform="rotate(-120.166 197.448 1010.09)" fill="#C6D7D8"/>
<rect x="207.945" y="1003.99" width="4.8561" height="8.49817" transform="rotate(-120.166 207.945 1003.99)" fill="#C6D7D8"/>
<rect x="154.135" y="935.565" width="4.8561" height="8.49817" transform="rotate(-120.166 154.135 935.565)" fill="#C6D7D8"/>
<rect x="164.631" y="929.464" width="4.8561" height="8.49817" transform="rotate(-120.166 164.631 929.464)" fill="#C6D7D8"/>
<rect x="176.096" y="973.351" width="4.8561" height="8.49817" transform="rotate(-120.166 176.096 973.351)" fill="#C6D7D8"/>
<rect x="186.594" y="967.25" width="4.8561" height="8.49817" transform="rotate(-120.166 186.594 967.25)" fill="#C6D7D8"/>
<rect x="132.781" y="898.829" width="4.8561" height="8.49817" transform="rotate(-120.166 132.781 898.829)" fill="#C6D7D8"/>
<rect x="143.278" y="892.728" width="4.8561" height="8.49817" transform="rotate(-120.166 143.278 892.728)" fill="#C6D7D8"/>
<rect x="193.177" y="1002.74" width="4.8561" height="8.49817" transform="rotate(-120.166 193.177 1002.74)" fill="#C6D7D8"/>
<rect x="203.675" y="996.64" width="4.8561" height="8.49817" transform="rotate(-120.166 203.675 996.64)" fill="#C6D7D8"/>
<rect x="149.863" y="928.218" width="4.8561" height="8.49817" transform="rotate(-120.166 149.863 928.218)" fill="#C6D7D8"/>
<rect x="160.359" y="922.118" width="4.8561" height="8.49817" transform="rotate(-120.166 160.359 922.118)" fill="#C6D7D8"/>
<rect x="171.825" y="966.004" width="4.8561" height="8.49817" transform="rotate(-120.166 171.825 966.004)" fill="#C6D7D8"/>
<rect x="182.322" y="959.903" width="4.8561" height="8.49817" transform="rotate(-120.166 182.322 959.903)" fill="#C6D7D8"/>
<rect x="128.512" y="891.481" width="4.8561" height="8.49817" transform="rotate(-120.166 128.512 891.481)" fill="#C6D7D8"/>
<rect x="139.008" y="885.381" width="4.8561" height="8.49817" transform="rotate(-120.166 139.008 885.381)" fill="#C6D7D8"/>
<rect x="188.907" y="995.393" width="4.8561" height="8.49817" transform="rotate(-120.166 188.907 995.393)" fill="#C6D7D8"/>
<rect x="199.404" y="989.292" width="4.8561" height="8.49817" transform="rotate(-120.166 199.404 989.292)" fill="#C6D7D8"/>
<rect x="145.594" y="920.871" width="4.8561" height="8.49817" transform="rotate(-120.166 145.594 920.871)" fill="#C6D7D8"/>
<rect x="156.089" y="914.77" width="4.8561" height="8.49817" transform="rotate(-120.166 156.089 914.77)" fill="#C6D7D8"/>
<rect x="167.556" y="958.656" width="4.8561" height="8.49817" transform="rotate(-120.166 167.556 958.656)" fill="#C6D7D8"/>
<rect x="178.052" y="952.556" width="4.8561" height="8.49817" transform="rotate(-120.166 178.052 952.556)" fill="#C6D7D8"/>
<rect x="124.242" y="884.134" width="4.8561" height="8.49817" transform="rotate(-120.166 124.242 884.134)" fill="#C6D7D8"/>
<rect x="134.737" y="878.034" width="4.8561" height="8.49817" transform="rotate(-120.166 134.737 878.034)" fill="#C6D7D8"/>
<defs>
<radialGradient id="paint0_radial_297_246" cx="0" cy="0" r="1" gradientUnits="userSpaceOnUse" gradientTransform="translate(624.278 667.312) scale(501.81 501.811)">
<stop stop-color="white" stop-opacity="0"/>
<stop offset="1" stop-color="#4D4D4D"/>
</radialGradient>
<radialGradient id="paint1_radial_297_246" cx="0" cy="0" r="1" gradientUnits="userSpaceOnUse" gradientTransform="translate(624.278 667.312) scale(501.81 501.811)">
<stop stop-color="white" stop-opacity="0"/>
<stop offset="1" stop-color="#4D4D4D"/>
</radialGradient>
<linearGradient id="paint2_linear_297_246" x1="1633.44" y1="334.192" x2="265.487" y2="787.35" gradientUnits="userSpaceOnUse">
<stop stop-color="white" stop-opacity="0"/>
<stop offset="1" stop-color="#4D4D4D"/>
</linearGradient>
<clipPath id="clip0_297_246">
<rect width="1003.83" height="1005" fill="white" transform="translate(122 165)"/>
</clipPath>
</defs>
</svg>
