<svg width="896" height="958" viewBox="0 0 896 958" fill="none" xmlns="http://www.w3.org/2000/svg">
<path d="M438.663 891.096C674.251 891.096 865.233 700.114 865.233 464.526C865.233 228.938 674.251 37.9561 438.663 37.9561C203.075 37.9561 12.0928 228.938 12.0928 464.526C12.0928 700.114 203.075 891.096 438.663 891.096Z" fill="#669366"/>
<path d="M438.663 891.096C674.251 891.096 865.233 700.114 865.233 464.526C865.233 228.938 674.251 37.9561 438.663 37.9561C203.075 37.9561 12.0928 228.938 12.0928 464.526C12.0928 700.114 203.075 891.096 438.663 891.096Z" fill="url(#paint0_radial_308_763)"/>
<path d="M438.663 891.096C674.251 891.096 865.233 700.114 865.233 464.526C865.233 228.938 674.251 37.9561 438.663 37.9561C203.075 37.9561 12.0928 228.938 12.0928 464.526C12.0928 700.114 203.075 891.096 438.663 891.096Z" fill="url(#paint1_radial_308_763)"/>
<mask id="mask0_308_763" style="mask-type:luminance" maskUnits="userSpaceOnUse" x="-360" y="-142" width="1401" height="1245">
<path d="M-174.108 457.453C-63.7324 342.995 19.7221 205.252 125.915 86.9099C232.108 -31.4422 371.46 -133.672 530.263 -141.847C551.134 -142.92 577.34 -138.668 583.439 -118.681C585.505 -111.907 584.631 -104.605 583.37 -97.6415C567.823 -11.5149 500.342 54.3963 436.368 114.109C294.602 246.428 152.836 378.747 11.0796 511.056C-20.8776 540.888 -53.7389 571.981 -70.6463 612.292C-87.5538 652.604 -84.0272 704.955 -50.5799 733.108C-23.2618 756.105 17.4671 757.436 50.9243 744.919C84.3717 732.403 111.978 708.184 137.667 683.379C190.455 632.398 238.605 576.878 288.016 522.609C379.924 421.671 476.412 324.905 577.072 232.689C667.668 149.692 762.666 69.7044 871.491 12.6642C898.75 -1.62074 928.949 -14.7533 959.317 -9.80624C1019.48 -0.00151901 1046.69 78.0886 1027.03 135.784C1007.37 193.48 957.469 234.587 910.929 273.945C775.401 388.552 649.609 514.573 534.068 649.306C480.822 711.392 427.15 782.191 426.524 863.977C426.325 889.636 433.547 918.295 455.551 931.517C484.855 949.13 522.068 930.494 549.853 910.576C677.165 819.284 778.948 693.561 915.061 615.998C946.135 598.295 987.102 583.911 1015.51 605.627C1039.34 623.855 1041.68 658.425 1040.18 688.386C1034.17 807.83 991.155 937.298 886.75 995.64C835.67 1024.18 776.087 1032.2 718.301 1041.44C510.018 1074.71 297.701 1130.39 91.2856 1087.05C9.85774 1069.96 -67.6066 1037.86 -143.283 1003.28C-220.658 967.925 -258.347 948.106 -277.012 922.517C-378.924 782.876 -159.376 466.145 -174.286 457.562C-180.584 453.936 -222.783 508.662 -360 725.459" fill="white"/>
</mask>
<g mask="url(#mask0_308_763)">
<path d="M438.662 891.096C674.25 891.096 865.232 700.114 865.232 464.526C865.232 228.938 674.25 37.9561 438.662 37.9561C203.074 37.9561 12.0918 228.938 12.0918 464.526C12.0918 700.114 203.074 891.096 438.662 891.096Z" fill="url(#paint2_radial_308_763)"/>
</g>
<path d="M485.549 51.3123C486.041 65.0668 454.54 60.9294 416.999 62.2724C379.457 63.6154 350.97 69.8988 350.478 56.1443C349.986 42.3899 377.675 13.8062 415.217 12.4632C452.758 11.1202 485.057 37.5579 485.549 51.3123Z" fill="#D7B880"/>
<path d="M365.164 64.8599C365.218 56.5263 378.391 31.3826 384.97 19.8525C388.984 17.2446 399.013 14.6562 403.528 13.7613C401.783 14.1758 389.24 47.6188 383.184 64.2153C378.877 65.1908 369.376 65.0515 365.164 64.8599Z" fill="#D5C391"/>
<path d="M397.97 63.3925C398.024 55.0588 413.482 24.1124 420.062 12.5823C426.654 12.3467 435.094 14.538 436.998 14.4698C435.253 14.8843 423.201 45.67 417.145 62.2664C412.326 62.8789 402.495 62.7905 397.97 63.3925Z" fill="#D5C391"/>
<path d="M431.66 62.0409C431.714 53.7072 444.536 31.0698 451.115 19.5396C457.64 21.5065 462.464 25.1477 464.264 26.2568C462.518 26.6713 455.458 45.2497 449.402 61.8462C444.583 62.4586 436.185 61.4389 431.66 62.0409Z" fill="#D5C391"/>
<path d="M288.292 865.789C287.877 834.936 358.272 845.786 442.482 844.655C526.691 843.523 590.854 830.866 591.269 861.718C591.683 892.571 528.192 955.25 443.983 956.381C359.773 957.513 288.706 896.641 288.292 865.789Z" fill="#D7B880"/>
<path d="M558.788 841.449C558.251 860.124 527.469 915.82 512.145 941.333C503.018 946.978 480.411 952.277 470.246 954.057C474.179 953.215 503.966 878.887 518.37 841.992C528.072 840.021 549.358 840.809 558.788 841.449Z" fill="#D5C391"/>
<path d="M485.188 843.096C484.65 861.772 448.454 930.359 433.13 955.872C418.343 956.07 399.537 950.736 395.265 950.794C399.198 949.952 427.749 881.555 442.153 844.66C452.984 843.529 475.014 844.219 485.188 843.096Z" fill="#D5C391"/>
<path d="M409.611 844.44C409.073 863.115 379.202 913.211 363.878 938.725C349.353 933.99 338.723 925.587 334.744 923.011C338.677 922.17 355.432 880.883 369.836 843.988C380.667 842.857 399.437 845.563 409.611 844.44Z" fill="#D5C391"/>
<path d="M145.021 167.949C155.735 176.588 131.971 197.676 108.391 226.919C84.8098 256.161 70.8934 281.8 60.1796 273.16C49.4658 264.521 46.0117 224.875 69.5924 195.632C93.1731 166.39 134.307 159.309 145.021 167.949Z" fill="#D7B880"/>
<path d="M76.3861 267.774C70.1254 262.274 59.7594 235.849 55.359 223.324C56.0185 218.583 60.6332 209.311 62.9153 205.313C62.0849 206.904 79.1334 238.29 87.7044 253.739C85.6197 257.632 79.2903 264.718 76.3861 267.774Z" fill="#D5C391"/>
<path d="M96.7699 242.029C90.5091 236.528 77.2569 204.575 72.8565 192.05C76.9975 186.915 84.1821 181.975 85.3783 180.491C84.548 182.082 99.911 211.356 108.482 226.804C105.788 230.846 99.2801 238.215 96.7699 242.029Z" fill="#D5C391"/>
<path d="M117.821 215.691C111.56 210.191 102.858 185.673 98.4575 173.148C104.218 169.507 110.13 168.248 112.147 167.615C111.316 169.205 120.726 186.711 129.297 202.16C126.603 206.201 120.331 211.878 117.821 215.691Z" fill="#D5C391"/>
<path d="M395.237 197.72C399.88 210.676 368.61 216.294 333.247 228.967C297.884 241.64 272.647 256.273 268.004 243.317C263.361 230.36 281.069 194.721 316.432 182.048C351.796 169.375 390.594 184.763 395.237 197.72Z" fill="#D7B880"/>
<path d="M284.643 247.164C282.165 239.207 287.085 211.251 289.855 198.268C292.888 194.565 301.659 189.055 305.689 186.832C304.152 187.757 302.35 223.429 301.617 241.081C297.809 243.318 288.714 246.068 284.643 247.164Z" fill="#D5C391"/>
<path d="M315.456 235.809C312.978 227.852 318.315 193.674 321.085 180.691C327.295 178.466 336.002 177.992 337.796 177.349C336.258 178.274 334.119 211.265 333.385 228.917C328.98 230.963 319.585 233.862 315.456 235.809Z" fill="#D5C391"/>
<path d="M347.145 224.297C344.667 216.34 350.015 190.879 352.784 177.896C359.598 177.79 365.3 179.795 367.351 180.306C365.814 181.23 364.725 201.075 363.991 218.727C359.586 220.773 351.275 222.35 347.145 224.297Z" fill="#D5C391"/>
<path d="M780.655 708.089C768.36 701.902 787.143 676.278 804.029 642.722C820.914 609.165 829.112 581.169 841.407 587.355C853.701 593.542 865.436 631.568 848.551 665.125C831.665 698.681 792.949 714.275 780.655 708.089Z" fill="#D7B880"/>
<path d="M826.7 596.037C833.979 600.094 849.683 623.739 856.626 635.054C856.981 639.828 854.424 649.865 853.036 654.254C853.513 652.524 830.23 625.437 818.595 612.143C819.812 607.898 824.505 599.637 826.7 596.037Z" fill="#D5C391"/>
<path d="M812.202 625.501C819.482 629.558 839.173 657.999 846.115 669.315C843.15 675.207 837.168 681.551 836.312 683.254C836.788 681.524 815.598 656.147 803.963 642.853C805.745 638.334 810.552 629.758 812.202 625.501Z" fill="#D5C391"/>
<path d="M797.178 655.685C804.458 659.742 818.133 681.874 825.076 693.19C820.212 697.963 814.699 700.44 812.861 701.485C813.337 699.755 800.448 684.626 788.812 671.332C790.594 666.813 795.528 659.942 797.178 655.685Z" fill="#D5C391"/>
<path d="M551.619 690.914C542.642 680.481 569.824 664.034 598.3 639.533C626.776 615.033 645.096 592.33 654.073 602.763C663.049 613.196 659.283 652.814 630.807 677.315C602.331 701.815 560.595 701.347 551.619 690.914Z" fill="#D7B880"/>
<path d="M637.159 605.133C642.323 611.674 647.744 639.536 649.809 652.65C648.304 657.194 642.09 665.48 639.123 668.999C640.227 667.585 629.13 633.635 623.491 616.892C626.245 613.44 633.75 607.614 637.159 605.133Z" fill="#D5C391"/>
<path d="M612.46 626.771C617.624 633.312 624.885 667.134 626.95 680.248C621.949 684.55 613.99 688.111 612.546 689.354C613.65 687.94 603.828 656.372 598.19 639.629C601.57 636.141 609.302 630.068 612.46 626.771Z" fill="#D5C391"/>
<path d="M586.997 648.872C592.161 655.414 596.29 681.1 598.355 694.214C592.031 696.754 585.99 696.924 583.891 697.183C584.995 695.769 578.903 676.85 573.264 660.108C576.644 656.619 583.839 652.17 586.997 648.872Z" fill="#D5C391"/>
<path d="M756.859 198.099C748.742 209.214 726.542 186.485 696.207 164.329C665.871 142.173 639.596 129.497 647.714 118.383C655.832 107.268 695.267 101.924 725.603 124.08C755.939 146.236 764.977 186.985 756.859 198.099Z" fill="#D7B880"/>
<path d="M653.868 134.314C659.063 127.798 684.962 116.181 697.262 111.187C702.029 111.619 711.512 115.785 715.614 117.874C713.986 117.12 683.45 135.649 668.428 144.949C664.44 143.052 657.059 137.069 653.868 134.314Z" fill="#D5C391"/>
<path d="M680.558 153.444C685.753 146.927 717.037 132.163 729.337 127.169C734.664 131.06 739.942 138 741.481 139.124C739.853 138.371 711.346 155.115 696.325 164.415C692.159 161.917 684.487 155.769 680.558 153.444Z" fill="#D5C391"/>
<path d="M707.872 173.212C713.068 166.695 737.142 156.831 749.442 151.837C753.354 157.417 754.894 163.262 755.623 165.247C753.995 164.493 736.958 174.729 721.937 184.029C717.771 181.53 711.802 175.537 707.872 173.212Z" fill="#D5C391"/>
<path d="M674.981 127.362C666.914 156.368 614.958 129.973 548.97 111.62C482.982 93.2678 429.495 90.337 437.562 61.3309C445.629 32.3247 512.196 -11.7727 578.184 6.57989C644.172 24.9325 683.048 98.3556 674.981 127.362Z" fill="#D8C79A"/>
<path d="M516.418 62.0853C483.033 55.2417 475.662 32.0705 476.113 21.4691L482.295 18.1947C483.051 24.7857 491.959 40.3022 521.83 48.6098C576.168 48.7415 610.78 130.775 607.432 129.844C604.754 129.099 580.9 121.17 569.308 117.299C565.588 101.746 549.802 68.929 516.418 62.0853Z" fill="#D4BE96"/>
<path d="M457.502 58.462C444.16 50.2117 448.507 42.9216 448.507 42.9216L452.3 39.2603C453.057 45.8513 476.432 51.9171 488.018 64.4522C499.592 76.9758 513.657 102.932 510.31 102.001C507.632 101.256 483.062 95.9022 471.469 92.0308C467.75 76.4779 479.517 72.0752 457.502 58.462Z" fill="#D4BE96"/>
<path d="M565.351 50.7282C531.966 43.8845 501.976 20.2478 502.427 9.64639L508.508 7.73117C509.265 14.3222 540.893 28.945 570.763 37.2526C625.102 37.3843 666.527 138.756 663.083 139.219C661.066 139.49 656.801 143.853 624.613 134.901C620.893 119.348 598.736 57.5718 565.351 50.7282Z" fill="#D4BE96"/>
<path d="M858.721 374.995C834.446 392.805 809.932 339.936 769.416 284.711C728.901 229.487 688.675 194.112 712.949 176.303C737.224 158.494 816.807 164.994 857.323 220.218C897.839 275.443 882.995 357.186 858.721 374.995Z" fill="#D8C79A"/>
<path d="M774.458 225.652C752.451 199.631 760.985 176.863 767.894 168.81L774.777 170.058C771.296 175.706 768.704 193.409 787.044 218.407C829.669 252.108 806.151 337.982 804.096 335.18C802.451 332.939 788.606 311.959 781.889 301.748C788.582 287.225 796.466 251.672 774.458 225.652Z" fill="#D4BE96"/>
<path d="M730.396 186.378C725.01 171.644 732.935 168.602 732.935 168.602L738.18 168.07C734.699 173.718 749.32 192.938 750.675 209.953C752.029 226.953 747.035 256.049 744.98 253.248C743.335 251.006 727.335 231.607 720.618 221.397C727.31 206.873 739.281 210.689 730.396 186.378Z" fill="#D4BE96"/>
<path d="M819.94 246.981C797.932 220.961 788.976 183.841 795.886 175.788L801.85 178.042C798.369 183.69 814.185 214.739 832.525 239.737C875.151 273.437 845.03 378.723 842.038 376.958C840.284 375.924 834.235 376.715 814.472 349.778C821.165 335.254 841.947 273.002 819.94 246.981Z" fill="#D4BE96"/>
<path d="M678.509 437.184C654.234 454.993 629.72 402.124 589.204 346.9C548.689 291.675 508.463 256.301 532.737 238.491C557.012 220.682 636.596 227.182 677.111 282.407C717.627 337.631 702.783 419.375 678.509 437.184Z" fill="#D8C79A"/>
<path d="M594.247 287.84C572.239 261.82 580.773 239.051 587.682 230.998L594.565 232.247C591.085 237.895 588.492 255.598 606.832 280.596C649.458 314.297 625.939 400.17 623.884 397.369C622.239 395.128 608.394 374.147 601.677 363.937C608.37 349.413 616.254 313.861 594.247 287.84Z" fill="#D4BE96"/>
<path d="M550.184 248.566C544.799 233.832 552.723 230.791 552.723 230.791L557.968 230.258C554.487 235.906 569.109 255.127 570.464 272.142C571.817 289.141 566.823 318.238 564.768 315.436C563.123 313.195 547.123 293.795 540.406 283.585C547.099 269.062 559.069 272.877 550.184 248.566Z" fill="#D4BE96"/>
<path d="M639.728 309.17C617.721 283.149 608.764 246.029 615.674 237.976L621.638 240.231C618.157 245.879 633.973 276.927 652.313 301.925C694.939 335.626 664.818 440.912 661.826 439.146C660.073 438.112 654.023 438.904 634.26 411.966C640.953 397.442 661.735 335.19 639.728 309.17Z" fill="#D4BE96"/>
<path d="M170.152 358.476C199.834 353.435 198.054 411.683 209.523 479.209C220.991 546.735 241.098 596.386 211.416 601.427C181.734 606.469 113.503 564.991 102.035 497.465C90.5659 429.94 140.47 363.518 170.152 358.476Z" fill="#D8C79A"/>
<path d="M178.547 529.745C186.558 562.869 168.725 579.399 158.939 583.501L153.346 579.3C158.989 575.811 169.24 561.147 164.049 530.58C141.048 481.35 200.558 415.124 201.14 418.55C201.605 421.29 204.58 446.251 206.009 458.389C193.516 468.372 170.535 496.621 178.547 529.745Z" fill="#D4BE96"/>
<path d="M200.334 584.603C198.545 600.187 190.098 599.355 190.098 599.355L185.171 597.48C190.813 593.992 186.357 570.256 192.771 554.438C199.179 538.635 216.684 514.863 217.266 518.288C217.731 521.029 223.341 545.542 224.77 557.68C212.278 567.664 203.286 558.888 200.334 584.603Z" fill="#D4BE96"/>
<path d="M147.448 490.295C155.46 523.419 146.83 560.616 137.044 564.718L132.723 560.03C138.366 556.541 138.142 521.697 132.95 491.13C109.949 441.9 184.061 361.279 185.945 364.198C187.049 365.909 192.811 367.912 198.406 400.85C185.913 410.834 139.436 457.171 147.448 490.295Z" fill="#D4BE96"/>
<path d="M831.202 609.894C816.406 605.853 829.729 579.322 838.923 545.662C848.116 512.001 849.483 484.745 864.279 488.786C879.075 492.827 901.698 526.635 892.504 560.296C883.311 593.956 845.998 613.935 831.202 609.894Z" fill="#D8C79A"/>
<path d="M864.081 528.961C867.489 511.937 879.276 508.127 884.678 508.332L886.36 511.473C883.004 511.874 875.121 516.449 870.959 531.686C871.021 559.369 829.311 577.195 829.778 575.488C830.151 574.122 834.134 561.951 836.078 556.036C843.993 554.104 860.674 545.985 864.081 528.961Z" fill="#D4BE96"/>
<path d="M865.787 498.938C869.959 492.121 873.683 494.319 873.683 494.319L875.557 496.242C872.201 496.643 869.166 508.566 862.808 514.498C856.455 520.424 843.265 527.651 843.732 525.943C844.105 524.577 846.774 512.048 848.719 506.133C856.633 504.201 858.904 510.185 865.787 498.938Z" fill="#D4BE96"/>
<path d="M869.982 553.862C873.39 536.838 885.36 521.503 890.762 521.708L891.752 524.802C888.396 525.203 881.022 541.35 876.86 556.587C876.922 584.27 825.376 605.614 825.132 603.86C824.99 602.833 822.757 600.671 827.241 584.252C835.156 582.32 866.575 570.886 869.982 553.862Z" fill="#D4BE96"/>
<path d="M21.3342 609.327C44.4181 589.999 72.2691 641.188 116.24 693.704C160.21 746.219 202.62 778.943 179.536 798.271C156.452 817.599 76.616 816.211 32.6455 763.696C-11.3251 711.181 -1.74969 628.655 21.3342 609.327Z" fill="#D8C79A"/>
<path d="M114.991 752.964C138.62 777.521 131.563 800.79 125.184 809.269L118.235 808.464C121.347 802.605 122.8 784.772 102.896 761C58.1988 730.1 76.1671 642.895 78.3977 645.559C80.1822 647.691 95.3434 667.741 102.701 677.5C96.9524 692.423 91.3623 728.407 114.991 752.964Z" fill="#D4BE96"/>
<path d="M161.481 789.336C167.799 803.694 160.085 807.237 160.085 807.237L154.886 808.104C157.998 802.245 142.174 784.001 139.732 767.108C137.292 750.23 140.412 720.873 142.642 723.537C144.427 725.669 161.637 744.003 168.995 753.762C163.246 768.685 151.056 765.644 161.481 789.336Z" fill="#D4BE96"/>
<path d="M68.2372 734.593C91.8663 759.15 103.182 795.62 96.8028 804.099L90.707 802.231C93.8189 796.372 76.0454 766.401 56.1415 742.629C11.4446 711.728 34.7572 604.729 37.8569 606.299C39.6728 607.219 45.6588 606.041 67.107 631.657C61.3584 646.58 44.6081 710.036 68.2372 734.593Z" fill="#D4BE96"/>
<defs>
<radialGradient id="paint0_radial_308_763" cx="0" cy="0" r="1" gradientUnits="userSpaceOnUse" gradientTransform="translate(438.663 464.526) scale(426.57 426.57)">
<stop stop-color="white" stop-opacity="0"/>
<stop offset="1" stop-color="#669959"/>
</radialGradient>
<radialGradient id="paint1_radial_308_763" cx="0" cy="0" r="1" gradientUnits="userSpaceOnUse" gradientTransform="translate(438.663 464.526) scale(426.57 426.57)">
<stop stop-color="white" stop-opacity="0"/>
<stop offset="1" stop-color="#669959" stop-opacity="0.36"/>
</radialGradient>
<radialGradient id="paint2_radial_308_763" cx="0" cy="0" r="1" gradientUnits="userSpaceOnUse" gradientTransform="translate(438.662 464.526) scale(426.57 426.57)">
<stop stop-color="white" stop-opacity="0"/>
<stop offset="1" stop-color="#669959" stop-opacity="0.36"/>
</radialGradient>
</defs>
</svg>
