<svg width="1252" height="1179" viewBox="0 0 1252 1179" fill="none" xmlns="http://www.w3.org/2000/svg">
<path d="M639.543 1100.94C914.255 1100.94 1136.95 878.241 1136.95 603.529C1136.95 328.817 914.255 106.118 639.543 106.118C364.83 106.118 142.132 328.817 142.132 603.529C142.132 878.241 364.83 1100.94 639.543 1100.94Z" fill="#0071BC"/>
<mask id="mask0_308_645" style="mask-type:luminance" maskUnits="userSpaceOnUse" x="142" y="105" width="996" height="996">
<path d="M640.18 1100.3C914.893 1100.3 1137.59 877.605 1137.59 602.892C1137.59 328.18 914.893 105.481 640.18 105.481C365.468 105.481 142.77 328.18 142.77 602.892C142.77 877.605 365.468 1100.3 640.18 1100.3Z" fill="white"/>
</mask>
<g mask="url(#mask0_308_645)">
<path d="M1123.13 700.83C1052.03 696.969 980.654 698.084 909.713 704.184C881.035 706.651 852.177 709.975 824.851 719.03C753.264 742.734 699.946 802.768 657.625 865.181C627.871 909.065 598.327 958.302 549.019 977.786C520.042 989.24 487.701 988.723 457.818 997.559C427.418 1006.54 400.043 1025.44 380.847 1050.67C376.24 1056.72 372.001 1063.35 370.598 1070.82C367.473 1087.39 378.768 1103.13 390.888 1114.85C450.703 1172.7 540.103 1186.87 623.314 1187.21C721.212 1187.6 819.149 1172.8 912.54 1143.46C949.189 1131.95 985.431 1118.09 1017.83 1097.45C1112.5 1037.16 1162.87 927.663 1198.23 821.148C1206.92 794.986 1214.51 764.417 1199.34 741.41C1187.95 724.155 1166.72 716.354 1146.42 712.403C1126.12 708.453 1104.91 707.129 1086.28 698.183" fill="#009245"/>
<path d="M1123.13 696.352C1081.01 694.083 1038.81 693.526 996.646 694.73C955.817 695.904 914.62 697.954 874.129 703.547C837.758 708.572 803.358 719.538 772.211 739.221C744.099 756.983 719.53 779.93 697.797 804.987C675.736 830.422 657.068 858.215 638.211 886.028C620.488 912.179 601.511 938.938 575.728 957.795C562.185 967.696 547.199 974.711 530.949 978.861C512.45 983.588 493.374 985.279 474.666 988.921C440.753 995.529 409.576 1011.71 386.142 1037.37C374.837 1049.75 363.314 1064.57 366.091 1082.34C368.737 1099.25 381.584 1112.8 393.864 1123.72C418.184 1145.35 447.261 1160.76 478 1171.13C544.413 1193.55 617.194 1194.17 686.433 1189.84C766.479 1184.84 846.028 1169.88 922.292 1145.05C958.096 1133.4 993.462 1119.11 1024.94 1098.17C1051.84 1080.28 1075.67 1058.05 1096.17 1033.12C1138.08 982.185 1166.6 921.722 1189.33 860.195C1195.04 844.721 1200.65 829.128 1205.43 813.336C1210.3 797.195 1214.08 779.99 1211.82 763.083C1209.63 746.704 1201.05 732.793 1187.51 723.359C1173.96 713.925 1157.72 709.796 1141.8 707.029C1123.86 703.915 1105.24 702.143 1088.55 694.322C1083.37 691.884 1078.81 699.606 1084.04 702.054C1115.08 716.612 1152.93 711 1181.97 730.404C1212.88 751.053 1203.76 790.27 1193.92 819.973C1173.8 880.744 1149.42 940.997 1113.74 994.464C1096.24 1020.69 1075.87 1045.06 1052.21 1065.96C1026.43 1088.76 996.845 1106.32 965.211 1119.74C930.014 1134.66 892.937 1145.54 855.879 1154.74C817.707 1164.23 778.938 1171.38 739.89 1176.04C700.842 1180.7 662.262 1182.91 623.314 1182.75C590.784 1182.61 558.145 1180.47 526.153 1174.37C494.787 1168.4 463.899 1158.66 436.036 1142.86C422.324 1135.09 409.427 1125.91 397.814 1115.24C386.202 1104.57 372.738 1090.26 374.698 1073.45C375.753 1064.41 381.694 1056.53 387.286 1049.7C392.311 1043.57 397.824 1037.85 403.755 1032.6C416.144 1021.61 430.543 1012.61 445.918 1006.45C479.771 992.852 517.605 995.38 551.378 981.647C610.746 957.516 640.589 895.253 676.323 846.363C714.336 794.349 762.36 744.873 824.792 723.777C862.208 711.129 902.539 708.801 941.667 706.273C982.386 703.636 1023.22 702.631 1064.02 703.258C1083.74 703.566 1103.45 704.263 1123.14 705.318C1128.9 705.626 1128.88 696.67 1123.14 696.362L1123.13 696.352Z" fill="#0071BC"/>
</g>
<path d="M334.563 322.552C347.191 324.502 355.938 336.632 359.52 348.912C363.093 361.182 362.974 374.247 365.929 386.676C369.064 399.851 375.571 411.981 383.055 423.266C435.218 501.968 534.071 543.404 576.791 627.59C595.3 664.07 601.409 707.496 589.637 746.674C577.865 785.851 547.206 819.784 508.079 831.735C465.339 844.8 414.928 832.59 377.83 857.528C360.884 868.922 345.39 888.187 325.189 885.201C308.512 882.734 298.382 865.956 291.008 850.801C266.986 801.384 247.024 750.107 227.093 698.899C216.574 671.872 205.877 643.671 208.216 614.763C212.136 566.292 250.816 528.846 272.021 485.082C297.078 433.366 298.113 371.152 330.334 323.567" fill="#009245"/>
<path d="M333.369 326.871C343.877 328.692 350.893 337.777 354.306 347.37C358.754 359.888 358.446 373.481 361.262 386.358C366.367 409.782 381.343 430.491 396.459 448.581C423.953 481.47 458.244 507.641 490.675 535.344C522.767 562.749 554.222 592.513 573.358 630.744C595.051 674.091 598.603 728.055 574.383 771.133C563.934 789.712 548.918 805.813 530.608 816.808C510.666 828.789 488.257 832.461 465.369 834.113C442.263 835.785 418.301 835.855 396.19 843.587C385.234 847.418 375.681 853.189 366.606 860.354C358.306 866.902 350.216 874.564 340.355 878.714C331.369 882.495 321.717 881.54 313.915 875.589C305.735 869.35 300.441 859.747 295.924 850.721C283.296 825.486 272.161 799.444 261.414 773.362C250.547 747.002 240.178 720.423 229.889 693.834C220.157 668.698 210.474 642.218 212.693 614.803C214.505 592.354 224.655 571.715 236.128 552.729C248.179 532.787 262.07 513.95 272.917 493.281C295.496 450.223 299.715 400.876 318.065 356.256C322.433 345.628 327.797 335.409 334.205 325.876C337.429 321.079 329.677 316.591 326.473 321.358C298.501 362.963 293.754 414.221 277.385 460.533C269.325 483.33 257.115 503.64 243.969 523.811C230.824 543.982 217.808 563.476 209.957 585.895C205.996 597.19 203.658 609.091 203.439 621.082C203.18 635.023 205.718 648.955 209.499 662.329C213.281 675.703 218.475 689.047 223.58 702.183C228.864 715.746 234.148 729.319 239.511 742.853C250.249 769.929 261.314 796.896 273.285 823.456C278.858 835.815 284.331 848.373 290.829 860.274C295.963 869.688 302.402 879.002 311.606 884.833C320.841 890.685 332.275 891.461 342.395 887.5C352.515 883.54 361.59 875.828 370.307 868.812C379.204 861.648 388.538 855.647 399.414 851.945C410.47 848.194 422.063 846.393 433.646 845.298C457.717 843.029 482.336 843.487 505.84 837.079C527.444 831.188 546.968 818.858 562.292 802.608C577.617 786.358 589.309 765.64 595.16 743.678C601.877 718.423 601.539 691.605 595.638 666.23C585.04 620.694 556.162 583.388 522.747 551.913C490.774 521.801 454.99 495.988 423.824 465.011C408.161 449.437 393.503 432.511 382.179 413.474C375.283 401.871 370.536 389.731 368.556 376.337C366.645 363.391 366.088 350.086 360.058 338.195C355.192 328.592 346.704 320.134 335.767 318.243C333.389 317.835 330.941 318.88 330.255 321.368C329.657 323.527 330.991 326.463 333.379 326.881L333.369 326.871Z" fill="#0071BC"/>
<mask id="mask1_308_645" style="mask-type:luminance" maskUnits="userSpaceOnUse" x="142" y="106" width="995" height="995">
<path d="M639.544 1100.94C914.256 1100.94 1136.95 878.242 1136.95 603.53C1136.95 328.818 914.256 106.119 639.544 106.119C364.831 106.119 142.133 328.818 142.133 603.53C142.133 878.242 364.831 1100.94 639.544 1100.94Z" fill="white"/>
</mask>
<g mask="url(#mask1_308_645)">
<path d="M596.764 110.208C578.583 165.864 599.699 232.038 646.757 266.876C665.505 280.758 687.348 289.734 707.558 301.386C791.336 349.709 840.911 439.447 908.339 508.785C948.213 549.793 994.993 584.075 1046.11 609.738C1054.25 613.828 1063.4 617.799 1072.19 615.43C1077.18 614.087 1081.42 610.833 1085.17 607.28C1110.7 583.09 1117.14 545.286 1119.72 510.198C1121.69 483.37 1122.23 456.214 1117.39 429.744C1111.71 398.648 1098.71 369.272 1082.83 341.937C1061.77 305.695 1035.6 272.688 1008.1 241.064C987.699 217.619 966.304 194.662 940.82 176.86C913.534 157.803 882.357 145.196 851.41 132.946C830.951 124.856 810.402 116.835 789.136 111.223C727.122 94.8733 661.545 99.6398 598.067 108.805" fill="#39B54A"/>
<path d="M592.446 109.013C578.544 151.992 587.092 201.05 612.775 237.938C619.283 247.282 626.826 255.92 635.394 263.433C645.236 272.05 656.321 279.036 667.775 285.305C679.925 291.962 692.463 297.903 704.494 304.789C715.032 310.82 725.132 317.566 734.815 324.89C773.564 354.206 804.74 392.229 835.081 429.814C866.815 469.11 898.389 508.496 936.681 541.723C957.299 559.615 979.331 575.924 1002.49 590.383C1013.84 597.468 1025.47 604.115 1037.35 610.295C1049.24 616.475 1063.8 624.575 1077.68 618.156C1083.33 615.539 1088.1 611.021 1092.27 606.474C1096.45 601.926 1099.85 597.359 1102.95 592.343C1109.29 582.074 1113.72 570.61 1116.82 558.978C1123.55 533.802 1125.2 506.914 1125.6 480.962C1126.05 451.696 1122.46 422.808 1112.74 395.105C1103.44 368.555 1089.93 343.628 1074.64 320.084C1059.1 296.152 1041.53 273.563 1023.14 251.76C1004.76 229.958 986.834 209.359 965.907 190.99C944.98 172.62 920.699 157.972 895.006 146.3C882.219 140.488 869.203 135.224 856.147 130.05C842.266 124.547 828.374 119.034 814.234 114.208C786.222 104.655 757.314 98.9727 727.799 96.9427C698.284 94.9126 668.839 96.2162 639.544 99.1816C625.284 100.625 611.074 102.465 596.884 104.505C594.486 104.854 593.172 107.889 593.759 110.018C594.466 112.596 596.864 113.491 599.272 113.143C655.953 104.983 714.515 100.187 771.096 111.64C799.655 117.422 826.772 127.98 853.779 138.687C879.323 148.817 904.877 159.375 928.272 173.953C951.309 188.303 971.091 206.931 989.411 226.833C1008.05 247.083 1025.93 268.209 1042.58 290.141C1075.41 333.379 1105.76 382.377 1114.09 436.929C1118.34 464.782 1117.09 493.61 1114.28 521.552C1111.97 544.39 1107.44 568.043 1095.22 587.836C1092.22 592.682 1088.79 597.2 1084.85 601.319C1080.91 605.439 1076.06 610.106 1070.09 611.36C1064.12 612.614 1057.35 610.166 1051.79 607.568C1045.69 604.713 1039.73 601.508 1033.81 598.294C1010.56 585.656 988.277 571.218 967.23 555.167C946.184 539.116 926.789 521.632 908.649 502.695C892.06 485.37 876.636 466.971 861.501 448.372C831.31 411.265 802.133 372.914 766.917 340.324C749.542 324.243 730.685 309.625 710.176 297.754C687.488 284.619 662.322 274.956 642.3 257.622C609.522 229.241 592.038 184.959 595.112 141.861C595.849 131.502 597.889 121.303 601.083 111.421C602.864 105.928 594.217 103.57 592.446 109.043V109.013Z" fill="#0071BC"/>
</g>
<g opacity="0.58">
<path d="M639.543 1100.94C914.255 1100.94 1136.95 878.241 1136.95 603.529C1136.95 328.817 914.255 106.118 639.543 106.118C364.83 106.118 142.132 328.817 142.132 603.529C142.132 878.241 364.83 1100.94 639.543 1100.94Z" fill="url(#paint0_radial_308_645)"/>
</g>
<g opacity="0.53">
<path d="M640.18 1100.3C914.893 1100.3 1137.59 877.605 1137.59 602.892C1137.59 328.18 914.893 105.481 640.18 105.481C365.468 105.481 142.77 328.18 142.77 602.892C142.77 877.605 365.468 1100.3 640.18 1100.3Z" fill="url(#paint1_linear_308_645)"/>
</g>
<g opacity="0.37">
<mask id="mask2_308_645" style="mask-type:luminance" maskUnits="userSpaceOnUse" x="142" y="105" width="996" height="996">
<path d="M640.18 1100.3C914.893 1100.3 1137.59 877.605 1137.59 602.892C1137.59 328.18 914.893 105.481 640.18 105.481C365.468 105.481 142.77 328.18 142.77 602.892C142.77 877.605 365.468 1100.3 640.18 1100.3Z" fill="white"/>
</mask>
<g mask="url(#mask2_308_645)">
<g opacity="0.55">
<mask id="mask3_308_645" style="mask-type:luminance" maskUnits="userSpaceOnUse" x="-139" y="83" width="1414" height="1128">
<path d="M567.949 1210.55C958.144 1210.55 1274.46 958.35 1274.46 647.244C1274.46 336.138 958.144 83.9375 567.949 83.9375C177.753 83.9375 -138.562 336.138 -138.562 647.244C-138.562 958.35 177.753 1210.55 567.949 1210.55Z" fill="white"/>
</mask>
<g mask="url(#mask3_308_645)">
<path d="M-801.668 592.245C-762.541 473.331 -481.773 352.725 78.1697 116.368C78.1697 116.368 356.151 -26.9658 701.6 16.0822C708.009 16.8783 714.925 17.9829 719.194 21.8737C726.458 28.4812 722.089 38.7506 716.885 46.4826C659.378 131.882 544.026 180.204 435.281 223.561C249.417 297.656 63.5617 371.751 -122.303 445.846C-155.122 458.932 -188.796 472.525 -213.156 494.407C-237.516 516.289 -250.671 548.72 -235.765 575.458C-220.659 602.574 -181.81 616.277 -144.932 620.208C-10.3445 634.557 106.968 554.133 213.464 486.964C478.18 319.976 789.089 206.893 1099.59 101.332C1113.4 96.6356 1129.07 91.9188 1142.95 96.4565C1161.48 102.517 1166.62 121.443 1166.3 137.405C1164.72 216.794 1092.53 285.944 1007.29 327.001C922.065 368.059 823.659 387.295 729.513 413.167C611.096 445.717 498.013 489.302 385.248 532.788C287.37 570.532 189.352 608.336 95.992 652.747C-8.10545 702.274 -117.119 777.075 -109.934 873.55C-108.969 886.497 -105.595 899.771 -96.1221 910.309C-64.5177 945.476 4.30342 928.709 52.1677 908.329C243.595 826.86 432.654 740.376 604.09 634.308C705.322 571.677 800.195 502.358 906.053 444.801C1011.92 387.245 1131.46 341.172 1259.13 332.484C1262.5 417.426 1167.31 481.998 1078.05 528.43C759.724 694.014 392.86 812.133 139.329 1037.91C88.1606 1083.48 40.6744 1136.21 32.7135 1197.05C31.4299 1206.86 31.3901 1217.38 37.7488 1225.86C53.9191 1247.41 94.7979 1240.66 123.536 1230.36C317.322 1160.9 485.882 1054.58 656.831 953.974C897.376 812.421 1146.44 680.352 1395.38 548.361C1401.65 545.038 1408.61 541.565 1416.11 542.182C1434.57 543.694 1435.77 565.089 1429.32 578.961C1407.88 625.054 1363.64 661.654 1320.55 696.82C1261.96 744.635 1203.34 792.44 1144.72 840.234C1005.77 953.536 866.08 1067.36 706.635 1161.96C547.19 1256.56 365.764 1331.91 169.838 1358.57C78.5379 1370.99 -14.4841 1372.7 -107.098 1372.66C-187.552 1372.62 -269.727 1371.04 -345.365 1349.19C-479.584 1310.41 -556.018 1231.41 -620.998 1164.07C-719.483 1062 -761.028 963.627 -777.457 918.161C-791.886 878.237 -846.249 727.788 -801.648 592.245H-801.668Z" fill="url(#paint2_linear_308_645)"/>
</g>
</g>
</g>
</g>
<path d="M513.642 51.9637L502.018 67.9981L543.506 62.5865L526.47 47.9551L522.862 33.3238L523.664 31.9208L522.662 25.7075C516.889 21.6989 510.903 25.1062 508.632 27.3109L509.834 33.9251L511.237 35.5285L513.642 51.9637Z" fill="#447164"/>
<path d="M434.812 158.177C432.794 153.608 434.069 148.419 437.216 144.54L464.284 111.172C467.61 107.072 472.79 104.742 477.89 106.104C481.084 106.957 484.5 108.265 486.739 110.234C488.628 111.894 490.21 114.49 491.435 117.027C493.679 121.678 492.428 127.087 489.175 131.098L462.016 164.577C458.847 168.483 453.987 170.802 449.072 169.731C445.846 169.029 442.341 167.866 440.039 165.953C437.838 164.125 436.091 161.073 434.812 158.177Z" fill="#AB6767"/>
<ellipse cx="479.183" cy="118.471" rx="12.3347" ry="7.80679" transform="rotate(39.24 479.183 118.471)" fill="#5A3636"/>
<path d="M466.942 170.966C392.222 178.502 418.972 171.167 441.688 166.557C456.72 163.157 483.177 130.279 482.575 120.057C481.974 109.835 483.778 96.6069 493.198 96.6069C502.618 96.6069 519.454 80.9734 528.474 73.758C537.493 66.5425 544.107 57.5232 559.139 59.1266C574.172 60.7301 554.129 42.8919 559.139 34.073C564.15 25.2541 588.803 22.2477 596.018 17.2369C601.791 13.2283 600.695 8.08398 599.426 6.01288L626.884 0C628.755 3.67454 636.305 11.1439 651.537 11.6249C670.578 12.2262 682.203 9.42018 682.804 22.2477C683.405 35.0751 685.009 31.267 700.041 30.6657C715.073 30.0644 711.866 48.5039 715.875 65.9413C719.884 83.3786 767.786 80.9735 752.754 92.7988C737.722 104.624 737.521 111.238 740.327 111.238C743.133 111.238 754.357 100.014 767.786 115.046C778.529 127.072 777.474 135.423 775.603 138.096C776.939 141.77 787.869 152.607 820.9 166.557C862.188 183.994 875.216 201.231 854.372 195.018C833.527 188.804 772.196 184.395 748.745 190.007C725.295 195.619 728.702 179.986 672.181 195.018C626.965 207.043 560.476 190.007 532.883 179.986C542.036 173.839 541.662 163.43 466.942 170.966Z" fill="#868281"/>
<path d="M581.788 80.5723C578.741 80.5723 583.057 86.4515 585.596 89.3912C569.561 95.1635 579.717 100.348 586.798 102.219C596.219 104.423 596.018 102.219 596.018 102.219C605.799 101.417 598.624 94.8027 593.813 91.5959C598.223 78.7684 585.596 80.5723 581.788 80.5723Z" fill="#EACB88"/>
<path d="M502.018 67.7973L543.506 62.3857L547.715 91.448C547.715 91.448 535.333 95.7056 527.071 96.4587C518.795 97.2132 505.826 95.2561 505.826 95.2561L502.018 67.7973Z" fill="#447164"/>
<path d="M747.743 77.1649C747.743 101.518 722.342 124.466 697.435 124.466C672.529 124.466 652.339 104.724 652.339 80.3718C652.339 56.0191 672.529 36.2773 697.435 36.2773C722.342 36.2773 747.743 52.8122 747.743 77.1649Z" fill="#665A5A"/>
<path d="M739.726 77.5733C739.726 98.8266 717.527 118.854 695.76 118.854C673.993 118.854 656.348 101.625 656.348 80.3721C656.348 59.1188 673.993 41.8896 695.76 41.8896C717.527 41.8896 739.726 56.3201 739.726 77.5733Z" fill="#868281"/>
<path d="M693.628 79.7697L718.081 44.0933M695.232 88.3882L740.929 65.7397M695.232 94.0002L736.72 98.6101M693.628 97.6079L708.66 119.655M689.62 76.7633L690.822 40.2852M683.807 79.7697L669.176 50.507M687.214 97.6079V118.252" stroke="#665A5A" stroke-width="6"/>
<path d="M666.169 69.3487C658.954 73.8383 656.482 55.5859 656.148 45.8984L632.698 61.9328L629.892 98.8118L685.611 131.482C687.682 128.141 692.987 119.977 697.637 114.044C703.449 106.629 696.835 79.9714 691.824 86.9864C686.814 94.0015 675.99 91.7967 682.404 86.9864C688.818 82.1761 675.189 63.7366 666.169 69.3487Z" fill="#868281"/>
<path d="M816.998 134.462C809.937 145.975 794.713 149.48 782.993 142.292C771.273 135.104 767.495 119.945 774.556 108.433C781.616 96.9208 798.958 90.6223 810.678 97.8102C822.398 104.998 824.058 122.95 816.998 134.462Z" fill="#C6D7D8"/>
<rect x="777.33" y="104.824" width="49.7242" height="40.0859" transform="rotate(38.9072 777.33 104.824)" fill="#C6D7D8"/>
<path d="M806.793 97.0686C806.793 97.0686 810.102 88.5358 814.642 88.4935C816.925 88.4722 818.444 89.0198 820.099 90.5937C821.676 92.0944 822.285 93.4756 822.456 95.6462C822.811 100.172 814.607 104.221 814.607 104.221L806.793 97.0686Z" fill="#EA6F4E"/>
<path d="M779.172 152.732C774.76 158.771 792.991 160.621 802.658 160.791L786.879 180.436L750.114 183.174L717.009 137.28C720.323 135.524 728.418 131.03 734.294 127.104C741.638 122.197 768.292 127.392 761.34 131.63C754.388 135.867 756.688 144.828 761.427 139.45C766.167 134.072 784.688 145.182 779.172 152.732Z" fill="#868281"/>
<path d="M703.85 155.132C701.765 154.651 700.844 147.984 700.643 144.71L695.232 147.316L698.839 156.535C696.982 162.468 697.13 171.434 697.436 175.175C665.568 190.809 670.178 193.815 669.376 198.024C668.574 202.233 655.547 206.242 662.962 205.44C668.895 204.799 681.201 198.091 686.613 194.817C704.572 198.184 709.996 187.134 710.464 181.188C732.912 212.776 756.028 201.298 764.78 191.61C754.759 195.819 733.193 199.026 727.1 178.182C719.483 152.126 706.456 155.734 703.85 155.132Z" fill="#E1C791"/>
<path d="M601.029 156.261C593.493 154.818 586.398 166.082 583.792 171.895C571.125 164.519 550.454 164.011 541.702 164.679C557.416 176.865 561.344 200.489 561.344 210.778C572.729 207.09 600.829 208.44 613.456 209.575C618.467 198.752 626.283 198.752 630.893 197.349C635.503 195.946 655.947 203.362 653.742 202.36C651.978 201.558 644.456 174.367 640.915 160.871C630.76 159.936 608.565 157.704 601.029 156.261Z" fill="#A58882"/>
<path d="M643.748 39.9573C642.304 30.978 635.129 34.6125 631.722 37.5521C628.715 44.1662 630.319 43.1642 630.319 45.5693C630.319 47.9745 640.34 48.9766 643.748 48.9766C647.155 48.9766 645.551 51.1813 643.748 39.9573Z" fill="#A5A29E"/>
<path d="M1152.07 869.625L1146.51 850.615L1125.38 886.725L1147.38 882.22L1161.15 888.33L1161.77 889.823L1167.3 892.837C1174 890.729 1174.97 883.91 1174.62 880.764L1168.66 877.664L1166.53 877.791L1152.07 869.625Z" fill="#447164"/>
<path d="M1116.39 742.256C1121.24 743.459 1124.56 747.646 1125.7 752.509L1135.5 794.344C1136.7 799.483 1135.37 805.006 1131.17 808.203C1128.54 810.205 1125.41 812.104 1122.48 812.668C1120.01 813.144 1116.99 812.805 1114.24 812.219C1109.19 811.144 1105.68 806.842 1104.5 801.814L1094.67 759.84C1093.52 754.943 1094.67 749.681 1098.52 746.452C1101.05 744.332 1104.12 742.273 1107.04 741.625C1109.84 741.006 1113.32 741.494 1116.39 742.256Z" fill="#AB6767"/>
<ellipse cx="1120.6" cy="801.65" rx="12.3347" ry="7.80679" transform="rotate(167.01 1120.6 801.65)" fill="#5A3636"/>
<path d="M1086.6 759.821C1126.41 696.141 1115.83 721.779 1105.56 742.559C1099.04 756.524 1108.82 797.575 1117.27 803.36C1125.72 809.146 1135.07 818.674 1129.3 826.12C1123.53 833.567 1125.58 856.451 1125.75 868C1125.93 879.549 1129.01 890.301 1118.54 901.202C1108.06 912.102 1134.44 907.185 1138.34 916.547C1142.24 925.909 1129.52 947.238 1129.06 956.011C1128.69 963.029 1133.43 965.314 1135.85 965.579L1123.78 990.967C1119.73 990.195 1109.2 991.588 1099.49 1003.33C1087.35 1018.02 1082.45 1028.93 1071.94 1021.54C1061.44 1014.16 1063.46 1017.76 1054.73 1030.01C1046 1042.26 1033.39 1028.43 1017.15 1020.92C1000.91 1013.41 973.472 1052.75 973.332 1033.62C973.191 1014.5 968.086 1010.29 966.367 1012.51C964.649 1014.73 966.646 1030.47 946.539 1031.88C930.452 1033.01 924.498 1027.06 923.531 1023.94C919.808 1022.75 904.547 1024.75 873.289 1042.32C834.216 1064.27 812.611 1064.01 830.29 1051.34C847.969 1038.67 889.02 992.89 898.947 970.916C908.874 948.942 919.145 961.211 941.881 907.325C960.071 864.217 1014.26 822.094 1039.08 806.421C1038.34 817.421 1046.79 823.501 1086.6 759.821Z" fill="#868281"/>
<path d="M1087.71 905.969C1089.58 903.561 1082.29 903.371 1078.41 903.577C1083.67 887.367 1073.35 892.219 1067.53 896.671C1060.02 902.767 1061.88 903.959 1061.88 903.959C1056.53 912.182 1066.15 910.561 1071.63 908.723C1079.07 920.065 1085.38 908.979 1087.71 905.969Z" fill="#EACB88"/>
<path d="M1146.67 850.738L1125.54 886.848L1099.99 872.374C1099.99 872.374 1104.21 859.979 1108.67 852.987C1113.14 845.983 1122.63 836.929 1122.63 836.929L1146.67 850.738Z" fill="#447164"/>
<path d="M988.758 1039.24C969.508 1024.32 966.926 990.188 982.181 970.501C997.436 950.813 1025.41 946.945 1044.66 961.861C1063.91 976.777 1067.15 1004.83 1051.89 1024.52C1036.64 1044.2 1008.01 1054.16 988.758 1039.24Z" fill="#665A5A"/>
<path d="M993.347 1032.65C976.547 1019.63 974.313 989.819 987.645 972.613C1000.98 955.407 1025.4 952.012 1042.2 965.03C1059 978.047 1061.82 1002.55 1048.48 1019.75C1035.15 1036.96 1010.15 1045.67 993.347 1032.65Z" fill="#868281"/>
<path d="M1019.84 994.866L1033.07 1036.05M1012.05 990.855L1001.96 1040.85M1007.61 987.418L978.558 1017.39M1005.74 983.94L979.109 982.319M1024.68 993.539L1052.77 1016.83M1025.86 987.103L1057.95 993.461M1009.67 978.871L993.354 966.226" stroke="#665A5A" stroke-width="6"/>
<path d="M1044.9 979.545C1045.77 971.091 1061.71 980.317 1069.58 985.986L1071.26 957.628L1043.83 932.822L983.879 956.856C985.251 960.539 988.455 969.733 990.297 977.043C992.599 986.179 1017.72 997.279 1015.25 989.021C1012.77 980.764 1021.14 973.558 1021.02 981.575C1020.89 989.591 1043.81 990.112 1044.9 979.545Z" fill="#868281"/>
<path d="M901.048 1058.89C896.273 1046.26 902.827 1032.08 915.687 1027.21C928.548 1022.35 942.844 1028.65 947.62 1041.28C952.395 1053.92 946.752 1071.48 933.892 1076.34C921.032 1081.2 905.824 1071.52 901.048 1058.89Z" fill="#C6D7D8"/>
<rect x="948.773" y="1045.68" width="49.7242" height="40.0859" transform="rotate(166.678 948.773 1045.68)" fill="#C6D7D8"/>
<path d="M936.858 1073.72C936.858 1073.72 941.576 1081.57 938.829 1085.18C937.447 1087 936.084 1087.86 933.826 1088.21C931.674 1088.54 930.209 1088.17 928.389 1086.98C924.593 1084.49 926.418 1075.52 926.418 1075.52L936.858 1073.72Z" fill="#EA6F4E"/>
<path d="M909.775 1017.8C907.704 1010.61 895.075 1023.89 889.019 1031.43L883.156 1006.92L903.51 976.183L960.064 978.124C959.423 981.819 958.017 990.971 957.521 998.02C956.902 1006.83 936.469 1024.72 937.378 1016.63C938.287 1008.54 929.795 1004.87 931.143 1011.91C932.491 1018.95 912.365 1026.78 909.775 1017.8Z" fill="#868281"/>
<path d="M954.014 956.787C955.671 955.434 961.506 958.789 964.216 960.636L965.471 954.762L955.974 951.967C952.421 946.865 945.244 941.49 942.099 939.441C949.26 904.674 944.06 906.477 941.224 903.265C938.388 900.053 943.199 887.3 939.29 893.653C936.164 898.736 933.928 912.572 933.201 918.855C919.54 930.988 924.952 942.044 929.366 946.056C890.647 944.453 885.562 969.756 887.859 982.608C890.67 972.108 901.344 953.097 921.553 961.048C946.815 970.986 951.942 958.478 954.014 956.787Z" fill="#E1C791"/>
<path d="M1016.1 874.82C1021.85 869.747 1017.3 857.239 1014.3 851.619C1027.89 846.124 1040.95 830.095 1045.78 822.767C1026.52 827.725 1005.44 816.36 997.311 810.059C993.254 821.316 974.976 842.702 966.344 851.988C971.83 862.578 967.042 868.757 965.328 873.26C963.613 877.763 945.23 889.381 947.372 888.252C949.086 887.349 975.188 898.058 988.025 903.525C994.984 896.07 1010.34 879.893 1016.1 874.82Z" fill="#A58882"/>
<path d="M1081.87 979.823C1089.85 984.182 1091.37 976.284 1091.13 971.79C1087.75 965.362 1087.56 967.244 1085.66 965.77C1083.75 964.297 1076.82 971.605 1074.74 974.299C1072.65 976.992 1071.89 974.374 1081.87 979.823Z" fill="#A5A29E"/>
<path d="M133.116 365.163L149.169 359.865L134.013 392.202L126.531 374.555L115.567 367.829L114.219 368.117L109.426 365.691C107.662 359.958 111.985 355.973 114.366 354.697L119.433 357.39L120.374 358.946L133.116 365.163Z" fill="#447164"/>
<path d="M240.781 329.373C237.161 325.933 231.782 325.612 227.131 327.432L195.21 339.922C190.295 341.845 186.436 346.08 186.375 351.358C186.347 353.824 186.603 356.394 187.477 358.39C188.195 360.03 189.498 361.666 190.924 363.124C194.536 366.815 200.126 367.221 204.935 365.339L236.989 352.797C241.673 350.964 245.417 347.035 245.715 342.014C245.863 339.528 245.722 336.899 244.894 334.855C244.107 332.912 242.501 331.007 240.781 329.373Z" fill="#AB6767"/>
<ellipse cx="10.5281" cy="6.66338" rx="10.5281" ry="6.66338" transform="matrix(0.367483 0.93003 0.93003 -0.367483 186.068 347.037)" fill="#5A3636"/>
<path d="M241.998 358.031C267.495 299.221 254.595 319.073 244.958 336.351C238.297 347.694 204.702 360.687 196.545 357.548C188.388 354.41 177.163 352.448 174.721 360.109C172.279 367.769 155.202 377.408 146.996 382.873C138.79 388.337 129.741 391.378 127.149 404.018C124.556 416.658 115.245 395.735 106.774 397.524C98.3038 399.313 89.4686 418.582 83.5234 423.151C78.7673 426.806 74.8678 424.581 73.5125 423.012L61.5051 443.784C64.0084 446.257 68.1257 454.333 64.5684 466.845C60.1218 482.486 54.8265 491.212 65.1023 495.026C75.378 498.84 71.8655 499.157 67.48 511.225C63.0945 523.294 78.9212 525.466 92.0626 533.246C105.204 541.026 90.8311 579.358 104.344 570.198C117.857 561.039 123.288 562.591 122.561 564.873C121.833 567.155 109.796 573.373 118.54 588.19C125.535 600.044 132.6 601.35 135.258 600.521C137.9 602.56 143.879 614.258 146.662 644.735C150.14 682.832 160.78 697.895 161.131 679.333C161.481 660.771 173.793 609.752 184.435 592.136C195.078 574.521 181.481 573.239 208.357 531.171C229.857 497.517 233.237 439.031 232.24 413.994C224.869 419.844 216.501 416.842 241.998 358.031Z" fill="#868281"/>
<path d="M138.719 427.997C139.508 425.519 143.171 430.553 144.903 433.379C153.754 421.836 155.337 431.438 155.023 437.682C154.374 445.915 152.633 445.18 152.633 445.18C149.446 452.926 145.927 445.377 144.566 440.634C132.991 440.895 137.731 431.093 138.719 427.997Z" fill="#EACB88"/>
<path d="M149.007 359.813L133.852 392.15L156.395 403.106C156.395 403.106 163.067 394.14 165.821 387.617C168.58 381.082 170.35 370.027 170.35 370.027L149.007 359.813Z" fill="#447164"/>
<path d="M92.929 562.072C112.733 568.385 137.98 553.676 144.436 533.422C150.892 513.168 140.071 491.631 120.267 485.319C100.463 479.006 79.1746 490.308 72.7186 510.562C66.2626 530.817 73.1248 555.76 92.929 562.072Z" fill="#665A5A"/>
<path d="M95.3406 555.658C112.624 561.167 134.666 548.305 140.308 530.604C145.95 512.902 136.513 494.087 119.229 488.578C101.946 483.069 83.3607 492.952 77.7184 510.653C72.0762 528.355 78.057 550.149 95.3406 555.658Z" fill="#868281"/>
<path d="M109.077 518.738L73.7258 529.376M115.67 522.276L85.4064 553.568M120.234 523.731L113.228 558.666M123.584 523.362L137.616 541.302M107.671 514.699L77.6947 506.222M111.623 510.752L91.6184 491.268M125.246 518.146L142.034 523.498" stroke="#665A5A" stroke-width="6"/>
<path d="M107.717 493.707C113.239 489.003 99.0363 482.262 91.2448 479.479L110.363 464.565L141.081 471.843L153.206 525.624C149.953 526.442 141.938 528.64 135.908 530.883C128.371 533.688 108.407 521.399 115.411 519.143C122.414 516.886 123.427 507.513 117.853 511.482C112.278 515.451 100.816 499.587 107.717 493.707Z" fill="#868281"/>
<path d="M121.572 633.244C132.764 630.487 139.561 619.015 136.754 607.62C133.946 596.226 122.598 589.225 111.406 591.982C100.213 594.74 90.5962 607.21 93.4035 618.604C96.2109 629.998 110.38 636.002 121.572 633.244Z" fill="#C6D7D8"/>
<rect width="42.4414" height="34.2147" transform="matrix(0.362075 0.932149 0.932149 -0.362075 107.754 593.3)" fill="#C6D7D8"/>
<path d="M93.8093 615.251C93.8093 615.251 86.0125 615.731 84.8013 619.412C84.1921 621.263 84.2436 622.64 85.0947 624.394C85.9062 626.066 86.8715 626.919 88.5925 627.621C92.1809 629.083 97.6005 623.46 97.6005 623.46L93.8093 615.251Z" fill="#EA6F4E"/>
<path d="M146.235 607.217C152.29 605.194 149.069 620.5 146.702 628.406L166.767 620.665L178.524 591.477L149.783 552.66C147.496 554.899 141.743 560.317 137.027 564.078C131.133 568.779 128.449 591.801 133.697 587.246C138.945 582.691 145.636 586.883 140.034 589.344C134.432 591.804 138.666 609.745 146.235 607.217Z" fill="#868281"/>
<path d="M167.712 546.586C167.861 544.766 162.677 542.288 160.067 541.276L163.589 537.551L170.151 542.875C175.457 542.902 182.71 545.347 185.673 546.565C206.648 524.702 207.898 529.23 211.528 529.669C215.159 530.108 221.796 520.552 219.222 526.375C217.162 531.034 208.517 539.303 204.452 542.855C202.536 558.332 192.143 559.879 187.186 558.719C207.055 585.162 191.729 600.985 181.582 605.591C187.603 598.533 195.801 581.826 180.429 571.468C161.214 558.52 167.525 548.861 167.712 546.586Z" fill="#E1C791"/>
<path d="M195.281 463.263C196.061 456.761 207.06 453.911 212.463 453.298C209.748 441.085 214.693 424.143 217.505 417.199C223.342 433.137 241.535 442.455 249.902 445.122C243.952 453.424 237.766 476.626 235.416 487.189C225.316 488.458 223.29 494.815 220.954 498.2C218.618 501.585 219.349 520.133 219.106 518.08C218.911 516.438 198.748 503.272 188.691 496.894C190.563 488.393 194.501 469.766 195.281 463.263Z" fill="#A58882"/>
<path d="M89.6282 467.855C82.7002 464.353 87.5158 459.46 90.7895 457.451C96.9476 456.721 95.7171 457.765 97.673 458.389C99.6289 459.012 97.8462 467.422 96.963 470.192C96.0798 472.963 98.2883 472.231 89.6282 467.855Z" fill="#A5A29E"/>
<path d="M250.739 990.733L251.638 978.011L269.87 997.849L255.41 998.019L247.575 1003.75L247.391 1004.77L244.325 1007.42C239.818 1007.01 238.275 1002.85 238.066 1000.82L241.396 998.058L242.752 997.847L250.739 990.733Z" fill="#447164"/>
<path d="M258.399 904.623C253.659 906.197 251.373 911.259 251.292 916.252L250.935 938.093C250.849 943.371 253.25 948.776 258.298 950.319C259.417 950.662 260.542 950.874 261.578 950.85C262.335 950.832 263.144 950.686 263.96 950.459C268.935 949.074 271.376 943.797 271.46 938.634L271.819 916.65C271.901 911.621 269.744 906.466 265.019 904.743C263.859 904.32 262.68 904.038 261.591 904.033C260.58 904.029 259.484 904.263 258.399 904.623Z" fill="#AB6767"/>
<ellipse cx="7.94295" cy="5.02718" rx="7.94295" ry="5.02718" transform="matrix(0.999916 0.0129915 0.0129915 -0.999916 253.251 948.582)" fill="#5A3636"/>
<path d="M276.939 912.692C243.19 878.055 253.353 892.744 262.654 904.417C268.664 912.315 268.113 939.485 263.587 944.279C259.061 949.074 254.477 956.348 259.125 960.246C263.773 964.144 265.611 978.824 267.076 986.116C268.54 993.408 268.071 1000.6 276.152 1006.02C284.232 1011.45 266.962 1011.96 265.785 1018.39C264.608 1024.81 275.528 1036.5 277.015 1041.95C278.204 1046.32 275.535 1048.4 274.052 1048.9L285.112 1063.23C287.555 1062.19 294.371 1061.63 302.086 1067.7C311.73 1075.28 316.304 1081.47 321.909 1075.39C327.513 1069.31 326.729 1071.85 333.897 1078.37C341.065 1084.89 347.113 1074.46 356.306 1067.52C365.499 1060.57 388.14 1081.58 385.616 1069.53C383.092 1057.47 385.73 1054.12 387.115 1055.29C388.499 1056.45 389.393 1066.63 402.239 1064.77C412.515 1063.28 415.45 1058.72 415.633 1056.63C417.813 1055.37 427.69 1054.55 449.76 1061.33C477.347 1069.81 490.908 1066.7 478.052 1061.14C465.196 1055.58 433.11 1032.38 423.862 1019.9C414.613 1007.43 409.826 1016.55 388.158 985.75C370.824 961.106 330.968 942 313.207 935.527C315.18 942.347 310.688 947.328 276.939 912.692Z" fill="#868281"/>
<path d="M296.203 1004.81C294.7 1003.55 299.262 1002.44 301.731 1002.04C296.208 992.556 303.364 994.2 307.632 996.208C313.192 999.018 312.181 1000.02 312.181 1000.02C316.675 1004.47 310.398 1004.76 306.698 1004.35C303.566 1012.51 298.082 1006.39 296.203 1004.81Z" fill="#EACB88"/>
<path d="M251.555 978.11L269.786 997.947L283.889 985.35C283.889 985.35 279.541 978.125 275.776 974.335C272.005 970.538 264.796 966.137 264.796 966.137L251.555 978.11Z" fill="#447164"/>
<path d="M376.676 1075.17C386.752 1063.15 383.715 1041.32 371.426 1031.01C359.137 1020.71 341.006 1022.09 330.929 1034.11C320.853 1046.12 322.646 1064.22 334.935 1074.52C347.223 1084.83 366.599 1087.18 376.676 1075.17Z" fill="#665A5A"/>
<path d="M372.888 1071.65C381.683 1061.16 379.017 1042.09 368.277 1033.09C357.537 1024.08 341.701 1025.28 332.907 1035.76C324.113 1046.25 325.69 1062.05 336.43 1071.06C347.169 1080.07 364.094 1082.13 372.888 1071.65Z" fill="#868281"/>
<path d="M351.052 1051.49L348.354 1079.21M355.409 1047.9L368.585 1077.98M357.731 1045.13L380.11 1060.02M358.433 1042.69L374.973 1038.03M347.83 1051.31L333.329 1069.81M346.206 1047.42L326.878 1055.81M355.268 1040.03L363.811 1029.85" stroke="#665A5A" stroke-width="6"/>
<path d="M333.191 1045.27C331.489 1040.07 322.716 1048.05 318.543 1052.69L313.607 1035.08L327.483 1015.72L368.494 1022.66C368.133 1025.16 367.372 1031.39 367.212 1036.24C367.011 1042.3 352.717 1052.72 353.148 1047.18C353.578 1041.65 347.326 1038.26 348.5 1043.28C349.674 1048.31 335.319 1051.77 333.191 1045.27Z" fill="#868281"/>
<path d="M434.554 1075.55C435.834 1066.95 429.773 1058.92 421.016 1057.62C412.259 1056.32 404.122 1062.23 402.842 1070.83C401.563 1079.44 407.513 1089.72 416.27 1091.02C425.027 1092.33 433.274 1084.15 434.554 1075.55Z" fill="#C6D7D8"/>
<rect width="32.0199" height="25.8133" transform="matrix(0.999823 0.018799 0.018799 -0.999823 402.718 1073.76)" fill="#C6D7D8"/>
<path d="M414.047 1089.78C414.047 1089.78 412.149 1095.36 414.371 1097.26C415.489 1098.21 416.466 1098.57 417.933 1098.48C419.332 1098.39 420.205 1097.96 421.187 1096.96C423.235 1094.88 420.862 1089.48 420.862 1089.48L414.047 1089.78Z" fill="#EA6F4E"/>
<path d="M423.45 1050.89C423.772 1046.08 433.533 1052.71 438.373 1056.63L438.716 1040.41L421.709 1023.84L386.385 1032.79C387.293 1035.03 389.428 1040.59 390.702 1044.96C392.296 1050.42 407.597 1058.89 405.92 1053.92C404.243 1048.95 409.085 1045.48 409.199 1050.1C409.312 1054.71 423.047 1056.89 423.45 1050.89Z" fill="#868281"/>
<path d="M387.279 1018.53C386.051 1017.91 382.837 1020.82 381.384 1022.35L379.792 1018.82L385.387 1015.77C386.926 1012.07 390.709 1007.71 392.408 1005.99C383.153 985.09 386.671 985.514 388.017 983.106C389.363 980.697 384.594 973.329 387.921 976.793C390.583 979.564 393.88 987.966 395.195 991.82C405.449 997.59 403.553 1005.29 401.324 1008.41C425.47 1002.12 432.127 1017.35 432.437 1025.75C429.233 1019.52 419.92 1009.02 408.288 1016.78C393.748 1026.49 388.813 1019.32 387.279 1018.53Z" fill="#E1C791"/>
<path d="M337.014 975.432C332.699 973.026 333.859 964.532 334.978 960.586C325.676 958.984 315.267 950.681 311.225 946.73C324.021 947.219 335.734 937.189 339.992 932.112C344.083 938.642 358.506 949.604 365.206 954.269C363.2 961.682 367.057 964.917 368.751 967.517C370.445 970.116 383.601 974.917 382.098 974.499C380.896 974.165 365.933 984.468 358.601 989.662C353.204 985.921 341.33 977.839 337.014 975.432Z" fill="#A58882"/>
<path d="M309.967 1050.49C305.539 1054.33 303.503 1049.56 303.038 1046.7C304.291 1042.2 304.668 1043.35 305.663 1042.17C306.658 1040.98 312.018 1044.63 313.699 1046.04C315.38 1047.45 315.501 1045.7 309.967 1050.49Z" fill="#A5A29E"/>
<path d="M1129.63 348.595L1125.86 360.442L1113.13 337.477L1126.87 340.623L1135.6 336.99L1136.01 336.062L1139.52 334.251C1143.7 335.671 1144.21 339.964 1143.94 341.933L1140.15 343.792L1138.82 343.681L1129.63 348.595Z" fill="#447164"/>
<path d="M1102.47 428.445C1107.46 428.093 1110.87 423.677 1112.12 418.842L1117.35 398.631C1118.67 393.521 1117.62 387.671 1113.04 385.05C1112.11 384.52 1111.16 384.105 1110.23 383.904C1109.57 383.761 1108.85 383.71 1108.1 383.724C1102.93 383.823 1099.32 388.42 1098.02 393.42L1092.76 413.769C1091.5 418.638 1092.37 424.184 1096.6 426.913C1097.55 427.527 1098.54 428.018 1099.51 428.258C1100.41 428.479 1101.43 428.518 1102.47 428.445Z" fill="#AB6767"/>
<ellipse cx="7.74178" cy="4.89986" rx="7.74178" ry="4.89986" transform="matrix(-0.968948 -0.247264 -0.247264 0.968948 1117.61 387.957)" fill="#5A3636"/>
<path d="M1086.95 416.543C1111.01 457.079 1104.74 440.838 1098.6 427.65C1094.71 418.793 1101.44 393.177 1106.83 389.669C1112.21 386.161 1118.22 380.319 1114.71 375.562C1111.2 370.806 1112.81 356.477 1113.09 349.233C1113.37 341.989 1115.46 335.286 1109.05 328.295C1102.63 321.303 1119.11 324.771 1121.7 318.953C1124.28 313.135 1116.61 299.567 1116.45 294.056C1116.32 289.647 1119.32 288.282 1120.84 288.151L1113.64 272.045C1111.09 272.471 1104.5 271.444 1098.58 263.932C1091.18 254.543 1088.26 247.627 1081.56 252.107C1074.86 256.586 1076.18 254.356 1070.88 246.542C1065.58 238.728 1057.47 247.223 1047.17 251.7C1036.87 256.178 1020.22 231.095 1019.86 243.094C1019.49 255.093 1016.23 257.66 1015.18 256.243C1014.13 254.826 1015.62 244.974 1003.02 243.799C992.943 242.859 989.12 246.505 988.468 248.446C986.114 249.142 976.568 247.663 957.209 236.187C933.011 221.843 919.451 221.692 930.36 229.899C941.269 238.107 966.362 267.429 972.272 281.361C978.182 295.294 984.805 287.744 998.288 321.886C1009.08 349.2 1042.47 376.418 1057.81 386.613C1057.51 379.7 1062.9 376.008 1086.95 416.543Z" fill="#868281"/>
<path d="M1089.77 324.855C1090.91 326.393 1086.33 326.406 1083.9 326.221C1086.97 336.468 1080.56 333.274 1076.98 330.396C1072.35 326.462 1073.54 325.741 1073.54 325.741C1070.3 320.504 1076.31 321.66 1079.72 322.893C1084.56 315.884 1088.35 322.932 1089.77 324.855Z" fill="#EACB88"/>
<path d="M1125.97 360.368L1113.23 337.403L1096.99 346.114C1096.99 346.114 1099.45 353.953 1102.15 358.405C1104.86 362.865 1110.68 368.683 1110.68 368.683L1125.97 360.368Z" fill="#447164"/>
<path d="M1029.62 239.795C1017.32 248.875 1015.21 270.256 1024.49 282.831C1033.78 295.406 1051.27 298.24 1063.57 289.16C1075.87 280.08 1078.31 262.526 1069.02 249.951C1059.73 237.376 1041.91 230.715 1029.62 239.795Z" fill="#665A5A"/>
<path d="M1032.4 243.996C1021.67 251.92 1019.84 270.596 1027.95 281.586C1036.07 292.576 1051.34 295.061 1062.08 287.137C1072.81 279.213 1074.93 263.88 1066.81 252.89C1058.69 241.9 1043.13 236.072 1032.4 243.996Z" fill="#868281"/>
<path d="M1048.48 268.09L1057.37 242.442M1043.53 270.493L1037.93 238.976M1040.7 272.586L1022.9 253.357M1039.47 274.74L1022.74 275.371M1051.49 268.993L1069.46 254.785M1052.14 273.048L1072.37 269.525M1041.86 277.979L1031.44 285.676" stroke="#665A5A" stroke-width="6"/>
<path d="M1063.98 278.066C1064.4 283.382 1074.54 277.825 1079.56 274.382L1080.2 292.2L1062.63 307.367L1025.36 291.416C1026.28 289.124 1028.42 283.402 1029.68 278.842C1031.26 273.143 1047.18 266.543 1045.51 271.689C1043.84 276.834 1048.99 281.477 1049.02 276.445C1049.06 271.413 1063.45 271.419 1063.98 278.066Z" fill="#868281"/>
<path d="M974.867 226.191C971.687 234.048 975.594 243.042 983.593 246.279C991.592 249.516 1000.65 245.772 1003.83 237.915C1007.01 230.058 1003.73 218.954 995.729 215.716C987.73 212.479 978.047 218.334 974.867 226.191Z" fill="#C6D7D8"/>
<rect width="31.2089" height="25.1595" transform="matrix(-0.967496 -0.252887 -0.252887 0.967496 1004.62 235.171)" fill="#C6D7D8"/>
<path d="M997.552 217.403C997.552 217.403 1000.63 212.551 998.955 210.243C998.115 209.082 997.272 208.519 995.86 208.271C994.514 208.034 993.59 208.241 992.43 208.964C990.013 210.472 991.027 216.124 991.027 216.124L997.552 217.403Z" fill="#EA6F4E"/>
<path d="M979.749 252.101C978.345 256.581 970.613 248.066 966.923 243.248L962.888 258.54L975.213 278.123L1010.73 277.726C1010.38 275.399 1009.63 269.636 1009.42 265.205C1009.16 259.667 996.599 248.147 997.052 253.237C997.505 258.327 992.123 260.507 993.071 256.109C994.019 251.711 981.505 246.502 979.749 252.101Z" fill="#868281"/>
<path d="M1006.62 291.026C1007.64 291.9 1011.35 289.879 1013.08 288.76L1013.78 292.463L1007.78 294.079C1005.48 297.229 1000.89 300.497 998.892 301.738C1002.88 323.657 999.644 322.45 997.817 324.424C995.991 326.398 998.825 334.471 996.464 330.427C994.576 327.193 993.375 318.479 993.01 314.526C984.614 306.714 988.171 299.855 990.998 297.402C966.68 297.845 963.857 281.894 965.485 273.864C967.096 280.493 973.518 292.577 986.314 287.882C1002.31 282.012 1005.34 289.935 1006.62 291.026Z" fill="#E1C791"/>
<path d="M1044.38 343.36C1047.92 346.627 1044.88 354.409 1042.92 357.891C1051.37 361.537 1059.33 371.784 1062.25 376.452C1050.24 373.062 1036.85 379.887 1031.66 383.723C1029.27 376.6 1018.11 362.915 1012.83 356.964C1016.43 350.398 1013.52 346.452 1012.5 343.601C1011.49 340.75 1000.13 333.193 1001.46 333.933C1002.52 334.525 1019.05 328.185 1027.19 324.941C1031.44 329.719 1040.85 340.093 1044.38 343.36Z" fill="#A58882"/>
<path d="M1087.18 278.428C1092.25 275.809 1093.09 280.787 1092.88 283.603C1090.66 287.587 1090.57 286.404 1089.35 287.301C1088.14 288.197 1083.9 283.511 1082.63 281.791C1081.36 280.071 1080.84 281.702 1087.18 278.428Z" fill="#A5A29E"/>
<path d="M955.098 186.362L955.934 194.396L942.383 184.024L951.385 182.33L955.643 177.898L955.646 177.239L957.267 175.248C960.123 175.009 961.543 177.434 961.896 178.676L960.122 180.767L959.3 181.047L955.098 186.362Z" fill="#447164"/>
<path d="M957.847 241.639C962.248 240.884 963.308 235.255 962.605 230.846L961.086 221.309C960.353 216.701 957.29 211.518 952.715 212.433V212.433V212.433C948.564 213.264 947.467 218.472 948.132 222.653L949.731 232.692C950.453 237.223 953.325 242.414 957.847 241.639V241.639V241.639Z" fill="#AB6767"/>
<ellipse cx="5.03097" cy="3.18416" rx="5.03097" ry="3.18416" transform="matrix(-0.987024 0.16057 0.16057 0.987024 958.159 212.933)" fill="#5A3636"/>
<path d="M947.325 237.921C972.182 255.821 964.229 247.775 957.145 241.514C952.529 237.248 949.888 220.239 952.185 216.751C954.482 213.263 956.543 208.222 953.215 206.301C949.888 204.38 947.129 195.424 945.415 191.036C943.701 186.648 943.204 182.114 937.567 179.614C931.93 177.115 942.648 174.902 942.676 170.765C942.705 166.628 934.61 160.538 933.083 157.297C931.862 154.704 933.298 153.11 934.168 152.637L925.695 144.914C924.285 145.83 920.095 146.929 914.617 143.992C907.768 140.322 904.234 136.96 901.406 141.368C898.578 145.777 898.788 144.104 893.601 140.826C888.414 137.548 885.786 144.716 880.814 150.058C875.842 155.399 859.412 144.781 862.31 152.023C865.208 159.266 863.93 161.643 862.939 161.071C861.948 160.499 860.272 154.245 852.463 156.816C846.216 158.873 844.886 162.038 845.002 163.364C843.78 164.389 837.71 165.988 823.197 164.179C805.057 161.918 796.94 165.35 805.57 167.406C814.2 169.463 836.763 180.413 843.902 187.177C851.041 193.942 853.025 187.725 869.924 204.561C883.444 218.03 910.404 225.572 922.194 227.659C920.214 223.622 922.469 220.021 947.325 237.921Z" fill="#868281"/>
<path d="M925.194 182.57C926.27 183.192 923.546 184.388 922.05 184.909C926.536 190.218 921.892 189.978 919.009 189.195C915.232 188.052 915.752 187.314 915.752 187.314C912.461 185.036 916.344 184.163 918.698 184.012C919.756 178.581 923.848 181.794 925.194 182.57Z" fill="#EACB88"/>
<path d="M955.975 194.326L942.424 183.953L935.011 193.36C935.011 193.36 938.516 197.389 941.281 199.34C944.05 201.294 949.031 203.248 949.031 203.248L955.975 194.326Z" fill="#447164"/>
<path d="M867.267 147.523C862.301 156.125 866.593 169.412 875.391 174.491C884.188 179.57 895.346 176.714 900.312 168.112C905.279 159.51 902.173 148.42 893.375 143.34C884.578 138.261 872.233 138.921 867.267 147.523Z" fill="#665A5A"/>
<path d="M870.016 149.303C865.682 156.81 869.439 168.412 877.128 172.851C884.816 177.29 894.563 174.802 898.897 167.295C903.231 159.788 900.512 150.104 892.824 145.665C885.135 141.226 874.351 141.796 870.016 149.303Z" fill="#868281"/>
<path d="M885.852 159.48L884.49 141.891M883.528 162.197L872.005 144.878M882.383 164.179L866.788 157.347M882.214 165.781L872.408 170.503M887.881 159.235L894.895 146.105M889.321 161.483L900.456 154.13M884.479 167.089L880.269 174.381" stroke="#665A5A" stroke-width="6"/>
<path d="M897.676 161.397C899.309 164.454 903.904 158.511 905.998 155.157L911.011 165.603L904.482 179.202L878.137 179.379C878.087 177.777 877.878 173.811 877.446 170.767C876.905 166.962 884.678 158.895 885.017 162.395C885.356 165.895 889.629 167.323 888.344 164.316C887.06 161.309 895.635 157.575 897.676 161.397Z" fill="#868281"/>
<path d="M831.12 153.638C831.266 159.144 835.929 163.487 841.534 163.338C847.14 163.19 851.566 158.605 851.42 153.099C851.273 147.593 846.432 141.831 840.827 141.98C835.221 142.129 830.973 148.132 831.12 153.638Z" fill="#C6D7D8"/>
<rect width="20.281" height="16.3498" transform="matrix(-0.98794 0.154835 0.154835 0.98794 851.177 151.26)" fill="#C6D7D8"/>
<path d="M842.352 142.512C842.352 142.512 842.923 138.823 841.328 137.882C840.526 137.409 839.878 137.293 838.972 137.511C838.109 137.719 837.612 138.083 837.109 138.815C836.061 140.341 838.133 143.445 838.133 143.445L842.352 142.512Z" fill="#EA6F4E"/>
<path d="M840.757 167.806C841.084 170.839 834.267 167.774 830.818 165.863L832.385 176.02L844.813 184.485L865.866 175.025C865.054 173.729 863.111 170.491 861.836 167.906C860.242 164.675 849.768 161.074 851.359 163.989C852.951 166.903 850.311 169.599 849.734 166.733C849.156 163.867 840.349 164.014 840.757 167.806Z" fill="#868281"/>
<path d="M866.874 184.014C867.708 184.269 869.394 182.102 870.132 180.987L871.512 183.011L868.358 185.531C867.804 188.006 865.923 191.143 865.052 192.402C873.12 204.423 870.879 204.545 870.304 206.195C869.729 207.845 873.513 211.918 871.057 210.122C869.092 208.686 866.113 203.807 864.869 201.547C857.839 199.074 858.176 194.064 859.224 191.869C844.853 198.448 839.028 189.68 837.912 184.473C840.594 188.004 847.558 193.535 853.961 187.414C861.965 179.764 865.831 183.695 866.874 184.014Z" fill="#E1C791"/>
<path d="M902.96 205.382C905.916 206.409 906.125 211.835 905.86 214.42C911.839 214.398 919.244 218.434 922.199 220.455C914.163 221.555 907.958 229.098 905.86 232.732C902.59 229.108 892.39 223.854 887.698 221.68C888.135 216.835 885.374 215.241 884.032 213.805C882.69 212.37 873.956 210.82 874.939 210.916C875.726 210.992 883.928 202.921 887.931 198.877C891.709 200.617 900.003 204.355 902.96 205.382Z" fill="#A58882"/>
<path d="M911.59 155.588C913.931 152.711 915.724 155.458 916.328 157.191C916.042 160.141 915.68 159.46 915.189 160.309C914.699 161.159 910.954 159.469 909.751 158.774C908.547 158.079 908.664 159.185 911.59 155.588Z" fill="#A5A29E"/>
<path d="M423.99 1081.41L422.495 1074.63L435.068 1082.17L427.551 1084.49L424.347 1088.69L424.409 1089.25L423.219 1091.1C420.804 1091.59 419.357 1089.65 418.935 1088.63L420.246 1086.67L420.921 1086.35L423.99 1081.41Z" fill="#447164"/>
<path d="M416.271 1034.5C412.588 1035.57 412.231 1040.48 413.259 1044.18L415.482 1052.17C416.556 1056.03 419.673 1060.15 423.489 1058.93V1058.93V1058.93C426.951 1057.82 427.381 1053.26 426.406 1049.76L424.066 1041.35C423.01 1037.55 420.055 1033.4 416.271 1034.5V1034.5V1034.5Z" fill="#AB6767"/>
<ellipse cx="4.32126" cy="2.73498" rx="4.32126" ry="2.73498" transform="matrix(0.962522 -0.271205 -0.271205 -0.962522 418.795 1059.03)" fill="#5A3636"/>
<path d="M425.613 1036.65C402.661 1023.79 410.231 1029.89 416.884 1034.54C421.238 1037.73 425.144 1051.99 423.523 1055.19C421.902 1058.39 420.633 1062.89 423.659 1064.21C426.686 1065.53 429.91 1072.9 431.8 1076.48C433.689 1080.06 434.554 1083.88 439.607 1085.46C444.661 1087.05 435.729 1089.98 436.107 1093.51C436.485 1097.05 443.985 1101.46 445.603 1104.07C446.897 1106.17 445.826 1107.67 445.129 1108.16L453.111 1113.92C454.225 1113.01 457.694 1111.66 462.655 1113.63C468.856 1116.1 472.199 1118.63 474.184 1114.59C476.17 1110.55 476.153 1112 480.898 1114.29C485.643 1116.59 487.189 1110.22 490.914 1105.17C494.638 1100.13 509.691 1107.6 506.514 1101.7C503.337 1095.8 504.197 1093.65 505.098 1094.04C506 1094.43 508.037 1099.6 514.452 1096.65C519.583 1094.29 520.411 1091.46 520.183 1090.34C521.126 1089.34 526.152 1087.39 538.712 1087.52C554.413 1087.69 561.007 1083.97 553.442 1083.06C545.877 1082.14 525.558 1074.99 518.808 1069.91C512.058 1064.83 510.969 1070.33 494.91 1057.6C482.064 1047.42 458.323 1043.6 448.058 1042.97C450.14 1046.22 448.566 1049.51 425.613 1036.65Z" fill="#868281"/>
<path d="M449.879 1081.74C448.9 1081.31 451.108 1080.03 452.335 1079.44C447.99 1075.34 451.977 1075.1 454.513 1075.48C457.848 1076.09 457.475 1076.77 457.475 1076.77C460.505 1078.4 457.276 1079.52 455.283 1079.88C454.907 1084.61 451.102 1082.27 449.879 1081.74Z" fill="#EACB88"/>
<path d="M422.466 1074.7L435.039 1082.23L440.452 1073.48C440.452 1073.48 437.068 1070.39 434.519 1068.99C431.966 1067.59 427.526 1066.41 427.526 1066.41L422.466 1074.7Z" fill="#447164"/>
<path d="M502.721 1106.02C506.124 1098.2 501.169 1087.28 493.168 1083.8C485.166 1080.32 475.922 1083.84 472.519 1091.66C469.117 1099.48 472.845 1108.65 480.846 1112.13C488.848 1115.61 499.319 1113.84 502.721 1106.02Z" fill="#665A5A"/>
<path d="M500.202 1104.77C503.172 1097.94 498.838 1088.4 491.845 1085.36C484.852 1082.32 476.776 1085.39 473.806 1092.22C470.837 1099.05 474.099 1107.05 481.091 1110.09C488.084 1113.13 497.233 1111.6 500.202 1104.77Z" fill="#868281"/>
<path d="M485.699 1097.62L488.57 1112.5M487.418 1095.08L498.935 1108.74M488.202 1093.27L502.175 1097.59M488.191 1091.89L496.101 1086.91M483.991 1098.03L479.28 1109.91M482.543 1096.25L473.754 1103.61M486.13 1090.99L489.015 1084.36" stroke="#665A5A" stroke-width="6"/>
<path d="M475.421 1097.13C473.731 1094.68 470.386 1100.2 468.925 1103.27L463.632 1094.84L467.883 1082.6L490.348 1079.89C490.547 1081.25 491.111 1084.62 491.776 1087.17C492.607 1090.37 486.757 1098.01 486.128 1095.05C485.498 1092.1 481.713 1091.29 483.101 1093.74C484.49 1096.18 477.535 1100.2 475.421 1097.13Z" fill="#868281"/>
<path d="M532.974 1097.29C532.314 1092.6 527.913 1089.35 523.144 1090.02C518.374 1090.69 515.042 1095.04 515.702 1099.72C516.362 1104.41 521.053 1108.85 525.823 1108.18C530.592 1107.51 533.634 1101.97 532.974 1097.29Z" fill="#C6D7D8"/>
<rect width="17.42" height="14.0434" transform="matrix(0.964081 -0.26561 -0.26561 -0.964081 516.089 1101.27)" fill="#C6D7D8"/>
<path d="M524.472 1107.88C524.472 1107.88 524.343 1111.08 525.796 1111.73C526.526 1112.05 527.091 1112.09 527.842 1111.81C528.559 1111.55 528.948 1111.19 529.306 1110.52C530.052 1109.12 527.982 1106.67 527.982 1106.67L524.472 1107.88Z" fill="#EA6F4E"/>
<path d="M523.374 1086.13C522.801 1083.58 528.916 1085.53 532.046 1086.83L529.721 1078.31L518.292 1072.29L501.245 1082.41C502.064 1083.44 504.037 1086.02 505.376 1088.1C507.05 1090.7 516.339 1092.76 514.697 1090.42C513.056 1088.09 515.047 1085.53 515.818 1087.92C516.589 1090.31 524.092 1089.33 523.374 1086.13Z" fill="#868281"/>
<path d="M499.512 1074.84C498.775 1074.7 497.547 1076.72 497.026 1077.74L495.651 1076.15L498.098 1073.69C498.33 1071.52 499.631 1068.66 500.252 1067.5C492.198 1058.03 494.099 1057.71 494.429 1056.24C494.76 1054.78 491.135 1051.67 493.405 1052.96C495.221 1054 498.238 1057.87 499.519 1059.68C505.759 1061.11 505.958 1065.42 505.277 1067.39C516.902 1060.38 522.725 1067.3 524.184 1071.63C521.552 1068.88 515.072 1064.84 510.202 1070.68C504.114 1077.99 500.433 1075.01 499.512 1074.84Z" fill="#E1C791"/>
<path d="M466.636 1060.11C464.013 1059.52 463.308 1054.91 463.283 1052.68C458.183 1053.28 451.471 1050.55 448.752 1049.12C455.503 1047.4 460.066 1040.36 461.504 1037.05C464.646 1039.83 473.862 1043.32 478.077 1044.72C478.175 1048.9 480.686 1049.99 481.971 1051.08C483.256 1052.18 490.86 1052.65 490.012 1052.67C489.333 1052.68 483.117 1060.36 480.094 1064.2C476.701 1063.08 469.259 1060.7 466.636 1060.11Z" fill="#A58882"/>
<path d="M464.111 1103.44C462.393 1106.13 460.595 1103.96 459.911 1102.54C459.87 1099.99 460.245 1100.54 460.581 1099.77C460.917 1098.99 464.276 1100.07 465.371 1100.55C466.466 1101.02 466.259 1100.09 464.111 1103.44Z" fill="#A5A29E"/>
<defs>
<radialGradient id="paint0_radial_308_645" cx="0" cy="0" r="1" gradientUnits="userSpaceOnUse" gradientTransform="translate(639.543 603.529) scale(497.411)">
<stop stop-color="white" stop-opacity="0"/>
<stop offset="1" stop-color="#29ABE2"/>
</radialGradient>
<linearGradient id="paint1_linear_308_645" x1="1416.9" y1="-109.301" x2="364.08" y2="856.056" gradientUnits="userSpaceOnUse">
<stop stop-color="white" stop-opacity="0"/>
<stop offset="1" stop-color="#29ABE2"/>
</linearGradient>
<linearGradient id="paint2_linear_308_645" x1="1331.55" y1="-308.072" x2="-263.08" y2="1090.39" gradientUnits="userSpaceOnUse">
<stop stop-color="#00A99D" stop-opacity="0"/>
<stop offset="1" stop-color="#0000FF" stop-opacity="0.7"/>
</linearGradient>
</defs>
</svg>
