<svg width="1440" height="810" viewBox="0 0 1440 810" fill="none" xmlns="http://www.w3.org/2000/svg">
<path d="M1661 -116H-259V964H1661V-116Z" fill="#0A1E40"/>
<g filter="url(#filter0_d_109_1288)">
<g clip-path="url(#clip0_109_1288)">
<path d="M389 33.3549C387.45 33.6009 387.241 33.81 386.995 35.3598C386.749 33.81 386.54 33.6009 384.99 33.3549C386.54 33.1089 386.749 32.8998 386.995 31.35C387.241 32.8998 387.45 33.1089 389 33.3549Z" fill="#DDDDDD"/>
</g>
<g clip-path="url(#clip1_109_1288)">
<path d="M916.59 301.715C915.04 301.961 914.831 302.17 914.585 303.72C914.339 302.17 914.13 301.961 912.58 301.715C914.13 301.469 914.339 301.26 914.585 299.71C914.831 301.26 915.04 301.469 916.59 301.715Z" fill="#DDDDDD"/>
</g>
<g clip-path="url(#clip2_109_1288)">
<path d="M677.71 314.445C676.16 314.691 675.951 314.9 675.705 316.45C675.459 314.9 675.25 314.691 673.7 314.445C675.25 314.199 675.459 313.99 675.705 312.44C675.951 313.99 676.16 314.199 677.71 314.445Z" fill="#DDDDDD"/>
</g>
<g clip-path="url(#clip3_109_1288)">
<path d="M1339.76 427.385C1338.21 427.631 1338 427.84 1337.75 429.39C1337.51 427.84 1337.3 427.631 1335.75 427.385C1337.3 427.139 1337.51 426.93 1337.75 425.38C1338 426.93 1338.21 427.139 1339.76 427.385Z" fill="#DDDDDD"/>
</g>
<g clip-path="url(#clip4_109_1288)">
<path d="M1238.82 796.695C1237.27 796.941 1237.06 797.15 1236.81 798.7C1236.57 797.15 1236.36 796.941 1234.81 796.695C1236.36 796.449 1236.57 796.24 1236.81 794.69C1237.06 796.24 1237.27 796.449 1238.82 796.695Z" fill="#DDDDDD"/>
</g>
<g clip-path="url(#clip5_109_1288)">
<path d="M971.11 95.6449C969.56 95.8909 969.351 96.1 969.105 97.6498C968.859 96.1 968.65 95.8909 967.1 95.6449C968.65 95.3989 968.859 95.1898 969.105 93.64C969.351 95.1898 969.56 95.3989 971.11 95.6449Z" fill="#DDDDDD"/>
</g>
<g clip-path="url(#clip6_109_1288)">
<path d="M321.91 310.415C320.36 310.661 320.151 310.87 319.905 312.42C319.659 310.87 319.45 310.661 317.9 310.415C319.45 310.169 319.659 309.96 319.905 308.41C320.151 309.96 320.36 310.169 321.91 310.415Z" fill="#DDDDDD"/>
</g>
<g clip-path="url(#clip7_109_1288)">
<path d="M1017.23 221.775C1015.68 222.021 1015.47 222.23 1015.22 223.78C1014.98 222.23 1014.77 222.021 1013.22 221.775C1014.77 221.529 1014.98 221.32 1015.22 219.77C1015.47 221.32 1015.68 221.529 1017.23 221.775Z" fill="#DDDDDD"/>
</g>
<g clip-path="url(#clip8_109_1288)">
<path d="M932.94 607.535C931.39 607.781 931.181 607.99 930.935 609.54C930.689 607.99 930.48 607.781 928.93 607.535C930.48 607.289 930.689 607.08 930.935 605.53C931.181 607.08 931.39 607.289 932.94 607.535Z" fill="#DDDDDD"/>
</g>
<g clip-path="url(#clip9_109_1288)">
<path d="M510.04 221.085C508.49 221.331 508.281 221.54 508.035 223.09C507.789 221.54 507.58 221.331 506.03 221.085C507.58 220.839 507.789 220.63 508.035 219.08C508.281 220.63 508.49 220.839 510.04 221.085Z" fill="#DDDDDD"/>
</g>
<g clip-path="url(#clip10_109_1288)">
<path d="M1105.09 636.975C1103.54 637.221 1103.33 637.43 1103.08 638.98C1102.84 637.43 1102.63 637.221 1101.08 636.975C1102.63 636.729 1102.84 636.52 1103.08 634.97C1103.33 636.52 1103.54 636.729 1105.09 636.975Z" fill="#DDDDDD"/>
</g>
<g clip-path="url(#clip11_109_1288)">
<path d="M514.45 344.115C512.9 344.361 512.691 344.57 512.445 346.12C512.199 344.57 511.99 344.361 510.44 344.115C511.99 343.869 512.199 343.66 512.445 342.11C512.691 343.66 512.9 343.869 514.45 344.115Z" fill="#DDDDDD"/>
</g>
<g clip-path="url(#clip12_109_1288)">
<path d="M334.16 494.335C332.61 494.581 332.401 494.79 332.155 496.34C331.909 494.79 331.7 494.581 330.15 494.335C331.7 494.089 331.909 493.88 332.155 492.33C332.401 493.88 332.61 494.089 334.16 494.335Z" fill="#DDDDDD"/>
</g>
<g clip-path="url(#clip13_109_1288)">
<path d="M702.6 616.165C701.05 616.411 700.841 616.62 700.595 618.17C700.349 616.62 700.14 616.411 698.59 616.165C700.14 615.919 700.349 615.71 700.595 614.16C700.841 615.71 701.05 615.919 702.6 616.165Z" fill="#DDDDDD"/>
</g>
<g clip-path="url(#clip14_109_1288)">
<path d="M347.03 541.295C345.48 541.541 345.271 541.75 345.025 543.3C344.779 541.75 344.57 541.541 343.02 541.295C344.57 541.049 344.779 540.84 345.025 539.29C345.271 540.84 345.48 541.049 347.03 541.295Z" fill="#DDDDDD"/>
</g>
<g clip-path="url(#clip15_109_1288)">
<path d="M149.28 301.915C147.73 302.161 147.521 302.37 147.275 303.92C147.029 302.37 146.82 302.161 145.27 301.915C146.82 301.669 147.029 301.46 147.275 299.91C147.521 301.46 147.73 301.669 149.28 301.915Z" fill="#DDDDDD"/>
</g>
<g clip-path="url(#clip16_109_1288)">
<path d="M439.19 737.885C437.64 738.131 437.431 738.34 437.185 739.89C436.939 738.34 436.73 738.131 435.18 737.885C436.73 737.639 436.939 737.43 437.185 735.88C437.431 737.43 437.64 737.639 439.19 737.885Z" fill="#DDDDDD"/>
</g>
<g clip-path="url(#clip17_109_1288)">
<path d="M363.49 784.315C361.94 784.561 361.731 784.77 361.485 786.32C361.239 784.77 361.03 784.561 359.48 784.315C361.03 784.069 361.239 783.86 361.485 782.31C361.731 783.86 361.94 784.069 363.49 784.315Z" fill="#DDDDDD"/>
</g>
<g clip-path="url(#clip18_109_1288)">
<path d="M128.86 679.155C127.31 679.401 127.101 679.61 126.855 681.16C126.609 679.61 126.4 679.401 124.85 679.155C126.4 678.909 126.609 678.7 126.855 677.15C127.101 678.7 127.31 678.909 128.86 679.155Z" fill="#DDDDDD"/>
</g>
<g clip-path="url(#clip19_109_1288)">
<path d="M1352.2 187.585C1350.65 187.831 1350.44 188.04 1350.19 189.59C1349.95 188.04 1349.74 187.831 1348.19 187.585C1349.74 187.339 1349.95 187.13 1350.19 185.58C1350.44 187.13 1350.65 187.339 1352.2 187.585Z" fill="#DDDDDD"/>
</g>
<g clip-path="url(#clip20_109_1288)">
<path d="M1209.42 204.825C1207.87 205.071 1207.66 205.28 1207.42 206.83C1207.17 205.28 1206.96 205.071 1205.41 204.825C1206.96 204.579 1207.17 204.37 1207.42 202.82C1207.66 204.37 1207.87 204.579 1209.42 204.825Z" fill="#DDDDDD"/>
</g>
<g clip-path="url(#clip21_109_1288)">
<path d="M1435.72 94.0349C1434.17 94.2809 1433.96 94.49 1433.71 96.0398C1433.47 94.49 1433.26 94.2809 1431.71 94.0349C1433.26 93.7889 1433.47 93.5798 1433.71 92.03C1433.96 93.5798 1434.17 93.7889 1435.72 94.0349Z" fill="#DDDDDD"/>
</g>
<g clip-path="url(#clip22_109_1288)">
<path d="M1067.48 7.33492C1065.93 7.58092 1065.72 7.79002 1065.47 9.33982C1065.23 7.79002 1065.02 7.58092 1063.47 7.33492C1065.02 7.08892 1065.23 6.87982 1065.47 5.33002C1065.72 6.87982 1065.93 7.08892 1067.48 7.33492Z" fill="#DDDDDD"/>
</g>
<g clip-path="url(#clip23_109_1288)">
<path d="M1422.25 121.495C1420.7 121.741 1420.49 121.95 1420.25 123.5C1420 121.95 1419.79 121.741 1418.24 121.495C1419.79 121.249 1420 121.04 1420.25 119.49C1420.49 121.04 1420.7 121.249 1422.25 121.495Z" fill="#DDDDDD"/>
</g>
<g clip-path="url(#clip24_109_1288)">
<path d="M849.71 3.45491C848.16 3.70091 847.951 3.91001 847.705 5.45981C847.459 3.91001 847.25 3.70091 845.7 3.45491C847.25 3.20891 847.459 2.99981 847.705 1.45001C847.951 2.99981 848.16 3.20891 849.71 3.45491Z" fill="#DDDDDD"/>
</g>
<g clip-path="url(#clip25_109_1288)">
<path d="M632.1 20.4749C630.55 20.7209 630.341 20.93 630.095 22.4798C629.849 20.93 629.64 20.7209 628.09 20.4749C629.64 20.2289 629.849 20.0198 630.095 18.47C630.341 20.0198 630.55 20.2289 632.1 20.4749Z" fill="#DDDDDD"/>
</g>
<g clip-path="url(#clip26_109_1288)">
<path d="M237.63 12.7749C236.08 13.0209 235.871 13.23 235.625 14.7798C235.379 13.23 235.17 13.0209 233.62 12.7749C235.17 12.5289 235.379 12.3198 235.625 10.77C235.871 12.3198 236.08 12.5289 237.63 12.7749Z" fill="#DDDDDD"/>
</g>
<g clip-path="url(#clip27_109_1288)">
<path d="M73.9497 33.4849C72.3999 33.7309 72.1908 33.94 71.9448 35.4898C71.6988 33.94 71.4897 33.7309 69.9399 33.4849C71.4897 33.2389 71.6988 33.0298 71.9448 31.48C72.1908 33.0298 72.3999 33.2389 73.9497 33.4849Z" fill="#DDDDDD"/>
</g>
<g clip-path="url(#clip28_109_1288)">
<path d="M229.05 230.055C227.5 230.301 227.291 230.51 227.045 232.06C226.799 230.51 226.59 230.301 225.04 230.055C226.59 229.809 226.799 229.6 227.045 228.05C227.291 229.6 227.5 229.809 229.05 230.055Z" fill="#DDDDDD"/>
</g>
<g clip-path="url(#clip29_109_1288)">
<path d="M262.88 276.765C261.33 277.011 261.121 277.22 260.875 278.77C260.629 277.22 260.42 277.011 258.87 276.765C260.42 276.519 260.629 276.31 260.875 274.76C261.121 276.31 261.33 276.519 262.88 276.765Z" fill="#DDDDDD"/>
</g>
<g clip-path="url(#clip30_109_1288)">
<path d="M195.94 595.155C194.39 595.401 194.181 595.61 193.935 597.16C193.689 595.61 193.48 595.401 191.93 595.155C193.48 594.909 193.689 594.7 193.935 593.15C194.181 594.7 194.39 594.909 195.94 595.155Z" fill="#DDDDDD"/>
</g>
<g clip-path="url(#clip31_109_1288)">
<path d="M204.51 763.345C202.96 763.591 202.751 763.8 202.505 765.35C202.259 763.8 202.05 763.591 200.5 763.345C202.05 763.099 202.259 762.89 202.505 761.34C202.751 762.89 202.96 763.099 204.51 763.345Z" fill="#DDDDDD"/>
</g>
<g clip-path="url(#clip32_109_1288)">
<path d="M1200.97 402.055C1199.42 402.301 1199.21 402.51 1198.96 404.06C1198.72 402.51 1198.51 402.301 1196.96 402.055C1198.51 401.809 1198.72 401.6 1198.96 400.05C1199.21 401.6 1199.42 401.809 1200.97 402.055Z" fill="#DDDDDD"/>
</g>
<g clip-path="url(#clip33_109_1288)">
<path d="M518.94 247.815C517.39 248.061 517.181 248.27 516.935 249.82C516.689 248.27 516.48 248.061 514.93 247.815C516.48 247.569 516.689 247.36 516.935 245.81C517.181 247.36 517.39 247.569 518.94 247.815Z" fill="#DDDDDD"/>
</g>
<g clip-path="url(#clip34_109_1288)">
<path d="M1339.08 214.145C1337.53 214.391 1337.32 214.6 1337.08 216.15C1336.83 214.6 1336.62 214.391 1335.07 214.145C1336.62 213.899 1336.83 213.69 1337.08 212.14C1337.32 213.69 1337.53 213.899 1339.08 214.145Z" fill="#DDDDDD"/>
</g>
<g clip-path="url(#clip35_109_1288)">
<path d="M753.3 276.405C751.75 276.651 751.541 276.86 751.295 278.41C751.049 276.86 750.84 276.651 749.29 276.405C750.84 276.159 751.049 275.95 751.295 274.4C751.541 275.95 751.75 276.159 753.3 276.405Z" fill="#DDDDDD"/>
</g>
<g clip-path="url(#clip36_109_1288)">
<path d="M1259.87 461.205C1258.32 461.451 1258.11 461.66 1257.86 463.21C1257.62 461.66 1257.41 461.451 1255.86 461.205C1257.41 460.959 1257.62 460.75 1257.86 459.2C1258.11 460.75 1258.32 460.959 1259.87 461.205Z" fill="#DDDDDD"/>
</g>
<g clip-path="url(#clip37_109_1288)">
<path d="M861.93 481.895C860.38 482.141 860.171 482.35 859.925 483.9C859.679 482.35 859.47 482.141 857.92 481.895C859.47 481.649 859.679 481.44 859.925 479.89C860.171 481.44 860.38 481.649 861.93 481.895Z" fill="#DDDDDD"/>
</g>
<g clip-path="url(#clip38_109_1288)">
<path d="M794.76 762.825C793.21 763.071 793.001 763.28 792.755 764.83C792.509 763.28 792.3 763.071 790.75 762.825C792.3 762.579 792.509 762.37 792.755 760.82C793.001 762.37 793.21 762.579 794.76 762.825Z" fill="#DDDDDD"/>
</g>
<g clip-path="url(#clip39_109_1288)">
<path d="M1297.8 741.655C1296.25 741.901 1296.04 742.11 1295.79 743.66C1295.55 742.11 1295.34 741.901 1293.79 741.655C1295.34 741.409 1295.55 741.2 1295.79 739.65C1296.04 741.2 1296.25 741.409 1297.8 741.655Z" fill="#DDDDDD"/>
</g>
<g clip-path="url(#clip40_109_1288)">
<path d="M987.73 653.995C986.18 654.241 985.971 654.45 985.725 656C985.479 654.45 985.27 654.241 983.72 653.995C985.27 653.749 985.479 653.54 985.725 651.99C985.971 653.54 986.18 653.749 987.73 653.995Z" fill="#DDDDDD"/>
</g>
<g clip-path="url(#clip41_109_1288)">
<path d="M853.7 188.085C852.15 188.331 851.941 188.54 851.695 190.09C851.449 188.54 851.24 188.331 849.69 188.085C851.24 187.839 851.449 187.63 851.695 186.08C851.941 187.63 852.15 187.839 853.7 188.085Z" fill="#DDDDDD"/>
</g>
<g clip-path="url(#clip42_109_1288)">
<path d="M1213.95 2.99489C1212.4 3.24089 1212.19 3.44999 1211.94 4.99979C1211.7 3.44999 1211.49 3.24089 1209.94 2.99489C1211.49 2.74889 1211.7 2.53979 1211.94 0.98999C1212.19 2.53979 1212.4 2.74889 1213.95 2.99489Z" fill="#DDDDDD"/>
</g>
</g>
<g filter="url(#filter1_d_109_1288)">
<g clip-path="url(#clip43_109_1288)">
<path d="M289.59 247.35C290.142 247.35 290.59 246.902 290.59 246.35C290.59 245.798 290.142 245.35 289.59 245.35C289.038 245.35 288.59 245.798 288.59 246.35C288.59 246.902 289.038 247.35 289.59 247.35Z" fill="#DDDDDD"/>
</g>
<g clip-path="url(#clip44_109_1288)">
<path d="M1098.68 675.79C1099.23 675.79 1099.68 675.342 1099.68 674.79C1099.68 674.238 1099.23 673.79 1098.68 673.79C1098.13 673.79 1097.68 674.238 1097.68 674.79C1097.68 675.342 1098.13 675.79 1098.68 675.79Z" fill="#DDDDDD"/>
</g>
<g clip-path="url(#clip45_109_1288)">
<path d="M506.85 336.58C507.402 336.58 507.85 336.132 507.85 335.58C507.85 335.028 507.402 334.58 506.85 334.58C506.297 334.58 505.85 335.028 505.85 335.58C505.85 336.132 506.297 336.58 506.85 336.58Z" fill="#DDDDDD"/>
</g>
<g clip-path="url(#clip46_109_1288)">
<path d="M269.32 757.26C269.872 757.26 270.32 756.812 270.32 756.26C270.32 755.708 269.872 755.26 269.32 755.26C268.768 755.26 268.32 755.708 268.32 756.26C268.32 756.812 268.768 757.26 269.32 757.26Z" fill="#DDDDDD"/>
</g>
<g clip-path="url(#clip47_109_1288)">
<path d="M1023.89 498.65C1024.44 498.65 1024.89 498.202 1024.89 497.65C1024.89 497.098 1024.44 496.65 1023.89 496.65C1023.34 496.65 1022.89 497.098 1022.89 497.65C1022.89 498.202 1023.34 498.65 1023.89 498.65Z" fill="#DDDDDD"/>
</g>
<g clip-path="url(#clip48_109_1288)">
<path d="M493.87 688.4C494.422 688.4 494.87 687.952 494.87 687.4C494.87 686.848 494.422 686.4 493.87 686.4C493.317 686.4 492.87 686.848 492.87 687.4C492.87 687.952 493.317 688.4 493.87 688.4Z" fill="#DDDDDD"/>
</g>
<g clip-path="url(#clip49_109_1288)">
<path d="M1411.01 647.47C1411.56 647.47 1412.01 647.022 1412.01 646.47C1412.01 645.918 1411.56 645.47 1411.01 645.47C1410.46 645.47 1410.01 645.918 1410.01 646.47C1410.01 647.022 1410.46 647.47 1411.01 647.47Z" fill="#DDDDDD"/>
</g>
<g clip-path="url(#clip50_109_1288)">
<path d="M832.18 611.54C832.732 611.54 833.18 611.092 833.18 610.54C833.18 609.988 832.732 609.54 832.18 609.54C831.627 609.54 831.18 609.988 831.18 610.54C831.18 611.092 831.627 611.54 832.18 611.54Z" fill="#DDDDDD"/>
</g>
<g clip-path="url(#clip51_109_1288)">
<path d="M1080.73 542.51C1081.28 542.51 1081.73 542.062 1081.73 541.51C1081.73 540.958 1081.28 540.51 1080.73 540.51C1080.18 540.51 1079.73 540.958 1079.73 541.51C1079.73 542.062 1080.18 542.51 1080.73 542.51Z" fill="#DDDDDD"/>
</g>
<g clip-path="url(#clip52_109_1288)">
<path d="M735.09 580.68C735.642 580.68 736.09 580.232 736.09 579.68C736.09 579.128 735.642 578.68 735.09 578.68C734.538 578.68 734.09 579.128 734.09 579.68C734.09 580.232 734.538 580.68 735.09 580.68Z" fill="#DDDDDD"/>
</g>
<g clip-path="url(#clip53_109_1288)">
<path d="M1013.82 696.7C1014.37 696.7 1014.82 696.252 1014.82 695.7C1014.82 695.148 1014.37 694.7 1013.82 694.7C1013.27 694.7 1012.82 695.148 1012.82 695.7C1012.82 696.252 1013.27 696.7 1013.82 696.7Z" fill="#DDDDDD"/>
</g>
<g clip-path="url(#clip54_109_1288)">
<path d="M1026.93 672.98C1027.48 672.98 1027.93 672.532 1027.93 671.98C1027.93 671.428 1027.48 670.98 1026.93 670.98C1026.38 670.98 1025.93 671.428 1025.93 671.98C1025.93 672.532 1026.38 672.98 1026.93 672.98Z" fill="#DDDDDD"/>
</g>
<g clip-path="url(#clip55_109_1288)">
<path d="M837.36 524.11C837.912 524.11 838.36 523.662 838.36 523.11C838.36 522.558 837.912 522.11 837.36 522.11C836.808 522.11 836.36 522.558 836.36 523.11C836.36 523.662 836.808 524.11 837.36 524.11Z" fill="#DDDDDD"/>
</g>
<g clip-path="url(#clip56_109_1288)">
<path d="M1315.76 663.27C1316.31 663.27 1316.76 662.822 1316.76 662.27C1316.76 661.718 1316.31 661.27 1315.76 661.27C1315.21 661.27 1314.76 661.718 1314.76 662.27C1314.76 662.822 1315.21 663.27 1315.76 663.27Z" fill="#DDDDDD"/>
</g>
<g clip-path="url(#clip57_109_1288)">
<path d="M614.53 521.13C615.082 521.13 615.53 520.682 615.53 520.13C615.53 519.578 615.082 519.13 614.53 519.13C613.978 519.13 613.53 519.578 613.53 520.13C613.53 520.682 613.978 521.13 614.53 521.13Z" fill="#DDDDDD"/>
</g>
<g clip-path="url(#clip58_109_1288)">
<path d="M842.3 742.51C842.852 742.51 843.3 742.062 843.3 741.51C843.3 740.958 842.852 740.51 842.3 740.51C841.748 740.51 841.3 740.958 841.3 741.51C841.3 742.062 841.748 742.51 842.3 742.51Z" fill="#DDDDDD"/>
</g>
<g clip-path="url(#clip59_109_1288)">
<path d="M1067.77 249.65C1068.32 249.65 1068.77 249.202 1068.77 248.65C1068.77 248.098 1068.32 247.65 1067.77 247.65C1067.22 247.65 1066.77 248.098 1066.77 248.65C1066.77 249.202 1067.22 249.65 1067.77 249.65Z" fill="#DDDDDD"/>
</g>
<g clip-path="url(#clip60_109_1288)">
<path d="M1067.68 313.94C1068.23 313.94 1068.68 313.492 1068.68 312.94C1068.68 312.388 1068.23 311.94 1067.68 311.94C1067.13 311.94 1066.68 312.388 1066.68 312.94C1066.68 313.492 1067.13 313.94 1067.68 313.94Z" fill="#DDDDDD"/>
</g>
<g clip-path="url(#clip61_109_1288)">
<path d="M1000.98 555.19C1001.53 555.19 1001.98 554.742 1001.98 554.19C1001.98 553.638 1001.53 553.19 1000.98 553.19C1000.43 553.19 999.979 553.638 999.979 554.19C999.979 554.742 1000.43 555.19 1000.98 555.19Z" fill="#DDDDDD"/>
</g>
<g clip-path="url(#clip62_109_1288)">
<path d="M880.95 709.03C881.502 709.03 881.95 708.582 881.95 708.03C881.95 707.478 881.502 707.03 880.95 707.03C880.397 707.03 879.95 707.478 879.95 708.03C879.95 708.582 880.397 709.03 880.95 709.03Z" fill="#DDDDDD"/>
</g>
<g clip-path="url(#clip63_109_1288)">
<path d="M734.93 775.79C735.482 775.79 735.93 775.342 735.93 774.79C735.93 774.238 735.482 773.79 734.93 773.79C734.377 773.79 733.93 774.238 733.93 774.79C733.93 775.342 734.377 775.79 734.93 775.79Z" fill="#DDDDDD"/>
</g>
<g clip-path="url(#clip64_109_1288)">
<path d="M1344.69 624.13C1345.24 624.13 1345.69 623.682 1345.69 623.13C1345.69 622.578 1345.24 622.13 1344.69 622.13C1344.14 622.13 1343.69 622.578 1343.69 623.13C1343.69 623.682 1344.14 624.13 1344.69 624.13Z" fill="#DDDDDD"/>
</g>
<g clip-path="url(#clip65_109_1288)">
<path d="M578.58 652.83C579.132 652.83 579.58 652.382 579.58 651.83C579.58 651.278 579.132 650.83 578.58 650.83C578.027 650.83 577.58 651.278 577.58 651.83C577.58 652.382 578.027 652.83 578.58 652.83Z" fill="#DDDDDD"/>
</g>
<g clip-path="url(#clip66_109_1288)">
<path d="M1049.25 449.52C1049.8 449.52 1050.25 449.072 1050.25 448.52C1050.25 447.968 1049.8 447.52 1049.25 447.52C1048.7 447.52 1048.25 447.968 1048.25 448.52C1048.25 449.072 1048.7 449.52 1049.25 449.52Z" fill="#DDDDDD"/>
</g>
<g clip-path="url(#clip67_109_1288)">
<path d="M371.21 560.11C371.762 560.11 372.21 559.662 372.21 559.11C372.21 558.558 371.762 558.11 371.21 558.11C370.658 558.11 370.21 558.558 370.21 559.11C370.21 559.662 370.658 560.11 371.21 560.11Z" fill="#DDDDDD"/>
</g>
<g clip-path="url(#clip68_109_1288)">
<path d="M740.05 470.38C740.602 470.38 741.05 469.932 741.05 469.38C741.05 468.828 740.602 468.38 740.05 468.38C739.498 468.38 739.05 468.828 739.05 469.38C739.05 469.932 739.498 470.38 740.05 470.38Z" fill="#DDDDDD"/>
</g>
<g clip-path="url(#clip69_109_1288)">
<path d="M366.04 490.64C366.592 490.64 367.04 490.192 367.04 489.64C367.04 489.088 366.592 488.64 366.04 488.64C365.488 488.64 365.04 489.088 365.04 489.64C365.04 490.192 365.488 490.64 366.04 490.64Z" fill="#DDDDDD"/>
</g>
<g clip-path="url(#clip70_109_1288)">
<path d="M481.15 432C481.702 432 482.15 431.552 482.15 431C482.15 430.448 481.702 430 481.15 430C480.598 430 480.15 430.448 480.15 431C480.15 431.552 480.598 432 481.15 432Z" fill="#DDDDDD"/>
</g>
<g clip-path="url(#clip71_109_1288)">
<path d="M169.4 472.6C169.952 472.6 170.4 472.152 170.4 471.6C170.4 471.048 169.952 470.6 169.4 470.6C168.848 470.6 168.4 471.048 168.4 471.6C168.4 472.152 168.848 472.6 169.4 472.6Z" fill="#DDDDDD"/>
</g>
<g clip-path="url(#clip72_109_1288)">
<path d="M471.13 167.76C471.682 167.76 472.13 167.312 472.13 166.76C472.13 166.208 471.682 165.76 471.13 165.76C470.578 165.76 470.13 166.208 470.13 166.76C470.13 167.312 470.578 167.76 471.13 167.76Z" fill="#DDDDDD"/>
</g>
<g clip-path="url(#clip73_109_1288)">
<path d="M38.2295 480.51C38.7818 480.51 39.2295 480.062 39.2295 479.51C39.2295 478.958 38.7818 478.51 38.2295 478.51C37.6772 478.51 37.2295 478.958 37.2295 479.51C37.2295 480.062 37.6772 480.51 38.2295 480.51Z" fill="#DDDDDD"/>
</g>
<g clip-path="url(#clip74_109_1288)">
<path d="M361.18 96.08C361.732 96.08 362.18 95.6323 362.18 95.08C362.18 94.5278 361.732 94.08 361.18 94.08C360.627 94.08 360.18 94.5278 360.18 95.08C360.18 95.6323 360.627 96.08 361.18 96.08Z" fill="#DDDDDD"/>
</g>
<g clip-path="url(#clip75_109_1288)">
<path d="M218.01 190.76C218.562 190.76 219.01 190.312 219.01 189.76C219.01 189.208 218.562 188.76 218.01 188.76C217.457 188.76 217.01 189.208 217.01 189.76C217.01 190.312 217.457 190.76 218.01 190.76Z" fill="#DDDDDD"/>
</g>
<g clip-path="url(#clip76_109_1288)">
<path d="M184.44 216.68C184.992 216.68 185.44 216.232 185.44 215.68C185.44 215.128 184.992 214.68 184.44 214.68C183.888 214.68 183.44 215.128 183.44 215.68C183.44 216.232 183.888 216.68 184.44 216.68Z" fill="#DDDDDD"/>
</g>
<g clip-path="url(#clip77_109_1288)">
<path d="M43.7695 206.28C44.3218 206.28 44.7695 205.832 44.7695 205.28C44.7695 204.728 44.3218 204.28 43.7695 204.28C43.2172 204.28 42.7695 204.728 42.7695 205.28C42.7695 205.832 43.2172 206.28 43.7695 206.28Z" fill="#DDDDDD"/>
</g>
<g clip-path="url(#clip78_109_1288)">
<path d="M31.1997 52.83C31.752 52.83 32.1997 52.3823 32.1997 51.83C32.1997 51.2778 31.752 50.83 31.1997 50.83C30.6474 50.83 30.1997 51.2778 30.1997 51.83C30.1997 52.3823 30.6474 52.83 31.1997 52.83Z" fill="#DDDDDD"/>
</g>
<g clip-path="url(#clip79_109_1288)">
<path d="M30.5796 309.52C31.1319 309.52 31.5796 309.072 31.5796 308.52C31.5796 307.968 31.1319 307.52 30.5796 307.52C30.0273 307.52 29.5796 307.968 29.5796 308.52C29.5796 309.072 30.0273 309.52 30.5796 309.52Z" fill="#DDDDDD"/>
</g>
<g clip-path="url(#clip80_109_1288)">
<path d="M36.3896 297.94C36.9419 297.94 37.3896 297.492 37.3896 296.94C37.3896 296.388 36.9419 295.94 36.3896 295.94C35.8374 295.94 35.3896 296.388 35.3896 296.94C35.3896 297.492 35.8374 297.94 36.3896 297.94Z" fill="#DDDDDD"/>
</g>
<g clip-path="url(#clip81_109_1288)">
<path d="M89.7798 464.98C90.3321 464.98 90.7798 464.532 90.7798 463.98C90.7798 463.428 90.3321 462.98 89.7798 462.98C89.2275 462.98 88.7798 463.428 88.7798 463.98C88.7798 464.532 89.2275 464.98 89.7798 464.98Z" fill="#DDDDDD"/>
</g>
<g clip-path="url(#clip82_109_1288)">
<path d="M33.0698 524.5C33.6221 524.5 34.0698 524.052 34.0698 523.5C34.0698 522.948 33.6221 522.5 33.0698 522.5C32.5175 522.5 32.0698 522.948 32.0698 523.5C32.0698 524.052 32.5175 524.5 33.0698 524.5Z" fill="#DDDDDD"/>
</g>
<g clip-path="url(#clip83_109_1288)">
<path d="M130.67 516.52C131.222 516.52 131.67 516.072 131.67 515.52C131.67 514.968 131.222 514.52 130.67 514.52C130.118 514.52 129.67 514.968 129.67 515.52C129.67 516.072 130.118 516.52 130.67 516.52Z" fill="#DDDDDD"/>
</g>
<g clip-path="url(#clip84_109_1288)">
<path d="M171.88 549.91C172.432 549.91 172.88 549.462 172.88 548.91C172.88 548.358 172.432 547.91 171.88 547.91C171.328 547.91 170.88 548.358 170.88 548.91C170.88 549.462 171.328 549.91 171.88 549.91Z" fill="#DDDDDD"/>
</g>
<g clip-path="url(#clip85_109_1288)">
<path d="M132.37 781.11C132.922 781.11 133.37 780.662 133.37 780.11C133.37 779.558 132.922 779.11 132.37 779.11C131.817 779.11 131.37 779.558 131.37 780.11C131.37 780.662 131.817 781.11 132.37 781.11Z" fill="#DDDDDD"/>
</g>
<g clip-path="url(#clip86_109_1288)">
<path d="M143.78 735.82C144.332 735.82 144.78 735.372 144.78 734.82C144.78 734.268 144.332 733.82 143.78 733.82C143.228 733.82 142.78 734.268 142.78 734.82C142.78 735.372 143.228 735.82 143.78 735.82Z" fill="#DDDDDD"/>
</g>
<g clip-path="url(#clip87_109_1288)">
<path d="M148.42 735.62C148.972 735.62 149.42 735.172 149.42 734.62C149.42 734.068 148.972 733.62 148.42 733.62C147.868 733.62 147.42 734.068 147.42 734.62C147.42 735.172 147.868 735.62 148.42 735.62Z" fill="#DDDDDD"/>
</g>
<g clip-path="url(#clip88_109_1288)">
<path d="M146.01 748.13C146.562 748.13 147.01 747.682 147.01 747.13C147.01 746.578 146.562 746.13 146.01 746.13C145.457 746.13 145.01 746.578 145.01 747.13C145.01 747.682 145.457 748.13 146.01 748.13Z" fill="#DDDDDD"/>
</g>
<g clip-path="url(#clip89_109_1288)">
<path d="M154.13 778.43C154.682 778.43 155.13 777.982 155.13 777.43C155.13 776.878 154.682 776.43 154.13 776.43C153.578 776.43 153.13 776.878 153.13 777.43C153.13 777.982 153.578 778.43 154.13 778.43Z" fill="#DDDDDD"/>
</g>
<g clip-path="url(#clip90_109_1288)">
<path d="M182.21 811.72C182.762 811.72 183.21 811.272 183.21 810.72C183.21 810.168 182.762 809.72 182.21 809.72C181.658 809.72 181.21 810.168 181.21 810.72C181.21 811.272 181.658 811.72 182.21 811.72Z" fill="#DDDDDD"/>
</g>
<g clip-path="url(#clip91_109_1288)">
<path d="M555.65 727.03C556.202 727.03 556.65 726.582 556.65 726.03C556.65 725.478 556.202 725.03 555.65 725.03C555.098 725.03 554.65 725.478 554.65 726.03C554.65 726.582 555.098 727.03 555.65 727.03Z" fill="#DDDDDD"/>
</g>
<g clip-path="url(#clip92_109_1288)">
<path d="M1325.78 629.44C1326.33 629.44 1326.78 628.992 1326.78 628.44C1326.78 627.888 1326.33 627.44 1325.78 627.44C1325.23 627.44 1324.78 627.888 1324.78 628.44C1324.78 628.992 1325.23 629.44 1325.78 629.44Z" fill="#DDDDDD"/>
</g>
<g clip-path="url(#clip93_109_1288)">
<path d="M1094.01 452.21C1094.56 452.21 1095.01 451.762 1095.01 451.21C1095.01 450.658 1094.56 450.21 1094.01 450.21C1093.46 450.21 1093.01 450.658 1093.01 451.21C1093.01 451.762 1093.46 452.21 1094.01 452.21Z" fill="#DDDDDD"/>
</g>
<g clip-path="url(#clip94_109_1288)">
<path d="M875.83 799.08C876.382 799.08 876.83 798.632 876.83 798.08C876.83 797.528 876.382 797.08 875.83 797.08C875.277 797.08 874.83 797.528 874.83 798.08C874.83 798.632 875.277 799.08 875.83 799.08Z" fill="#DDDDDD"/>
</g>
<g clip-path="url(#clip95_109_1288)">
<path d="M1251.95 298.52C1252.5 298.52 1252.95 298.072 1252.95 297.52C1252.95 296.968 1252.5 296.52 1251.95 296.52C1251.4 296.52 1250.95 296.968 1250.95 297.52C1250.95 298.072 1251.4 298.52 1251.95 298.52Z" fill="#DDDDDD"/>
</g>
<g clip-path="url(#clip96_109_1288)">
<path d="M604.14 121.53C604.692 121.53 605.14 121.082 605.14 120.53C605.14 119.978 604.692 119.53 604.14 119.53C603.587 119.53 603.14 119.978 603.14 120.53C603.14 121.082 603.587 121.53 604.14 121.53Z" fill="#DDDDDD"/>
</g>
<g clip-path="url(#clip97_109_1288)">
<path d="M1182.99 426.78C1183.54 426.78 1183.99 426.332 1183.99 425.78C1183.99 425.228 1183.54 424.78 1182.99 424.78C1182.44 424.78 1181.99 425.228 1181.99 425.78C1181.99 426.332 1182.44 426.78 1182.99 426.78Z" fill="#DDDDDD"/>
</g>
<g clip-path="url(#clip98_109_1288)">
<path d="M960.76 108.6C961.312 108.6 961.76 108.152 961.76 107.6C961.76 107.048 961.312 106.6 960.76 106.6C960.207 106.6 959.76 107.048 959.76 107.6C959.76 108.152 960.207 108.6 960.76 108.6Z" fill="#DDDDDD"/>
</g>
<g clip-path="url(#clip99_109_1288)">
<path d="M1075.29 457.65C1075.84 457.65 1076.29 457.202 1076.29 456.65C1076.29 456.098 1075.84 455.65 1075.29 455.65C1074.74 455.65 1074.29 456.098 1074.29 456.65C1074.29 457.202 1074.74 457.65 1075.29 457.65Z" fill="#DDDDDD"/>
</g>
<g clip-path="url(#clip100_109_1288)">
<path d="M870.43 198.7C870.982 198.7 871.43 198.252 871.43 197.7C871.43 197.148 870.982 196.7 870.43 196.7C869.877 196.7 869.43 197.148 869.43 197.7C869.43 198.252 869.877 198.7 870.43 198.7Z" fill="#DDDDDD"/>
</g>
<g clip-path="url(#clip101_109_1288)">
<path d="M1290.36 385.68C1290.91 385.68 1291.36 385.232 1291.36 384.68C1291.36 384.128 1290.91 383.68 1290.36 383.68C1289.81 383.68 1289.36 384.128 1289.36 384.68C1289.36 385.232 1289.81 385.68 1290.36 385.68Z" fill="#DDDDDD"/>
</g>
<g clip-path="url(#clip102_109_1288)">
<path d="M1435.97 147.2C1436.52 147.2 1436.97 146.752 1436.97 146.2C1436.97 145.648 1436.52 145.2 1435.97 145.2C1435.42 145.2 1434.97 145.648 1434.97 146.2C1434.97 146.752 1435.42 147.2 1435.97 147.2Z" fill="#DDDDDD"/>
</g>
<g clip-path="url(#clip103_109_1288)">
<path d="M1310.72 503.98C1311.27 503.98 1311.72 503.532 1311.72 502.98C1311.72 502.428 1311.27 501.98 1310.72 501.98C1310.17 501.98 1309.72 502.428 1309.72 502.98C1309.72 503.532 1310.17 503.98 1310.72 503.98Z" fill="#DDDDDD"/>
</g>
<g clip-path="url(#clip104_109_1288)">
<path d="M1372.21 247.34C1372.76 247.34 1373.21 246.892 1373.21 246.34C1373.21 245.788 1372.76 245.34 1372.21 245.34C1371.66 245.34 1371.21 245.788 1371.21 246.34C1371.21 246.892 1371.66 247.34 1372.21 247.34Z" fill="#DDDDDD"/>
</g>
<g clip-path="url(#clip105_109_1288)">
<path d="M1336.39 452.37C1336.94 452.37 1337.39 451.922 1337.39 451.37C1337.39 450.818 1336.94 450.37 1336.39 450.37C1335.84 450.37 1335.39 450.818 1335.39 451.37C1335.39 451.922 1335.84 452.37 1336.39 452.37Z" fill="#DDDDDD"/>
</g>
<g clip-path="url(#clip106_109_1288)">
<path d="M1380.31 486.13C1380.86 486.13 1381.31 485.682 1381.31 485.13C1381.31 484.578 1380.86 484.13 1380.31 484.13C1379.76 484.13 1379.31 484.578 1379.31 485.13C1379.31 485.682 1379.76 486.13 1380.31 486.13Z" fill="#DDDDDD"/>
</g>
<g clip-path="url(#clip107_109_1288)">
<path d="M1390.64 447.17C1391.19 447.17 1391.64 446.722 1391.64 446.17C1391.64 445.618 1391.19 445.17 1390.64 445.17C1390.09 445.17 1389.64 445.618 1389.64 446.17C1389.64 446.722 1390.09 447.17 1390.64 447.17Z" fill="#DDDDDD"/>
</g>
<g clip-path="url(#clip108_109_1288)">
<path d="M590.31 594.01C590.862 594.01 591.31 593.562 591.31 593.01C591.31 592.458 590.862 592.01 590.31 592.01C589.757 592.01 589.31 592.458 589.31 593.01C589.31 593.562 589.757 594.01 590.31 594.01Z" fill="#DDDDDD"/>
</g>
<g clip-path="url(#clip109_109_1288)">
<path d="M678.8 598.75C679.352 598.75 679.8 598.302 679.8 597.75C679.8 597.198 679.352 596.75 678.8 596.75C678.248 596.75 677.8 597.198 677.8 597.75C677.8 598.302 678.248 598.75 678.8 598.75Z" fill="#DDDDDD"/>
</g>
<g clip-path="url(#clip110_109_1288)">
<path d="M934.53 619.23C935.082 619.23 935.53 618.782 935.53 618.23C935.53 617.678 935.082 617.23 934.53 617.23C933.978 617.23 933.53 617.678 933.53 618.23C933.53 618.782 933.978 619.23 934.53 619.23Z" fill="#DDDDDD"/>
</g>
<g clip-path="url(#clip111_109_1288)">
<path d="M613.02 591.02C613.572 591.02 614.02 590.572 614.02 590.02C614.02 589.468 613.572 589.02 613.02 589.02C612.467 589.02 612.02 589.468 612.02 590.02C612.02 590.572 612.467 591.02 613.02 591.02Z" fill="#DDDDDD"/>
</g>
<g clip-path="url(#clip112_109_1288)">
<path d="M114.6 710.54C115.152 710.54 115.6 710.092 115.6 709.54C115.6 708.988 115.152 708.54 114.6 708.54C114.047 708.54 113.6 708.988 113.6 709.54C113.6 710.092 114.047 710.54 114.6 710.54Z" fill="#DDDDDD"/>
</g>
<g clip-path="url(#clip113_109_1288)">
<path d="M732.21 434.04C732.762 434.04 733.21 433.592 733.21 433.04C733.21 432.488 732.762 432.04 732.21 432.04C731.658 432.04 731.21 432.488 731.21 433.04C731.21 433.592 731.658 434.04 732.21 434.04Z" fill="#DDDDDD"/>
</g>
<g clip-path="url(#clip114_109_1288)">
<path d="M539.729 562.42C540.282 562.42 540.729 561.972 540.729 561.42C540.729 560.868 540.282 560.42 539.729 560.42C539.177 560.42 538.729 560.868 538.729 561.42C538.729 561.972 539.177 562.42 539.729 562.42Z" fill="#DDDDDD"/>
</g>
<g clip-path="url(#clip115_109_1288)">
<path d="M965.39 224.33C965.942 224.33 966.39 223.882 966.39 223.33C966.39 222.778 965.942 222.33 965.39 222.33C964.837 222.33 964.39 222.778 964.39 223.33C964.39 223.882 964.837 224.33 965.39 224.33Z" fill="#DDDDDD"/>
</g>
<g clip-path="url(#clip116_109_1288)">
<path d="M483.71 398.17C484.262 398.17 484.71 397.722 484.71 397.17C484.71 396.618 484.262 396.17 483.71 396.17C483.158 396.17 482.71 396.618 482.71 397.17C482.71 397.722 483.158 398.17 483.71 398.17Z" fill="#DDDDDD"/>
</g>
<g clip-path="url(#clip117_109_1288)">
<path d="M939.81 129.62C940.362 129.62 940.81 129.172 940.81 128.62C940.81 128.068 940.362 127.62 939.81 127.62C939.257 127.62 938.81 128.068 938.81 128.62C938.81 129.172 939.257 129.62 939.81 129.62Z" fill="#DDDDDD"/>
</g>
<g clip-path="url(#clip118_109_1288)">
<path d="M790.689 260.03C791.242 260.03 791.689 259.582 791.689 259.03C791.689 258.478 791.242 258.03 790.689 258.03C790.137 258.03 789.689 258.478 789.689 259.03C789.689 259.582 790.137 260.03 790.689 260.03Z" fill="#DDDDDD"/>
</g>
<g clip-path="url(#clip119_109_1288)">
<path d="M880.49 49.2801C881.042 49.2801 881.49 48.8323 881.49 48.2801C881.49 47.7278 881.042 47.2801 880.49 47.2801C879.937 47.2801 879.49 47.7278 879.49 48.2801C879.49 48.8323 879.937 49.2801 880.49 49.2801Z" fill="#DDDDDD"/>
</g>
<g clip-path="url(#clip120_109_1288)">
<path d="M816.229 124.17C816.782 124.17 817.229 123.722 817.229 123.17C817.229 122.618 816.782 122.17 816.229 122.17C815.677 122.17 815.229 122.618 815.229 123.17C815.229 123.722 815.677 124.17 816.229 124.17Z" fill="#DDDDDD"/>
</g>
<g clip-path="url(#clip121_109_1288)">
<path d="M883.12 80.4001C883.672 80.4001 884.12 79.9523 884.12 79.4001C884.12 78.8478 883.672 78.4001 883.12 78.4001C882.567 78.4001 882.12 78.8478 882.12 79.4001C882.12 79.9523 882.567 80.4001 883.12 80.4001Z" fill="#DDDDDD"/>
</g>
<g clip-path="url(#clip122_109_1288)">
<path d="M827.08 267.89C827.632 267.89 828.08 267.442 828.08 266.89C828.08 266.338 827.632 265.89 827.08 265.89C826.527 265.89 826.08 266.338 826.08 266.89C826.08 267.442 826.527 267.89 827.08 267.89Z" fill="#DDDDDD"/>
</g>
<g clip-path="url(#clip123_109_1288)">
<path d="M885.72 109.11C886.272 109.11 886.72 108.662 886.72 108.11C886.72 107.558 886.272 107.11 885.72 107.11C885.167 107.11 884.72 107.558 884.72 108.11C884.72 108.662 885.167 109.11 885.72 109.11Z" fill="#DDDDDD"/>
</g>
<g clip-path="url(#clip124_109_1288)">
<path d="M814.17 344.82C814.722 344.82 815.17 344.372 815.17 343.82C815.17 343.268 814.722 342.82 814.17 342.82C813.618 342.82 813.17 343.268 813.17 343.82C813.17 344.372 813.618 344.82 814.17 344.82Z" fill="#DDDDDD"/>
</g>
<g clip-path="url(#clip125_109_1288)">
<path d="M934.729 13.7C935.282 13.7 935.729 13.2523 935.729 12.7C935.729 12.1478 935.282 11.7 934.729 11.7C934.177 11.7 933.729 12.1478 933.729 12.7C933.729 13.2523 934.177 13.7 934.729 13.7Z" fill="#DDDDDD"/>
</g>
<g clip-path="url(#clip126_109_1288)">
<path d="M560.87 377.79C561.422 377.79 561.87 377.342 561.87 376.79C561.87 376.238 561.422 375.79 560.87 375.79C560.317 375.79 559.87 376.238 559.87 376.79C559.87 377.342 560.317 377.79 560.87 377.79Z" fill="#DDDDDD"/>
</g>
<g clip-path="url(#clip127_109_1288)">
<path d="M650.2 198.51C650.752 198.51 651.2 198.062 651.2 197.51C651.2 196.958 650.752 196.51 650.2 196.51C649.647 196.51 649.2 196.958 649.2 197.51C649.2 198.062 649.647 198.51 650.2 198.51Z" fill="#DDDDDD"/>
</g>
<g clip-path="url(#clip128_109_1288)">
<path d="M1423.19 178.35C1423.74 178.35 1424.19 177.902 1424.19 177.35C1424.19 176.798 1423.74 176.35 1423.19 176.35C1422.64 176.35 1422.19 176.798 1422.19 177.35C1422.19 177.902 1422.64 178.35 1423.19 178.35Z" fill="#DDDDDD"/>
</g>
<g clip-path="url(#clip129_109_1288)">
<path d="M1262.23 198.3C1262.78 198.3 1263.23 197.852 1263.23 197.3C1263.23 196.748 1262.78 196.3 1262.23 196.3C1261.68 196.3 1261.23 196.748 1261.23 197.3C1261.23 197.852 1261.68 198.3 1262.23 198.3Z" fill="#DDDDDD"/>
</g>
<g clip-path="url(#clip130_109_1288)">
<path d="M1205.73 218.89C1206.28 218.89 1206.73 218.442 1206.73 217.89C1206.73 217.338 1206.28 216.89 1205.73 216.89C1205.18 216.89 1204.73 217.338 1204.73 217.89C1204.73 218.442 1205.18 218.89 1205.73 218.89Z" fill="#DDDDDD"/>
</g>
<g clip-path="url(#clip131_109_1288)">
<path d="M599.2 587.65C599.752 587.65 600.2 587.202 600.2 586.65C600.2 586.098 599.752 585.65 599.2 585.65C598.647 585.65 598.2 586.098 598.2 586.65C598.2 587.202 598.647 587.65 599.2 587.65Z" fill="#DDDDDD"/>
</g>
</g>
<defs>
<filter id="filter0_d_109_1288" x="-724" y="-296" width="3185.98" height="1551.17" filterUnits="userSpaceOnUse" color-interpolation-filters="sRGB">
<feFlood flood-opacity="0" result="BackgroundImageFix"/>
<feColorMatrix in="SourceAlpha" type="matrix" values="0 0 0 0 0 0 0 0 0 0 0 0 0 0 0 0 0 0 127 0" result="hardAlpha"/>
<feOffset/>
<feGaussianBlur stdDeviation="4"/>
<feColorMatrix type="matrix" values="0 0 0 0 1 0 0 0 0 1 0 0 0 0 1 0 0 0 0.75 0"/>
<feBlend mode="normal" in2="BackgroundImageFix" result="effect1_dropShadow_109_1288"/>
<feBlend mode="normal" in="SourceGraphic" in2="effect1_dropShadow_109_1288" result="shape"/>
</filter>
<filter id="filter1_d_109_1288" x="-169.99" y="-85.71" width="2027.57" height="1233.11" filterUnits="userSpaceOnUse" color-interpolation-filters="sRGB">
<feFlood flood-opacity="0" result="BackgroundImageFix"/>
<feColorMatrix in="SourceAlpha" type="matrix" values="0 0 0 0 0 0 0 0 0 0 0 0 0 0 0 0 0 0 127 0" result="hardAlpha"/>
<feOffset/>
<feGaussianBlur stdDeviation="4"/>
<feColorMatrix type="matrix" values="0 0 0 0 1 0 0 0 0 1 0 0 0 0 1 0 0 0 0.75 0"/>
<feBlend mode="normal" in2="BackgroundImageFix" result="effect1_dropShadow_109_1288"/>
<feBlend mode="normal" in="SourceGraphic" in2="effect1_dropShadow_109_1288" result="shape"/>
</filter>
<clipPath id="clip0_109_1288">
<rect width="4.0098" height="4.0098" fill="white" transform="translate(384.99 31.35)"/>
</clipPath>
<clipPath id="clip1_109_1288">
<rect width="4.0098" height="4.0098" fill="white" transform="translate(912.58 299.71)"/>
</clipPath>
<clipPath id="clip2_109_1288">
<rect width="4.0098" height="4.0098" fill="white" transform="translate(673.7 312.44)"/>
</clipPath>
<clipPath id="clip3_109_1288">
<rect width="4.0098" height="4.0098" fill="white" transform="translate(1335.75 425.38)"/>
</clipPath>
<clipPath id="clip4_109_1288">
<rect width="4.0098" height="4.0098" fill="white" transform="translate(1234.81 794.69)"/>
</clipPath>
<clipPath id="clip5_109_1288">
<rect width="4.0098" height="4.0098" fill="white" transform="translate(967.1 93.64)"/>
</clipPath>
<clipPath id="clip6_109_1288">
<rect width="4.0098" height="4.0098" fill="white" transform="translate(317.9 308.41)"/>
</clipPath>
<clipPath id="clip7_109_1288">
<rect width="4.0098" height="4.0098" fill="white" transform="translate(1013.22 219.77)"/>
</clipPath>
<clipPath id="clip8_109_1288">
<rect width="4.0098" height="4.0098" fill="white" transform="translate(928.93 605.53)"/>
</clipPath>
<clipPath id="clip9_109_1288">
<rect width="4.0098" height="4.0098" fill="white" transform="translate(506.03 219.08)"/>
</clipPath>
<clipPath id="clip10_109_1288">
<rect width="4.0098" height="4.0098" fill="white" transform="translate(1101.08 634.97)"/>
</clipPath>
<clipPath id="clip11_109_1288">
<rect width="4.0098" height="4.0098" fill="white" transform="translate(510.44 342.11)"/>
</clipPath>
<clipPath id="clip12_109_1288">
<rect width="4.0098" height="4.0098" fill="white" transform="translate(330.15 492.33)"/>
</clipPath>
<clipPath id="clip13_109_1288">
<rect width="4.0098" height="4.0098" fill="white" transform="translate(698.59 614.16)"/>
</clipPath>
<clipPath id="clip14_109_1288">
<rect width="4.0098" height="4.0098" fill="white" transform="translate(343.02 539.29)"/>
</clipPath>
<clipPath id="clip15_109_1288">
<rect width="4.0098" height="4.0098" fill="white" transform="translate(145.27 299.91)"/>
</clipPath>
<clipPath id="clip16_109_1288">
<rect width="4.0098" height="4.0098" fill="white" transform="translate(435.18 735.88)"/>
</clipPath>
<clipPath id="clip17_109_1288">
<rect width="4.0098" height="4.0098" fill="white" transform="translate(359.48 782.31)"/>
</clipPath>
<clipPath id="clip18_109_1288">
<rect width="4.0098" height="4.0098" fill="white" transform="translate(124.85 677.15)"/>
</clipPath>
<clipPath id="clip19_109_1288">
<rect width="4.0098" height="4.0098" fill="white" transform="translate(1348.19 185.58)"/>
</clipPath>
<clipPath id="clip20_109_1288">
<rect width="4.0098" height="4.0098" fill="white" transform="translate(1205.41 202.82)"/>
</clipPath>
<clipPath id="clip21_109_1288">
<rect width="4.0098" height="4.0098" fill="white" transform="translate(1431.71 92.03)"/>
</clipPath>
<clipPath id="clip22_109_1288">
<rect width="4.0098" height="4.0098" fill="white" transform="translate(1063.47 5.33002)"/>
</clipPath>
<clipPath id="clip23_109_1288">
<rect width="4.0098" height="4.0098" fill="white" transform="translate(1418.24 119.49)"/>
</clipPath>
<clipPath id="clip24_109_1288">
<rect width="4.0098" height="4.0098" fill="white" transform="translate(845.7 1.45001)"/>
</clipPath>
<clipPath id="clip25_109_1288">
<rect width="4.0098" height="4.0098" fill="white" transform="translate(628.09 18.47)"/>
</clipPath>
<clipPath id="clip26_109_1288">
<rect width="4.0098" height="4.0098" fill="white" transform="translate(233.62 10.77)"/>
</clipPath>
<clipPath id="clip27_109_1288">
<rect width="4.0098" height="4.0098" fill="white" transform="translate(69.9399 31.48)"/>
</clipPath>
<clipPath id="clip28_109_1288">
<rect width="4.0098" height="4.0098" fill="white" transform="translate(225.04 228.05)"/>
</clipPath>
<clipPath id="clip29_109_1288">
<rect width="4.0098" height="4.0098" fill="white" transform="translate(258.87 274.76)"/>
</clipPath>
<clipPath id="clip30_109_1288">
<rect width="4.0098" height="4.0098" fill="white" transform="translate(191.93 593.15)"/>
</clipPath>
<clipPath id="clip31_109_1288">
<rect width="4.0098" height="4.0098" fill="white" transform="translate(200.5 761.34)"/>
</clipPath>
<clipPath id="clip32_109_1288">
<rect width="4.0098" height="4.0098" fill="white" transform="translate(1196.96 400.05)"/>
</clipPath>
<clipPath id="clip33_109_1288">
<rect width="4.0098" height="4.0098" fill="white" transform="translate(514.93 245.81)"/>
</clipPath>
<clipPath id="clip34_109_1288">
<rect width="4.0098" height="4.0098" fill="white" transform="translate(1335.07 212.14)"/>
</clipPath>
<clipPath id="clip35_109_1288">
<rect width="4.0098" height="4.0098" fill="white" transform="translate(749.29 274.4)"/>
</clipPath>
<clipPath id="clip36_109_1288">
<rect width="4.0098" height="4.0098" fill="white" transform="translate(1255.86 459.2)"/>
</clipPath>
<clipPath id="clip37_109_1288">
<rect width="4.0098" height="4.0098" fill="white" transform="translate(857.92 479.89)"/>
</clipPath>
<clipPath id="clip38_109_1288">
<rect width="4.0098" height="4.0098" fill="white" transform="translate(790.75 760.82)"/>
</clipPath>
<clipPath id="clip39_109_1288">
<rect width="4.0098" height="4.0098" fill="white" transform="translate(1293.79 739.65)"/>
</clipPath>
<clipPath id="clip40_109_1288">
<rect width="4.0098" height="4.0098" fill="white" transform="translate(983.72 651.99)"/>
</clipPath>
<clipPath id="clip41_109_1288">
<rect width="4.0098" height="4.0098" fill="white" transform="translate(849.69 186.08)"/>
</clipPath>
<clipPath id="clip42_109_1288">
<rect width="4.0098" height="4.0098" fill="white" transform="translate(1209.94 0.98999)"/>
</clipPath>
<clipPath id="clip43_109_1288">
<rect width="2" height="2" fill="white" transform="translate(288.59 245.35)"/>
</clipPath>
<clipPath id="clip44_109_1288">
<rect width="2" height="2" fill="white" transform="translate(1097.68 673.79)"/>
</clipPath>
<clipPath id="clip45_109_1288">
<rect width="2" height="2" fill="white" transform="translate(505.85 334.58)"/>
</clipPath>
<clipPath id="clip46_109_1288">
<rect width="2" height="2" fill="white" transform="translate(268.32 755.26)"/>
</clipPath>
<clipPath id="clip47_109_1288">
<rect width="2" height="2" fill="white" transform="translate(1022.89 496.65)"/>
</clipPath>
<clipPath id="clip48_109_1288">
<rect width="2" height="2" fill="white" transform="translate(492.87 686.4)"/>
</clipPath>
<clipPath id="clip49_109_1288">
<rect width="2" height="2" fill="white" transform="translate(1410.01 645.47)"/>
</clipPath>
<clipPath id="clip50_109_1288">
<rect width="2" height="2" fill="white" transform="translate(831.18 609.54)"/>
</clipPath>
<clipPath id="clip51_109_1288">
<rect width="2" height="2" fill="white" transform="translate(1079.73 540.51)"/>
</clipPath>
<clipPath id="clip52_109_1288">
<rect width="2" height="2" fill="white" transform="translate(734.09 578.68)"/>
</clipPath>
<clipPath id="clip53_109_1288">
<rect width="2" height="2" fill="white" transform="translate(1012.82 694.7)"/>
</clipPath>
<clipPath id="clip54_109_1288">
<rect width="2" height="2" fill="white" transform="translate(1025.93 670.98)"/>
</clipPath>
<clipPath id="clip55_109_1288">
<rect width="2" height="2" fill="white" transform="translate(836.36 522.11)"/>
</clipPath>
<clipPath id="clip56_109_1288">
<rect width="2" height="2" fill="white" transform="translate(1314.76 661.27)"/>
</clipPath>
<clipPath id="clip57_109_1288">
<rect width="2" height="2" fill="white" transform="translate(613.53 519.13)"/>
</clipPath>
<clipPath id="clip58_109_1288">
<rect width="2" height="2" fill="white" transform="translate(841.3 740.51)"/>
</clipPath>
<clipPath id="clip59_109_1288">
<rect width="2" height="2" fill="white" transform="translate(1066.77 247.65)"/>
</clipPath>
<clipPath id="clip60_109_1288">
<rect width="2" height="2" fill="white" transform="translate(1066.68 311.94)"/>
</clipPath>
<clipPath id="clip61_109_1288">
<rect width="2" height="2" fill="white" transform="translate(999.979 553.19)"/>
</clipPath>
<clipPath id="clip62_109_1288">
<rect width="2" height="2" fill="white" transform="translate(879.95 707.03)"/>
</clipPath>
<clipPath id="clip63_109_1288">
<rect width="2" height="2" fill="white" transform="translate(733.93 773.79)"/>
</clipPath>
<clipPath id="clip64_109_1288">
<rect width="2" height="2" fill="white" transform="translate(1343.69 622.13)"/>
</clipPath>
<clipPath id="clip65_109_1288">
<rect width="2" height="2" fill="white" transform="translate(577.58 650.83)"/>
</clipPath>
<clipPath id="clip66_109_1288">
<rect width="2" height="2" fill="white" transform="translate(1048.25 447.52)"/>
</clipPath>
<clipPath id="clip67_109_1288">
<rect width="2" height="2" fill="white" transform="translate(370.21 558.11)"/>
</clipPath>
<clipPath id="clip68_109_1288">
<rect width="2" height="2" fill="white" transform="translate(739.05 468.38)"/>
</clipPath>
<clipPath id="clip69_109_1288">
<rect width="2" height="2" fill="white" transform="translate(365.04 488.64)"/>
</clipPath>
<clipPath id="clip70_109_1288">
<rect width="2" height="2" fill="white" transform="translate(480.15 430)"/>
</clipPath>
<clipPath id="clip71_109_1288">
<rect width="2" height="2" fill="white" transform="translate(168.4 470.6)"/>
</clipPath>
<clipPath id="clip72_109_1288">
<rect width="2" height="2" fill="white" transform="translate(470.13 165.76)"/>
</clipPath>
<clipPath id="clip73_109_1288">
<rect width="2" height="2" fill="white" transform="translate(37.2295 478.51)"/>
</clipPath>
<clipPath id="clip74_109_1288">
<rect width="2" height="2" fill="white" transform="translate(360.18 94.08)"/>
</clipPath>
<clipPath id="clip75_109_1288">
<rect width="2" height="2" fill="white" transform="translate(217.01 188.76)"/>
</clipPath>
<clipPath id="clip76_109_1288">
<rect width="2" height="2" fill="white" transform="translate(183.44 214.68)"/>
</clipPath>
<clipPath id="clip77_109_1288">
<rect width="2" height="2" fill="white" transform="translate(42.7695 204.28)"/>
</clipPath>
<clipPath id="clip78_109_1288">
<rect width="2" height="2" fill="white" transform="translate(30.1997 50.83)"/>
</clipPath>
<clipPath id="clip79_109_1288">
<rect width="2" height="2" fill="white" transform="translate(29.5796 307.52)"/>
</clipPath>
<clipPath id="clip80_109_1288">
<rect width="2" height="2" fill="white" transform="translate(35.3896 295.94)"/>
</clipPath>
<clipPath id="clip81_109_1288">
<rect width="2" height="2" fill="white" transform="translate(88.7798 462.98)"/>
</clipPath>
<clipPath id="clip82_109_1288">
<rect width="2" height="2" fill="white" transform="translate(32.0698 522.5)"/>
</clipPath>
<clipPath id="clip83_109_1288">
<rect width="2" height="2" fill="white" transform="translate(129.67 514.52)"/>
</clipPath>
<clipPath id="clip84_109_1288">
<rect width="2" height="2" fill="white" transform="translate(170.88 547.91)"/>
</clipPath>
<clipPath id="clip85_109_1288">
<rect width="2" height="2" fill="white" transform="translate(131.37 779.11)"/>
</clipPath>
<clipPath id="clip86_109_1288">
<rect width="2" height="2" fill="white" transform="translate(142.78 733.82)"/>
</clipPath>
<clipPath id="clip87_109_1288">
<rect width="2" height="2" fill="white" transform="translate(147.42 733.62)"/>
</clipPath>
<clipPath id="clip88_109_1288">
<rect width="2" height="2" fill="white" transform="translate(145.01 746.13)"/>
</clipPath>
<clipPath id="clip89_109_1288">
<rect width="2" height="2" fill="white" transform="translate(153.13 776.43)"/>
</clipPath>
<clipPath id="clip90_109_1288">
<rect width="2" height="2" fill="white" transform="translate(181.21 809.72)"/>
</clipPath>
<clipPath id="clip91_109_1288">
<rect width="2" height="2" fill="white" transform="translate(554.65 725.03)"/>
</clipPath>
<clipPath id="clip92_109_1288">
<rect width="2" height="2" fill="white" transform="translate(1324.78 627.44)"/>
</clipPath>
<clipPath id="clip93_109_1288">
<rect width="2" height="2" fill="white" transform="translate(1093.01 450.21)"/>
</clipPath>
<clipPath id="clip94_109_1288">
<rect width="2" height="2" fill="white" transform="translate(874.83 797.08)"/>
</clipPath>
<clipPath id="clip95_109_1288">
<rect width="2" height="2" fill="white" transform="translate(1250.95 296.52)"/>
</clipPath>
<clipPath id="clip96_109_1288">
<rect width="2" height="2" fill="white" transform="translate(603.14 119.53)"/>
</clipPath>
<clipPath id="clip97_109_1288">
<rect width="2" height="2" fill="white" transform="translate(1181.99 424.78)"/>
</clipPath>
<clipPath id="clip98_109_1288">
<rect width="2" height="2" fill="white" transform="translate(959.76 106.6)"/>
</clipPath>
<clipPath id="clip99_109_1288">
<rect width="2" height="2" fill="white" transform="translate(1074.29 455.65)"/>
</clipPath>
<clipPath id="clip100_109_1288">
<rect width="2" height="2" fill="white" transform="translate(869.43 196.7)"/>
</clipPath>
<clipPath id="clip101_109_1288">
<rect width="2" height="2" fill="white" transform="translate(1289.36 383.68)"/>
</clipPath>
<clipPath id="clip102_109_1288">
<rect width="2" height="2" fill="white" transform="translate(1434.97 145.2)"/>
</clipPath>
<clipPath id="clip103_109_1288">
<rect width="2" height="2" fill="white" transform="translate(1309.72 501.98)"/>
</clipPath>
<clipPath id="clip104_109_1288">
<rect width="2" height="2" fill="white" transform="translate(1371.21 245.34)"/>
</clipPath>
<clipPath id="clip105_109_1288">
<rect width="2" height="2" fill="white" transform="translate(1335.39 450.37)"/>
</clipPath>
<clipPath id="clip106_109_1288">
<rect width="2" height="2" fill="white" transform="translate(1379.31 484.13)"/>
</clipPath>
<clipPath id="clip107_109_1288">
<rect width="2" height="2" fill="white" transform="translate(1389.64 445.17)"/>
</clipPath>
<clipPath id="clip108_109_1288">
<rect width="2" height="2" fill="white" transform="translate(589.31 592.01)"/>
</clipPath>
<clipPath id="clip109_109_1288">
<rect width="2" height="2" fill="white" transform="translate(677.8 596.75)"/>
</clipPath>
<clipPath id="clip110_109_1288">
<rect width="2" height="2" fill="white" transform="translate(933.53 617.23)"/>
</clipPath>
<clipPath id="clip111_109_1288">
<rect width="2" height="2" fill="white" transform="translate(612.02 589.02)"/>
</clipPath>
<clipPath id="clip112_109_1288">
<rect width="2" height="2" fill="white" transform="translate(113.6 708.54)"/>
</clipPath>
<clipPath id="clip113_109_1288">
<rect width="2" height="2" fill="white" transform="translate(731.21 432.04)"/>
</clipPath>
<clipPath id="clip114_109_1288">
<rect width="2" height="2" fill="white" transform="translate(538.729 560.42)"/>
</clipPath>
<clipPath id="clip115_109_1288">
<rect width="2" height="2" fill="white" transform="translate(964.39 222.33)"/>
</clipPath>
<clipPath id="clip116_109_1288">
<rect width="2" height="2" fill="white" transform="translate(482.71 396.17)"/>
</clipPath>
<clipPath id="clip117_109_1288">
<rect width="2" height="2" fill="white" transform="translate(938.81 127.62)"/>
</clipPath>
<clipPath id="clip118_109_1288">
<rect width="2" height="2" fill="white" transform="translate(789.689 258.03)"/>
</clipPath>
<clipPath id="clip119_109_1288">
<rect width="2" height="2" fill="white" transform="translate(879.49 47.2801)"/>
</clipPath>
<clipPath id="clip120_109_1288">
<rect width="2" height="2" fill="white" transform="translate(815.229 122.17)"/>
</clipPath>
<clipPath id="clip121_109_1288">
<rect width="2" height="2" fill="white" transform="translate(882.12 78.4001)"/>
</clipPath>
<clipPath id="clip122_109_1288">
<rect width="2" height="2" fill="white" transform="translate(826.08 265.89)"/>
</clipPath>
<clipPath id="clip123_109_1288">
<rect width="2" height="2" fill="white" transform="translate(884.72 107.11)"/>
</clipPath>
<clipPath id="clip124_109_1288">
<rect width="2" height="2" fill="white" transform="translate(813.17 342.82)"/>
</clipPath>
<clipPath id="clip125_109_1288">
<rect width="2" height="2" fill="white" transform="translate(933.729 11.7)"/>
</clipPath>
<clipPath id="clip126_109_1288">
<rect width="2" height="2" fill="white" transform="translate(559.87 375.79)"/>
</clipPath>
<clipPath id="clip127_109_1288">
<rect width="2" height="2" fill="white" transform="translate(649.2 196.51)"/>
</clipPath>
<clipPath id="clip128_109_1288">
<rect width="2" height="2" fill="white" transform="translate(1422.19 176.35)"/>
</clipPath>
<clipPath id="clip129_109_1288">
<rect width="2" height="2" fill="white" transform="translate(1261.23 196.3)"/>
</clipPath>
<clipPath id="clip130_109_1288">
<rect width="2" height="2" fill="white" transform="translate(1204.73 216.89)"/>
</clipPath>
<clipPath id="clip131_109_1288">
<rect width="2" height="2" fill="white" transform="translate(598.2 585.65)"/>
</clipPath>
</defs>
</svg>
