<svg width="82" height="241" viewBox="0 0 82 241" fill="none" xmlns="http://www.w3.org/2000/svg">
<g clip-path="url(#clip0_320_170)">
<path d="M64.0889 203.52C66.5124 196.079 62.7641 188.186 55.7168 185.891C48.6695 183.595 40.9919 187.767 38.5683 195.208C36.1448 202.649 39.8931 210.542 46.9405 212.838C53.9878 215.133 61.6654 210.961 64.0889 203.52Z" fill="#FF931E"/>
<path d="M42.2901 241.34C49.7018 241.34 55.7101 234.996 55.7101 227.17C55.7101 219.344 49.7018 213 42.2901 213C34.8785 213 28.8701 219.344 28.8701 227.17C28.8701 234.996 34.8785 241.34 42.2901 241.34Z" fill="#FBB03B"/>
<path d="M64.0777 170.391C66.5012 162.95 62.7529 155.057 55.7056 152.762C48.6583 150.467 40.9806 154.638 38.5571 162.079C36.1336 169.52 39.8819 177.413 46.9292 179.709C53.9765 182.004 61.6542 177.832 64.0777 170.391Z" fill="#F15A24"/>
<path d="M53.5987 154.603C56.0222 147.162 52.2739 139.269 45.2266 136.974C38.1793 134.679 30.5016 138.85 28.0781 146.291C25.6546 153.732 29.4029 161.625 36.4502 163.921C43.4975 166.216 51.1752 162.044 53.5987 154.603Z" fill="#F15A24"/>
<path d="M33.8074 173.59C41.6084 172.966 47.4536 166.471 46.8631 159.083C46.2726 151.695 39.4699 146.211 31.6689 146.835C23.8679 147.458 18.0227 153.953 18.6132 161.341C19.2037 168.729 26.0064 174.213 33.8074 173.59Z" fill="#F15A24"/>
<path d="M30.0818 192.944C37.8828 192.32 43.7281 185.826 43.1375 178.438C42.547 171.05 35.7443 165.566 27.9433 166.189C20.1423 166.813 14.2971 173.308 14.8876 180.696C15.4782 188.084 22.2808 193.568 30.0818 192.944Z" fill="#F15A24"/>
<path d="M65.6158 189.419C68.0393 181.978 64.291 174.085 57.2437 171.79C50.1964 169.495 42.5187 173.667 40.0952 181.108C37.6717 188.549 41.42 196.442 48.4673 198.737C55.5146 201.032 63.1923 196.861 65.6158 189.419Z" fill="#FF931E"/>
<path d="M42.4371 192.081C44.8606 184.639 41.1123 176.747 34.065 174.451C27.0176 172.156 19.34 176.328 16.9165 183.769C14.493 191.21 18.2413 199.103 25.2886 201.398C32.3359 203.693 40.0135 199.522 42.4371 192.081Z" fill="#FF931E"/>
<path d="M41.6114 206.352C44.0349 198.911 40.2866 191.018 33.2393 188.723C26.192 186.428 18.5143 190.599 16.0908 198.04C13.6673 205.481 17.4156 213.374 24.4629 215.67C31.5102 217.965 39.1878 213.793 41.6114 206.352Z" fill="#FF931E"/>
<path d="M40.94 228.401C48.3517 228.401 54.36 222.056 54.36 214.231C54.36 206.405 48.3517 200.061 40.94 200.061C33.5284 200.061 27.52 206.405 27.52 214.231C27.52 222.056 33.5284 228.401 40.94 228.401Z" fill="#FBB03B"/>
<path d="M51.3399 219.59C58.7516 219.59 64.7599 213.246 64.7599 205.42C64.7599 197.594 58.7516 191.25 51.3399 191.25C43.9282 191.25 37.9199 197.594 37.9199 205.42C37.9199 213.246 43.9282 219.59 51.3399 219.59Z" fill="#FBB03B"/>
<path d="M21.46 239.66C28.8717 239.66 34.8801 233.316 34.8801 225.49C34.8801 217.664 28.8717 211.32 21.46 211.32C14.0484 211.32 8.04004 217.664 8.04004 225.49C8.04004 233.316 14.0484 239.66 21.46 239.66Z" fill="#FBB03B"/>
<path d="M62.7398 239.66C70.1515 239.66 76.1598 233.316 76.1598 225.49C76.1598 217.664 70.1515 211.32 62.7398 211.32C55.3281 211.32 49.3198 217.664 49.3198 225.49C49.3198 233.316 55.3281 239.66 62.7398 239.66Z" fill="#FBB03B"/>
<path d="M29.9201 137.74C30.1701 145.69 18.15 185.65 18.15 185.65C17.24 190.54 13.63 190.34 11.46 181.39L4.17005 149.42C0.230049 132.03 0.0100522 128.18 9.22005 115.47L21.8501 102.19C26.1901 97.7599 29.8201 100.53 29.6901 108.49L29.93 137.74H29.9201Z" fill="#B62425"/>
<path d="M52.8799 136.969C52.9499 145.179 65.4299 184.519 65.4299 184.519C66.4199 189.379 70.0299 189.069 72.0499 180.059L79.1999 147.879C82.8599 130.369 83.0199 126.519 73.5999 114.089L60.7599 101.189C56.3499 96.8894 52.7699 99.7694 53.0199 107.719L52.8799 136.979V136.969Z" fill="#B62425"/>
<path d="M54.06 41.3398C48.77 33.1698 43.71 28.3698 41.17 28.2998C38.69 28.3298 33.66 33.3398 28.46 41.8198" fill="#B72629"/>
<path d="M28.4602 41.8198C20.3102 55.0998 11.7402 76.8798 11.9602 101.32C12.0702 113.17 12.3502 138.26 27.3302 148.85C36.2302 155.14 48.4202 154.98 57.2002 148.45C71.9902 137.46 71.8102 112.38 71.7002 100.52C71.4802 75.9298 62.4802 54.3598 54.0602 41.3398L28.4602 41.8198Z" fill="#E6E6E6"/>
<path d="M39.1499 184.359C39.1899 188.469 38.7199 191.549 42.8199 191.509C46.9299 191.469 46.3799 188.389 46.3299 184.279L52.8799 126.209C52.8399 122.099 45.7899 111.659 41.9499 111.959C37.8399 112.009 31.0299 122.599 31.3299 126.449L39.1499 184.359Z" fill="#B62425"/>
<path d="M33.0402 86.1495C27.9202 81.1395 27.8301 72.9394 32.8401 67.8194C37.8501 62.6994 46.0502 62.6095 51.1702 67.6195C56.2902 72.6295 56.3801 80.8294 51.3701 85.9494C46.3601 91.0694 38.1602 91.1595 33.0402 86.1495Z" fill="#4F5D73"/>
<path d="M34.2102 84.9598C29.7502 80.5998 29.6702 73.4498 34.0302 68.9998C38.3902 64.5398 45.5402 64.4598 49.9902 68.8198C54.4502 73.1798 54.5302 80.3298 50.1702 84.7798C45.8102 89.2398 38.6602 89.3198 34.2102 84.9598Z" fill="url(#paint0_radial_320_170)"/>
</g>
<defs>
<radialGradient id="paint0_radial_320_170" cx="0" cy="0" r="1" gradientUnits="userSpaceOnUse" gradientTransform="translate(42.1002 76.8898) scale(98.54 98.54)">
<stop stop-color="#29ABE2"/>
<stop offset="0.14" stop-color="#1F85AF"/>
<stop offset="0.3" stop-color="#165C7A"/>
<stop offset="0.46" stop-color="#0E3B4E"/>
<stop offset="0.61" stop-color="#08212C"/>
<stop offset="0.76" stop-color="#030F13"/>
<stop offset="0.89" stop-color="#000305"/>
<stop offset="1"/>
</radialGradient>
<clipPath id="clip0_320_170">
<rect width="82" height="241" fill="white"/>
</clipPath>
</defs>
</svg>
