<svg width="234" height="233" viewBox="0 0 234 233" fill="none" xmlns="http://www.w3.org/2000/svg">
<ellipse cx="116.32" cy="160.436" rx="52" ry="20.5" fill="#C4BEBE"/>
<g opacity="0.2">
<path d="M99.3496 117.322C99.6938 125.274 83.4522 165.231 83.4522 165.231C82.2228 170.12 77.3445 169.917 74.4231 160.967L64.5758 128.996C59.2518 111.604 58.9528 107.758 71.388 95.0456L88.4364 81.7697C94.2903 77.3425 99.1968 80.1115 99.0278 88.069L99.3496 117.322Z" fill="#231F20"/>
</g>
<g opacity="0.2">
<path d="M125.009 117.04C125.099 125.252 141.957 164.588 141.957 164.588C143.293 169.449 148.166 169.139 150.89 160.127L160.544 127.941C165.484 110.436 165.699 106.584 152.987 94.1487L135.65 81.2511C129.7 76.9538 124.856 79.8301 125.2 87.782L125.009 117.04Z" fill="#231F20"/>
</g>
<path d="M104.424 112.133C104.768 120.085 88.5269 160.042 88.5269 160.042C87.2975 164.932 82.4192 164.729 79.4978 155.779L69.6505 123.808C64.3265 106.415 64.0275 102.569 76.4627 89.857L93.5112 76.5811C99.365 72.1539 104.272 74.9229 104.102 82.8804L104.424 112.133Z" fill="#C75C5C"/>
<path d="M130.085 111.851C130.175 120.062 147.033 159.398 147.033 159.398C148.369 164.26 153.242 163.95 155.966 154.937L165.62 122.752C170.56 105.246 170.775 101.395 158.063 88.9593L140.726 76.0617C134.777 71.7644 129.932 74.6407 130.276 82.5925L130.085 111.851Z" fill="#C75C5C"/>
<g opacity="0.2">
<path d="M128.134 144.465C127.846 118.292 112.889 111.784 112.889 111.784C112.889 111.784 98.0855 119.132 98.3678 144.793C98.6501 170.453 110.539 201.375 113.872 201.082C116.697 201.307 128.162 170.385 128.134 144.465Z" fill="#231F20"/>
</g>
<g opacity="0.2">
<path d="M76.1133 81.392C76.5537 121.422 113.014 146.428 113.014 146.428C113.014 146.428 148.916 120.626 148.475 80.5958C148.035 40.5657 119.453 8.5443 111.495 8.37522C103.797 8.45992 75.6728 41.3619 76.1133 81.392Z" fill="#231F20"/>
</g>
<path d="M81.189 76.204C81.6294 116.234 118.09 141.24 118.09 141.24C118.09 141.24 153.992 115.438 153.551 75.4079C153.111 35.3777 124.529 3.35631 116.571 3.18723C108.873 3.27193 80.7485 36.1739 81.189 76.204Z" fill="#E0E0D1"/>
<path d="M114.695 159.242C114.74 163.348 114.261 166.433 118.366 166.388C122.472 166.343 121.925 163.269 121.88 159.163L128.426 101.092C128.381 96.9862 121.337 86.5417 117.491 86.8407C113.385 86.8859 106.573 97.4828 106.872 101.329L114.695 159.242Z" fill="#C75C5C"/>
<g opacity="0.2">
<path d="M101.717 75.9781C95.9859 70.3717 95.8848 61.1809 101.491 55.4498C107.098 49.7187 116.288 49.6176 122.019 55.2239C127.751 60.8303 127.852 70.0211 122.245 75.7522C116.639 81.4833 107.448 81.5844 101.717 75.9781Z" fill="#231F20"/>
</g>
<g opacity="0.2">
<path d="M106.217 41.7964C103.351 38.9932 103.301 34.3978 106.104 31.5323C108.907 28.6667 113.503 28.6162 116.368 31.4193C119.234 34.2225 119.284 38.8179 116.481 41.6835C113.678 44.549 109.082 44.5996 106.217 41.7964Z" fill="#231F20"/>
</g>
<path d="M106.793 70.7902C101.062 65.1838 100.96 55.993 106.567 50.2619C112.173 44.5308 121.364 44.4297 127.095 50.0361C132.826 55.6424 132.927 64.8332 127.321 70.5643C121.715 76.2954 112.524 76.3965 106.793 70.7902Z" fill="#4F5D73"/>
<path d="M111.292 36.6082C108.427 33.805 108.376 29.2096 111.179 26.344C113.982 23.4785 118.578 23.4279 121.443 26.2311C124.309 29.0343 124.359 33.6297 121.556 36.4952C118.753 39.3608 114.158 39.4113 111.292 36.6082Z" fill="#4F5D73"/>
</svg>
