<svg width="1002" height="1000" viewBox="0 0 1002 1000" fill="none" xmlns="http://www.w3.org/2000/svg">
<g clip-path="url(#clip0_252_25)">
<path d="M499.63 1000.79C775.695 1000.79 999.49 776.995 999.49 500.93C999.49 224.865 775.695 1.06982 499.63 1.06982C223.565 1.06982 -0.22998 224.865 -0.22998 500.93C-0.22998 776.995 223.565 1000.79 499.63 1000.79Z" fill="#0071BC"/>
<mask id="mask0_252_25" style="mask-type:luminance" maskUnits="userSpaceOnUse" x="0" y="0" width="1001" height="1001">
<path d="M500.27 1000.16C776.335 1000.16 1000.13 776.365 1000.13 500.3C1000.13 224.235 776.335 0.439941 500.27 0.439941C224.205 0.439941 0.410156 224.235 0.410156 500.3C0.410156 776.365 224.205 1000.16 500.27 1000.16Z" fill="white"/>
</mask>
<g mask="url(#mask0_252_25)">
<path d="M985.6 598.72C914.15 594.84 842.42 595.96 771.13 602.09C742.31 604.57 713.31 607.91 685.85 617.01C613.91 640.83 560.33 701.16 517.8 763.88C487.9 807.98 458.21 857.46 408.66 877.04C379.54 888.55 347.04 888.03 317.01 896.91C286.46 905.94 258.95 924.93 239.66 950.28C235.03 956.36 230.77 963.02 229.36 970.53C226.22 987.18 237.57 1003 249.75 1014.78C309.86 1072.91 399.7 1087.15 483.32 1087.49C581.7 1087.89 680.12 1073.01 773.97 1043.53C810.8 1031.96 847.22 1018.03 879.78 997.29C974.92 936.71 1025.53 826.67 1061.07 719.63C1069.8 693.34 1077.43 662.62 1062.18 639.5C1050.74 622.16 1029.4 614.32 1009 610.35C988.6 606.38 967.29 605.05 948.57 596.06" fill="#00A99D"/>
<path d="M985.6 594.22C943.27 591.94 900.86 591.38 858.49 592.59C817.46 593.77 776.06 595.83 735.37 601.45C698.82 606.5 664.25 617.52 632.95 637.3C604.7 655.15 580.01 678.21 558.17 703.39C536 728.95 517.24 756.88 498.29 784.83C480.48 811.11 461.41 838 435.5 856.95C421.89 866.9 406.83 873.95 390.5 878.12C371.91 882.87 352.74 884.57 333.94 888.23C299.86 894.87 268.53 911.13 244.98 936.92C233.62 949.36 222.04 964.25 224.83 982.11C227.49 999.1 240.4 1012.72 252.74 1023.69C277.18 1045.43 306.4 1060.91 337.29 1071.34C404.03 1093.87 477.17 1094.49 546.75 1090.14C627.19 1085.11 707.13 1070.08 783.77 1045.13C819.75 1033.42 855.29 1019.06 886.92 998.02C913.96 980.04 937.9 957.7 958.5 932.65C1000.62 881.46 1029.28 820.7 1052.12 758.87C1057.86 743.32 1063.5 727.65 1068.3 711.78C1073.2 695.56 1076.99 678.27 1074.72 661.28C1072.52 644.82 1063.9 630.84 1050.29 621.36C1036.68 611.88 1020.36 607.73 1004.36 604.95C986.33 601.82 967.62 600.04 950.85 592.18C945.64 589.73 941.06 597.49 946.31 599.95C977.51 614.58 1015.54 608.94 1044.73 628.44C1075.79 649.19 1066.62 688.6 1056.74 718.45C1036.52 779.52 1012.02 840.07 976.16 893.8C958.57 920.15 938.1 944.64 914.33 965.65C888.42 988.56 858.69 1006.21 826.9 1019.69C791.53 1034.69 754.27 1045.62 717.03 1054.87C678.67 1064.4 639.71 1071.59 600.47 1076.27C561.23 1080.95 522.46 1083.17 483.32 1083.01C450.63 1082.87 417.83 1080.72 385.68 1074.59C354.16 1068.59 323.12 1058.8 295.12 1042.93C281.34 1035.12 268.38 1025.89 256.71 1015.17C245.04 1004.45 231.51 990.07 233.48 973.17C234.54 964.09 240.51 956.17 246.13 949.31C251.18 943.15 256.72 937.4 262.68 932.12C275.13 921.08 289.6 912.04 305.05 905.84C339.07 892.18 377.09 894.72 411.03 880.92C470.69 856.67 500.68 794.1 536.59 744.97C574.79 692.7 623.05 642.98 685.79 621.78C723.39 609.07 763.92 606.73 803.24 604.19C844.16 601.54 885.19 600.53 926.2 601.16C946.01 601.47 965.82 602.17 985.61 603.23C991.4 603.54 991.38 594.54 985.61 594.23L985.6 594.22Z" fill="#0071BC"/>
</g>
<path d="M154.77 299.79C166.65 293.93 186.24 289.06 221.87 299.79C305.69 325.05 369.58 412.54 416.56 505.12C435.16 541.78 441.3 585.42 429.47 624.79C417.64 664.16 386.83 698.26 347.51 710.27C304.56 723.4 253.9 711.13 216.62 736.19C199.59 747.64 184.02 767 163.72 764C146.96 761.52 136.78 744.66 129.37 729.43C105.23 679.77 85.1702 628.24 65.1402 576.78C47.0402 530.26 45.2002 504.6 46.1702 492.23C48.8802 457.53 62.7302 455.37 110.29 361.91C128.69 325.74 135.06 309.47 154.76 299.76L154.77 299.79Z" fill="#00A99D"/>
<path d="M159.32 307.56C159.92 307.26 160.53 306.97 161.15 306.7C163.52 305.63 159.32 307.39 161.28 306.63C162.83 306.03 164.39 305.46 165.98 304.97C167.57 304.48 169.25 304.05 170.9 303.69C171.79 303.5 172.69 303.32 173.59 303.17C173.98 303.1 174.37 303.05 174.76 302.98C176.9 302.62 172.76 303.2 174.54 303C179.14 302.49 183.74 302.33 188.36 302.54C190.97 302.66 193.55 302.92 196.14 303.2C198.49 303.45 194.13 302.89 196.52 303.25C196.99 303.32 197.47 303.39 197.94 303.46C199.66 303.73 201.38 304.03 203.1 304.37C214.64 306.63 226.51 309.96 237.23 314.86C235.04 313.86 237.07 314.8 237.48 314.98C238.08 315.24 238.68 315.5 239.27 315.77C240.46 316.3 241.65 316.85 242.83 317.41C245.4 318.62 247.95 319.89 250.46 321.21C255.15 323.67 259.74 326.31 264.23 329.11C268.98 332.07 273.62 335.2 278.14 338.48C279.24 339.28 280.33 340.08 281.41 340.9C281.77 341.17 282.13 341.45 282.5 341.72C282.81 341.95 284.66 343.35 282.84 341.97C285.2 343.77 287.51 345.65 289.79 347.54C298.61 354.85 306.97 362.69 314.94 370.91C322.91 379.13 331 388.34 338.45 397.55C340.31 399.85 342.14 402.17 343.96 404.5C345.49 406.46 342.86 403.05 344.37 405.03C344.82 405.62 345.27 406.21 345.72 406.8C346.62 407.99 347.52 409.18 348.41 410.38C352.15 415.4 355.8 420.49 359.37 425.65C373.62 446.26 386.51 467.8 398.41 489.84C401.34 495.28 404.22 500.75 407.04 506.24C408.48 509.05 409.91 511.86 411.25 514.72C411.93 516.17 412.59 517.63 413.23 519.11C413.32 519.31 414.34 521.77 413.58 519.91C413.99 520.9 414.39 521.89 414.78 522.89C419.58 535.09 423.05 547.83 425 560.79C425.04 561.06 425.41 563.71 425.13 561.57C425.2 562.1 425.27 562.63 425.33 563.16C425.52 564.75 425.69 566.34 425.84 567.94C426.16 571.39 426.37 574.85 426.46 578.31C426.64 584.96 426.41 591.61 425.73 598.23C425.59 599.55 425.44 600.87 425.27 602.19C425.55 600.04 425.19 602.68 425.15 602.96C425.03 603.75 424.9 604.54 424.77 605.32C424.19 608.73 423.5 612.12 422.67 615.48C421.28 621.14 419.54 626.71 417.43 632.15C417.18 632.79 416.92 633.42 416.67 634.06C415.82 636.24 417.46 632.3 416.52 634.44C415.97 635.7 415.41 636.95 414.83 638.2C413.57 640.9 412.21 643.55 410.77 646.16C408.11 650.97 405.16 655.62 401.94 660.07C401.54 660.63 401.13 661.18 400.72 661.73C400.49 662.04 399.13 663.93 400.46 662.09C399.66 663.2 398.75 664.25 397.88 665.3C395.98 667.58 394.01 669.8 391.96 671.95C388.19 675.91 384.17 679.63 379.92 683.07C379.39 683.5 378.87 683.96 378.32 684.35C380.18 683.05 378.29 684.36 377.98 684.6C376.89 685.42 375.78 686.21 374.67 686.99C372.25 688.68 369.77 690.28 367.23 691.78C364.98 693.11 362.7 694.36 360.37 695.54C359.26 696.1 358.13 696.64 357 697.17C356.38 697.46 355.76 697.74 355.14 698.01C354.72 698.19 354.31 698.37 353.89 698.55C354.99 698.09 355.08 698.04 354.15 698.43C348.64 700.56 343.07 702.38 337.31 703.73C334.67 704.35 332.01 704.89 329.35 705.37C327.89 705.63 326.42 705.87 324.96 706.09C324.22 706.2 323.49 706.31 322.75 706.41C321.71 706.55 321.77 706.55 322.93 706.39C322.44 706.45 321.94 706.52 321.45 706.58C296.82 709.62 271.72 708.79 247.37 714.09C235.44 716.68 223.62 721.01 213.33 727.65C208.19 730.97 203.41 734.84 198.65 738.68C196.45 740.46 194.26 742.25 192.04 744C191.76 744.22 189.86 745.66 191.64 744.31C191.08 744.73 190.53 745.15 189.97 745.57C188.68 746.53 187.37 747.46 186.03 748.36C183.81 749.85 181.52 751.25 179.13 752.46C178.55 752.75 177.95 753.03 177.37 753.31C175.87 754.03 177.57 753.29 177.74 753.17C176.66 753.94 174.77 754.26 173.51 754.6C172.43 754.89 170.91 755.47 169.79 755.37C172.1 755.57 170.35 755.27 169.64 755.31C169 755.35 168.35 755.36 167.71 755.36C167.07 755.36 166.4 755.29 165.75 755.27C163.52 755.22 167.67 755.71 165.5 755.27C164.02 754.96 162.57 754.64 161.14 754.15L160.54 753.94C159.62 753.58 159.75 753.64 160.93 754.13C160.42 754.06 159.69 753.55 159.23 753.31C158.11 752.73 157.03 752.07 155.98 751.37C155.63 751.13 155.29 750.88 154.94 750.64C153.17 749.38 156.37 751.94 154.75 750.47C153.63 749.45 152.49 748.46 151.44 747.38C150.52 746.43 149.64 745.45 148.79 744.44C148.36 743.93 147.92 743.42 147.53 742.88C148.88 744.76 147.55 742.88 147.32 742.55C145.59 740.16 144.01 737.66 142.53 735.11C135.8 723.54 130.46 711.06 124.93 698.88C121.95 692.33 119.03 685.74 116.15 679.14C113.27 672.54 110.26 665.46 107.88 659.76C96.64 632.9 86.05 605.77 75.49 578.64C67.28 557.56 59.67 535.96 56.21 513.52C56.07 512.62 56 511.69 55.82 510.8C56.49 514.08 55.86 511.02 55.76 510.19C55.57 508.49 55.4 506.79 55.28 505.09C55.09 502.47 54.98 499.83 55 497.2C55.02 494.95 55.15 492.71 55.36 490.48C55.46 489.42 55.58 488.36 55.7 487.3C55.97 484.94 55.35 489.63 55.64 487.76C55.74 487.14 55.83 486.51 55.93 485.89C56.6 481.83 57.5999 477.82 58.9699 473.93C59.2999 473 59.65 472.07 60.01 471.15C60.33 470.35 61.27 468.35 59.77 471.68C60 471.18 60.21 470.67 60.43 470.16C61.32 468.17 62.28 466.22 63.29 464.29C68.82 453.68 75.3299 443.58 81.4399 433.31C92.4399 414.81 102.86 395.98 112.78 376.88C118.89 365.11 124.7 353.18 130.82 341.42C133.06 337.12 135.35 332.85 137.86 328.71C138.95 326.91 140.08 325.13 141.28 323.39C141.84 322.57 142.42 321.76 143.01 320.96C143.39 320.45 144.56 319.19 142.77 321.24C143.18 320.76 143.56 320.25 143.96 319.77C146.21 317.06 148.73 314.72 151.37 312.4C152.67 311.26 149.55 313.7 150.97 312.7C151.34 312.44 151.7 312.16 152.07 311.9C152.82 311.37 153.58 310.86 154.36 310.38C155.97 309.37 157.64 308.45 159.35 307.6C163.57 305.5 165.09 299.18 162.58 295.29C159.79 290.97 154.78 289.81 150.27 292.06C133.42 300.45 123.7 316.18 115.29 332.34C103.22 355.51 91.75 378.94 78.93 401.72C71.07 415.69 62.74 429.36 54.57 443.15C49.43 451.83 44.4099 460.7 41.2199 470.32C38.2299 479.34 36.93 489.22 37.02 498.7C37.18 515.89 41.26 533.14 46.18 549.51C50.2 562.88 55.2 575.89 60.27 588.89C65.72 602.88 71.19 616.85 76.76 630.79C88.13 659.23 99.91 687.53 112.78 715.33C118.2 727.04 123.33 739.27 130.63 749.97C137.93 760.67 146.99 769.65 159.45 772.39C171.91 775.13 184.55 771.05 195.14 763.93C200.42 760.38 205.36 756.33 210.3 752.33C211.4 751.44 212.5 750.55 213.6 749.67C214.15 749.23 214.7 748.79 215.25 748.36C215.53 748.14 215.8 747.93 216.08 747.71C217.1 746.91 214.88 748.61 215.92 747.84C218.26 746.11 220.59 744.38 223.06 742.83C225.53 741.28 228.25 739.75 230.96 738.43C231.6 738.12 232.25 737.81 232.91 737.51C233.21 737.37 235.14 736.53 234.13 736.96C233.12 737.39 235.06 736.59 235.37 736.47C236.26 736.12 237.15 735.79 238.05 735.47C243.69 733.46 249.5 731.96 255.38 730.83C258.29 730.27 261.4 729.48 264.36 729.35C262.74 729.42 264.06 729.39 264.88 729.29C265.61 729.2 266.34 729.11 267.07 729.03C268.66 728.85 270.25 728.68 271.85 728.53C278.04 727.93 284.25 727.52 290.46 727.13C303.49 726.31 316.5 725.49 329.42 723.55C342.34 721.61 353.75 718.35 365.21 713.18C387.1 703.29 405.53 686.6 419.15 666.96C433.72 645.96 441.84 621.28 444.03 595.9C446.37 568.72 441.53 540.72 431.16 515.55C425.99 503.01 419.57 491.03 413.1 479.11C406.97 467.82 400.58 456.67 393.88 445.71C380.51 423.84 365.87 402.73 349.63 382.88C334.56 364.46 317.97 347.18 299.41 332.26C281.17 317.59 261.42 305.32 239.67 296.57C218.03 287.86 193.87 282.14 170.51 285.61C163.44 286.66 156.71 288.94 150.3 292.08C146.06 294.16 144.57 300.52 147.07 304.39C149.87 308.73 154.85 309.84 159.38 307.62L159.32 307.56Z" fill="#0071BC"/>
<mask id="mask1_252_25" style="mask-type:luminance" maskUnits="userSpaceOnUse" x="-1" y="1" width="1001" height="1000">
<path d="M499.63 1000.79C775.695 1000.79 999.49 776.995 999.49 500.93C999.49 224.865 775.695 1.06982 499.63 1.06982C223.565 1.06982 -0.22998 224.865 -0.22998 500.93C-0.22998 776.995 223.565 1000.79 499.63 1000.79Z" fill="white"/>
</mask>
<g mask="url(#mask1_252_25)">
<path d="M456.64 5.18978C438.37 61.1198 459.59 127.62 506.88 162.63C525.72 176.58 547.67 185.6 567.98 197.31C652.17 245.87 701.99 336.05 769.75 405.73C809.82 446.94 856.83 481.39 908.2 507.18C916.38 511.29 925.57 515.28 934.41 512.9C939.42 511.55 943.68 508.28 947.45 504.71C973.11 480.4 979.58 442.41 982.17 407.15C984.15 380.19 984.69 352.9 979.83 326.3C974.12 295.05 961.06 265.53 945.1 238.06C923.94 201.64 897.64 168.47 870 136.69C849.5 113.13 828 90.0598 802.39 72.1698C774.97 53.0198 743.64 40.3498 712.54 28.0398C691.98 19.9098 671.33 11.8498 649.96 6.20979C587.64 -10.2202 521.74 -5.43022 457.95 3.77978" fill="#00A99D"/>
<path d="M452.3 3.98984C438.33 47.1798 446.92 96.4798 472.73 133.55C479.27 142.94 486.85 151.62 495.46 159.17C505.35 167.83 516.49 174.85 528 181.15C540.21 187.84 552.81 193.81 564.9 200.73C575.49 206.79 585.64 213.57 595.37 220.93C634.31 250.39 665.64 288.6 696.13 326.37C728.02 365.86 759.75 405.44 798.23 438.83C818.95 456.81 841.09 473.2 864.36 487.73C875.77 494.85 887.46 501.53 899.4 507.74C911.34 513.95 925.98 522.09 939.92 515.64C945.6 513.01 950.39 508.47 954.59 503.9C958.79 499.33 962.2 494.74 965.32 489.7C971.69 479.38 976.14 467.86 979.26 456.17C986.02 430.87 987.68 403.85 988.08 377.77C988.53 348.36 984.92 319.33 975.16 291.49C965.81 264.81 952.23 239.76 936.87 216.1C921.25 192.05 903.6 169.35 885.12 147.44C866.64 125.53 848.63 104.83 827.6 86.3698C806.57 67.9098 782.17 53.1898 756.35 41.4598C743.5 35.6198 730.42 30.3298 717.3 25.1298C703.35 19.5998 689.39 14.0598 675.18 9.20984C647.03 -0.39016 617.98 -6.10016 588.32 -8.14016C558.66 -10.1802 529.07 -8.87016 499.63 -5.89016C485.3 -4.44016 471.02 -2.59016 456.76 -0.540159C454.35 -0.190159 453.03 2.85983 453.62 4.99983C454.33 7.58983 456.74 8.48983 459.16 8.13983C516.12 -0.0601664 574.97 -4.88016 631.83 6.62984C660.53 12.4398 687.78 23.0498 714.92 33.8098C740.59 43.9898 766.27 54.5998 789.78 69.2498C812.93 83.6698 832.81 102.39 851.22 122.39C869.95 142.74 887.92 163.97 904.65 186.01C937.64 229.46 968.14 278.7 976.51 333.52C980.78 361.51 979.53 390.48 976.7 418.56C974.38 441.51 969.83 465.28 957.55 485.17C954.54 490.04 951.09 494.58 947.13 498.72C943.17 502.86 938.3 507.55 932.3 508.81C926.3 510.07 919.49 507.61 913.91 505C907.78 502.13 901.79 498.91 895.84 495.68C872.47 482.98 850.08 468.47 828.93 452.34C807.78 436.21 788.29 418.64 770.06 399.61C753.39 382.2 737.89 363.71 722.68 345.02C692.34 307.73 663.02 269.19 627.63 236.44C610.17 220.28 591.22 205.59 570.61 193.66C547.81 180.46 522.52 170.75 502.4 153.33C469.46 124.81 451.89 80.3098 454.98 36.9998C455.72 26.5898 457.77 16.3398 460.98 6.40984C462.77 0.889838 454.08 -1.48016 452.3 4.01984V3.98984Z" fill="#0071BC"/>
</g>
<g opacity="0.29">
<path d="M499.63 1000.79C775.695 1000.79 999.49 776.995 999.49 500.93C999.49 224.865 775.695 1.06982 499.63 1.06982C223.565 1.06982 -0.22998 224.865 -0.22998 500.93C-0.22998 776.995 223.565 1000.79 499.63 1000.79Z" fill="url(#paint0_radial_252_25)"/>
</g>
<g opacity="0.29">
<path d="M500.27 1000.16C776.335 1000.16 1000.13 776.365 1000.13 500.3C1000.13 224.235 776.335 0.439941 500.27 0.439941C224.205 0.439941 0.410156 224.235 0.410156 500.3C0.410156 776.365 224.205 1000.16 500.27 1000.16Z" fill="url(#paint1_linear_252_25)"/>
</g>
<g opacity="0.29">
<path d="M714.24 116.02C947.28 264.01 1016.23 572.9 868.23 805.95C836.4 856.07 797.12 898.6 752.76 933.01C819.96 894.04 879.05 838.79 923.58 768.68C1071.57 535.64 1002.63 226.75 769.59 78.75C586.67 -37.41 357.03 -19.91 195.13 105.68C351.3 15.12 551.31 12.54 714.24 116.01V116.02Z" fill="#5DCFE2"/>
</g>
<mask id="mask2_252_25" style="mask-type:luminance" maskUnits="userSpaceOnUse" x="-316" y="-245" width="1277" height="814">
<path d="M227.5 -182.04C198.39 -146.76 253.4 -12.06 364.38 64.75C472.42 139.52 604.21 139.87 643.97 139.04C706.71 137.74 770.31 127.68 831.67 140.85C893.03 154.02 953.77 198.73 960.06 261.17C962.06 281.03 958.18 301.76 947.37 318.54C933.81 339.59 910.94 352.64 888.2 363.14C741.63 430.84 567.98 425.28 425.48 501.18C371.74 529.8 319.22 570.71 258.37 568.41C225.59 567.17 194.62 553.1 166.5 536.21C145.11 523.37 123.39 506.84 116.79 482.78C110.37 459.4 119.94 434.55 132.7 413.94C159.66 370.4 200.43 337.61 237.4 302.18C245.68 294.24 253.97 285.91 258.88 275.53C264.77 263.08 265.26 248.73 263.78 235.04C256.76 170.04 206.33 114.5 145.28 91.11C84.2299 67.72 14.7999 73.3 -46.6501 95.64C-108.1 117.99 -162.61 155.99 -213.42 197.15C-231.97 212.18 -256.51 228.56 -277.67 217.5C-287.71 212.25 -293.95 201.89 -298.69 191.6C-335.56 111.55 -307.8 12.73 -249.64 -53.49C-191.49 -119.71 -108.3 -158.52 -24.6501 -186.26C52.8199 -211.95 132.78 -229.75 213.46 -242.09C218.08 -242.8 232.98 -248.51 246.28 -241.62C255.22 -236.99 263.82 -226.76 263.38 -216.5C262.65 -199.55 237.77 -194.48 227.5 -182.03V-182.04Z" fill="white"/>
</mask>
<g mask="url(#mask2_252_25)">
<g opacity="0.29">
<path d="M500.27 1000.16C776.335 1000.16 1000.13 776.365 1000.13 500.3C1000.13 224.235 776.335 0.439941 500.27 0.439941C224.205 0.439941 0.410156 224.235 0.410156 500.3C0.410156 776.365 224.205 1000.16 500.27 1000.16Z" fill="url(#paint2_linear_252_25)"/>
</g>
</g>
<mask id="mask3_252_25" style="mask-type:luminance" maskUnits="userSpaceOnUse" x="-272" y="764" width="1370" height="573">
<path d="M-247.73 1260.29C-332.5 1133.52 -179.49 807.15 -6.17996 770.39C27.01 763.35 93.84 757.47 158.62 785.59C219.55 812.03 265.81 864.63 325.64 893.47C385.95 922.55 458.54 924.97 520.66 899.98C557.32 885.23 590.03 861.63 627.23 848.31C658.08 837.26 704.13 830.13 865.06 867.93C1017.61 903.76 1093.89 921.68 1097.02 939.7C1117.2 1055.67 -77.2399 1515.24 -247.73 1260.29Z" fill="white"/>
</mask>
<g mask="url(#mask3_252_25)">
<g opacity="0.29">
<path d="M500.27 1000.16C776.335 1000.16 1000.13 776.365 1000.13 500.3C1000.13 224.235 776.335 0.439941 500.27 0.439941C224.205 0.439941 0.410156 224.235 0.410156 500.3C0.410156 776.365 224.205 1000.16 500.27 1000.16Z" fill="url(#paint3_linear_252_25)"/>
</g>
</g>
<mask id="mask4_252_25" style="mask-type:luminance" maskUnits="userSpaceOnUse" x="417" y="436" width="875" height="364">
<path d="M1038.09 439.4C1000.34 429.92 917.48 446.55 753.29 480.19C753.29 480.19 464.88 539.29 425.3 621.19C414.85 642.8 417.6 662.48 417.6 662.48C421.92 693.45 449.15 712.31 457.02 717.76C491.19 741.42 529.65 741.05 539.1 741.04C657.41 741.04 734.81 800.2 934.77 799.78C1067.08 799.5 1256.16 799.1 1287.32 715.45C1318.44 631.89 1187.61 476.95 1038.08 439.39L1038.09 439.4Z" fill="white"/>
</mask>
<g mask="url(#mask4_252_25)">
<g opacity="0.29">
<path d="M500.27 1000.16C776.335 1000.16 1000.13 776.365 1000.13 500.3C1000.13 224.235 776.335 0.439941 500.27 0.439941C224.205 0.439941 0.410156 224.235 0.410156 500.3C0.410156 776.365 224.205 1000.16 500.27 1000.16Z" fill="url(#paint4_linear_252_25)"/>
</g>
</g>
</g>
<defs>
<radialGradient id="paint0_radial_252_25" cx="0" cy="0" r="1" gradientUnits="userSpaceOnUse" gradientTransform="translate(499.63 500.93) scale(499.86 499.86)">
<stop stop-color="white" stop-opacity="0"/>
<stop offset="1" stop-color="#29ABE2"/>
</radialGradient>
<linearGradient id="paint1_linear_252_25" x1="1280.81" y1="-215.4" x2="222.81" y2="754.71" gradientUnits="userSpaceOnUse">
<stop stop-color="white" stop-opacity="0"/>
<stop offset="1" stop-color="#29ABE2"/>
</linearGradient>
<linearGradient id="paint2_linear_252_25" x1="1280.81" y1="-215.4" x2="222.81" y2="754.71" gradientUnits="userSpaceOnUse">
<stop stop-color="white" stop-opacity="0"/>
<stop offset="1" stop-color="#29ABE2"/>
</linearGradient>
<linearGradient id="paint3_linear_252_25" x1="1280.81" y1="-215.4" x2="222.81" y2="754.71" gradientUnits="userSpaceOnUse">
<stop stop-color="white" stop-opacity="0"/>
<stop offset="1" stop-color="#29ABE2"/>
</linearGradient>
<linearGradient id="paint4_linear_252_25" x1="1280.81" y1="-215.4" x2="222.81" y2="754.71" gradientUnits="userSpaceOnUse">
<stop stop-color="white" stop-opacity="0"/>
<stop offset="1" stop-color="#29ABE2"/>
</linearGradient>
<clipPath id="clip0_252_25">
<rect width="1002" height="1000" fill="white"/>
</clipPath>
</defs>
</svg>
