<svg width="6010" height="6132" viewBox="0 0 6010 6132" fill="none" xmlns="http://www.w3.org/2000/svg">
<g clip-path="url(#clip0_211_2)">
<path d="M2998.71 6131.62C4655.09 6131.62 5997.85 4788.89 5997.85 3132.54C5997.85 1476.2 4655.09 133.464 2998.71 133.464C1342.34 133.464 -0.422852 1476.2 -0.422852 3132.54C-0.422852 4788.89 1342.34 6131.62 2998.71 6131.62Z" fill="#0071BC"/>
<mask id="mask0_211_2" style="mask-type:luminance" maskUnits="userSpaceOnUse" x="3" y="129" width="5999" height="5999">
<path d="M3002.56 6127.78C4658.93 6127.78 6001.69 4785.05 6001.69 3128.7C6001.69 1472.36 4658.93 129.624 3002.56 129.624C1346.18 129.624 3.41699 1472.36 3.41699 3128.7C3.41699 4785.05 1346.18 6127.78 3002.56 6127.78Z" fill="white"/>
</mask>
<g mask="url(#mask0_211_2)">
<path d="M5914.51 3719.21C5485.82 3695.93 5055.44 3702.65 4627.7 3739.43C4454.78 3754.31 4280.79 3774.35 4116.03 3828.94C3684.39 3971.86 3362.91 4333.83 3107.73 4710.14C2928.34 4974.73 2750.2 5271.61 2452.9 5389.08C2278.18 5458.14 2083.18 5455.02 1903 5508.3C1719.7 5562.48 1554.65 5676.42 1438.91 5828.51C1411.13 5864.99 1385.57 5904.95 1377.11 5950.01C1358.27 6049.91 1426.37 6144.82 1499.45 6215.5C1860.1 6564.27 2399.14 6649.71 2900.86 6651.75C3491.13 6654.15 4081.65 6564.87 4644.74 6388C4865.72 6318.58 5084.24 6235 5279.6 6110.56C5850.43 5747.09 6154.09 5086.87 6367.33 4444.65C6419.71 4286.91 6465.49 4102.6 6373.99 3963.88C6305.35 3859.84 6177.31 3812.8 6054.91 3788.99C5932.51 3765.17 5804.65 3757.19 5692.33 3703.25" fill="#009245"/>
<path d="M5914.51 3692.21C5660.54 3678.53 5406.08 3675.17 5151.86 3682.43C4905.68 3689.51 4657.28 3701.87 4413.14 3735.59C4193.85 3765.89 3986.43 3832 3798.63 3950.68C3629.13 4057.78 3480.99 4196.14 3349.95 4347.21C3216.93 4500.57 3104.37 4668.14 2990.68 4835.84C2883.82 4993.51 2769.4 5154.85 2613.94 5268.55C2532.28 5328.25 2441.92 5370.54 2343.94 5395.56C2232.4 5424.06 2117.38 5434.26 2004.58 5456.22C1800.1 5496.06 1612.13 5593.62 1470.83 5748.35C1402.67 5822.99 1333.19 5912.33 1349.93 6019.49C1365.89 6121.42 1443.35 6203.14 1517.39 6268.96C1664.03 6399.4 1839.34 6492.27 2024.68 6554.85C2425.12 6690.03 2863.96 6693.75 3281.43 6667.65C3764.07 6637.47 4243.71 6547.29 4703.54 6397.6C4919.42 6327.34 5132.66 6241.18 5322.44 6114.94C5484.68 6007.07 5628.32 5873.03 5751.91 5722.73C6004.63 5415.6 6176.59 5051.05 6313.63 4680.08C6348.07 4586.78 6381.91 4492.77 6410.71 4397.55C6440.11 4300.23 6462.85 4196.5 6449.23 4094.56C6436.03 3995.8 6384.31 3911.92 6302.65 3855.04C6220.99 3798.17 6123.07 3773.27 6027.07 3756.59C5918.89 3737.81 5806.63 3727.13 5706.01 3679.97C5674.76 3665.27 5647.28 3711.83 5678.78 3726.59C5865.97 3814.37 6094.15 3780.53 6269.29 3897.52C6455.65 4022.02 6400.63 4258.47 6341.35 4437.57C6220.03 4803.98 6073.03 5167.27 5857.87 5489.64C5752.33 5647.74 5629.52 5794.67 5486.9 5920.73C5331.44 6058.19 5153.06 6164.08 4962.32 6244.96C4750.1 6334.96 4526.54 6400.54 4303.11 6456.03C4072.95 6513.21 3839.19 6556.35 3603.75 6584.43C3368.31 6612.51 3135.69 6625.83 2900.86 6624.87C2704.72 6624.03 2507.92 6611.13 2315.02 6574.35C2125.9 6538.35 1939.66 6479.61 1771.66 6384.4C1688.98 6337.54 1611.23 6282.16 1541.21 6217.84C1471.19 6153.52 1390.01 6067.25 1401.83 5965.85C1408.19 5911.37 1444.01 5863.85 1477.73 5822.69C1508.03 5785.73 1541.27 5751.23 1577.03 5719.55C1651.73 5653.32 1738.54 5599.08 1831.24 5561.88C2035.36 5479.92 2263.48 5495.16 2467.12 5412.36C2825.08 5266.87 3005.01 4891.46 3220.47 4596.68C3449.67 4283.07 3739.23 3984.76 4115.67 3857.56C4341.27 3781.31 4584.44 3767.27 4820.36 3752.03C5065.88 3736.13 5312.06 3730.07 5558.12 3733.85C5676.97 3735.71 5795.83 3739.91 5914.57 3746.27C5949.31 3748.13 5949.19 3694.13 5914.57 3692.27L5914.51 3692.21Z" fill="#0071BC"/>
</g>
<path d="M1159.85 1438.43C1235.99 1450.19 1288.73 1523.33 1310.33 1597.36C1331.87 1671.34 1331.15 1750.12 1348.97 1825.06C1367.87 1904.5 1407.11 1977.63 1452.23 2045.67C1766.74 2520.2 2362.78 2770.03 2620.36 3277.62C2731.96 3497.57 2768.8 3759.41 2697.82 3995.62C2626.84 4231.83 2441.98 4436.43 2206.06 4508.49C1948.36 4587.26 1644.4 4513.65 1420.73 4664C1318.55 4732.7 1225.13 4848.86 1103.33 4830.86C1002.77 4815.98 941.69 4714.82 897.23 4623.44C752.391 4325.49 632.032 4016.32 511.853 3707.57C448.434 3544.61 383.934 3374.58 398.034 3200.28C421.674 2908.03 654.892 2682.26 782.751 2418.38C933.83 2106.57 940.07 1731.46 1134.35 1444.55" fill="#009245"/>
<path d="M1152.65 1464.47C1216.01 1475.45 1258.31 1530.23 1278.89 1588.07C1305.71 1663.54 1303.85 1745.5 1320.83 1823.14C1351.61 1964.38 1441.91 2089.23 1533.05 2198.31C1698.82 2396.6 1905.58 2554.4 2101.12 2721.43C2294.62 2886.67 2484.28 3066.13 2599.66 3296.64C2730.46 3557.99 2751.88 3883.36 2605.84 4143.1C2542.84 4255.11 2452.3 4352.19 2341.9 4418.49C2221.66 4490.73 2086.54 4512.87 1948.54 4522.83C1809.22 4532.91 1664.74 4533.33 1531.43 4579.94C1465.37 4603.04 1407.77 4637.84 1353.05 4681.04C1303.01 4720.52 1254.23 4766.72 1194.77 4791.74C1140.59 4814.54 1082.39 4808.78 1035.35 4772.9C986.03 4735.28 954.11 4677.38 926.87 4622.96C850.73 4470.81 783.591 4313.79 718.792 4156.54C653.272 3997.6 590.752 3837.34 528.713 3677.03C470.033 3525.47 411.654 3365.82 425.034 3200.52C435.954 3065.17 497.153 2940.73 566.333 2826.25C638.992 2706.02 722.751 2592.44 788.151 2467.82C924.29 2208.21 949.73 1910.68 1060.37 1641.64C1086.71 1577.57 1119.05 1515.95 1157.69 1458.47C1177.13 1429.55 1130.39 1402.49 1111.07 1431.23C942.41 1682.08 913.79 1991.13 815.091 2270.37C766.491 2407.82 692.872 2530.28 613.612 2651.9C534.353 2773.51 455.874 2891.05 408.534 3026.23C384.654 3094.32 370.554 3166.08 369.234 3238.38C367.674 3322.44 382.974 3406.44 405.774 3487.07C428.574 3567.71 459.893 3648.17 490.673 3727.37C522.533 3809.15 554.393 3890.98 586.733 3972.58C651.472 4135.84 718.191 4298.43 790.371 4458.57C823.971 4533.09 856.97 4608.8 896.15 4680.56C927.11 4737.32 965.93 4793.48 1021.43 4828.64C1077.11 4863.92 1146.05 4868.6 1207.07 4844.72C1268.09 4820.84 1322.81 4774.34 1375.37 4732.04C1429.01 4688.84 1485.29 4652.66 1550.87 4630.34C1617.52 4607.72 1687.42 4596.86 1757.26 4590.26C1902.4 4576.59 2050.84 4579.35 2192.56 4540.71C2322.82 4505.19 2440.54 4430.85 2532.94 4332.87C2625.34 4234.89 2695.84 4109.98 2731.12 3977.56C2771.62 3825.29 2769.58 3663.59 2734 3510.59C2670.1 3236.04 2495.98 3011.11 2294.5 2821.33C2101.72 2639.78 1885.96 2484.14 1698.04 2297.37C1603.6 2203.47 1515.23 2101.41 1446.95 1986.63C1405.37 1916.68 1376.75 1843.48 1364.81 1762.72C1353.29 1684.66 1349.93 1604.44 1313.57 1532.75C1284.23 1474.85 1233.05 1423.85 1167.11 1412.45C1152.77 1409.99 1138.01 1416.29 1133.87 1431.29C1130.27 1444.31 1138.31 1462.01 1152.71 1464.53L1152.65 1464.47Z" fill="#0071BC"/>
<mask id="mask1_211_2" style="mask-type:luminance" maskUnits="userSpaceOnUse" x="-1" y="133" width="5999" height="5999">
<path d="M2998.71 6131.62C4655.09 6131.62 5997.85 4788.89 5997.85 3132.54C5997.85 1476.2 4655.09 133.464 2998.71 133.464C1342.34 133.464 -0.422852 1476.2 -0.422852 3132.54C-0.422852 4788.89 1342.34 6131.62 2998.71 6131.62Z" fill="white"/>
</mask>
<g mask="url(#mask1_211_2)">
<path d="M2740.78 158.124C2631.16 493.695 2758.48 892.684 3042.21 1102.74C3155.25 1186.44 3286.95 1240.56 3408.81 1310.81C3913.95 1602.17 4212.87 2143.23 4619.42 2561.3C4859.84 2808.55 5141.9 3015.25 5450.12 3169.98C5499.2 3194.64 5554.34 3218.58 5607.38 3204.3C5637.44 3196.2 5662.99 3176.58 5685.61 3155.16C5839.57 3009.31 5878.39 2781.37 5893.93 2569.82C5905.81 2408.06 5909.05 2244.33 5879.89 2084.73C5845.63 1897.24 5767.27 1720.12 5671.51 1555.31C5544.56 1336.79 5386.76 1137.78 5220.92 947.103C5097.92 805.747 4968.92 667.33 4815.26 559.993C4650.74 445.096 4462.76 369.078 4276.17 295.22C4152.81 246.442 4028.91 198.083 3900.69 164.244C3526.77 65.6664 3131.37 94.4056 2748.64 149.664" fill="#39B54A"/>
<path d="M2714.74 150.924C2630.92 410.057 2682.46 705.849 2837.32 928.263C2876.56 984.601 2922.04 1036.68 2973.69 1081.98C3033.03 1133.94 3099.87 1176.06 3168.93 1213.86C3242.19 1253.99 3317.79 1289.81 3390.33 1331.33C3453.87 1367.69 3514.77 1408.37 3573.15 1452.53C3806.79 1629.28 3994.77 1858.54 4177.71 2085.15C4369.04 2322.09 4559.42 2559.56 4790.3 2759.89C4914.62 2867.77 5047.46 2966.11 5187.08 3053.29C5255.54 3096 5325.68 3136.08 5397.32 3173.34C5468.96 3210.6 5556.8 3259.44 5640.44 3220.74C5674.52 3204.96 5703.25 3177.72 5728.45 3150.3C5753.65 3122.88 5774.11 3095.35 5792.83 3065.11C5831.05 3003.19 5857.75 2934.07 5876.47 2863.93C5917.03 2712.14 5926.99 2550.02 5929.39 2393.54C5932.09 2217.09 5910.43 2042.91 5851.87 1875.88C5795.77 1715.8 5714.29 1565.51 5622.14 1423.55C5528.42 1279.25 5422.52 1143.06 5311.64 1011.6C5200.76 880.144 5092.7 755.947 4966.52 645.19C4840.34 534.433 4693.94 446.116 4539.02 375.738C4461.92 340.699 4383.44 308.959 4304.73 277.76C4221.03 244.581 4137.27 211.342 4052.01 182.243C3883.11 124.644 3708.81 90.3853 3530.85 78.1457C3352.89 65.906 3175.35 73.7658 2998.71 91.6453C2912.74 100.345 2827.06 111.445 2741.5 123.744C2727.04 125.844 2719.12 144.144 2722.66 156.984C2726.92 172.523 2741.38 177.923 2755.9 175.823C3097.65 126.624 3450.75 97.7051 3791.91 166.763C3964.11 201.622 4127.61 265.281 4290.45 329.839C4444.46 390.917 4598.54 454.576 4739.6 542.473C4878.5 628.991 4997.78 741.308 5108.24 861.305C5220.62 983.401 5328.44 1110.78 5428.82 1243.01C5626.76 1503.71 5809.75 1799.14 5859.97 2128.05C5885.59 2295.99 5878.09 2469.8 5861.11 2638.28C5847.19 2775.97 5819.89 2918.59 5746.21 3037.93C5728.15 3067.15 5707.45 3094.38 5683.69 3119.22C5659.94 3144.06 5630.72 3172.2 5594.72 3179.76C5558.72 3187.32 5517.86 3172.56 5484.38 3156.9C5447.6 3139.68 5411.66 3120.36 5375.96 3100.98C5235.74 3024.79 5101.4 2937.73 4974.5 2840.95C4847.6 2744.17 4730.66 2638.76 4621.28 2524.58C4521.26 2420.12 4428.26 2309.19 4337.01 2197.05C4154.97 1973.31 3979.05 1742.08 3766.71 1545.59C3661.95 1448.63 3548.25 1360.49 3424.59 1288.91C3287.79 1209.72 3136.05 1151.46 3015.33 1046.94C2817.7 875.824 2712.28 608.831 2730.82 348.978C2735.26 286.52 2747.56 225.022 2766.82 165.443C2777.56 132.324 2725.42 118.105 2714.74 151.104V150.924Z" fill="#0071BC"/>
</g>
<g opacity="0.58">
<path d="M2998.71 6131.62C4655.09 6131.62 5997.85 4788.89 5997.85 3132.54C5997.85 1476.2 4655.09 133.464 2998.71 133.464C1342.34 133.464 -0.422852 1476.2 -0.422852 3132.54C-0.422852 4788.89 1342.34 6131.62 2998.71 6131.62Z" fill="url(#paint0_radial_211_2)"/>
</g>
<g opacity="0.53">
<path d="M3002.56 6127.78C4658.93 6127.78 6001.69 4785.05 6001.69 3128.7C6001.69 1472.36 4658.93 129.624 3002.56 129.624C1346.18 129.624 3.41699 1472.36 3.41699 3128.7C3.41699 4785.05 1346.18 6127.78 3002.56 6127.78Z" fill="url(#paint1_linear_211_2)"/>
</g>
<g opacity="0.37">
<path d="M4286.37 823.086C5684.6 1711 6098.29 3564.29 5210.3 4962.56C5019.32 5263.27 4783.64 5518.44 4517.48 5724.9C4920.68 5491.08 5275.22 5159.59 5542.4 4738.94C6430.33 3340.74 6016.69 1487.45 4618.46 599.472C3520.95 -97.4692 2143.12 7.52798 1171.73 761.048C2108.74 217.702 3308.79 202.223 4286.37 823.026V823.086Z" fill="#5DCFE2"/>
</g>
<g opacity="0.37">
<mask id="mask2_211_2" style="mask-type:luminance" maskUnits="userSpaceOnUse" x="3" y="129" width="5999" height="5999">
<path d="M3002.56 6127.78C4658.93 6127.78 6001.69 4785.05 6001.69 3128.7C6001.69 1472.36 4658.93 129.624 3002.56 129.624C1346.18 129.624 3.41699 1472.36 3.41699 3128.7C3.41699 4785.05 1346.18 6127.78 3002.56 6127.78Z" fill="white"/>
</mask>
<g mask="url(#mask2_211_2)">
<g opacity="0.55">
<mask id="mask3_211_2" style="mask-type:luminance" maskUnits="userSpaceOnUse" x="-1693" y="-1" width="8520" height="6794">
<path d="M2567.02 6792.51C4919.7 6792.51 6826.93 5271.89 6826.93 3396.12C6826.93 1520.34 4919.7 -0.272461 2567.02 -0.272461C214.336 -0.272461 -1692.89 1520.34 -1692.89 3396.12C-1692.89 5271.89 214.336 6792.51 2567.02 6792.51Z" fill="white"/>
</mask>
<g mask="url(#mask3_211_2)">
<path d="M-5691.08 3064.51C-5455.16 2347.52 -3762.27 1620.34 -386.1 195.262C-386.1 195.262 1289.99 -668.955 3372.87 -409.402C3411.51 -404.602 3453.21 -397.942 3478.95 -374.482C3522.75 -334.644 3496.41 -272.725 3465.03 -226.106C3118.29 288.8 2422.78 580.152 1767.1 841.565C646.433 1288.31 -474.179 1735.06 -1594.85 2181.81C-1792.73 2260.71 -1995.77 2342.66 -2142.65 2474.6C-2289.53 2606.54 -2368.85 2802.07 -2278.97 2963.29C-2187.89 3126.78 -1953.65 3209.4 -1731.29 3233.1C-919.796 3319.62 -212.461 2834.71 429.654 2429.72C2025.76 1422.89 3900.39 741.068 5772.55 104.605C5855.83 76.2854 5950.27 47.8462 6033.97 75.2055C6145.69 111.745 6176.71 225.861 6174.79 322.099C6165.25 800.766 5729.95 1217.69 5216.06 1465.25C4702.16 1712.8 4108.83 1828.78 3541.17 1984.77C2827.18 2181.03 2145.34 2443.82 1465.43 2706.01C875.271 2933.59 284.275 3161.52 -278.64 3429.3C-906.296 3727.91 -1563.59 4178.92 -1520.27 4760.6C-1514.45 4838.66 -1494.11 4918.7 -1436.99 4982.23C-1246.43 5194.27 -831.477 5093.17 -542.879 4970.29C611.333 4479.09 1751.26 3957.64 2784.94 3318.12C3395.31 2940.49 3967.35 2522.54 4605.62 2175.51C5243.96 1828.48 5964.73 1550.69 6734.53 1498.31C6754.81 2010.45 6180.85 2399.78 5642.66 2679.74C3723.33 3678.11 1511.33 4390.29 -17.3424 5751.59C-325.86 6026.33 -612.178 6344.26 -660.178 6711.09C-667.918 6770.25 -668.158 6833.66 -629.818 6884.78C-532.319 7014.74 -285.84 6974.06 -112.562 6911.96C1055.87 6493.11 2072.2 5852.09 3102.93 5245.51C4553.3 4392.03 6055.03 3595.73 7556.04 2799.91C7593.84 2779.87 7635.78 2758.93 7681.02 2762.65C7792.32 2771.77 7799.52 2900.77 7760.64 2984.41C7631.4 3262.32 7364.64 3482.99 7104.84 3695.03C6751.57 3983.32 6398.11 4271.55 6044.65 4559.73C5206.88 5242.87 4364.61 5929.13 3403.23 6499.53C2441.86 7069.94 1347.95 7524.25 166.616 7684.98C-383.88 7759.86 -944.756 7770.18 -1503.17 7769.94C-1988.27 7769.7 -2483.74 7760.16 -2939.8 7628.4C-3749.08 7394.59 -4209.93 6918.26 -4601.73 6512.25C-5195.54 5896.85 -5446.04 5303.71 -5545.1 5029.57C-5632.1 4788.86 -5959.88 3881.74 -5690.96 3064.51H-5691.08Z" fill="url(#paint2_linear_211_2)"/>
</g>
</g>
</g>
</g>
</g>
<defs>
<radialGradient id="paint0_radial_211_2" cx="0" cy="0" r="1" gradientUnits="userSpaceOnUse" gradientTransform="translate(2998.71 3132.54) scale(2999.14 2999.08)">
<stop stop-color="white" stop-opacity="0"/>
<stop offset="1" stop-color="#29ABE2"/>
</radialGradient>
<linearGradient id="paint1_linear_211_2" x1="7685.76" y1="-1165.38" x2="1337.92" y2="4655.25" gradientUnits="userSpaceOnUse">
<stop stop-color="white" stop-opacity="0"/>
<stop offset="1" stop-color="#29ABE2"/>
</linearGradient>
<linearGradient id="paint2_linear_211_2" x1="7171.15" y1="-2363.85" x2="-2443.5" y2="6068.21" gradientUnits="userSpaceOnUse">
<stop stop-color="#00A99D" stop-opacity="0"/>
<stop offset="1" stop-color="#0000FF" stop-opacity="0.7"/>
</linearGradient>
<clipPath id="clip0_211_2">
<rect width="6010" height="6132" fill="white"/>
</clipPath>
</defs>
</svg>
