<svg width="1004" height="1005" viewBox="0 0 1004 1005" fill="none" xmlns="http://www.w3.org/2000/svg">
<g clip-path="url(#clip0_252_84)">
<path d="M502.278 1004.12C779.421 1004.12 1004.09 779.455 1004.09 502.313C1004.09 225.171 779.421 0.502441 502.278 0.502441C225.136 0.502441 0.467773 225.171 0.467773 502.313C0.467773 779.455 225.136 1004.12 502.278 1004.12Z" fill="#666666"/>
<path d="M502.278 1004.12C779.421 1004.12 1004.09 779.455 1004.09 502.313C1004.09 225.171 779.421 0.502441 502.278 0.502441C225.136 0.502441 0.467773 225.171 0.467773 502.313C0.467773 779.455 225.136 1004.12 502.278 1004.12Z" fill="url(#paint0_radial_252_84)"/>
<path d="M502.278 1004.12C779.421 1004.12 1004.09 779.455 1004.09 502.313C1004.09 225.171 779.421 0.502441 502.278 0.502441C225.136 0.502441 0.467773 225.171 0.467773 502.313C0.467773 779.455 225.136 1004.12 502.278 1004.12Z" fill="url(#paint1_radial_252_84)"/>
<g opacity="0.36">
<path d="M717.722 115.891C951.677 264.467 1020.89 574.556 872.317 808.511C840.367 858.831 800.927 901.52 756.391 936.064C823.855 896.939 883.173 841.477 927.872 771.092C1076.45 537.137 1007.23 227.037 773.278 78.4718C589.643 -38.1432 359.101 -20.5791 196.571 105.513C353.351 14.6076 554.141 12.0133 717.71 115.891H717.722Z" fill="#CCCCCC"/>
</g>
<mask id="mask0_252_84" style="mask-type:luminance" maskUnits="userSpaceOnUse" x="-395" y="-45" width="1578" height="1360">
<path d="M-53.7563 199.808C165.041 39.8729 190.786 1.62445 291.017 -25.4755C417.238 -59.6104 531.329 -40.866 603.993 -21.5139C562.472 39.7326 484.713 62.5789 413.662 83.2164C241.608 133.174 67.5331 198.125 -61.9132 321.986C-71.9866 331.615 -82.3638 346.667 -74.4056 358.107C-68.399 366.732 -55.8715 366.778 -45.4008 365.808C12.1997 360.421 69.4263 351.224 125.811 338.288C204.762 320.174 282.58 294.477 352.918 254.288C486.045 178.236 597.227 49.1048 749.437 30.711C761.287 29.2736 774.469 28.9231 783.806 36.3671C803.742 52.2484 788.539 84.6538 769.689 101.821C737.225 131.386 697.084 150.972 657.059 169.062C512.736 234.27 362.419 285.105 212.393 335.822C122.703 366.136 33.0125 396.461 -56.6779 426.775C-103.586 442.632 -153.134 460.278 -184.091 498.936C-215.047 537.582 -216.274 604.204 -173.737 629.551C-144.534 646.951 -107.407 639.238 -74.6861 630.018C256.964 536.623 551.464 345.521 836.229 151.545C870.727 128.044 910.354 103.316 951.232 111.754C921.795 189.781 841.547 234.27 767.866 273.348C510.539 409.841 260.516 559.586 10.6221 709.25C1.35504 714.8 -8.12234 720.527 -14.7951 729.011C-37.5127 757.875 -13.8952 804.21 20.8123 816.212C55.5199 828.214 93.7216 816.13 127.237 801.09C217.617 760.551 296.615 698.907 374.619 637.86C478.73 556.396 582.841 474.921 685.97 392.219C738.382 350.184 791.367 307.331 852.976 280.559C914.596 253.786 987.096 244.718 1048.64 271.666C1052.21 273.232 1055.99 275.148 1057.72 278.642C1059.6 282.44 1058.51 286.974 1057.28 291.029C1033.36 369.793 967.102 428.025 898.727 473.869C701.91 605.828 468.54 669.459 251.67 764.969C214.66 781.271 177.522 798.87 147.092 825.502C116.661 852.135 93.2658 889.215 91.4895 929.613C90.9286 942.234 93.2191 956.351 103.141 964.169C108.189 968.142 114.581 969.954 120.88 971.227C172.135 981.546 225.049 961.318 268.802 932.71C312.554 904.091 350.289 867.093 393.691 837.948C476.954 782.042 576.881 757.583 667.81 715.245C779.856 663.066 876.99 584.337 974.3 508.144C1019.09 473.063 1067.54 436.976 1124.2 431.799C1114.54 491.188 1076.26 542.782 1029.94 581.171C983.614 619.559 929.204 646.671 876.009 674.776C706.877 764.127 544.826 866.906 391.914 981.827C371.639 997.065 350.476 1027.34 369.793 1043.79C374.794 1048.04 381.467 1049.77 387.988 1050.58C436.076 1056.52 477.783 1020.26 514.232 988.336C684.451 839.233 891.843 732.914 1112.27 681.741C1134.54 676.575 1162.52 673.934 1175.85 692.492C1182.55 701.806 1183.32 714.064 1182.77 725.528C1178.49 815.896 1110.89 888.864 1047.88 953.78C954.399 1050.1 861.997 1148.06 757.84 1232.69C706.958 1274.04 648.645 1313.72 583.075 1314.17C544.885 1314.42 508.015 1301.17 472.443 1287.29C327.524 1230.72 185.399 1158.75 74.6733 1049.48C16.8157 992.379 -32.5111 925.149 -100.723 880.953C-187.351 824.813 -216.917 834.98 -271.596 789.229C-349.846 723.694 -413.126 597.741 -390.256 489.131C-372.54 404.98 -315.757 391.319 -53.7563 199.808Z" fill="white"/>
</mask>
<g mask="url(#mask0_252_84)">
<path d="M502.232 1005.32C779.374 1005.32 1004.04 780.648 1004.04 503.505C1004.04 226.363 779.374 1.69482 502.232 1.69482C225.089 1.69482 0.420898 226.363 0.420898 503.505C0.420898 780.648 225.089 1005.32 502.232 1005.32Z" fill="url(#paint2_linear_252_84)"/>
</g>
</g>
<defs>
<radialGradient id="paint0_radial_252_84" cx="0" cy="0" r="1" gradientUnits="userSpaceOnUse" gradientTransform="translate(502.278 502.313) scale(501.81 501.811)">
<stop stop-color="white" stop-opacity="0"/>
<stop offset="1" stop-color="#4D4D4D"/>
</radialGradient>
<radialGradient id="paint1_radial_252_84" cx="0" cy="0" r="1" gradientUnits="userSpaceOnUse" gradientTransform="translate(502.278 502.313) scale(501.81 501.811)">
<stop stop-color="white" stop-opacity="0"/>
<stop offset="1" stop-color="#4D4D4D"/>
</radialGradient>
<linearGradient id="paint2_linear_252_84" x1="1511.44" y1="169.191" x2="143.487" y2="622.35" gradientUnits="userSpaceOnUse">
<stop stop-color="white" stop-opacity="0"/>
<stop offset="1" stop-color="#4D4D4D"/>
</linearGradient>
<clipPath id="clip0_252_84">
<rect width="1003.83" height="1005" fill="white"/>
</clipPath>
</defs>
</svg>
