<svg width="1003" height="1002" viewBox="0 0 1003 1002" fill="none" xmlns="http://www.w3.org/2000/svg">
<g clip-path="url(#clip0_252_71)">
<path d="M500.404 1002.36C776.995 1002.36 1001.22 778.137 1001.22 501.546C1001.22 224.956 776.995 0.734619 500.404 0.734619C223.813 0.734619 -0.408203 224.956 -0.408203 501.546C-0.408203 778.137 223.813 1002.36 500.404 1002.36Z" fill="#42210B"/>
<path d="M500.404 1002.36C776.995 1002.36 1001.22 778.137 1001.22 501.546C1001.22 224.956 776.995 0.734619 500.404 0.734619C223.813 0.734619 -0.408203 224.956 -0.408203 501.546C-0.408203 778.137 223.813 1002.36 500.404 1002.36Z" fill="url(#paint0_radial_252_71)"/>
<path d="M501.045 1001.73C777.636 1001.73 1001.86 777.507 1001.86 500.917C1001.86 224.326 777.636 0.104736 501.045 0.104736C224.454 0.104736 0.233398 224.326 0.233398 500.917C0.233398 777.507 224.454 1001.73 501.045 1001.73Z" fill="url(#paint1_linear_252_71)"/>
<g opacity="0.42">
<mask id="mask0_252_71" style="mask-type:luminance" maskUnits="userSpaceOnUse" x="-471" y="-194" width="1873" height="1341">
<path d="M-301.6 506.911C-91.343 287.873 13.7854 178.347 108.137 112.453C289.226 -14.0071 470.43 -91.2731 620.239 -139.196C612.95 -49.322 522.038 12.3158 440.154 62.0226C116.978 258.249 -204.565 470.698 -430.427 759.527C-440.597 772.531 -449.811 792.393 -436.293 802.563C-430.579 806.867 -422.625 807.438 -415.242 807.462C-376.533 807.59 -338.547 797.816 -302.393 785.186C-164.55 737.018 -48.5055 647.658 54.3836 550.764C157.261 453.881 249.945 347.878 357.814 255.66C457.776 170.195 570.637 96.6844 658.796 0.909596C720.364 -65.9765 770.689 -144.315 850.007 -193.019C830.974 -81.1148 767.808 20.9929 690.274 109.059C612.74 197.124 520.58 273.224 432.888 352.893C328.354 447.874 229.314 548.711 113.456 631.913C24.1187 696.082 -80.0767 755.539 -120.057 852.958C-133.702 886.22 -131.253 934.399 -94.1654 944.838C-74.3853 950.401 -53.4972 941.957 -34.8951 933.7C101.081 873.38 240.767 810.552 341.288 707.185C405.422 641.232 450.394 561.913 501.815 487.178C619.831 315.618 774.584 165.448 954.704 47.7124C935.799 161.308 897.055 273.026 831.44 370.853C751.492 490.059 635.272 584.247 527.905 683.684C420.537 783.121 317.753 894.174 276.233 1028.88C274.181 1035.54 272.28 1042.62 274.309 1049.28C278.064 1061.66 293.413 1067.54 307.186 1069.97C366.037 1080.34 426.135 1059 477.65 1031.04C623.504 951.847 726.16 820.699 813.386 687.428C900.612 554.157 977.96 413.481 1091.64 298.206C1150.52 238.492 1227.05 183.409 1314.92 184.634C1332.02 184.867 1349.71 187.514 1363.89 196.296C1387.13 210.7 1395.91 238.107 1399.36 263.614C1413.41 367.261 1367.43 469.462 1314.05 561.61C1248.25 675.229 1169.85 782.27 1089.27 887.562C1032.43 961.83 974.205 1035.59 906.479 1101.74C890.757 1117.09 873.858 1132.43 852.41 1140C829.376 1148.13 803.765 1146.36 779.144 1144.46C710.241 1139.16 641.349 1133.86 572.445 1128.56C482.21 1121.62 391.578 1114.62 303.454 1095.47C230.958 1079.72 160.562 1055.81 87.2144 1043.82C32.7258 1034.91 -22.9407 1032.66 -77.091 1022.1C-136.723 1010.49 -193.626 988.946 -247.834 963.335C-300.107 938.633 -350.187 910.036 -397.433 877.916C-464.995 831.988 -468.226 800.522 -469.894 788.311C-474.641 753.486 -454.184 725.052 -440.958 706.555C-292.083 498.468 -345.359 552.513 -301.6 506.923V506.911Z" fill="white"/>
</mask>
<g mask="url(#mask0_252_71)">
<path d="M501.045 1001.73C777.636 1001.73 1001.86 777.508 1001.86 500.917C1001.86 224.326 777.636 0.10498 501.045 0.10498C224.454 0.10498 0.233398 224.326 0.233398 500.917C0.233398 777.508 224.454 1001.73 501.045 1001.73Z" fill="url(#paint2_linear_252_71)"/>
<path d="M501.045 1001.73C777.636 1001.73 1001.86 777.508 1001.86 500.917C1001.86 224.326 777.636 0.10498 501.045 0.10498C224.454 0.10498 0.233398 224.326 0.233398 500.917C0.233398 777.508 224.454 1001.73 501.045 1001.73Z" fill="#603813"/>
</g>
</g>
<g opacity="0.36">
<path d="M715.419 115.905C948.908 264.185 1017.99 573.658 869.706 807.147C837.82 857.367 798.458 899.971 754.011 934.446C821.34 895.399 880.541 840.047 925.151 769.802C1073.43 536.313 1004.35 226.83 770.864 78.5605C587.595 -37.8225 357.511 -20.2934 195.305 105.548C351.773 14.8233 552.163 12.2342 715.407 115.905H715.419Z" fill="#998675"/>
</g>
</g>
<defs>
<radialGradient id="paint0_radial_252_71" cx="0" cy="0" r="1" gradientUnits="userSpaceOnUse" gradientTransform="translate(500.404 501.546) scale(500.812)">
<stop stop-color="white" stop-opacity="0"/>
<stop offset="1" stop-color="#42210B"/>
</radialGradient>
<linearGradient id="paint1_linear_252_71" x1="1283.07" y1="-216.158" x2="223.051" y2="755.807" gradientUnits="userSpaceOnUse">
<stop stop-color="white" stop-opacity="0"/>
<stop offset="1" stop-color="#603813"/>
</linearGradient>
<linearGradient id="paint2_linear_252_71" x1="1283.07" y1="-216.158" x2="223.051" y2="755.807" gradientUnits="userSpaceOnUse">
<stop stop-color="white" stop-opacity="0"/>
<stop offset="1" stop-color="#603813"/>
</linearGradient>
<clipPath id="clip0_252_71">
<rect width="1003" height="1001.83" fill="white"/>
</clipPath>
</defs>
</svg>
