<svg width="1493" height="1328" viewBox="0 0 1493 1328" fill="none" xmlns="http://www.w3.org/2000/svg">
<path d="M850.985 1101.42C1102.01 1101.42 1305.5 897.93 1305.5 646.909C1305.5 395.887 1102.01 192.394 850.985 192.394C599.963 192.394 396.47 395.887 396.47 646.909C396.47 897.93 599.963 1101.42 850.985 1101.42Z" fill="#669366"/>
<path d="M850.985 1101.42C1102.01 1101.42 1305.5 897.93 1305.5 646.909C1305.5 395.887 1102.01 192.394 850.985 192.394C599.963 192.394 396.47 395.887 396.47 646.909C396.47 897.93 599.963 1101.42 850.985 1101.42Z" fill="url(#paint0_radial_308_647)"/>
<path d="M850.985 1101.42C1102.01 1101.42 1305.5 897.93 1305.5 646.909C1305.5 395.887 1102.01 192.394 850.985 192.394C599.963 192.394 396.47 395.887 396.47 646.909C396.47 897.93 599.963 1101.42 850.985 1101.42Z" fill="url(#paint1_radial_308_647)"/>
<g opacity="0.16">
<path d="M1046.13 296.906C1258.04 431.479 1320.73 712.342 1186.16 924.247C1157.22 969.824 1121.5 1008.49 1081.16 1039.78C1142.26 1004.34 1195.99 954.106 1236.48 890.354C1371.05 678.45 1308.36 397.576 1096.45 263.013C930.127 157.389 721.313 173.298 574.102 287.506C716.105 205.168 897.97 202.819 1046.12 296.906H1046.13Z" fill="#F2F2F2"/>
</g>
<mask id="mask0_308_647" style="mask-type:luminance" maskUnits="userSpaceOnUse" x="0" y="0" width="1493" height="1328">
<path d="M198.07 639.372C315.676 517.416 404.598 370.649 517.748 244.554C630.897 118.449 779.379 9.52241 948.585 0.811252C970.823 -0.331889 998.745 4.19833 1005.24 25.4946C1007.45 32.7134 1006.51 40.4931 1005.17 47.9129C988.605 139.682 916.704 209.911 848.539 273.535C697.485 414.522 546.432 555.51 395.389 696.487C361.338 728.272 326.324 761.402 308.309 804.355C290.294 847.307 294.052 903.088 329.69 933.085C358.798 957.589 402.195 959.007 437.844 945.67C473.483 932.334 502.897 906.528 530.269 880.098C586.516 825.778 637.82 766.621 690.468 708.797C788.397 601.246 891.205 498.141 998.46 399.884C1094.99 311.449 1196.21 226.222 1312.17 165.445C1341.21 150.224 1373.39 136.231 1405.75 141.502C1469.85 151.949 1498.84 235.155 1477.89 296.631C1456.94 358.106 1403.78 401.906 1354.19 443.842C1209.78 565.957 1075.75 700.234 952.639 843.793C895.905 909.947 838.716 985.384 838.049 1072.53C837.838 1099.87 845.533 1130.4 868.978 1144.49C900.202 1163.26 939.852 1143.4 969.458 1122.18C1105.11 1024.91 1213.56 890.948 1358.59 808.303C1391.7 789.441 1435.35 774.114 1465.62 797.252C1491.02 816.675 1493.5 853.51 1491.9 885.433C1485.5 1012.7 1439.67 1150.65 1328.43 1212.82C1274 1243.23 1210.51 1251.77 1148.94 1261.61C927.013 1297.07 700.788 1356.4 480.85 1310.22C394.087 1292 311.548 1257.8 230.914 1220.96C148.471 1183.28 108.313 1162.17 88.4241 1134.9C-20.1637 986.114 213.767 648.634 197.88 639.488C191.169 635.625 146.206 693.936 0 924.935" fill="white"/>
</mask>
<g mask="url(#mask0_308_647)">
<path d="M850.983 1101.42C1102 1101.42 1305.5 897.93 1305.5 646.909C1305.5 395.887 1102 192.394 850.983 192.394C599.961 192.394 396.468 395.887 396.468 646.909C396.468 897.93 599.961 1101.42 850.983 1101.42Z" fill="url(#paint2_radial_308_647)"/>
</g>
<defs>
<radialGradient id="paint0_radial_308_647" cx="0" cy="0" r="1" gradientUnits="userSpaceOnUse" gradientTransform="translate(850.985 646.909) scale(454.515 454.515)">
<stop stop-color="white" stop-opacity="0"/>
<stop offset="1" stop-color="#669959"/>
</radialGradient>
<radialGradient id="paint1_radial_308_647" cx="0" cy="0" r="1" gradientUnits="userSpaceOnUse" gradientTransform="translate(850.985 646.909) scale(454.515 454.515)">
<stop stop-color="white" stop-opacity="0"/>
<stop offset="1" stop-color="#669959" stop-opacity="0.36"/>
</radialGradient>
<radialGradient id="paint2_radial_308_647" cx="0" cy="0" r="1" gradientUnits="userSpaceOnUse" gradientTransform="translate(850.983 646.909) scale(454.515 454.515)">
<stop stop-color="white" stop-opacity="0"/>
<stop offset="1" stop-color="#669959" stop-opacity="0.36"/>
</radialGradient>
</defs>
</svg>
