<svg width="912" height="910" viewBox="0 0 912 910" fill="none" xmlns="http://www.w3.org/2000/svg">
<path d="M454.985 909.423C706.006 909.423 909.5 705.93 909.5 454.909C909.5 203.887 706.006 0.393555 454.985 0.393555C203.963 0.393555 0.469727 203.887 0.469727 454.909C0.469727 705.93 203.963 909.423 454.985 909.423Z" fill="#669366"/>
<path d="M454.985 909.423C706.006 909.423 909.5 705.93 909.5 454.909C909.5 203.887 706.006 0.393555 454.985 0.393555C203.963 0.393555 0.469727 203.887 0.469727 454.909C0.469727 705.93 203.963 909.423 454.985 909.423Z" fill="url(#paint0_radial_319_123)"/>
<path d="M454.985 909.423C706.006 909.423 909.5 705.93 909.5 454.909C909.5 203.887 706.006 0.393555 454.985 0.393555C203.963 0.393555 0.469727 203.887 0.469727 454.909C0.469727 705.93 203.963 909.423 454.985 909.423Z" fill="url(#paint1_radial_319_123)"/>
<g opacity="0.16">
<path d="M650.134 104.906C862.039 239.479 924.731 520.342 790.158 732.247C761.22 777.824 725.497 816.49 685.159 847.778C746.264 812.34 799.991 762.106 840.478 698.354C975.051 486.45 912.358 205.576 700.454 71.0135C534.127 -34.6106 325.313 -18.7019 178.102 95.5064C320.105 13.1684 501.97 10.8187 650.124 104.906H650.134Z" fill="#F2F2F2"/>
</g>
<mask id="mask0_319_123" style="mask-type:luminance" maskUnits="userSpaceOnUse" x="-396" y="-192" width="1493" height="1328">
<path d="M-197.93 447.372C-80.3237 325.416 8.59786 178.649 121.748 52.5543C234.897 -73.5511 383.379 -182.478 552.585 -191.189C574.823 -192.332 602.745 -187.802 609.244 -166.505C611.446 -159.287 610.514 -151.507 609.17 -144.087C592.605 -52.3183 520.704 17.9108 452.539 81.5351C301.485 222.522 150.432 363.51 -0.610779 504.487C-34.6616 536.272 -69.6756 569.402 -87.6906 612.355C-105.706 655.307 -101.948 711.088 -66.3096 741.085C-37.2019 765.589 6.19513 767.007 41.8442 753.67C77.4827 740.334 106.897 714.528 134.269 688.098C190.516 633.778 241.82 574.621 294.468 516.797C392.397 409.246 495.205 306.141 602.46 207.884C698.992 119.449 800.212 34.2217 916.167 -26.5553C945.211 -41.776 977.389 -55.7689 1009.75 -50.4977C1073.85 -40.0507 1102.84 43.1552 1081.89 104.631C1060.94 166.106 1007.78 209.906 958.188 251.842C813.782 373.957 679.749 508.234 556.639 651.793C499.905 717.947 442.716 793.384 442.049 880.527C441.838 907.867 449.533 938.404 472.978 952.492C504.202 971.259 543.852 951.402 573.458 930.18C709.11 832.907 817.561 698.948 962.591 616.303C995.7 597.441 1039.35 582.114 1069.62 605.252C1095.02 624.675 1097.5 661.51 1095.9 693.433C1089.5 820.703 1043.67 958.652 932.425 1020.82C877.999 1051.23 814.512 1059.77 752.941 1069.61C531.013 1105.07 304.788 1164.4 84.8496 1118.22C-1.9127 1100 -84.4517 1065.8 -165.086 1028.96C-247.529 991.285 -287.687 970.168 -307.576 942.902C-416.164 794.114 -182.233 456.634 -198.12 447.488C-204.831 443.625 -249.794 501.936 -396 732.935" fill="white"/>
</mask>
<g mask="url(#mask0_319_123)">
<path d="M454.983 909.423C706.004 909.423 909.498 705.93 909.498 454.909C909.498 203.887 706.004 0.393555 454.983 0.393555C203.961 0.393555 0.467773 203.887 0.467773 454.909C0.467773 705.93 203.961 909.423 454.983 909.423Z" fill="url(#paint2_radial_319_123)"/>
</g>
<defs>
<radialGradient id="paint0_radial_319_123" cx="0" cy="0" r="1" gradientUnits="userSpaceOnUse" gradientTransform="translate(454.985 454.909) scale(454.515 454.515)">
<stop stop-color="white" stop-opacity="0"/>
<stop offset="1" stop-color="#669959"/>
</radialGradient>
<radialGradient id="paint1_radial_319_123" cx="0" cy="0" r="1" gradientUnits="userSpaceOnUse" gradientTransform="translate(454.985 454.909) scale(454.515 454.515)">
<stop stop-color="white" stop-opacity="0"/>
<stop offset="1" stop-color="#669959" stop-opacity="0.36"/>
</radialGradient>
<radialGradient id="paint2_radial_319_123" cx="0" cy="0" r="1" gradientUnits="userSpaceOnUse" gradientTransform="translate(454.983 454.909) scale(454.515 454.515)">
<stop stop-color="white" stop-opacity="0"/>
<stop offset="1" stop-color="#669959" stop-opacity="0.36"/>
</radialGradient>
</defs>
</svg>
