<svg width="1073" height="786" viewBox="0 0 1073 786" fill="none" xmlns="http://www.w3.org/2000/svg">
<path d="M521.06 785.5C737.831 785.5 913.56 609.772 913.56 393C913.56 176.228 737.831 0.5 521.06 0.5C304.288 0.5 128.56 176.228 128.56 393C128.56 609.772 304.288 785.5 521.06 785.5Z" fill="#F7931E"/>
<path d="M521.06 785.5C737.831 785.5 913.56 609.772 913.56 393C913.56 176.228 737.831 0.5 521.06 0.5C304.288 0.5 128.56 176.228 128.56 393C128.56 609.772 304.288 785.5 521.06 785.5Z" fill="url(#paint0_radial_287_971)"/>
<path d="M521.56 785C738.331 785 914.06 609.272 914.06 392.5C914.06 175.728 738.331 0 521.56 0C304.788 0 129.06 175.728 129.06 392.5C129.06 609.272 304.788 785 521.56 785Z" fill="url(#paint1_linear_287_971)"/>
<path d="M689.58 90.7498C872.57 206.96 926.71 449.51 810.5 632.5C785.51 671.86 754.66 705.25 719.83 732.27C772.6 701.67 819 658.29 853.96 603.24C970.17 420.25 916.03 177.7 733.04 61.4898C589.41 -29.7202 409.08 -15.9802 281.96 82.6398C404.59 11.5298 561.64 9.50981 689.58 90.7498Z" fill="#EFA56B"/>
<mask id="mask0_287_971" style="mask-type:luminance" maskUnits="userSpaceOnUse" x="129" y="0" width="786" height="785">
<path d="M521.56 785C738.331 785 914.06 609.272 914.06 392.5C914.06 175.728 738.331 0 521.56 0C304.788 0 129.06 175.728 129.06 392.5C129.06 609.272 304.788 785 521.56 785Z" fill="white"/>
</mask>
<g mask="url(#mask0_287_971)">
<g opacity="0.55">
<mask id="mask1_287_971" style="mask-type:luminance" maskUnits="userSpaceOnUse" x="-93" y="-17" width="1116" height="889">
<path d="M464.56 872C772.458 872 1022.06 672.991 1022.06 427.5C1022.06 182.009 772.458 -17 464.56 -17C156.661 -17 -92.9404 182.009 -92.9404 427.5C-92.9404 672.991 156.661 872 464.56 872Z" fill="white"/>
</mask>
<g mask="url(#mask1_287_971)">
<path d="M-616.19 384.1C-585.31 290.26 -363.76 195.1 78.08 8.58997C78.08 8.58997 297.43 -104.51 570.02 -70.55C575.07 -69.92 580.53 -69.05 583.91 -65.98C589.64 -60.77 586.2 -52.66 582.09 -46.56C536.71 20.83 445.69 58.96 359.88 93.17C213.22 151.64 66.5599 210.11 -80.11 268.57C-106.01 278.9 -132.58 289.62 -151.8 306.89C-171.02 324.16 -181.4 349.75 -169.64 370.85C-157.72 392.24 -127.07 403.06 -97.97 406.16C8.22998 417.48 100.81 354.02 184.83 301.02C393.72 169.25 639.05 80.02 884.07 -3.28003C894.97 -6.98003 907.33 -10.71 918.28 -7.12003C932.9 -2.34003 936.96 12.6 936.71 25.19C935.46 87.84 878.5 142.4 811.24 174.8C743.98 207.2 666.33 222.38 592.04 242.8C498.6 268.48 409.36 302.88 320.38 337.19C243.15 366.97 165.8 396.8 92.1299 431.85C9.98993 470.93 -76.03 529.95 -70.36 606.09C-69.6 616.3 -66.94 626.78 -59.46 635.1C-34.52 662.85 19.7799 649.62 57.5599 633.54C208.62 569.25 357.8 501.01 493.08 417.31C572.96 367.89 647.82 313.19 731.36 267.77C814.9 222.35 909.23 186 1009.97 179.15C1012.63 246.18 937.51 297.13 867.07 333.77C615.88 464.43 326.39 557.64 126.34 735.8C85.96 771.76 48.49 813.37 42.21 861.37C41.2 869.12 41.1699 877.42 46.1799 884.1C58.9399 901.11 91.2 895.79 113.87 887.66C266.78 832.84 399.8 748.95 534.69 669.57C724.5 557.87 921.04 453.66 1117.48 349.5C1122.43 346.88 1127.92 344.14 1133.83 344.62C1148.4 345.81 1149.34 362.69 1144.25 373.64C1127.33 410.01 1092.42 438.89 1058.43 466.64C1012.19 504.37 965.94 542.09 919.68 579.81C810.04 669.22 699.81 759.03 573.99 833.68C448.17 908.33 305.01 967.79 150.41 988.82C78.37 998.62 4.95996 999.97 -68.1201 999.94C-131.6 999.91 -196.45 998.66 -256.14 981.41C-362.05 950.81 -422.37 888.47 -473.64 835.33C-551.36 754.79 -584.14 677.16 -597.1 641.29C-608.48 609.78 -651.38 491.07 -616.19 384.11V384.1Z" fill="url(#paint2_linear_287_971)"/>
</g>
</g>
</g>
<path d="M130.06 356C109.38 366.89 75.2501 388.36 46.0601 427C33.5201 443.6 1.59013 485.4 0.0601349 537C-2.08987 609.49 53.9801 662.98 77.0601 685C210.39 812.2 514.12 815.71 752.06 699C803.61 673.71 1034.17 560.53 1068.06 358C1072.97 328.63 1082.75 261.17 1044.06 201C998.25 129.76 901.28 95.13 793.06 108C803.8 118.28 815.4 130.56 827.06 145C838.72 159.43 848.27 173.35 856.06 186C867.41 190.28 885.24 199.05 898.06 217C920.5 248.42 912.78 287.26 909.06 306C897.05 366.45 830.03 466.37 694.06 539C481.71 652.43 278.57 604.51 203.06 571C177.48 559.65 122.85 535.41 118.06 493C115.83 473.27 125.11 456.16 132.06 446C130.62 433.93 129.55 420.9 129.06 407C128.41 388.54 128.91 371.46 130.06 356Z" fill="url(#paint3_radial_287_971)"/>
<defs>
<radialGradient id="paint0_radial_287_971" cx="0" cy="0" r="1" gradientUnits="userSpaceOnUse" gradientTransform="translate(521.06 393) scale(392.5)">
<stop stop-color="white" stop-opacity="0"/>
<stop offset="1" stop-color="#F15A24"/>
</radialGradient>
<linearGradient id="paint1_linear_287_971" x1="1134.46" y1="-169.49" x2="303.7" y2="592.26" gradientUnits="userSpaceOnUse">
<stop stop-color="white" stop-opacity="0"/>
<stop offset="1" stop-color="#F15A24"/>
</linearGradient>
<linearGradient id="paint2_linear_287_971" x1="1067.11" y1="-326.33" x2="-191.2" y2="777.18" gradientUnits="userSpaceOnUse">
<stop stop-color="#C1272D" stop-opacity="0"/>
<stop offset="1" stop-color="#C1272D" stop-opacity="0.7"/>
</linearGradient>
<radialGradient id="paint3_radial_287_971" cx="0" cy="0" r="1" gradientUnits="userSpaceOnUse" gradientTransform="translate(536.534 420.44) rotate(-19.24) scale(543.72 271.86)">
<stop offset="0.74" stop-color="#FFB56F" stop-opacity="0.9"/>
<stop offset="0.79" stop-color="#FFB56F" stop-opacity="0.88"/>
<stop offset="0.84" stop-color="#FFB86F" stop-opacity="0.83"/>
<stop offset="0.9" stop-color="#FFBD6F" stop-opacity="0.73"/>
<stop offset="0.96" stop-color="#FFC36F" stop-opacity="0.61"/>
<stop offset="1" stop-color="#FFC96F" stop-opacity="0.5"/>
</radialGradient>
</defs>
</svg>
